<svg width="1430" height="884" viewBox="0 0 1430 884" fill="none" xmlns="http://www.w3.org/2000/svg">
<g clip-path="url(#clip0_33_678)">
<rect width="1430" height="884" fill="white"/>
<g filter="url(#filter0_d_33_678)">
<rect width="1078.27" height="606.528" transform="translate(175.864 -180.7)" fill="white"/>
<path d="M462.967 398.708V397.612H464.398V389.582H462.967V388.486H468.092C468.686 388.486 469.211 388.593 469.669 388.808C470.136 389.022 470.496 389.324 470.749 389.713C471.012 390.093 471.143 390.54 471.143 391.056V391.173C471.143 391.65 471.051 392.044 470.866 392.356C470.681 392.658 470.462 392.896 470.209 393.071C469.956 393.237 469.708 393.358 469.464 393.436V393.641C469.708 393.699 469.961 393.816 470.224 393.991C470.486 394.157 470.705 394.395 470.881 394.707C471.066 395.018 471.158 395.412 471.158 395.889V396.035C471.158 396.59 471.022 397.072 470.749 397.481C470.486 397.88 470.121 398.187 469.654 398.401C469.197 398.605 468.671 398.708 468.077 398.708H462.967ZM465.624 397.598H467.946C468.588 397.598 469.08 397.447 469.42 397.145C469.761 396.843 469.932 396.435 469.932 395.919V395.787C469.932 395.271 469.761 394.862 469.42 394.561C469.08 394.259 468.588 394.108 467.946 394.108H465.624V397.598ZM465.624 392.998H467.99C468.574 392.998 469.041 392.852 469.391 392.56C469.742 392.258 469.917 391.864 469.917 391.378V391.231C469.917 390.735 469.742 390.341 469.391 390.049C469.051 389.747 468.583 389.596 467.99 389.596H465.624V392.998ZM473.146 398.708V391.567H474.27V392.443H474.475C474.601 392.132 474.796 391.903 475.059 391.757C475.321 391.611 475.667 391.538 476.095 391.538H476.942V392.589H476.022C475.506 392.589 475.088 392.735 474.767 393.027C474.455 393.31 474.299 393.753 474.299 394.356V398.708H473.146ZM480.598 398.912C480.101 398.912 479.649 398.824 479.24 398.649C478.831 398.474 478.51 398.221 478.276 397.89C478.042 397.559 477.926 397.155 477.926 396.678C477.926 396.191 478.042 395.792 478.276 395.481C478.51 395.159 478.831 394.921 479.24 394.765C479.649 394.6 480.106 394.517 480.612 394.517H483.022V393.991C483.022 393.485 482.871 393.086 482.569 392.794C482.277 392.502 481.839 392.356 481.255 392.356C480.68 392.356 480.233 392.497 479.911 392.779C479.59 393.052 479.371 393.422 479.254 393.889L478.174 393.539C478.291 393.139 478.476 392.779 478.729 392.458C478.982 392.127 479.318 391.864 479.736 391.67C480.165 391.465 480.676 391.363 481.269 391.363C482.184 391.363 482.895 391.601 483.401 392.078C483.907 392.546 484.161 393.208 484.161 394.064V397.291C484.161 397.583 484.297 397.729 484.569 397.729H485.226V398.708H484.219C483.898 398.708 483.64 398.62 483.445 398.445C483.25 398.26 483.153 398.016 483.153 397.715V397.642H482.978C482.871 397.827 482.725 398.021 482.54 398.226C482.365 398.42 482.121 398.581 481.81 398.708C481.498 398.844 481.094 398.912 480.598 398.912ZM480.729 397.919C481.411 397.919 481.961 397.719 482.379 397.32C482.807 396.912 483.022 396.342 483.022 395.612V395.451H480.656C480.199 395.451 479.819 395.554 479.517 395.758C479.225 395.953 479.079 396.25 479.079 396.649C479.079 397.048 479.23 397.359 479.532 397.583C479.843 397.807 480.242 397.919 480.729 397.919ZM486.806 398.708V391.567H487.931V392.779H488.135C488.291 392.439 488.554 392.132 488.924 391.859C489.303 391.577 489.858 391.436 490.588 391.436C491.123 391.436 491.6 391.548 492.019 391.772C492.447 391.996 492.788 392.327 493.041 392.765C493.294 393.203 493.421 393.743 493.421 394.385V398.708H492.267V394.473C492.267 393.762 492.087 393.247 491.727 392.925C491.377 392.604 490.9 392.443 490.296 392.443C489.605 392.443 489.04 392.667 488.602 393.115C488.174 393.563 487.96 394.23 487.96 395.116V398.708H486.806ZM498.784 398.912C498.17 398.912 497.606 398.766 497.09 398.474C496.574 398.182 496.165 397.758 495.863 397.204C495.562 396.649 495.411 395.992 495.411 395.232V395.043C495.411 394.283 495.562 393.631 495.863 393.086C496.165 392.531 496.569 392.108 497.075 391.816C497.591 391.514 498.161 391.363 498.784 391.363C499.28 391.363 499.699 391.431 500.039 391.567C500.39 391.694 500.672 391.859 500.886 392.064C501.101 392.258 501.266 392.468 501.383 392.692H501.587V388.486H502.741V398.708H501.616V397.525H501.412C501.217 397.885 500.916 398.206 500.507 398.488C500.098 398.771 499.524 398.912 498.784 398.912ZM499.09 397.89C499.83 397.89 500.429 397.656 500.886 397.189C501.354 396.712 501.587 396.05 501.587 395.203V395.072C501.587 394.225 501.354 393.568 500.886 393.101C500.429 392.624 499.83 392.385 499.09 392.385C498.36 392.385 497.757 392.624 497.28 393.101C496.812 393.568 496.579 394.225 496.579 395.072V395.203C496.579 396.05 496.812 396.712 497.28 397.189C497.757 397.656 498.36 397.89 499.09 397.89ZM508.558 395.174V394.97C508.558 394.22 508.709 393.577 509.011 393.042C509.312 392.507 509.721 392.093 510.237 391.801C510.753 391.509 511.318 391.363 511.931 391.363C512.68 391.363 513.255 391.509 513.654 391.801C514.063 392.083 514.364 392.4 514.559 392.75H514.764V391.567H515.859V400.372C515.859 400.761 515.752 401.068 515.537 401.292C515.323 401.516 515.012 401.628 514.603 401.628H509.755V400.606H514.296C514.588 400.606 514.734 400.46 514.734 400.168V397.452H514.53C514.413 397.666 514.248 397.875 514.033 398.08C513.819 398.284 513.542 398.454 513.201 398.591C512.86 398.717 512.437 398.781 511.931 398.781C511.318 398.781 510.753 398.635 510.237 398.342C509.721 398.05 509.312 397.637 509.011 397.101C508.709 396.556 508.558 395.914 508.558 395.174ZM512.237 397.758C512.977 397.758 513.576 397.525 514.033 397.058C514.501 396.59 514.734 395.948 514.734 395.13V395.013C514.734 394.186 514.501 393.543 514.033 393.086C513.576 392.619 512.977 392.385 512.237 392.385C511.507 392.385 510.904 392.619 510.427 393.086C509.96 393.543 509.726 394.186 509.726 395.013V395.13C509.726 395.948 509.96 396.59 510.427 397.058C510.904 397.525 511.507 397.758 512.237 397.758ZM521.007 398.839C520.491 398.839 520.014 398.727 519.576 398.503C519.148 398.279 518.807 397.948 518.554 397.51C518.311 397.062 518.189 396.522 518.189 395.889V391.567H519.343V395.802C519.343 396.512 519.518 397.028 519.868 397.35C520.228 397.671 520.71 397.831 521.314 397.831C521.995 397.831 522.555 397.608 522.993 397.16C523.431 396.712 523.65 396.045 523.65 395.159V391.567H524.804V398.708H523.679V397.496H523.475C523.319 397.836 523.051 398.148 522.672 398.43C522.292 398.703 521.737 398.839 521.007 398.839ZM527.217 398.708V391.567H528.371V398.708H527.217ZM527.801 390.458C527.548 390.458 527.334 390.375 527.159 390.209C526.993 390.044 526.911 389.835 526.911 389.582C526.911 389.319 526.993 389.105 527.159 388.939C527.334 388.774 527.548 388.691 527.801 388.691C528.055 388.691 528.264 388.774 528.429 388.939C528.595 389.105 528.678 389.319 528.678 389.582C528.678 389.835 528.595 390.044 528.429 390.209C528.264 390.375 528.055 390.458 527.801 390.458ZM533.819 398.912C533.206 398.912 532.641 398.766 532.125 398.474C531.609 398.182 531.2 397.758 530.899 397.204C530.597 396.649 530.446 395.992 530.446 395.232V395.043C530.446 394.283 530.597 393.631 530.899 393.086C531.2 392.531 531.604 392.108 532.111 391.816C532.627 391.514 533.196 391.363 533.819 391.363C534.315 391.363 534.734 391.431 535.075 391.567C535.425 391.694 535.707 391.859 535.922 392.064C536.136 392.258 536.301 392.468 536.418 392.692H536.623V388.486H537.776V398.708H536.652V397.525H536.447C536.253 397.885 535.951 398.206 535.542 398.488C535.133 398.771 534.559 398.912 533.819 398.912ZM534.126 397.89C534.865 397.89 535.464 397.656 535.922 397.189C536.389 396.712 536.623 396.05 536.623 395.203V395.072C536.623 394.225 536.389 393.568 535.922 393.101C535.464 392.624 534.865 392.385 534.126 392.385C533.396 392.385 532.792 392.624 532.315 393.101C531.848 393.568 531.614 394.225 531.614 395.072V395.203C531.614 396.05 531.848 396.712 532.315 397.189C532.792 397.656 533.396 397.89 534.126 397.89ZM543.464 398.912C542.744 398.912 542.111 398.761 541.566 398.459C541.021 398.148 540.597 397.715 540.296 397.16C539.994 396.605 539.843 395.962 539.843 395.232V395.057C539.843 394.317 539.994 393.67 540.296 393.115C540.597 392.56 541.016 392.132 541.551 391.83C542.087 391.519 542.7 391.363 543.391 391.363C544.063 391.363 544.657 391.509 545.173 391.801C545.688 392.083 546.092 392.492 546.384 393.027C546.677 393.563 546.823 394.191 546.823 394.911V395.437H540.996C541.026 396.206 541.274 396.809 541.741 397.247C542.208 397.676 542.792 397.89 543.493 397.89C544.107 397.89 544.579 397.749 544.91 397.466C545.241 397.184 545.494 396.848 545.669 396.459L546.662 396.941C546.516 397.242 546.311 397.544 546.049 397.846C545.796 398.148 545.46 398.401 545.041 398.605C544.632 398.81 544.107 398.912 543.464 398.912ZM541.011 394.488H545.654C545.615 393.826 545.387 393.31 544.968 392.94C544.559 392.57 544.034 392.385 543.391 392.385C542.739 392.385 542.204 392.57 541.785 392.94C541.366 393.31 541.108 393.826 541.011 394.488ZM548.835 398.708V388.486H549.988V398.708H548.835ZM552.414 398.708V391.567H553.567V398.708H552.414ZM552.998 390.458C552.745 390.458 552.531 390.375 552.355 390.209C552.19 390.044 552.107 389.835 552.107 389.582C552.107 389.319 552.19 389.105 552.355 388.939C552.531 388.774 552.745 388.691 552.998 388.691C553.251 388.691 553.46 388.774 553.626 388.939C553.791 389.105 553.874 389.319 553.874 389.582C553.874 389.835 553.791 390.044 553.626 390.209C553.46 390.375 553.251 390.458 552.998 390.458ZM555.993 398.708V391.567H557.117V392.779H557.322C557.477 392.439 557.74 392.132 558.11 391.859C558.49 391.577 559.045 391.436 559.775 391.436C560.31 391.436 560.787 391.548 561.206 391.772C561.634 391.996 561.975 392.327 562.228 392.765C562.481 393.203 562.607 393.743 562.607 394.385V398.708H561.454V394.473C561.454 393.762 561.274 393.247 560.914 392.925C560.563 392.604 560.086 392.443 559.483 392.443C558.791 392.443 558.227 392.667 557.789 393.115C557.36 393.563 557.146 394.23 557.146 395.116V398.708H555.993ZM568.218 398.912C567.498 398.912 566.865 398.761 566.32 398.459C565.775 398.148 565.352 397.715 565.05 397.16C564.748 396.605 564.597 395.962 564.597 395.232V395.057C564.597 394.317 564.748 393.67 565.05 393.115C565.352 392.56 565.77 392.132 566.306 391.83C566.841 391.519 567.454 391.363 568.145 391.363C568.817 391.363 569.411 391.509 569.927 391.801C570.443 392.083 570.847 392.492 571.139 393.027C571.431 393.563 571.577 394.191 571.577 394.911V395.437H565.751C565.78 396.206 566.028 396.809 566.495 397.247C566.963 397.676 567.547 397.89 568.248 397.89C568.861 397.89 569.333 397.749 569.664 397.466C569.995 397.184 570.248 396.848 570.423 396.459L571.416 396.941C571.27 397.242 571.066 397.544 570.803 397.846C570.55 398.148 570.214 398.401 569.795 398.605C569.387 398.81 568.861 398.912 568.218 398.912ZM565.765 394.488H570.409C570.37 393.826 570.141 393.31 569.722 392.94C569.314 392.57 568.788 392.385 568.145 392.385C567.493 392.385 566.958 392.57 566.539 392.94C566.121 393.31 565.863 393.826 565.765 394.488ZM576.465 398.912C575.58 398.912 574.83 398.708 574.217 398.299C573.613 397.89 573.248 397.242 573.122 396.357L574.217 396.108C574.295 396.576 574.441 396.946 574.655 397.218C574.869 397.481 575.132 397.671 575.443 397.788C575.765 397.895 576.105 397.948 576.465 397.948C577.001 397.948 577.424 397.841 577.736 397.627C578.047 397.413 578.203 397.126 578.203 396.766C578.203 396.396 578.052 396.138 577.75 395.992C577.458 395.836 577.054 395.709 576.538 395.612L575.94 395.51C575.482 395.432 575.064 395.31 574.684 395.145C574.304 394.979 574.003 394.755 573.779 394.473C573.555 394.191 573.443 393.835 573.443 393.407C573.443 392.765 573.691 392.263 574.188 391.903C574.684 391.543 575.341 391.363 576.159 391.363C576.967 391.363 577.619 391.548 578.115 391.918C578.622 392.278 578.948 392.789 579.094 393.451L578.013 393.728C577.926 393.212 577.716 392.852 577.385 392.648C577.054 392.434 576.645 392.327 576.159 392.327C575.672 392.327 575.288 392.419 575.005 392.604C574.723 392.779 574.582 393.042 574.582 393.393C574.582 393.733 574.713 393.986 574.976 394.152C575.249 394.308 575.609 394.424 576.057 394.502L576.655 394.604C577.161 394.692 577.614 394.814 578.013 394.97C578.422 395.116 578.743 395.33 578.977 395.612C579.22 395.894 579.342 396.264 579.342 396.722C579.342 397.423 579.079 397.963 578.553 398.342C578.037 398.722 577.341 398.912 576.465 398.912Z" fill="#2B2B2B"/>
<path d="M1222.36 398.235C1221.82 398.235 1221.34 398.13 1220.91 397.92C1220.49 397.703 1220.16 397.396 1219.91 396.999C1219.67 396.602 1219.55 396.131 1219.55 395.584V392.843C1219.55 392.252 1219.67 391.75 1219.9 391.338C1220.13 390.926 1220.46 390.612 1220.88 390.395C1221.3 390.17 1221.81 390.058 1222.39 390.058C1222.97 390.058 1223.46 390.163 1223.87 390.372C1224.28 390.575 1224.59 390.855 1224.8 391.215C1225.01 391.567 1225.12 391.975 1225.12 392.439H1224.2C1224.2 391.975 1224.05 391.6 1223.75 391.316C1223.45 391.024 1223 390.878 1222.39 390.878C1221.78 390.878 1221.3 391.046 1220.97 391.383C1220.63 391.713 1220.46 392.169 1220.46 392.754V393.843H1220.62C1220.75 393.618 1220.98 393.412 1221.29 393.225C1221.61 393.031 1222.05 392.933 1222.61 392.933C1223.08 392.933 1223.51 393.038 1223.9 393.248C1224.29 393.457 1224.6 393.753 1224.83 394.135C1225.06 394.517 1225.18 394.97 1225.18 395.494V395.629C1225.18 396.161 1225.06 396.621 1224.81 397.01C1224.57 397.4 1224.24 397.703 1223.81 397.92C1223.38 398.13 1222.9 398.235 1222.36 398.235ZM1222.36 397.415C1222.93 397.415 1223.39 397.254 1223.74 396.932C1224.09 396.61 1224.27 396.172 1224.27 395.618V395.528C1224.27 395.153 1224.19 394.831 1224.02 394.562C1223.87 394.292 1223.64 394.083 1223.36 393.933C1223.08 393.776 1222.74 393.697 1222.36 393.697C1221.99 393.697 1221.66 393.776 1221.37 393.933C1221.09 394.083 1220.86 394.292 1220.7 394.562C1220.54 394.831 1220.46 395.153 1220.46 395.528V395.618C1220.46 396.172 1220.64 396.61 1220.99 396.932C1221.34 397.254 1221.8 397.415 1222.36 397.415Z" fill="#111111"/>
<path d="M215.444 375.532L218.314 373.84L216.011 372.476L211.988 374.85V379.598L214.292 380.953V377.579L218.881 380.28L213.14 383.673L207.399 380.28L209.118 379.271V376.542L203.943 379.598V390.459L210.836 394.525L207.966 396.216L210.27 397.581L214.292 395.207V390.45L211.988 389.085V392.487L206.247 389.094V382.318L213.14 386.393L220.033 382.327V389.094L217.153 390.795V393.515L222.337 390.459V379.598L215.444 375.532Z" fill="#111111"/>
<path d="M985.358 127.386V231.857L934.332 261.256V235.093L962.59 218.73V153.548L894.736 192.658L826.883 153.548V218.73L869.989 243.634C870.259 243.904 892.216 256.581 906.075 264.583V277.529L895.096 283.912L853.61 260.357L853.25 260.177L804.295 231.857V127.386L855.23 97.9864V124.149L838.312 133.949L894.826 166.495L951.341 133.949L910.755 110.573C910.755 110.573 910.665 110.483 910.575 110.483C908.955 109.404 895.456 101.673 883.487 94.7498V81.7134L894.826 75.1502L917.504 88.2765L985.358 127.386Z" fill="#111111"/>
<path d="M910.575 110.483L906.165 107.966V140.512L883.487 127.385V94.7496C895.546 101.672 908.955 109.404 910.575 110.483Z" fill="#E1E1E1"/>
<path d="M945.76 72.0033L917.503 88.2764L894.825 75.1501L923.082 58.877L945.76 72.0033Z" fill="#E1E1E1"/>
<path d="M906.165 231.766V264.582C892.396 256.58 870.348 243.904 870.078 243.634L883.397 251.366V218.64L905.895 231.676L906.165 231.766Z" fill="#E1E1E1"/>
<path d="M895.186 283.912L866.568 300.365L843.891 287.239L872.148 270.966L853.7 260.357L895.186 283.912Z" fill="#E1E1E1"/>
<path d="M564.151 264.582V277.529L553.172 283.912L511.686 260.357L511.326 260.177L462.28 231.856V127.385L513.215 97.9862V124.149L496.297 133.859H496.387L484.958 140.602V218.73L528.064 243.634C528.334 243.904 550.292 256.581 564.151 264.582Z" fill="#111111"/>
<path d="M643.344 127.386V231.857L592.319 261.256V235.094L620.666 218.731V156.606V140.422L595.918 126.217L595.828 126.127L568.741 110.484C568.741 110.484 568.651 110.394 568.561 110.394C566.941 109.315 553.442 101.583 541.474 94.6602V81.7137L552.813 75.1505L575.49 88.2768L643.344 127.386Z" fill="#111111"/>
<path d="M568.561 110.483L564.151 107.966V140.512L541.474 127.385V94.7496C553.442 101.672 566.941 109.404 568.561 110.483Z" fill="#111111"/>
<path d="M603.746 72.0033L575.488 88.2764L552.811 75.1501L580.978 58.877L603.746 72.0033Z" fill="#111111"/>
<path d="M564.151 231.766V264.582C550.382 256.58 528.334 243.904 528.064 243.634L541.383 251.366V218.64L563.881 231.676L564.151 231.766Z" fill="#111111"/>
<path d="M553.081 283.912L524.554 300.365L501.786 287.239L530.043 270.966L511.595 260.357L553.081 283.912Z" fill="#111111"/>
<path d="M620.575 140.422V153.638L615.265 156.695L552.811 192.747L503.946 164.607L484.958 153.548V140.602L496.297 133.949L507.546 140.422L552.811 166.585L595.737 141.771L609.236 133.949L595.917 126.217L620.575 140.422Z" fill="#E1E1E1"/>
<path d="M886.487 345.112V342.955H888.599V331.543H886.487V329.387H894.462C895.406 329.387 896.229 329.552 896.933 329.881C897.637 330.195 898.184 330.652 898.573 331.251C898.977 331.835 899.18 332.532 899.18 333.34V333.565C899.18 334.284 899.045 334.875 898.775 335.34C898.506 335.804 898.176 336.163 897.787 336.418C897.412 336.673 897.053 336.852 896.709 336.957V337.317C897.053 337.406 897.42 337.586 897.809 337.856C898.214 338.11 898.551 338.47 898.82 338.934C899.105 339.398 899.247 340.005 899.247 340.754V340.978C899.247 341.847 899.045 342.588 898.64 343.202C898.236 343.816 897.675 344.288 896.956 344.617C896.252 344.947 895.436 345.112 894.507 345.112H886.487ZM891.048 342.91H894.215C895.024 342.91 895.66 342.715 896.125 342.326C896.589 341.937 896.821 341.398 896.821 340.709V340.506C896.821 339.818 896.589 339.278 896.125 338.889C895.675 338.5 895.039 338.305 894.215 338.305H891.048V342.91ZM891.048 336.081H894.215C894.979 336.081 895.593 335.894 896.057 335.519C896.521 335.13 896.753 334.606 896.753 333.947V333.722C896.753 333.063 896.521 332.547 896.057 332.172C895.608 331.783 894.994 331.588 894.215 331.588H891.048V336.081ZM907.224 345.426C906.115 345.426 905.127 345.201 904.258 344.752C903.405 344.288 902.731 343.629 902.237 342.775C901.742 341.922 901.495 340.911 901.495 339.743V339.406C901.495 338.238 901.742 337.234 902.237 336.396C902.731 335.542 903.405 334.883 904.258 334.419C905.127 333.954 906.115 333.722 907.224 333.722C908.332 333.722 909.32 333.954 910.189 334.419C911.058 334.883 911.739 335.542 912.233 336.396C912.727 337.234 912.974 338.238 912.974 339.406V339.743C912.974 340.911 912.727 341.922 912.233 342.775C911.739 343.629 911.058 344.288 910.189 344.752C909.32 345.201 908.332 345.426 907.224 345.426ZM907.224 343.359C908.242 343.359 909.066 343.037 909.695 342.393C910.339 341.734 910.661 340.828 910.661 339.675V339.473C910.661 338.32 910.346 337.421 909.717 336.777C909.088 336.118 908.257 335.789 907.224 335.789C906.22 335.789 905.397 336.118 904.753 336.777C904.124 337.421 903.809 338.32 903.809 339.473V339.675C903.809 340.828 904.124 341.734 904.753 342.393C905.397 343.037 906.22 343.359 907.224 343.359ZM914.188 345.112L918.411 339.518L914.278 334.037H916.996L919.894 338.013H920.253L923.151 334.037H925.891L921.736 339.518L925.959 345.112H923.196L920.253 341.046H919.894L916.951 345.112H914.188Z" fill="#2B2B2B"/>
<path d="M541.418 345.426C540.235 345.426 539.187 345.216 538.273 344.797C537.359 344.378 536.641 343.764 536.116 342.955C535.607 342.131 535.353 341.135 535.353 339.967V339.406H537.756V339.967C537.756 341.076 538.086 341.907 538.745 342.461C539.419 343.015 540.31 343.292 541.418 343.292C542.541 343.292 543.387 343.06 543.956 342.596C544.525 342.116 544.81 341.502 544.81 340.754C544.81 340.259 544.675 339.855 544.406 339.54C544.136 339.226 543.754 338.979 543.26 338.799C542.766 338.604 542.174 338.425 541.485 338.26L540.654 338.058C539.651 337.818 538.775 337.526 538.026 337.182C537.292 336.822 536.723 336.351 536.319 335.767C535.914 335.182 535.712 334.434 535.712 333.52C535.712 332.592 535.937 331.798 536.386 331.139C536.85 330.48 537.487 329.971 538.295 329.611C539.104 329.252 540.055 329.072 541.148 329.072C542.242 329.072 543.215 329.259 544.069 329.634C544.937 330.008 545.619 330.562 546.113 331.296C546.607 332.03 546.854 332.951 546.854 334.059V334.868H544.451V334.059C544.451 333.385 544.308 332.839 544.024 332.419C543.754 332 543.372 331.693 542.878 331.498C542.384 331.304 541.807 331.206 541.148 331.206C540.19 331.206 539.441 331.409 538.902 331.813C538.378 332.202 538.116 332.749 538.116 333.453C538.116 333.932 538.228 334.329 538.453 334.643C538.692 334.943 539.037 335.19 539.486 335.385C539.935 335.579 540.497 335.752 541.171 335.901L542.002 336.104C543.02 336.328 543.919 336.62 544.698 336.98C545.476 337.324 546.09 337.796 546.54 338.395C546.989 338.994 547.214 339.765 547.214 340.709C547.214 341.652 546.974 342.476 546.495 343.18C546.031 343.884 545.364 344.438 544.496 344.842C543.627 345.231 542.601 345.426 541.418 345.426ZM551.041 345.112L549.154 334.037H551.468L552.861 343.562H553.22L555.152 334.037H558.903L560.813 343.562H561.172L562.565 334.037H564.879L562.992 345.112H559.106L557.196 335.609H556.837L554.927 345.112H551.041ZM570.968 345.426C570.175 345.426 569.463 345.291 568.834 345.022C568.22 344.752 567.726 344.355 567.352 343.831C566.992 343.307 566.813 342.67 566.813 341.922C566.813 341.158 566.992 340.529 567.352 340.035C567.726 339.526 568.228 339.144 568.857 338.889C569.501 338.634 570.227 338.507 571.036 338.507H574.405V337.788C574.405 337.144 574.211 336.628 573.821 336.238C573.432 335.849 572.833 335.654 572.024 335.654C571.231 335.654 570.624 335.841 570.205 336.216C569.785 336.59 569.508 337.077 569.374 337.676L567.217 336.98C567.397 336.381 567.681 335.841 568.071 335.362C568.475 334.868 569.007 334.471 569.666 334.172C570.324 333.872 571.118 333.722 572.047 333.722C573.484 333.722 574.615 334.089 575.439 334.823C576.262 335.557 576.674 336.598 576.674 337.946V342.506C576.674 342.955 576.884 343.18 577.303 343.18H578.247V345.112H576.517C575.993 345.112 575.566 344.977 575.237 344.707C574.907 344.438 574.742 344.071 574.742 343.606V343.539H574.405C574.286 343.764 574.106 344.026 573.866 344.325C573.627 344.625 573.275 344.887 572.811 345.112C572.346 345.321 571.732 345.426 570.968 345.426ZM571.305 343.517C572.234 343.517 572.983 343.255 573.552 342.73C574.121 342.191 574.405 341.457 574.405 340.529V340.304H571.171C570.557 340.304 570.062 340.439 569.688 340.709C569.314 340.963 569.126 341.345 569.126 341.854C569.126 342.363 569.321 342.768 569.71 343.067C570.1 343.367 570.632 343.517 571.305 343.517ZM580.497 349.604V334.037H582.765V335.632H583.125C583.409 335.138 583.836 334.696 584.405 334.306C584.989 333.917 585.821 333.722 586.899 333.722C587.827 333.722 588.673 333.947 589.437 334.396C590.216 334.846 590.837 335.497 591.302 336.351C591.781 337.189 592.021 338.208 592.021 339.406V339.743C592.021 340.941 591.788 341.967 591.324 342.82C590.86 343.659 590.238 344.303 589.46 344.752C588.681 345.201 587.827 345.426 586.899 345.426C586.18 345.426 585.573 345.336 585.079 345.157C584.585 344.977 584.188 344.752 583.889 344.483C583.589 344.198 583.349 343.906 583.17 343.606H582.81V349.604H580.497ZM586.225 343.404C587.243 343.404 588.074 343.082 588.718 342.438C589.362 341.794 589.684 340.873 589.684 339.675V339.473C589.684 338.29 589.355 337.376 588.696 336.732C588.052 336.089 587.228 335.767 586.225 335.767C585.236 335.767 584.413 336.089 583.754 336.732C583.11 337.376 582.788 338.29 582.788 339.473V339.675C582.788 340.873 583.11 341.794 583.754 342.438C584.413 343.082 585.236 343.404 586.225 343.404Z" fill="#2B2B2B"/>
</g>
<g filter="url(#filter1_d_33_678)">
<rect width="1078.27" height="606.528" transform="translate(175.864 505.7)" fill="white"/>
<path d="M207.389 548.78L204.308 538.559H205.579L208.368 548.035H208.557L211.346 538.559H212.617L209.536 548.78H207.389ZM214.196 548.78V541.64H215.349V548.78H214.196ZM214.78 540.53C214.527 540.53 214.313 540.447 214.137 540.282C213.972 540.116 213.889 539.907 213.889 539.654C213.889 539.391 213.972 539.177 214.137 539.011C214.313 538.846 214.527 538.763 214.78 538.763C215.033 538.763 215.242 538.846 215.408 539.011C215.573 539.177 215.656 539.391 215.656 539.654C215.656 539.907 215.573 540.116 215.408 540.282C215.242 540.447 215.033 540.53 214.78 540.53ZM220.651 548.984C219.766 548.984 219.016 548.78 218.403 548.371C217.799 547.962 217.434 547.315 217.308 546.429L218.403 546.181C218.481 546.648 218.627 547.018 218.841 547.291C219.055 547.553 219.318 547.743 219.629 547.86C219.95 547.967 220.291 548.021 220.651 548.021C221.187 548.021 221.61 547.914 221.922 547.699C222.233 547.485 222.389 547.198 222.389 546.838C222.389 546.468 222.238 546.21 221.936 546.064C221.644 545.908 221.24 545.782 220.724 545.684L220.126 545.582C219.668 545.504 219.25 545.383 218.87 545.217C218.49 545.052 218.189 544.828 217.965 544.546C217.741 544.263 217.629 543.908 217.629 543.48C217.629 542.837 217.877 542.336 218.374 541.976C218.87 541.615 219.527 541.435 220.345 541.435C221.153 541.435 221.805 541.62 222.301 541.99C222.808 542.35 223.134 542.861 223.28 543.523L222.199 543.801C222.112 543.285 221.902 542.925 221.571 542.72C221.24 542.506 220.831 542.399 220.345 542.399C219.858 542.399 219.473 542.492 219.191 542.676C218.909 542.852 218.768 543.115 218.768 543.465C218.768 543.806 218.899 544.059 219.162 544.224C219.435 544.38 219.795 544.497 220.243 544.575L220.841 544.677C221.347 544.765 221.8 544.886 222.199 545.042C222.608 545.188 222.929 545.402 223.163 545.684C223.406 545.967 223.528 546.337 223.528 546.794C223.528 547.495 223.265 548.035 222.739 548.415C222.223 548.795 221.527 548.984 220.651 548.984ZM228.205 548.911C227.689 548.911 227.212 548.799 226.774 548.576C226.346 548.352 226.005 548.021 225.752 547.583C225.509 547.135 225.387 546.595 225.387 545.962V541.64H226.541V545.874C226.541 546.585 226.716 547.101 227.066 547.422C227.427 547.743 227.909 547.904 228.512 547.904C229.193 547.904 229.753 547.68 230.191 547.232C230.629 546.784 230.848 546.118 230.848 545.232V541.64H232.002V548.78H230.878V547.568H230.673C230.517 547.909 230.25 548.22 229.87 548.503C229.49 548.775 228.935 548.911 228.205 548.911ZM236.606 548.984C236.109 548.984 235.657 548.897 235.248 548.722C234.839 548.546 234.518 548.293 234.284 547.962C234.05 547.631 233.934 547.227 233.934 546.75C233.934 546.264 234.05 545.865 234.284 545.553C234.518 545.232 234.839 544.993 235.248 544.838C235.657 544.672 236.114 544.589 236.62 544.589H239.03V544.064C239.03 543.557 238.879 543.158 238.577 542.866C238.285 542.574 237.847 542.428 237.263 542.428C236.689 542.428 236.241 542.569 235.92 542.852C235.598 543.124 235.379 543.494 235.262 543.961L234.182 543.611C234.299 543.212 234.484 542.852 234.737 542.53C234.99 542.2 235.326 541.937 235.744 541.742C236.173 541.538 236.684 541.435 237.277 541.435C238.192 541.435 238.903 541.674 239.409 542.151C239.915 542.618 240.169 543.28 240.169 544.137V547.364C240.169 547.656 240.305 547.802 240.577 547.802H241.234V548.78H240.227C239.906 548.78 239.648 548.692 239.453 548.517C239.258 548.332 239.161 548.089 239.161 547.787V547.714H238.986C238.879 547.899 238.733 548.094 238.548 548.298C238.373 548.493 238.129 548.653 237.818 548.78C237.506 548.916 237.102 548.984 236.606 548.984ZM236.737 547.991C237.419 547.991 237.969 547.792 238.387 547.393C238.815 546.984 239.03 546.415 239.03 545.684V545.524H236.664C236.207 545.524 235.827 545.626 235.525 545.83C235.233 546.025 235.087 546.322 235.087 546.721C235.087 547.12 235.238 547.432 235.54 547.656C235.851 547.88 236.25 547.991 236.737 547.991ZM242.814 548.78V538.559H243.968V548.78H242.814ZM250.144 548.78V541.64H251.297V548.78H250.144ZM250.728 540.53C250.475 540.53 250.26 540.447 250.085 540.282C249.92 540.116 249.837 539.907 249.837 539.654C249.837 539.391 249.92 539.177 250.085 539.011C250.26 538.846 250.475 538.763 250.728 538.763C250.981 538.763 251.19 538.846 251.356 539.011C251.521 539.177 251.604 539.391 251.604 539.654C251.604 539.907 251.521 540.116 251.356 540.282C251.19 540.447 250.981 540.53 250.728 540.53ZM256.745 548.984C256.132 548.984 255.567 548.838 255.051 548.546C254.536 548.254 254.127 547.831 253.825 547.276C253.523 546.721 253.372 546.064 253.372 545.305V545.115C253.372 544.356 253.523 543.703 253.825 543.158C254.127 542.603 254.531 542.18 255.037 541.888C255.553 541.586 256.122 541.435 256.745 541.435C257.242 541.435 257.66 541.504 258.001 541.64C258.351 541.766 258.634 541.932 258.848 542.136C259.062 542.331 259.228 542.54 259.344 542.764H259.549V538.559H260.702V548.78H259.578V547.597H259.374C259.179 547.957 258.877 548.279 258.468 548.561C258.059 548.843 257.485 548.984 256.745 548.984ZM257.052 547.962C257.792 547.962 258.39 547.729 258.848 547.261C259.315 546.784 259.549 546.122 259.549 545.276V545.144C259.549 544.297 259.315 543.64 258.848 543.173C258.39 542.696 257.792 542.457 257.052 542.457C256.322 542.457 255.718 542.696 255.241 543.173C254.774 543.64 254.54 544.297 254.54 545.144V545.276C254.54 546.122 254.774 546.784 255.241 547.261C255.718 547.729 256.322 547.962 257.052 547.962ZM266.39 548.984C265.67 548.984 265.037 548.834 264.492 548.532C263.947 548.22 263.524 547.787 263.222 547.232C262.92 546.677 262.769 546.035 262.769 545.305V545.13C262.769 544.39 262.92 543.742 263.222 543.188C263.524 542.633 263.942 542.204 264.478 541.903C265.013 541.591 265.626 541.435 266.317 541.435C266.989 541.435 267.583 541.581 268.099 541.873C268.615 542.156 269.019 542.565 269.311 543.1C269.603 543.635 269.749 544.263 269.749 544.984V545.509H263.923C263.952 546.278 264.2 546.882 264.667 547.32C265.135 547.748 265.719 547.962 266.42 547.962C267.033 547.962 267.505 547.821 267.836 547.539C268.167 547.257 268.42 546.921 268.595 546.531L269.588 547.013C269.442 547.315 269.238 547.617 268.975 547.918C268.722 548.22 268.386 548.473 267.967 548.678C267.559 548.882 267.033 548.984 266.39 548.984ZM263.937 544.56H268.581C268.542 543.898 268.313 543.382 267.894 543.012C267.486 542.642 266.96 542.457 266.317 542.457C265.665 542.457 265.13 542.642 264.711 543.012C264.293 543.382 264.035 543.898 263.937 544.56ZM271.761 548.78V541.64H272.885V542.852H273.09C273.245 542.511 273.508 542.204 273.878 541.932C274.258 541.65 274.813 541.508 275.543 541.508C276.078 541.508 276.555 541.62 276.974 541.844C277.402 542.068 277.743 542.399 277.996 542.837C278.249 543.275 278.375 543.815 278.375 544.458V548.78H277.222V544.546C277.222 543.835 277.042 543.319 276.682 542.998C276.331 542.676 275.854 542.516 275.251 542.516C274.559 542.516 273.995 542.74 273.557 543.188C273.129 543.635 272.914 544.302 272.914 545.188V548.78H271.761ZM283.144 548.78C282.736 548.78 282.419 548.668 282.195 548.444C281.981 548.22 281.874 547.914 281.874 547.524V542.647H279.728V541.64H281.874V539.099H283.028V541.64H285.364V542.647H283.028V547.349C283.028 547.641 283.169 547.787 283.451 547.787H285.043V548.78H283.144ZM287.232 548.78V541.64H288.386V548.78H287.232ZM287.816 540.53C287.563 540.53 287.349 540.447 287.174 540.282C287.008 540.116 286.926 539.907 286.926 539.654C286.926 539.391 287.008 539.177 287.174 539.011C287.349 538.846 287.563 538.763 287.816 538.763C288.069 538.763 288.279 538.846 288.444 539.011C288.61 539.177 288.692 539.391 288.692 539.654C288.692 539.907 288.61 540.116 288.444 540.282C288.279 540.447 288.069 540.53 287.816 540.53ZM293.44 548.78C293.031 548.78 292.714 548.668 292.491 548.444C292.276 548.22 292.169 547.914 292.169 547.524V542.647H290.023V541.64H292.169V539.099H293.323V541.64H295.659V542.647H293.323V547.349C293.323 547.641 293.464 547.787 293.746 547.787H295.338V548.78H293.44ZM298.389 551.7V550.678H302.477C302.76 550.678 302.901 550.532 302.901 550.24V547.641H302.697C302.599 547.845 302.448 548.05 302.244 548.254C302.049 548.449 301.791 548.61 301.47 548.736C301.149 548.853 300.745 548.911 300.258 548.911C299.742 548.911 299.265 548.799 298.827 548.576C298.399 548.352 298.058 548.021 297.805 547.583C297.562 547.145 297.44 546.609 297.44 545.976V541.64H298.593V545.889C298.593 546.59 298.769 547.101 299.119 547.422C299.479 547.743 299.961 547.904 300.565 547.904C301.246 547.904 301.806 547.68 302.244 547.232C302.682 546.784 302.901 546.118 302.901 545.232V541.64H304.054V550.445C304.054 550.834 303.943 551.141 303.719 551.364C303.504 551.588 303.188 551.7 302.77 551.7H298.389Z" fill="#111111"/>
<path d="M463.447 548.78V538.559H464.674V547.67H469.843V548.78H463.447ZM474.705 548.984C473.985 548.984 473.347 548.834 472.792 548.532C472.247 548.23 471.819 547.807 471.507 547.261C471.206 546.707 471.055 546.054 471.055 545.305V545.115C471.055 544.375 471.206 543.728 471.507 543.173C471.819 542.618 472.247 542.19 472.792 541.888C473.347 541.586 473.985 541.435 474.705 541.435C475.425 541.435 476.058 541.586 476.603 541.888C477.158 542.19 477.587 542.618 477.888 543.173C478.2 543.728 478.356 544.375 478.356 545.115V545.305C478.356 546.054 478.2 546.707 477.888 547.261C477.587 547.807 477.158 548.23 476.603 548.532C476.058 548.834 475.425 548.984 474.705 548.984ZM474.705 547.948C475.464 547.948 476.068 547.709 476.516 547.232C476.973 546.745 477.202 546.093 477.202 545.276V545.144C477.202 544.326 476.973 543.679 476.516 543.202C476.068 542.715 475.464 542.472 474.705 542.472C473.956 542.472 473.352 542.715 472.895 543.202C472.437 543.679 472.208 544.326 472.208 545.144V545.276C472.208 546.093 472.437 546.745 472.895 547.232C473.352 547.709 473.956 547.948 474.705 547.948ZM480.081 545.246V545.042C480.081 544.292 480.232 543.65 480.534 543.115C480.835 542.579 481.244 542.165 481.76 541.873C482.276 541.581 482.841 541.435 483.454 541.435C484.203 541.435 484.778 541.581 485.177 541.873C485.586 542.156 485.888 542.472 486.082 542.823H486.287V541.64H487.382V550.445C487.382 550.834 487.275 551.141 487.06 551.364C486.846 551.588 486.535 551.7 486.126 551.7H481.278V550.678H485.819C486.111 550.678 486.257 550.532 486.257 550.24V547.524H486.053C485.936 547.738 485.771 547.948 485.557 548.152C485.342 548.357 485.065 548.527 484.724 548.663C484.384 548.79 483.96 548.853 483.454 548.853C482.841 548.853 482.276 548.707 481.76 548.415C481.244 548.123 480.835 547.709 480.534 547.174C480.232 546.629 480.081 545.986 480.081 545.246ZM483.761 547.831C484.5 547.831 485.099 547.597 485.557 547.13C486.024 546.663 486.257 546.02 486.257 545.203V545.086C486.257 544.258 486.024 543.616 485.557 543.158C485.099 542.691 484.5 542.457 483.761 542.457C483.03 542.457 482.427 542.691 481.95 543.158C481.483 543.616 481.249 544.258 481.249 545.086V545.203C481.249 546.02 481.483 546.663 481.95 547.13C482.427 547.597 483.03 547.831 483.761 547.831ZM493.1 548.984C492.379 548.984 491.742 548.834 491.187 548.532C490.642 548.23 490.213 547.807 489.902 547.261C489.6 546.707 489.449 546.054 489.449 545.305V545.115C489.449 544.375 489.6 543.728 489.902 543.173C490.213 542.618 490.642 542.19 491.187 541.888C491.742 541.586 492.379 541.435 493.1 541.435C493.82 541.435 494.453 541.586 494.998 541.888C495.553 542.19 495.981 542.618 496.283 543.173C496.594 543.728 496.75 544.375 496.75 545.115V545.305C496.75 546.054 496.594 546.707 496.283 547.261C495.981 547.807 495.553 548.23 494.998 548.532C494.453 548.834 493.82 548.984 493.1 548.984ZM493.1 547.948C493.859 547.948 494.463 547.709 494.91 547.232C495.368 546.745 495.597 546.093 495.597 545.276V545.144C495.597 544.326 495.368 543.679 494.91 543.202C494.463 542.715 493.859 542.472 493.1 542.472C492.35 542.472 491.747 542.715 491.289 543.202C490.832 543.679 490.603 544.326 490.603 545.144V545.276C490.603 546.093 490.832 546.745 491.289 547.232C491.747 547.709 492.35 547.948 493.1 547.948ZM498.826 548.78V541.64H499.95V542.53H500.155C500.291 542.277 500.515 542.044 500.826 541.83C501.138 541.615 501.576 541.508 502.141 541.508C502.695 541.508 503.143 541.63 503.484 541.873C503.834 542.117 504.087 542.414 504.243 542.764H504.448C504.613 542.414 504.861 542.117 505.192 541.873C505.533 541.63 506.005 541.508 506.609 541.508C507.086 541.508 507.504 541.606 507.864 541.8C508.225 541.995 508.507 542.277 508.711 542.647C508.925 543.007 509.032 543.441 509.032 543.947V548.78H507.879V544.049C507.879 543.572 507.738 543.197 507.456 542.925C507.183 542.642 506.798 542.501 506.302 542.501C505.776 542.501 505.343 542.672 505.002 543.012C504.671 543.353 504.506 543.845 504.506 544.487V548.78H503.352V544.049C503.352 543.572 503.211 543.197 502.929 542.925C502.656 542.642 502.272 542.501 501.775 542.501C501.25 542.501 500.817 542.672 500.476 543.012C500.145 543.353 499.979 543.845 499.979 544.487V548.78H498.826ZM513.579 548.984C513.082 548.984 512.63 548.897 512.221 548.722C511.812 548.546 511.491 548.293 511.257 547.962C511.023 547.631 510.907 547.227 510.907 546.75C510.907 546.264 511.023 545.865 511.257 545.553C511.491 545.232 511.812 544.993 512.221 544.838C512.63 544.672 513.087 544.589 513.593 544.589H516.003V544.064C516.003 543.557 515.852 543.158 515.55 542.866C515.258 542.574 514.82 542.428 514.236 542.428C513.661 542.428 513.214 542.569 512.892 542.852C512.571 543.124 512.352 543.494 512.235 543.961L511.155 543.611C511.272 543.212 511.457 542.852 511.71 542.53C511.963 542.2 512.299 541.937 512.717 541.742C513.146 541.538 513.657 541.435 514.25 541.435C515.165 541.435 515.876 541.674 516.382 542.151C516.888 542.618 517.142 543.28 517.142 544.137V547.364C517.142 547.656 517.278 547.802 517.55 547.802H518.207V548.78H517.2C516.879 548.78 516.621 548.692 516.426 548.517C516.231 548.332 516.134 548.089 516.134 547.787V547.714H515.959C515.852 547.899 515.706 548.094 515.521 548.298C515.346 548.493 515.102 548.653 514.791 548.78C514.479 548.916 514.075 548.984 513.579 548.984ZM513.71 547.991C514.392 547.991 514.942 547.792 515.36 547.393C515.788 546.984 516.003 546.415 516.003 545.684V545.524H513.637C513.18 545.524 512.8 545.626 512.498 545.83C512.206 546.025 512.06 546.322 512.06 546.721C512.06 547.12 512.211 547.432 512.513 547.656C512.824 547.88 513.223 547.991 513.71 547.991ZM519.787 548.78V541.64H520.912V542.516H521.116C521.243 542.204 521.437 541.976 521.7 541.83C521.963 541.684 522.308 541.611 522.737 541.611H523.584V542.662H522.664C522.148 542.662 521.729 542.808 521.408 543.1C521.097 543.382 520.941 543.825 520.941 544.429V548.78H519.787ZM525.291 548.78V538.559H526.445V544.575H526.649L529.92 541.64H531.526L527.569 545.115L531.643 548.78H530.052L526.649 545.67H526.445V548.78H525.291Z" fill="#111111"/>
<line x1="203.943" y1="557.648" x2="1226.06" y2="557.648" stroke="#818181" stroke-width="0.5616"/>
<path d="M950.632 734.578L967.523 710.726H953.674L942.946 726.72H941.269L930.541 710.726H916.692L933.584 734.578L916.497 758.788H930.541L941.269 742.635H942.946L953.674 758.788H967.718L950.632 734.578Z" fill="#111111"/>
<path d="M861.49 758.828H908.537V710.726H861.49V758.828ZM871.906 721.375H898.122V748.178H871.906V721.375Z" fill="#111111"/>
<path d="M668.857 750.571H667.14L661.094 710.726H641.939L635.854 750.571H634.176L630.002 710.726H618.143L624.774 758.788H644.592L650.678 718.982H652.355L658.441 758.788H678.258L684.89 710.726H673.031L668.857 750.571Z" fill="#111111"/>
<path d="M785.105 712.241C781.867 710.326 778.356 709.369 774.572 709.369C770.359 709.369 767.082 710.087 764.819 711.563C762.557 712.999 760.879 714.674 759.787 716.548H758.07V710.725H746.328V778.171H758.265V753.243H759.982C760.684 754.36 761.62 755.436 762.791 756.513C763.961 757.59 765.521 758.468 767.433 759.146C769.345 759.824 771.724 760.183 774.572 760.183C778.356 760.183 781.867 759.226 785.105 757.311C788.343 755.397 790.918 752.605 792.868 748.935C794.819 745.266 795.794 740.799 795.794 735.574V734.018C795.794 728.793 794.819 724.326 792.868 720.657C790.918 716.947 788.304 714.155 785.105 712.241ZM783.857 735.255C783.857 739.921 782.647 743.431 780.19 745.864C777.771 748.297 774.65 749.494 770.944 749.494C767.277 749.494 764.195 748.297 761.737 745.864C759.28 743.431 758.031 739.921 758.031 735.255V734.297C758.031 729.631 759.28 726.121 761.737 723.688C764.195 721.255 767.277 720.058 770.944 720.058C774.611 720.058 777.693 721.255 780.151 723.688C782.608 726.121 783.857 729.631 783.857 734.297V735.255Z" fill="#111111"/>
<path d="M733.027 745.824V727.876C733.027 721.853 731.232 717.266 727.643 714.115C724.054 710.965 719.139 709.369 712.936 709.369C708.879 709.369 705.446 710.007 702.637 711.244C699.828 712.52 697.566 714.155 695.888 716.189C694.211 718.224 693.001 720.457 692.221 722.93L703.222 726.719C703.651 724.525 704.627 722.731 706.07 721.335C707.513 719.939 709.737 719.261 712.702 719.261C715.745 719.261 717.929 719.979 719.334 721.454C720.738 722.89 721.401 724.765 721.401 727.038V729.75H708.528C704.978 729.75 701.857 730.309 699.087 731.426C696.356 732.542 694.172 734.257 692.65 736.451C691.09 738.685 690.31 741.437 690.31 744.747C690.31 748.058 691.09 750.85 692.65 753.123C694.211 755.436 696.317 757.152 698.97 758.348C701.623 759.545 704.627 760.143 707.982 760.143C711.258 760.143 713.872 759.664 715.745 758.667C717.656 757.71 719.022 756.593 719.919 755.317C720.816 754.08 721.362 753.043 721.635 752.246H723.43V752.325C723.43 754.28 724.171 755.835 725.693 756.992C727.214 758.149 729.126 758.747 731.466 758.747H739.424V748.656H735.64C733.924 748.736 733.027 747.739 733.027 745.824ZM721.479 739.801C721.479 742.952 720.426 745.505 718.319 747.42C716.213 749.334 713.482 750.291 710.127 750.291C707.591 750.291 705.68 749.733 704.354 748.656C703.027 747.539 702.364 746.143 702.364 744.388C702.364 742.633 702.988 741.277 704.276 740.32C705.524 739.363 707.279 738.884 709.503 738.884H721.479V739.801Z" fill="#111111"/>
<path d="M604.332 731.824C601.445 730.748 598.246 729.91 594.696 729.272L592.044 728.793C589.898 728.394 588.181 727.836 586.933 727.078C585.685 726.32 585.022 725.204 585.022 723.648C585.022 722.212 585.607 721.095 586.816 720.298C588.025 719.5 589.742 719.101 592.044 719.101C594.306 719.101 596.218 719.62 597.778 720.657C599.339 721.694 600.353 723.449 600.86 725.882L611.939 722.372C610.847 718.503 608.584 715.352 605.112 712.959C601.64 710.566 597.271 709.369 592.044 709.369C586.465 709.369 581.979 710.645 578.585 713.198C575.152 715.751 573.474 719.42 573.474 724.206C573.474 727.357 574.294 729.95 575.932 731.944C577.57 733.938 579.755 735.534 582.486 736.651C585.217 737.767 588.22 738.685 591.497 739.323L594.15 739.801C596.92 740.32 598.948 740.998 600.236 741.796C601.484 742.593 602.147 743.75 602.147 745.226C602.147 746.702 601.484 747.938 600.158 748.975C598.831 749.972 596.764 750.491 593.994 750.491C592.161 750.491 590.483 750.211 588.923 749.653C587.362 749.095 586.075 748.177 585.022 746.901C583.968 745.625 583.227 743.83 582.798 741.556L571.797 744.468C572.616 749.494 574.996 753.402 578.897 756.114C582.798 758.827 587.83 760.183 593.955 760.183C599.963 760.183 604.761 758.787 608.311 756.075C611.861 753.323 613.656 749.414 613.656 744.388C613.656 741.038 612.797 738.366 611.159 736.371C609.481 734.377 607.219 732.861 604.332 731.824Z" fill="#111111"/>
<path d="M842.845 712.241C839.607 710.327 836.096 709.37 832.312 709.37C829.464 709.37 827.085 709.689 825.173 710.407C823.262 711.085 821.701 711.922 820.531 712.959C819.361 713.996 818.424 715.073 817.722 716.27H816.006V690.943H804.068V758.787H815.811V752.964H817.527C818.619 754.759 820.258 756.434 822.56 757.91C824.822 759.386 828.099 760.143 832.312 760.143C836.096 760.143 839.607 759.186 842.845 757.272C846.083 755.357 848.658 752.565 850.608 748.896C852.559 745.226 853.534 740.759 853.534 735.534V733.979C853.534 728.754 852.559 724.287 850.608 720.617C848.619 716.948 846.044 714.156 842.845 712.241ZM841.597 735.255C841.597 739.922 840.349 743.431 837.891 745.864C835.433 748.297 832.351 749.494 828.684 749.494C825.017 749.494 821.935 748.297 819.478 745.864C817.02 743.431 815.772 739.922 815.772 735.255V734.298C815.772 729.631 817.02 726.121 819.478 723.688C821.935 721.255 825.017 720.059 828.684 720.059C832.429 720.059 835.511 721.255 837.93 723.688C840.349 726.121 841.597 729.631 841.597 734.298V735.255Z" fill="#111111"/>
<path d="M510.899 695.163L523.098 688.015L513.308 682.248L496.214 692.28V712.344L506.004 718.07V703.813L525.507 715.227L501.109 729.564L476.711 715.227L484.015 710.961V699.429L462.025 712.344V758.237L491.319 775.417L479.12 782.566L488.91 788.332L506.004 778.3V758.197L496.214 752.431V766.807L471.816 752.471V723.837L501.109 741.057L530.402 723.876V752.471L518.164 759.659V771.152L540.192 758.237V712.344L510.899 695.163Z" fill="#111111"/>
</g>
</g>
<defs>
<filter id="filter0_d_33_678" x="117.364" y="-193.7" width="1195.27" height="723.528" filterUnits="userSpaceOnUse" color-interpolation-filters="sRGB">
<feFlood flood-opacity="0" result="BackgroundImageFix"/>
<feColorMatrix in="SourceAlpha" type="matrix" values="0 0 0 0 0 0 0 0 0 0 0 0 0 0 0 0 0 0 127 0" result="hardAlpha"/>
<feOffset dy="45.5"/>
<feGaussianBlur stdDeviation="29.25"/>
<feComposite in2="hardAlpha" operator="out"/>
<feColorMatrix type="matrix" values="0 0 0 0 0.075 0 0 0 0 0.075 0 0 0 0 0.075 0 0 0 0.1 0"/>
<feBlend mode="normal" in2="BackgroundImageFix" result="effect1_dropShadow_33_678"/>
<feBlend mode="normal" in="SourceGraphic" in2="effect1_dropShadow_33_678" result="shape"/>
</filter>
<filter id="filter1_d_33_678" x="117.364" y="492.7" width="1195.27" height="723.528" filterUnits="userSpaceOnUse" color-interpolation-filters="sRGB">
<feFlood flood-opacity="0" result="BackgroundImageFix"/>
<feColorMatrix in="SourceAlpha" type="matrix" values="0 0 0 0 0 0 0 0 0 0 0 0 0 0 0 0 0 0 127 0" result="hardAlpha"/>
<feOffset dy="45.5"/>
<feGaussianBlur stdDeviation="29.25"/>
<feComposite in2="hardAlpha" operator="out"/>
<feColorMatrix type="matrix" values="0 0 0 0 0.075 0 0 0 0 0.075 0 0 0 0 0.075 0 0 0 0.1 0"/>
<feBlend mode="normal" in2="BackgroundImageFix" result="effect1_dropShadow_33_678"/>
<feBlend mode="normal" in="SourceGraphic" in2="effect1_dropShadow_33_678" result="shape"/>
</filter>
<clipPath id="clip0_33_678">
<rect width="1430" height="884" fill="white"/>
</clipPath>
</defs>
</svg>
