<svg width="1430" height="885" viewBox="0 0 1430 885" fill="none" xmlns="http://www.w3.org/2000/svg">
<g clip-path="url(#clip0_61_3318)">
<rect width="1430" height="884" transform="translate(0 0.5)" fill="#101010"/>
<g clip-path="url(#clip1_61_3318)" filter="url(#filter0_d_61_3318)">
<rect width="1201.59" height="721.63" transform="translate(114.205 81.685)" fill="#181818"/>
<path d="M157.168 137.336C155.388 137.336 153.811 137.021 152.436 136.39C151.062 135.759 149.98 134.835 149.191 133.618C148.425 132.379 148.042 130.88 148.042 129.123V128.278H151.659V129.123C151.659 130.79 152.154 132.041 153.146 132.875C154.16 133.708 155.501 134.125 157.168 134.125C158.858 134.125 160.131 133.776 160.987 133.077C161.844 132.356 162.272 131.432 162.272 130.306C162.272 129.562 162.069 128.954 161.663 128.481C161.258 128.007 160.683 127.636 159.94 127.365C159.196 127.072 158.306 126.802 157.269 126.554L156.019 126.25C154.509 125.889 153.191 125.45 152.064 124.932C150.96 124.391 150.104 123.681 149.495 122.802C148.887 121.923 148.583 120.797 148.583 119.422C148.583 118.025 148.921 116.831 149.597 115.839C150.295 114.848 151.253 114.082 152.47 113.541C153.687 113 155.118 112.73 156.762 112.73C158.407 112.73 159.872 113.011 161.156 113.575C162.463 114.138 163.489 114.972 164.232 116.076C164.976 117.18 165.348 118.566 165.348 120.233V121.45H161.731V120.233C161.731 119.219 161.517 118.397 161.089 117.766C160.683 117.135 160.109 116.673 159.365 116.38C158.621 116.087 157.754 115.941 156.762 115.941C155.32 115.941 154.194 116.245 153.382 116.853C152.594 117.439 152.199 118.262 152.199 119.321C152.199 120.042 152.368 120.639 152.706 121.112C153.067 121.563 153.585 121.935 154.261 122.228C154.937 122.521 155.782 122.78 156.796 123.005L158.047 123.309C159.579 123.647 160.931 124.087 162.103 124.627C163.275 125.146 164.198 125.855 164.874 126.757C165.55 127.658 165.888 128.819 165.888 130.238C165.888 131.658 165.528 132.897 164.807 133.956C164.108 135.015 163.106 135.849 161.799 136.457C160.492 137.043 158.948 137.336 157.168 137.336ZM171.647 136.863L168.808 120.2H172.289L174.385 134.531H174.926L177.833 120.2H183.477L186.35 134.531H186.891L188.987 120.2H192.468L189.629 136.863H183.781L180.908 122.566H180.368L177.495 136.863H171.647ZM201.631 137.336C200.436 137.336 199.366 137.133 198.42 136.728C197.496 136.322 196.752 135.725 196.189 134.936C195.648 134.148 195.378 133.19 195.378 132.063C195.378 130.914 195.648 129.968 196.189 129.224C196.752 128.458 197.507 127.883 198.453 127.5C199.422 127.117 200.515 126.926 201.732 126.926H206.802V125.844C206.802 124.875 206.509 124.098 205.923 123.512C205.337 122.926 204.436 122.633 203.219 122.633C202.025 122.633 201.112 122.915 200.481 123.478C199.851 124.042 199.434 124.774 199.231 125.675L195.986 124.627C196.256 123.726 196.685 122.915 197.27 122.194C197.879 121.45 198.679 120.853 199.67 120.402C200.662 119.952 201.856 119.726 203.253 119.726C205.416 119.726 207.118 120.278 208.357 121.383C209.596 122.487 210.216 124.053 210.216 126.081V132.942C210.216 133.618 210.531 133.956 211.162 133.956H212.582V136.863H209.979C209.191 136.863 208.548 136.66 208.053 136.255C207.557 135.849 207.309 135.297 207.309 134.598V134.497H206.802C206.622 134.835 206.351 135.229 205.991 135.68C205.63 136.131 205.101 136.525 204.402 136.863C203.704 137.178 202.78 137.336 201.631 137.336ZM202.138 134.463C203.535 134.463 204.661 134.069 205.518 133.28C206.374 132.469 206.802 131.365 206.802 129.968V129.63H201.935C201.011 129.63 200.267 129.833 199.704 130.238C199.141 130.621 198.859 131.196 198.859 131.962C198.859 132.728 199.152 133.337 199.738 133.787C200.324 134.238 201.124 134.463 202.138 134.463ZM215.967 143.623V120.2H219.381V122.599H219.921C220.35 121.856 220.992 121.191 221.848 120.605C222.727 120.019 223.977 119.726 225.6 119.726C226.997 119.726 228.27 120.064 229.419 120.74C230.591 121.416 231.526 122.397 232.225 123.681C232.946 124.943 233.306 126.475 233.306 128.278V128.785C233.306 130.587 232.957 132.131 232.258 133.415C231.56 134.677 230.625 135.646 229.453 136.322C228.281 136.998 226.997 137.336 225.6 137.336C224.518 137.336 223.606 137.201 222.862 136.931C222.118 136.66 221.521 136.322 221.071 135.917C220.62 135.488 220.259 135.049 219.989 134.598H219.448V143.623H215.967ZM224.586 134.294C226.118 134.294 227.369 133.81 228.338 132.841C229.307 131.872 229.791 130.486 229.791 128.683V128.379C229.791 126.599 229.295 125.225 228.304 124.256C227.335 123.287 226.096 122.802 224.586 122.802C223.099 122.802 221.859 123.287 220.868 124.256C219.899 125.225 219.414 126.599 219.414 128.379V128.683C219.414 130.486 219.899 131.872 220.868 132.841C221.859 133.81 223.099 134.294 224.586 134.294ZM247.253 137.336C245.631 137.336 244.38 137.043 243.501 136.457C242.645 135.872 242.003 135.218 241.575 134.497H241.034V136.863H237.62V113.203H241.101V122.464H241.642C241.913 122.014 242.273 121.585 242.724 121.18C243.174 120.752 243.772 120.402 244.515 120.132C245.259 119.862 246.171 119.726 247.253 119.726C248.65 119.726 249.934 120.064 251.106 120.74C252.278 121.416 253.213 122.397 253.912 123.681C254.61 124.965 254.959 126.498 254.959 128.278V128.785C254.959 130.587 254.599 132.131 253.878 133.415C253.179 134.677 252.244 135.646 251.072 136.322C249.923 136.998 248.65 137.336 247.253 137.336ZM246.239 134.294C247.749 134.294 248.988 133.81 249.957 132.841C250.948 131.872 251.444 130.486 251.444 128.683V128.379C251.444 126.599 250.96 125.225 249.991 124.256C249.022 123.287 247.771 122.802 246.239 122.802C244.752 122.802 243.512 123.287 242.521 124.256C241.552 125.225 241.068 126.599 241.068 128.379V128.683C241.068 130.486 241.552 131.872 242.521 132.841C243.512 133.81 244.752 134.294 246.239 134.294ZM267.081 137.336C265.413 137.336 263.926 136.998 262.619 136.322C261.335 135.624 260.321 134.632 259.577 133.348C258.834 132.063 258.462 130.542 258.462 128.785V128.278C258.462 126.52 258.834 125.01 259.577 123.749C260.321 122.464 261.335 121.473 262.619 120.774C263.926 120.076 265.413 119.726 267.081 119.726C268.748 119.726 270.236 120.076 271.543 120.774C272.849 121.473 273.875 122.464 274.618 123.749C275.362 125.01 275.734 126.52 275.734 128.278V128.785C275.734 130.542 275.362 132.063 274.618 133.348C273.875 134.632 272.849 135.624 271.543 136.322C270.236 136.998 268.748 137.336 267.081 137.336ZM267.081 134.227C268.613 134.227 269.853 133.742 270.799 132.773C271.768 131.782 272.252 130.418 272.252 128.683V128.379C272.252 126.644 271.779 125.292 270.833 124.323C269.886 123.332 268.636 122.836 267.081 122.836C265.571 122.836 264.332 123.332 263.363 124.323C262.417 125.292 261.943 126.644 261.943 128.379V128.683C261.943 130.418 262.417 131.782 263.363 132.773C264.332 133.742 265.571 134.227 267.081 134.227ZM277.559 136.863L283.914 128.447L277.694 120.2H281.784L286.144 126.182H286.685L291.045 120.2H295.169L288.916 128.447L295.27 136.863H291.113L286.685 130.745H286.144L281.717 136.863H277.559ZM316.316 137.336C313.432 137.336 311.145 136.525 309.455 134.903C307.765 133.258 306.92 130.892 306.92 127.805V122.261C306.92 119.174 307.765 116.82 309.455 115.197C311.145 113.552 313.432 112.73 316.316 112.73C319.155 112.73 321.341 113.518 322.873 115.096C324.428 116.673 325.206 118.825 325.206 121.552V121.754H321.589V121.45C321.589 119.85 321.15 118.543 320.271 117.529C319.414 116.515 318.096 116.008 316.316 116.008C314.513 116.008 313.105 116.56 312.091 117.665C311.077 118.746 310.57 120.256 310.57 122.194V127.872C310.57 129.788 311.077 131.297 312.091 132.401C313.105 133.506 314.513 134.058 316.316 134.058C318.096 134.058 319.414 133.551 320.271 132.537C321.15 131.5 321.589 130.193 321.589 128.616V128.041H325.206V128.514C325.206 131.241 324.428 133.393 322.873 134.97C321.341 136.548 319.155 137.336 316.316 137.336ZM334.52 137.336C333.326 137.336 332.256 137.133 331.309 136.728C330.385 136.322 329.642 135.725 329.078 134.936C328.538 134.148 328.267 133.19 328.267 132.063C328.267 130.914 328.538 129.968 329.078 129.224C329.642 128.458 330.397 127.883 331.343 127.5C332.312 127.117 333.405 126.926 334.622 126.926H339.692V125.844C339.692 124.875 339.399 124.098 338.813 123.512C338.227 122.926 337.326 122.633 336.109 122.633C334.914 122.633 334.002 122.915 333.371 123.478C332.74 124.042 332.323 124.774 332.12 125.675L328.876 124.627C329.146 123.726 329.574 122.915 330.16 122.194C330.768 121.45 331.568 120.853 332.56 120.402C333.551 119.952 334.745 119.726 336.143 119.726C338.306 119.726 340.007 120.278 341.246 121.383C342.486 122.487 343.105 124.053 343.105 126.081V132.942C343.105 133.618 343.421 133.956 344.052 133.956H345.471V136.863H342.869C342.08 136.863 341.438 136.66 340.942 136.255C340.446 135.849 340.199 135.297 340.199 134.598V134.497H339.692C339.511 134.835 339.241 135.229 338.88 135.68C338.52 136.131 337.99 136.525 337.292 136.863C336.593 137.178 335.669 137.336 334.52 137.336ZM335.027 134.463C336.424 134.463 337.551 134.069 338.407 133.28C339.263 132.469 339.692 131.365 339.692 129.968V129.63H334.824C333.9 129.63 333.157 129.833 332.594 130.238C332.03 130.621 331.749 131.196 331.749 131.962C331.749 132.728 332.041 133.337 332.627 133.787C333.213 134.238 334.013 134.463 335.027 134.463ZM355.552 137.336C353.434 137.336 351.676 136.863 350.279 135.917C348.882 134.97 348.026 133.539 347.71 131.624L350.955 130.847C351.135 131.77 351.44 132.503 351.868 133.044C352.296 133.584 352.825 133.967 353.456 134.193C354.11 134.418 354.808 134.531 355.552 134.531C356.656 134.531 357.501 134.317 358.087 133.889C358.695 133.46 358.999 132.908 358.999 132.232C358.999 131.556 358.718 131.061 358.154 130.745C357.591 130.43 356.757 130.171 355.653 129.968L354.504 129.765C353.377 129.562 352.352 129.269 351.428 128.886C350.504 128.503 349.772 127.974 349.231 127.298C348.69 126.622 348.42 125.754 348.42 124.695C348.42 123.118 349.006 121.901 350.178 121.045C351.349 120.166 352.904 119.726 354.842 119.726C356.712 119.726 358.245 120.155 359.439 121.011C360.656 121.845 361.444 122.982 361.805 124.425L358.56 125.337C358.357 124.323 357.929 123.613 357.276 123.208C356.622 122.78 355.811 122.566 354.842 122.566C353.896 122.566 353.152 122.746 352.611 123.106C352.07 123.444 351.8 123.929 351.8 124.56C351.8 125.236 352.059 125.732 352.577 126.047C353.118 126.362 353.839 126.599 354.741 126.757L355.924 126.96C357.118 127.162 358.211 127.444 359.202 127.805C360.194 128.165 360.971 128.683 361.534 129.359C362.12 130.035 362.413 130.937 362.413 132.063C362.413 133.731 361.794 135.027 360.554 135.95C359.315 136.874 357.647 137.336 355.552 137.336ZM366.482 136.863V113.203H369.964V122.566H370.505C370.73 122.137 371.045 121.721 371.451 121.315C371.879 120.909 372.431 120.583 373.107 120.335C373.806 120.064 374.685 119.929 375.744 119.929C377.006 119.929 378.121 120.211 379.09 120.774C380.081 121.338 380.859 122.137 381.422 123.174C381.985 124.188 382.267 125.416 382.267 126.858V136.863H378.786V127.129C378.786 125.686 378.425 124.627 377.704 123.951C376.983 123.253 375.992 122.904 374.73 122.904C373.288 122.904 372.127 123.377 371.248 124.323C370.392 125.27 369.964 126.644 369.964 128.447V136.863H366.482ZM387.21 129.799V126.622H397.215V129.799H387.21ZM402.162 136.863V113.203H405.812V136.863H402.162ZM410.845 136.863V120.2H414.259V122.701H414.8C415.115 122.025 415.678 121.394 416.49 120.808C417.301 120.222 418.506 119.929 420.106 119.929C421.368 119.929 422.483 120.211 423.452 120.774C424.444 121.338 425.221 122.137 425.785 123.174C426.348 124.188 426.63 125.416 426.63 126.858V136.863H423.148V127.129C423.148 125.686 422.788 124.627 422.067 123.951C421.346 123.253 420.354 122.904 419.092 122.904C417.65 122.904 416.49 123.377 415.611 124.323C414.755 125.27 414.326 126.644 414.326 128.447V136.863H410.845ZM446.508 136.863C445.494 136.863 444.683 136.559 444.074 135.95C443.488 135.342 443.196 134.531 443.196 133.517V123.14H438.599V120.2H443.196V114.69H446.677V120.2H451.646V123.14H446.677V132.908C446.677 133.584 446.992 133.922 447.623 133.922H451.105V136.863H446.508ZM455.736 136.863V120.2H459.149V122.16H459.69C459.961 121.461 460.389 120.954 460.975 120.639C461.583 120.301 462.327 120.132 463.205 120.132H465.2V123.275H463.07C461.944 123.275 461.02 123.591 460.299 124.222C459.578 124.83 459.217 125.777 459.217 127.061V136.863H455.736ZM473.516 137.336C472.322 137.336 471.251 137.133 470.305 136.728C469.381 136.322 468.638 135.725 468.074 134.936C467.533 134.148 467.263 133.19 467.263 132.063C467.263 130.914 467.533 129.968 468.074 129.224C468.638 128.458 469.392 127.883 470.339 127.5C471.308 127.117 472.401 126.926 473.617 126.926H478.687V125.844C478.687 124.875 478.394 124.098 477.809 123.512C477.223 122.926 476.321 122.633 475.105 122.633C473.91 122.633 472.998 122.915 472.367 123.478C471.736 124.042 471.319 124.774 471.116 125.675L467.871 124.627C468.142 123.726 468.57 122.915 469.156 122.194C469.764 121.45 470.564 120.853 471.556 120.402C472.547 119.952 473.741 119.726 475.138 119.726C477.302 119.726 479.003 120.278 480.242 121.383C481.482 122.487 482.101 124.053 482.101 126.081V132.942C482.101 133.618 482.417 133.956 483.048 133.956H484.467V136.863H481.865C481.076 136.863 480.434 136.66 479.938 136.255C479.442 135.849 479.194 135.297 479.194 134.598V134.497H478.687C478.507 134.835 478.237 135.229 477.876 135.68C477.516 136.131 476.986 136.525 476.288 136.863C475.589 137.178 474.665 137.336 473.516 137.336ZM474.023 134.463C475.42 134.463 476.547 134.069 477.403 133.28C478.259 132.469 478.687 131.365 478.687 129.968V129.63H473.82C472.896 129.63 472.153 129.833 471.589 130.238C471.026 130.621 470.744 131.196 470.744 131.962C470.744 132.728 471.037 133.337 471.623 133.787C472.209 134.238 473.009 134.463 474.023 134.463ZM487.852 136.863V120.2H491.266V122.701H491.807C492.122 122.025 492.686 121.394 493.497 120.808C494.308 120.222 495.514 119.929 497.113 119.929C498.375 119.929 499.491 120.211 500.46 120.774C501.451 121.338 502.228 122.137 502.792 123.174C503.355 124.188 503.637 125.416 503.637 126.858V136.863H500.155V127.129C500.155 125.686 499.795 124.627 499.074 123.951C498.353 123.253 497.361 122.904 496.099 122.904C494.657 122.904 493.497 123.377 492.618 124.323C491.762 125.27 491.334 126.644 491.334 128.447V136.863H487.852ZM515.475 137.336C513.357 137.336 511.599 136.863 510.202 135.917C508.805 134.97 507.949 133.539 507.633 131.624L510.878 130.847C511.058 131.77 511.362 132.503 511.791 133.044C512.219 133.584 512.748 133.967 513.379 134.193C514.033 134.418 514.731 134.531 515.475 134.531C516.579 134.531 517.424 134.317 518.01 133.889C518.618 133.46 518.922 132.908 518.922 132.232C518.922 131.556 518.641 131.061 518.077 130.745C517.514 130.43 516.68 130.171 515.576 129.968L514.427 129.765C513.3 129.562 512.275 129.269 511.351 128.886C510.427 128.503 509.695 127.974 509.154 127.298C508.613 126.622 508.343 125.754 508.343 124.695C508.343 123.118 508.929 121.901 510.101 121.045C511.272 120.166 512.827 119.726 514.765 119.726C516.635 119.726 518.168 120.155 519.362 121.011C520.579 121.845 521.367 122.982 521.728 124.425L518.483 125.337C518.28 124.323 517.852 123.613 517.199 123.208C516.545 122.78 515.734 122.566 514.765 122.566C513.819 122.566 513.075 122.746 512.534 123.106C511.993 123.444 511.723 123.929 511.723 124.56C511.723 125.236 511.982 125.732 512.5 126.047C513.041 126.362 513.762 126.599 514.664 126.757L515.847 126.96C517.041 127.162 518.134 127.444 519.125 127.805C520.117 128.165 520.894 128.683 521.457 129.359C522.043 130.035 522.336 130.937 522.336 132.063C522.336 133.731 521.717 135.027 520.477 135.95C519.238 136.874 517.57 137.336 515.475 137.336ZM531.445 137.336C530.25 137.336 529.18 137.133 528.234 136.728C527.31 136.322 526.566 135.725 526.003 134.936C525.462 134.148 525.192 133.19 525.192 132.063C525.192 130.914 525.462 129.968 526.003 129.224C526.566 128.458 527.321 127.883 528.268 127.5C529.236 127.117 530.329 126.926 531.546 126.926H536.616V125.844C536.616 124.875 536.323 124.098 535.737 123.512C535.151 122.926 534.25 122.633 533.033 122.633C531.839 122.633 530.926 122.915 530.296 123.478C529.665 124.042 529.248 124.774 529.045 125.675L525.8 124.627C526.071 123.726 526.499 122.915 527.085 122.194C527.693 121.45 528.493 120.853 529.484 120.402C530.476 119.952 531.67 119.726 533.067 119.726C535.23 119.726 536.932 120.278 538.171 121.383C539.41 122.487 540.03 124.053 540.03 126.081V132.942C540.03 133.618 540.345 133.956 540.976 133.956H542.396V136.863H539.793C539.005 136.863 538.362 136.66 537.867 136.255C537.371 135.849 537.123 135.297 537.123 134.598V134.497H536.616C536.436 134.835 536.165 135.229 535.805 135.68C535.444 136.131 534.915 136.525 534.216 136.863C533.518 137.178 532.594 137.336 531.445 137.336ZM531.952 134.463C533.349 134.463 534.475 134.069 535.332 133.28C536.188 132.469 536.616 131.365 536.616 129.968V129.63H531.749C530.825 129.63 530.081 129.833 529.518 130.238C528.955 130.621 528.673 131.196 528.673 131.962C528.673 132.728 528.966 133.337 529.552 133.787C530.138 134.238 530.938 134.463 531.952 134.463ZM553.125 137.336C551.525 137.336 550.072 136.998 548.765 136.322C547.48 135.646 546.455 134.666 545.689 133.382C544.945 132.097 544.574 130.554 544.574 128.751V128.312C544.574 126.509 544.945 124.977 545.689 123.715C546.455 122.43 547.48 121.45 548.765 120.774C550.072 120.076 551.525 119.726 553.125 119.726C554.725 119.726 556.088 120.019 557.215 120.605C558.342 121.191 559.243 121.968 559.919 122.937C560.617 123.906 561.068 124.977 561.271 126.148L557.891 126.858C557.778 126.115 557.542 125.439 557.181 124.83C556.821 124.222 556.314 123.737 555.66 123.377C555.007 123.016 554.184 122.836 553.193 122.836C552.224 122.836 551.345 123.061 550.556 123.512C549.79 123.94 549.182 124.571 548.731 125.405C548.28 126.216 548.055 127.207 548.055 128.379V128.683C548.055 129.855 548.28 130.858 548.731 131.692C549.182 132.525 549.79 133.156 550.556 133.584C551.345 134.013 552.224 134.227 553.193 134.227C554.657 134.227 555.773 133.855 556.539 133.111C557.305 132.345 557.789 131.376 557.992 130.204L561.372 130.982C561.102 132.131 560.617 133.19 559.919 134.159C559.243 135.128 558.342 135.905 557.215 136.491C556.088 137.055 554.725 137.336 553.125 137.336ZM571.013 136.863C569.999 136.863 569.188 136.559 568.58 135.95C567.994 135.342 567.701 134.531 567.701 133.517V123.14H563.104V120.2H567.701V114.69H571.182V120.2H576.151V123.14H571.182V132.908C571.182 133.584 571.498 133.922 572.129 133.922H575.61V136.863H571.013ZM580.241 136.863V120.2H583.723V136.863H580.241ZM581.999 117.935C581.323 117.935 580.748 117.721 580.275 117.293C579.824 116.842 579.599 116.268 579.599 115.569C579.599 114.87 579.824 114.307 580.275 113.879C580.748 113.428 581.323 113.203 581.999 113.203C582.697 113.203 583.272 113.428 583.723 113.879C584.173 114.307 584.399 114.87 584.399 115.569C584.399 116.268 584.173 116.842 583.723 117.293C583.272 117.721 582.697 117.935 581.999 117.935ZM596.697 137.336C595.029 137.336 593.542 136.998 592.235 136.322C590.951 135.624 589.937 134.632 589.193 133.348C588.45 132.063 588.078 130.542 588.078 128.785V128.278C588.078 126.52 588.45 125.01 589.193 123.749C589.937 122.464 590.951 121.473 592.235 120.774C593.542 120.076 595.029 119.726 596.697 119.726C598.364 119.726 599.852 120.076 601.159 120.774C602.465 121.473 603.491 122.464 604.234 123.749C604.978 125.01 605.35 126.52 605.35 128.278V128.785C605.35 130.542 604.978 132.063 604.234 133.348C603.491 134.632 602.465 135.624 601.159 136.322C599.852 136.998 598.364 137.336 596.697 137.336ZM596.697 134.227C598.229 134.227 599.469 133.742 600.415 132.773C601.384 131.782 601.868 130.418 601.868 128.683V128.379C601.868 126.644 601.395 125.292 600.449 124.323C599.502 123.332 598.252 122.836 596.697 122.836C595.187 122.836 593.948 123.332 592.979 124.323C592.033 125.292 591.559 126.644 591.559 128.379V128.683C591.559 130.418 592.033 131.782 592.979 132.773C593.948 133.742 595.187 134.227 596.697 134.227ZM609.684 136.863V120.2H613.098V122.701H613.639C613.954 122.025 614.517 121.394 615.329 120.808C616.14 120.222 617.345 119.929 618.945 119.929C620.207 119.929 621.323 120.211 622.291 120.774C623.283 121.338 624.06 122.137 624.624 123.174C625.187 124.188 625.469 125.416 625.469 126.858V136.863H621.987V127.129C621.987 125.686 621.627 124.627 620.906 123.951C620.185 123.253 619.193 122.904 617.931 122.904C616.489 122.904 615.329 123.377 614.45 124.323C613.594 125.27 613.165 126.644 613.165 128.447V136.863H609.684Z" fill="#8F8F8F"/>
<path d="M391.614 340.44H390.516V339.342H391.614V340.44ZM657.477 339.663C657.906 340.092 657.906 340.788 657.477 341.217L650.486 348.208C650.057 348.637 649.361 348.637 648.932 348.208C648.503 347.779 648.503 347.083 648.932 346.654L655.147 340.44L648.932 334.226C648.503 333.797 648.503 333.102 648.932 332.673C649.361 332.244 650.057 332.244 650.486 332.673L657.477 339.663ZM390.516 423.695V340.44H392.713V423.695H390.516ZM391.614 339.342H656.7V341.539H391.614V339.342Z" fill="#06C630"/>
<rect x="668.953" y="449.864" width="457.99" height="209.56" fill="#4C4C4C" fill-opacity="0.2"/>
<rect x="668.953" y="449.864" width="457.99" height="209.56" stroke="#4C4C4C" stroke-width="1.69" stroke-dasharray="5.07 3.38"/>
<path d="M682.333 474.779V473.654H683.803V465.406H682.333V464.281H686.427C687.807 464.281 688.872 464.631 689.622 465.331C690.381 466.031 690.761 467.105 690.761 468.555V470.505C690.761 471.965 690.381 473.044 689.622 473.744C688.872 474.434 687.807 474.779 686.427 474.779H682.333ZM685.062 473.639H686.427C687.447 473.639 688.217 473.389 688.737 472.889C689.257 472.39 689.517 471.615 689.517 470.565V468.51C689.517 467.44 689.257 466.661 688.737 466.171C688.217 465.681 687.447 465.436 686.427 465.436H685.062V473.639ZM696.177 474.989C695.437 474.989 694.787 474.834 694.227 474.524C693.667 474.204 693.232 473.759 692.922 473.189C692.612 472.619 692.457 471.96 692.457 471.21V471.03C692.457 470.27 692.612 469.605 692.922 469.035C693.232 468.465 693.662 468.025 694.212 467.715C694.762 467.395 695.392 467.235 696.102 467.235C696.792 467.235 697.401 467.385 697.931 467.685C698.461 467.975 698.876 468.395 699.176 468.945C699.476 469.495 699.626 470.14 699.626 470.88V471.42H693.642C693.672 472.21 693.927 472.829 694.407 473.279C694.887 473.719 695.487 473.939 696.207 473.939C696.836 473.939 697.321 473.794 697.661 473.504C698.001 473.214 698.261 472.869 698.441 472.469L699.461 472.964C699.311 473.274 699.101 473.584 698.831 473.894C698.571 474.204 698.226 474.464 697.796 474.674C697.376 474.884 696.836 474.989 696.177 474.989ZM693.657 470.445H698.426C698.386 469.765 698.151 469.235 697.721 468.855C697.301 468.475 696.762 468.285 696.102 468.285C695.432 468.285 694.882 468.475 694.452 468.855C694.022 469.235 693.757 469.765 693.657 470.445ZM705.067 474.989C704.357 474.989 703.717 474.839 703.147 474.539C702.587 474.229 702.143 473.789 701.813 473.219C701.493 472.649 701.333 471.975 701.333 471.195V471.03C701.333 470.24 701.493 469.565 701.813 469.005C702.143 468.435 702.587 468 703.147 467.7C703.717 467.39 704.357 467.235 705.067 467.235C705.767 467.235 706.362 467.365 706.852 467.625C707.352 467.885 707.742 468.23 708.021 468.66C708.311 469.09 708.496 469.55 708.576 470.04L707.422 470.28C707.372 469.92 707.252 469.59 707.062 469.29C706.882 468.99 706.627 468.75 706.297 468.57C705.967 468.39 705.562 468.3 705.082 468.3C704.592 468.3 704.152 468.41 703.762 468.63C703.382 468.85 703.077 469.165 702.847 469.575C702.627 469.985 702.517 470.475 702.517 471.045V471.18C702.517 471.75 702.627 472.24 702.847 472.649C703.077 473.059 703.382 473.374 703.762 473.594C704.152 473.814 704.592 473.924 705.082 473.924C705.812 473.924 706.367 473.734 706.747 473.354C707.137 472.974 707.377 472.504 707.467 471.945L708.636 472.2C708.526 472.679 708.326 473.134 708.036 473.564C707.747 473.994 707.352 474.339 706.852 474.599C706.362 474.859 705.767 474.989 705.067 474.989ZM714.015 474.989C713.275 474.989 712.625 474.834 712.066 474.524C711.506 474.204 711.071 473.759 710.761 473.189C710.451 472.619 710.296 471.96 710.296 471.21V471.03C710.296 470.27 710.451 469.605 710.761 469.035C711.071 468.465 711.501 468.025 712.051 467.715C712.6 467.395 713.23 467.235 713.94 467.235C714.63 467.235 715.24 467.385 715.77 467.685C716.3 467.975 716.715 468.395 717.015 468.945C717.315 469.495 717.465 470.14 717.465 470.88V471.42H711.481C711.511 472.21 711.766 472.829 712.246 473.279C712.725 473.719 713.325 473.939 714.045 473.939C714.675 473.939 715.16 473.794 715.5 473.504C715.84 473.214 716.1 472.869 716.28 472.469L717.3 472.964C717.15 473.274 716.94 473.584 716.67 473.894C716.41 474.204 716.065 474.464 715.635 474.674C715.215 474.884 714.675 474.989 714.015 474.989ZM711.496 470.445H716.265C716.225 469.765 715.99 469.235 715.56 468.855C715.14 468.475 714.6 468.285 713.94 468.285C713.27 468.285 712.72 468.475 712.291 468.855C711.861 469.235 711.596 469.765 711.496 470.445ZM719.531 474.779V467.445H720.686V468.69H720.896C721.056 468.34 721.326 468.025 721.706 467.745C722.096 467.455 722.666 467.31 723.415 467.31C723.965 467.31 724.455 467.425 724.885 467.655C725.325 467.885 725.675 468.225 725.935 468.675C726.195 469.125 726.325 469.68 726.325 470.34V474.779H725.14V470.43C725.14 469.7 724.955 469.17 724.585 468.84C724.225 468.51 723.735 468.345 723.116 468.345C722.406 468.345 721.826 468.575 721.376 469.035C720.936 469.495 720.716 470.18 720.716 471.09V474.779H719.531ZM731.223 474.779C730.803 474.779 730.478 474.664 730.248 474.434C730.028 474.204 729.918 473.889 729.918 473.489V468.48H727.714V467.445H729.918V464.836H731.103V467.445H733.503V468.48H731.103V473.309C731.103 473.609 731.248 473.759 731.538 473.759H733.173V474.779H731.223ZM735.422 474.779V467.445H736.577V468.345H736.787C736.917 468.025 737.117 467.79 737.387 467.64C737.657 467.49 738.011 467.415 738.451 467.415H739.321V468.495H738.376C737.846 468.495 737.417 468.645 737.087 468.945C736.767 469.235 736.607 469.69 736.607 470.31V474.779H735.422ZM743.076 474.989C742.566 474.989 742.101 474.899 741.681 474.719C741.261 474.539 740.931 474.279 740.691 473.939C740.451 473.599 740.331 473.184 740.331 472.694C740.331 472.195 740.451 471.785 740.691 471.465C740.931 471.135 741.261 470.89 741.681 470.73C742.101 470.56 742.571 470.475 743.091 470.475H745.565V469.935C745.565 469.415 745.41 469.005 745.1 468.705C744.8 468.405 744.351 468.255 743.751 468.255C743.161 468.255 742.701 468.4 742.371 468.69C742.041 468.97 741.816 469.35 741.696 469.83L740.586 469.47C740.706 469.06 740.896 468.69 741.156 468.36C741.416 468.02 741.761 467.75 742.191 467.55C742.631 467.34 743.156 467.235 743.766 467.235C744.706 467.235 745.435 467.48 745.955 467.97C746.475 468.45 746.735 469.13 746.735 470.01V473.324C746.735 473.624 746.875 473.774 747.155 473.774H747.83V474.779H746.795C746.465 474.779 746.2 474.689 746 474.509C745.8 474.319 745.7 474.069 745.7 473.759V473.684H745.52C745.41 473.874 745.26 474.074 745.07 474.284C744.89 474.484 744.641 474.649 744.321 474.779C744.001 474.919 743.586 474.989 743.076 474.989ZM743.211 473.969C743.911 473.969 744.476 473.764 744.905 473.354C745.345 472.934 745.565 472.35 745.565 471.6V471.435H743.136C742.666 471.435 742.276 471.54 741.966 471.75C741.666 471.95 741.516 472.255 741.516 472.664C741.516 473.074 741.671 473.394 741.981 473.624C742.301 473.854 742.711 473.969 743.211 473.969ZM749.453 474.779V464.281H750.637V474.779H749.453ZM753.129 474.779V467.445H754.313V474.779H753.129ZM753.729 466.306C753.469 466.306 753.249 466.221 753.069 466.051C752.899 465.881 752.814 465.666 752.814 465.406C752.814 465.136 752.899 464.916 753.069 464.746C753.249 464.576 753.469 464.491 753.729 464.491C753.989 464.491 754.204 464.576 754.373 464.746C754.543 464.916 754.628 465.136 754.628 465.406C754.628 465.666 754.543 465.881 754.373 466.051C754.204 466.221 753.989 466.306 753.729 466.306ZM756.475 474.779V473.249L761.139 468.645V468.48H756.625V467.445H762.384V468.975L757.705 473.579V473.759H762.504V474.779H756.475ZM767.692 474.989C766.952 474.989 766.302 474.834 765.742 474.524C765.183 474.204 764.748 473.759 764.438 473.189C764.128 472.619 763.973 471.96 763.973 471.21V471.03C763.973 470.27 764.128 469.605 764.438 469.035C764.748 468.465 765.178 468.025 765.727 467.715C766.277 467.395 766.907 467.235 767.617 467.235C768.307 467.235 768.917 467.385 769.447 467.685C769.977 467.975 770.392 468.395 770.692 468.945C770.992 469.495 771.142 470.14 771.142 470.88V471.42H765.158C765.188 472.21 765.443 472.829 765.922 473.279C766.402 473.719 767.002 473.939 767.722 473.939C768.352 473.939 768.837 473.794 769.177 473.504C769.517 473.214 769.777 472.869 769.957 472.469L770.977 472.964C770.827 473.274 770.617 473.584 770.347 473.894C770.087 474.204 769.742 474.464 769.312 474.674C768.892 474.884 768.352 474.989 767.692 474.989ZM765.173 470.445H769.942C769.902 469.765 769.667 469.235 769.237 468.855C768.817 468.475 768.277 468.285 767.617 468.285C766.947 468.285 766.397 468.475 765.967 468.855C765.538 469.235 765.273 469.765 765.173 470.445ZM776.313 474.989C775.683 474.989 775.103 474.839 774.573 474.539C774.043 474.239 773.623 473.804 773.313 473.234C773.003 472.664 772.848 471.99 772.848 471.21V471.015C772.848 470.235 773.003 469.565 773.313 469.005C773.623 468.435 774.038 468 774.558 467.7C775.088 467.39 775.673 467.235 776.313 467.235C776.822 467.235 777.252 467.305 777.602 467.445C777.962 467.575 778.252 467.745 778.472 467.955C778.692 468.155 778.862 468.37 778.982 468.6H779.192V464.281H780.377V474.779H779.222V473.564H779.012C778.812 473.934 778.502 474.264 778.082 474.554C777.662 474.844 777.072 474.989 776.313 474.989ZM776.627 473.939C777.387 473.939 778.002 473.699 778.472 473.219C778.952 472.729 779.192 472.05 779.192 471.18V471.045C779.192 470.175 778.952 469.5 778.472 469.02C778.002 468.53 777.387 468.285 776.627 468.285C775.878 468.285 775.258 468.53 774.768 469.02C774.288 469.5 774.048 470.175 774.048 471.045V471.18C774.048 472.05 774.288 472.729 774.768 473.219C775.258 473.699 775.878 473.939 776.627 473.939ZM790.071 474.989C789.331 474.989 788.681 474.834 788.121 474.524C787.561 474.204 787.126 473.759 786.817 473.189C786.507 472.619 786.352 471.96 786.352 471.21V471.03C786.352 470.27 786.507 469.605 786.817 469.035C787.126 468.465 787.556 468.025 788.106 467.715C788.656 467.395 789.286 467.235 789.996 467.235C790.686 467.235 791.296 467.385 791.826 467.685C792.356 467.975 792.77 468.395 793.07 468.945C793.37 469.495 793.52 470.14 793.52 470.88V471.42H787.536C787.566 472.21 787.821 472.829 788.301 473.279C788.781 473.719 789.381 473.939 790.101 473.939C790.731 473.939 791.216 473.794 791.556 473.504C791.896 473.214 792.156 472.869 792.336 472.469L793.355 472.964C793.205 473.274 792.995 473.584 792.725 473.894C792.466 474.204 792.121 474.464 791.691 474.674C791.271 474.884 790.731 474.989 790.071 474.989ZM787.551 470.445H792.321C792.281 469.765 792.046 469.235 791.616 468.855C791.196 468.475 790.656 468.285 789.996 468.285C789.326 468.285 788.776 468.475 788.346 468.855C787.916 469.235 787.651 469.765 787.551 470.445ZM794.489 474.779L797.429 471.06L794.579 467.445H796.004L798.193 470.28H798.403L800.578 467.445H802.018L799.153 471.06L802.093 474.779H800.653L798.403 471.855H798.193L795.944 474.779H794.489ZM806.855 474.989C806.146 474.989 805.506 474.839 804.936 474.539C804.376 474.229 803.931 473.789 803.601 473.219C803.281 472.649 803.121 471.975 803.121 471.195V471.03C803.121 470.24 803.281 469.565 803.601 469.005C803.931 468.435 804.376 468 804.936 467.7C805.506 467.39 806.146 467.235 806.855 467.235C807.555 467.235 808.15 467.365 808.64 467.625C809.14 467.885 809.53 468.23 809.81 468.66C810.1 469.09 810.285 469.55 810.365 470.04L809.21 470.28C809.16 469.92 809.04 469.59 808.85 469.29C808.67 468.99 808.415 468.75 808.085 468.57C807.755 468.39 807.35 468.3 806.87 468.3C806.38 468.3 805.941 468.41 805.551 468.63C805.171 468.85 804.866 469.165 804.636 469.575C804.416 469.985 804.306 470.475 804.306 471.045V471.18C804.306 471.75 804.416 472.24 804.636 472.649C804.866 473.059 805.171 473.374 805.551 473.594C805.941 473.814 806.38 473.924 806.87 473.924C807.6 473.924 808.155 473.734 808.535 473.354C808.925 472.974 809.165 472.504 809.255 471.945L810.425 472.2C810.315 472.679 810.115 473.134 809.825 473.564C809.535 473.994 809.14 474.339 808.64 474.599C808.15 474.859 807.555 474.989 806.855 474.989ZM812.444 474.779V464.281H813.629V468.615H813.839C813.939 468.395 814.089 468.19 814.289 468C814.499 467.8 814.764 467.635 815.084 467.505C815.414 467.375 815.829 467.31 816.329 467.31C816.878 467.31 817.368 467.43 817.798 467.67C818.238 467.9 818.588 468.24 818.848 468.69C819.108 469.13 819.238 469.68 819.238 470.34V474.779H818.053V470.43C818.053 469.7 817.868 469.17 817.498 468.84C817.138 468.51 816.649 468.345 816.029 468.345C815.319 468.345 814.739 468.575 814.289 469.035C813.849 469.495 813.629 470.18 813.629 471.09V474.779H812.444ZM823.891 474.989C823.382 474.989 822.917 474.899 822.497 474.719C822.077 474.539 821.747 474.279 821.507 473.939C821.267 473.599 821.147 473.184 821.147 472.694C821.147 472.195 821.267 471.785 821.507 471.465C821.747 471.135 822.077 470.89 822.497 470.73C822.917 470.56 823.387 470.475 823.906 470.475H826.381V469.935C826.381 469.415 826.226 469.005 825.916 468.705C825.616 468.405 825.166 468.255 824.566 468.255C823.976 468.255 823.516 468.4 823.187 468.69C822.857 468.97 822.632 469.35 822.512 469.83L821.402 469.47C821.522 469.06 821.712 468.69 821.972 468.36C822.232 468.02 822.577 467.75 823.007 467.55C823.447 467.34 823.971 467.235 824.581 467.235C825.521 467.235 826.251 467.48 826.771 467.97C827.291 468.45 827.551 469.13 827.551 470.01V473.324C827.551 473.624 827.691 473.774 827.971 473.774H828.646V474.779H827.611C827.281 474.779 827.016 474.689 826.816 474.509C826.616 474.319 826.516 474.069 826.516 473.759V473.684H826.336C826.226 473.874 826.076 474.074 825.886 474.284C825.706 474.484 825.456 474.649 825.136 474.779C824.816 474.919 824.401 474.989 823.891 474.989ZM824.026 473.969C824.726 473.969 825.291 473.764 825.721 473.354C826.161 472.934 826.381 472.35 826.381 471.6V471.435H823.951C823.481 471.435 823.092 471.54 822.782 471.75C822.482 471.95 822.332 472.255 822.332 472.664C822.332 473.074 822.487 473.394 822.797 473.624C823.117 473.854 823.526 473.969 824.026 473.969ZM830.268 474.779V467.445H831.423V468.69H831.633C831.793 468.34 832.063 468.025 832.443 467.745C832.833 467.455 833.403 467.31 834.153 467.31C834.702 467.31 835.192 467.425 835.622 467.655C836.062 467.885 836.412 468.225 836.672 468.675C836.932 469.125 837.062 469.68 837.062 470.34V474.779H835.877V470.43C835.877 469.7 835.692 469.17 835.322 468.84C834.962 468.51 834.472 468.345 833.853 468.345C833.143 468.345 832.563 468.575 832.113 469.035C831.673 469.495 831.453 470.18 831.453 471.09V474.779H830.268ZM839.106 471.15V470.94C839.106 470.17 839.261 469.51 839.571 468.96C839.881 468.41 840.301 467.985 840.831 467.685C841.36 467.385 841.94 467.235 842.57 467.235C843.34 467.235 843.93 467.385 844.34 467.685C844.76 467.975 845.07 468.3 845.27 468.66H845.48V467.445H846.605V476.489C846.605 476.889 846.495 477.204 846.275 477.434C846.055 477.664 845.735 477.779 845.315 477.779H840.336V476.729H845C845.3 476.729 845.45 476.579 845.45 476.279V473.489H845.24C845.12 473.709 844.95 473.924 844.73 474.134C844.51 474.344 844.225 474.519 843.875 474.659C843.525 474.789 843.09 474.854 842.57 474.854C841.94 474.854 841.36 474.704 840.831 474.404C840.301 474.104 839.881 473.679 839.571 473.129C839.261 472.569 839.106 471.91 839.106 471.15ZM842.885 473.804C843.645 473.804 844.26 473.564 844.73 473.084C845.21 472.604 845.45 471.945 845.45 471.105V470.985C845.45 470.135 845.21 469.475 844.73 469.005C844.26 468.525 843.645 468.285 842.885 468.285C842.135 468.285 841.515 468.525 841.026 469.005C840.546 469.475 840.306 470.135 840.306 470.985V471.105C840.306 471.945 840.546 472.604 841.026 473.084C841.515 473.564 842.135 473.804 842.885 473.804ZM852.447 474.989C851.708 474.989 851.058 474.834 850.498 474.524C849.938 474.204 849.503 473.759 849.193 473.189C848.883 472.619 848.728 471.96 848.728 471.21V471.03C848.728 470.27 848.883 469.605 849.193 469.035C849.503 468.465 849.933 468.025 850.483 467.715C851.033 467.395 851.663 467.235 852.373 467.235C853.062 467.235 853.672 467.385 854.202 467.685C854.732 467.975 855.147 468.395 855.447 468.945C855.747 469.495 855.897 470.14 855.897 470.88V471.42H849.913C849.943 472.21 850.198 472.829 850.678 473.279C851.158 473.719 851.758 473.939 852.477 473.939C853.107 473.939 853.592 473.794 853.932 473.504C854.272 473.214 854.532 472.869 854.712 472.469L855.732 472.964C855.582 473.274 855.372 473.584 855.102 473.894C854.842 474.204 854.497 474.464 854.067 474.674C853.647 474.884 853.107 474.989 852.447 474.989ZM849.928 470.445H854.697C854.657 469.765 854.422 469.235 853.992 468.855C853.572 468.475 853.032 468.285 852.373 468.285C851.703 468.285 851.153 468.475 850.723 468.855C850.293 469.235 850.028 469.765 849.928 470.445Z" fill="#ADADAD"/>
<rect x="682.726" y="487.298" width="209.053" height="158.353" fill="#181B60"/>
<rect x="682.726" y="487.298" width="209.053" height="158.353" stroke="#545DFF" stroke-width="2.197"/>
<path d="M796.868 566.282L787.252 571.154L777.637 566.282L787.252 551.409L796.868 566.282Z" stroke="#545DFF" stroke-width="2.197" stroke-miterlimit="10" stroke-linejoin="round"/>
<path d="M796.868 570.256L787.252 575.128L777.637 570.256L787.252 581.539L796.868 570.256Z" stroke="#545DFF" stroke-width="2.197" stroke-miterlimit="10" stroke-linejoin="round"/>
<rect x="904.116" y="487.298" width="209.053" height="158.353" fill="#4E1004"/>
<rect x="904.116" y="487.298" width="209.053" height="158.353" stroke="#F55C3D" stroke-width="2.197"/>
<path d="M1007.43 577.356C1012.87 577.356 1017.27 572.494 1017.27 566.474C1017.27 560.454 1012.87 555.592 1007.43 555.592H999.904V577.24L1007.43 577.356Z" stroke="#F55C3D" stroke-width="2.197" stroke-miterlimit="10"/>
<path d="M1021.32 563.58H995.967" stroke="#F55C3D" stroke-width="2.197" stroke-miterlimit="10"/>
<path d="M1021.32 569.484H995.967" stroke="#F55C3D" stroke-width="2.197" stroke-miterlimit="10"/>
<rect x="669.207" y="261.686" width="210.743" height="154.973" fill="#023B0E"/>
<rect x="669.207" y="261.686" width="210.743" height="154.973" stroke="#06C630" stroke-width="2.197"/>
<path d="M763.85 340.44C764.55 340.44 765.117 339.873 765.117 339.173C765.117 338.473 764.55 337.905 763.85 337.905C763.15 337.905 762.582 338.473 762.582 339.173C762.582 339.873 763.15 340.44 763.85 340.44Z" fill="#06C630"/>
<path d="M774.902 343.723C777.414 343.723 779.452 341.686 779.452 339.173C779.452 336.66 777.414 334.623 774.902 334.623C772.389 334.623 770.352 336.66 770.352 339.173C770.352 341.686 772.389 343.723 774.902 343.723Z" stroke="#06C630" stroke-width="2.197" stroke-miterlimit="10"/>
<path d="M785.952 340.44C786.652 340.44 787.22 339.873 787.22 339.173C787.22 338.473 786.652 337.905 785.952 337.905C785.252 337.905 784.685 338.473 784.685 339.173C784.685 339.873 785.252 340.44 785.952 340.44Z" fill="#06C630"/>
<rect x="757.746" y="330.723" width="33.6656" height="16.9001" stroke="#06C630" stroke-width="2.197"/>
<rect x="891.019" y="225.576" width="236.6" height="206.18" fill="#4C4C4C" fill-opacity="0.2"/>
<rect x="891.019" y="225.576" width="236.6" height="206.18" stroke="#4C4C4C" stroke-width="1.69" stroke-dasharray="5.07 3.38"/>
<path d="M908.388 249.701C907.628 249.701 906.948 249.566 906.348 249.296C905.748 249.026 905.273 248.621 904.923 248.081C904.583 247.531 904.413 246.846 904.413 246.026V245.711H905.658V246.026C905.658 246.896 905.913 247.546 906.423 247.976C906.933 248.396 907.588 248.606 908.388 248.606C909.207 248.606 909.832 248.421 910.262 248.051C910.692 247.681 910.907 247.216 910.907 246.656C910.907 246.266 910.807 245.956 910.607 245.726C910.417 245.496 910.147 245.311 909.797 245.171C909.447 245.021 909.037 244.891 908.567 244.781L907.788 244.586C907.178 244.426 906.638 244.232 906.168 244.002C905.698 243.772 905.328 243.472 905.058 243.102C904.798 242.722 904.668 242.237 904.668 241.647C904.668 241.057 904.813 240.547 905.103 240.117C905.403 239.687 905.818 239.357 906.348 239.127C906.888 238.897 907.508 238.782 908.208 238.782C908.917 238.782 909.552 238.907 910.112 239.157C910.682 239.397 911.127 239.757 911.447 240.237C911.777 240.707 911.942 241.302 911.942 242.022V242.652H910.697V242.022C910.697 241.512 910.587 241.102 910.367 240.792C910.157 240.482 909.862 240.252 909.482 240.102C909.112 239.952 908.687 239.877 908.208 239.877C907.518 239.877 906.963 240.032 906.543 240.342C906.123 240.642 905.913 241.072 905.913 241.632C905.913 242.002 906.003 242.302 906.183 242.532C906.363 242.762 906.618 242.952 906.948 243.102C907.278 243.242 907.673 243.367 908.133 243.477L908.912 243.672C909.522 243.802 910.067 243.982 910.547 244.212C911.037 244.431 911.427 244.736 911.717 245.126C912.007 245.506 912.152 246.006 912.152 246.626C912.152 247.246 911.997 247.786 911.687 248.246C911.377 248.706 910.937 249.066 910.367 249.326C909.807 249.576 909.147 249.701 908.388 249.701ZM915.156 249.491L913.686 242.157H914.886L916.1 248.696H916.31L917.915 242.157H919.88L921.484 248.696H921.694L922.909 242.157H924.109L922.639 249.491H920.615L918.995 242.952H918.8L917.18 249.491H915.156ZM928.278 249.701C927.768 249.701 927.303 249.611 926.883 249.431C926.463 249.251 926.133 248.991 925.893 248.651C925.653 248.311 925.533 247.896 925.533 247.406C925.533 246.906 925.653 246.496 925.893 246.176C926.133 245.846 926.463 245.601 926.883 245.441C927.303 245.271 927.773 245.186 928.293 245.186H930.767V244.646C930.767 244.127 930.612 243.717 930.302 243.417C930.002 243.117 929.552 242.967 928.953 242.967C928.363 242.967 927.903 243.112 927.573 243.402C927.243 243.682 927.018 244.062 926.898 244.541L925.788 244.182C925.908 243.772 926.098 243.402 926.358 243.072C926.618 242.732 926.963 242.462 927.393 242.262C927.833 242.052 928.358 241.947 928.968 241.947C929.907 241.947 930.637 242.192 931.157 242.682C931.677 243.162 931.937 243.842 931.937 244.721V248.036C931.937 248.336 932.077 248.486 932.357 248.486H933.032V249.491H931.997C931.667 249.491 931.402 249.401 931.202 249.221C931.002 249.031 930.902 248.781 930.902 248.471V248.396H930.722C930.612 248.586 930.462 248.786 930.272 248.996C930.092 249.196 929.842 249.361 929.522 249.491C929.203 249.631 928.788 249.701 928.278 249.701ZM928.413 248.681C929.113 248.681 929.677 248.476 930.107 248.066C930.547 247.646 930.767 247.061 930.767 246.311V246.146H928.338C927.868 246.146 927.478 246.251 927.168 246.461C926.868 246.661 926.718 246.966 926.718 247.376C926.718 247.786 926.873 248.106 927.183 248.336C927.503 248.566 927.913 248.681 928.413 248.681ZM934.655 252.49V242.157H935.809V243.372H936.019C936.209 243.002 936.514 242.672 936.934 242.382C937.364 242.092 937.959 241.947 938.719 241.947C939.349 241.947 939.924 242.102 940.443 242.412C940.973 242.712 941.393 243.142 941.703 243.702C942.023 244.262 942.183 244.936 942.183 245.726V245.921C942.183 246.701 942.028 247.376 941.718 247.946C941.408 248.516 940.988 248.951 940.458 249.251C939.939 249.551 939.359 249.701 938.719 249.701C938.209 249.701 937.774 249.631 937.414 249.491C937.064 249.361 936.779 249.191 936.559 248.981C936.339 248.771 936.169 248.556 936.049 248.336H935.839V252.49H934.655ZM938.404 248.651C939.164 248.651 939.779 248.411 940.249 247.931C940.728 247.441 940.968 246.761 940.968 245.891V245.756C940.968 244.886 940.728 244.212 940.249 243.732C939.779 243.242 939.164 242.997 938.404 242.997C937.654 242.997 937.034 243.242 936.544 243.732C936.064 244.212 935.824 244.886 935.824 245.756V245.891C935.824 246.761 936.064 247.441 936.544 247.931C937.034 248.411 937.654 248.651 938.404 248.651ZM948.37 249.701C947.611 249.701 947.016 249.556 946.586 249.266C946.166 248.976 945.861 248.646 945.671 248.276H945.461V249.491H944.306V238.992H945.491V243.312H945.701C945.821 243.082 945.991 242.867 946.211 242.667C946.431 242.457 946.716 242.287 947.066 242.157C947.426 242.017 947.86 241.947 948.37 241.947C949.01 241.947 949.59 242.102 950.11 242.412C950.64 242.712 951.06 243.147 951.37 243.717C951.68 244.277 951.835 244.946 951.835 245.726V245.921C951.835 246.701 951.675 247.376 951.355 247.946C951.045 248.516 950.625 248.951 950.095 249.251C949.575 249.551 949 249.701 948.37 249.701ZM948.055 248.651C948.815 248.651 949.43 248.411 949.9 247.931C950.38 247.441 950.62 246.761 950.62 245.891V245.756C950.62 244.886 950.38 244.212 949.9 243.732C949.43 243.242 948.815 242.997 948.055 242.997C947.306 242.997 946.686 243.242 946.196 243.732C945.716 244.212 945.476 244.886 945.476 245.756V245.891C945.476 246.761 945.716 247.441 946.196 247.931C946.686 248.411 947.306 248.651 948.055 248.651ZM957.347 249.701C956.607 249.701 955.952 249.546 955.382 249.236C954.823 248.926 954.383 248.491 954.063 247.931C953.753 247.361 953.598 246.691 953.598 245.921V245.726C953.598 244.966 953.753 244.302 954.063 243.732C954.383 243.162 954.823 242.722 955.382 242.412C955.952 242.102 956.607 241.947 957.347 241.947C958.087 241.947 958.737 242.102 959.297 242.412C959.867 242.722 960.307 243.162 960.616 243.732C960.936 244.302 961.096 244.966 961.096 245.726V245.921C961.096 246.691 960.936 247.361 960.616 247.931C960.307 248.491 959.867 248.926 959.297 249.236C958.737 249.546 958.087 249.701 957.347 249.701ZM957.347 248.636C958.127 248.636 958.747 248.391 959.207 247.901C959.677 247.401 959.912 246.731 959.912 245.891V245.756C959.912 244.916 959.677 244.252 959.207 243.762C958.747 243.262 958.127 243.012 957.347 243.012C956.577 243.012 955.957 243.262 955.487 243.762C955.018 244.252 954.783 244.916 954.783 245.756V245.891C954.783 246.731 955.018 247.401 955.487 247.901C955.957 248.391 956.577 248.636 957.347 248.636ZM962.131 249.491L965.07 245.771L962.221 242.157H963.645L965.835 244.991H966.045L968.22 242.157H969.659L966.795 245.771L969.734 249.491H968.295L966.045 246.566H965.835L963.585 249.491H962.131ZM978.427 249.701C977.517 249.701 976.747 249.491 976.117 249.071C975.497 248.651 975.122 247.986 974.992 247.076L976.117 246.821C976.197 247.301 976.347 247.681 976.567 247.961C976.787 248.231 977.057 248.426 977.377 248.546C977.707 248.656 978.057 248.711 978.427 248.711C978.977 248.711 979.412 248.601 979.732 248.381C980.052 248.161 980.212 247.866 980.212 247.496C980.212 247.116 980.057 246.851 979.747 246.701C979.447 246.541 979.032 246.411 978.502 246.311L977.887 246.206C977.417 246.126 976.987 246.001 976.597 245.831C976.207 245.661 975.897 245.431 975.667 245.141C975.437 244.851 975.322 244.486 975.322 244.047C975.322 243.387 975.577 242.872 976.087 242.502C976.597 242.132 977.272 241.947 978.112 241.947C978.942 241.947 979.612 242.137 980.122 242.517C980.641 242.887 980.976 243.412 981.126 244.092L980.017 244.376C979.927 243.847 979.712 243.477 979.372 243.267C979.032 243.047 978.612 242.937 978.112 242.937C977.612 242.937 977.217 243.032 976.927 243.222C976.637 243.402 976.492 243.672 976.492 244.032C976.492 244.381 976.627 244.641 976.897 244.811C977.177 244.971 977.547 245.091 978.007 245.171L978.622 245.276C979.142 245.366 979.607 245.491 980.017 245.651C980.437 245.801 980.766 246.021 981.006 246.311C981.256 246.601 981.381 246.981 981.381 247.451C981.381 248.171 981.111 248.726 980.571 249.116C980.042 249.506 979.327 249.701 978.427 249.701ZM983.381 249.491V242.157H984.536V243.072H984.746C984.886 242.812 985.116 242.572 985.436 242.352C985.756 242.132 986.206 242.022 986.786 242.022C987.355 242.022 987.815 242.147 988.165 242.397C988.525 242.647 988.785 242.952 988.945 243.312H989.155C989.325 242.952 989.58 242.647 989.92 242.397C990.27 242.147 990.755 242.022 991.375 242.022C991.865 242.022 992.295 242.122 992.664 242.322C993.034 242.522 993.324 242.812 993.534 243.192C993.754 243.562 993.864 244.007 993.864 244.526V249.491H992.679V244.631C992.679 244.142 992.535 243.757 992.245 243.477C991.965 243.187 991.57 243.042 991.06 243.042C990.52 243.042 990.075 243.217 989.725 243.567C989.385 243.917 989.215 244.421 989.215 245.081V249.491H988.03V244.631C988.03 244.142 987.885 243.757 987.595 243.477C987.315 243.187 986.921 243.042 986.411 243.042C985.871 243.042 985.426 243.217 985.076 243.567C984.736 243.917 984.566 244.421 984.566 245.081V249.491H983.381ZM998.534 249.701C998.024 249.701 997.559 249.611 997.139 249.431C996.719 249.251 996.389 248.991 996.149 248.651C995.909 248.311 995.789 247.896 995.789 247.406C995.789 246.906 995.909 246.496 996.149 246.176C996.389 245.846 996.719 245.601 997.139 245.441C997.559 245.271 998.029 245.186 998.549 245.186H1001.02V244.646C1001.02 244.127 1000.87 243.717 1000.56 243.417C1000.26 243.117 999.808 242.967 999.209 242.967C998.619 242.967 998.159 243.112 997.829 243.402C997.499 243.682 997.274 244.062 997.154 244.541L996.044 244.182C996.164 243.772 996.354 243.402 996.614 243.072C996.874 242.732 997.219 242.462 997.649 242.262C998.089 242.052 998.614 241.947 999.224 241.947C1000.16 241.947 1000.89 242.192 1001.41 242.682C1001.93 243.162 1002.19 243.842 1002.19 244.721V248.036C1002.19 248.336 1002.33 248.486 1002.61 248.486H1003.29V249.491H1002.25C1001.92 249.491 1001.66 249.401 1001.46 249.221C1001.26 249.031 1001.16 248.781 1001.16 248.471V248.396H1000.98C1000.87 248.586 1000.72 248.786 1000.53 248.996C1000.35 249.196 1000.1 249.361 999.778 249.491C999.459 249.631 999.044 249.701 998.534 249.701ZM998.669 248.681C999.369 248.681 999.933 248.476 1000.36 248.066C1000.8 247.646 1001.02 247.061 1001.02 246.311V246.146H998.594C998.124 246.146 997.734 246.251 997.424 246.461C997.124 246.661 996.974 246.966 996.974 247.376C996.974 247.786 997.129 248.106 997.439 248.336C997.759 248.566 998.169 248.681 998.669 248.681ZM1004.91 249.491V242.157H1006.07V243.057H1006.28C1006.41 242.737 1006.61 242.502 1006.88 242.352C1007.15 242.202 1007.5 242.127 1007.94 242.127H1008.81V243.207H1007.86C1007.34 243.207 1006.91 243.357 1006.58 243.657C1006.26 243.947 1006.1 244.401 1006.1 245.021V249.491H1004.91ZM1013.26 249.491C1012.84 249.491 1012.52 249.376 1012.29 249.146C1012.07 248.916 1011.96 248.601 1011.96 248.201V243.192H1009.75V242.157H1011.96V239.547H1013.14V242.157H1015.54V243.192H1013.14V248.021C1013.14 248.321 1013.29 248.471 1013.58 248.471H1015.21V249.491H1013.26ZM1024.69 249.701C1023.98 249.701 1023.34 249.551 1022.77 249.251C1022.21 248.941 1021.76 248.501 1021.43 247.931C1021.11 247.361 1020.95 246.686 1020.95 245.906V245.741C1020.95 244.951 1021.11 244.277 1021.43 243.717C1021.76 243.147 1022.21 242.712 1022.77 242.412C1023.34 242.102 1023.98 241.947 1024.69 241.947C1025.39 241.947 1025.98 242.077 1026.47 242.337C1026.97 242.597 1027.36 242.942 1027.64 243.372C1027.93 243.802 1028.12 244.262 1028.2 244.751L1027.04 244.991C1026.99 244.631 1026.87 244.302 1026.68 244.002C1026.5 243.702 1026.25 243.462 1025.92 243.282C1025.59 243.102 1025.18 243.012 1024.7 243.012C1024.21 243.012 1023.77 243.122 1023.38 243.342C1023 243.562 1022.7 243.877 1022.47 244.287C1022.25 244.696 1022.14 245.186 1022.14 245.756V245.891C1022.14 246.461 1022.25 246.951 1022.47 247.361C1022.7 247.771 1023 248.086 1023.38 248.306C1023.77 248.526 1024.21 248.636 1024.7 248.636C1025.43 248.636 1025.99 248.446 1026.37 248.066C1026.76 247.686 1027 247.216 1027.09 246.656L1028.26 246.911C1028.15 247.391 1027.95 247.846 1027.66 248.276C1027.37 248.706 1026.97 249.051 1026.47 249.311C1025.98 249.571 1025.39 249.701 1024.69 249.701ZM1033.67 249.701C1032.93 249.701 1032.27 249.546 1031.7 249.236C1031.14 248.926 1030.7 248.491 1030.38 247.931C1030.07 247.361 1029.92 246.691 1029.92 245.921V245.726C1029.92 244.966 1030.07 244.302 1030.38 243.732C1030.7 243.162 1031.14 242.722 1031.7 242.412C1032.27 242.102 1032.93 241.947 1033.67 241.947C1034.41 241.947 1035.06 242.102 1035.62 242.412C1036.19 242.722 1036.63 243.162 1036.94 243.732C1037.26 244.302 1037.42 244.966 1037.42 245.726V245.921C1037.42 246.691 1037.26 247.361 1036.94 247.931C1036.63 248.491 1036.19 248.926 1035.62 249.236C1035.06 249.546 1034.41 249.701 1033.67 249.701ZM1033.67 248.636C1034.45 248.636 1035.07 248.391 1035.53 247.901C1036 247.401 1036.23 246.731 1036.23 245.891V245.756C1036.23 244.916 1036 244.252 1035.53 243.762C1035.07 243.262 1034.45 243.012 1033.67 243.012C1032.9 243.012 1032.28 243.262 1031.81 243.762C1031.34 244.252 1031.1 244.916 1031.1 245.756V245.891C1031.1 246.731 1031.34 247.401 1031.81 247.901C1032.28 248.391 1032.9 248.636 1033.67 248.636ZM1039.55 249.491V242.157H1040.7V243.402H1040.91C1041.07 243.052 1041.34 242.737 1041.72 242.457C1042.11 242.167 1042.68 242.022 1043.43 242.022C1043.98 242.022 1044.47 242.137 1044.9 242.367C1045.34 242.597 1045.69 242.937 1045.95 243.387C1046.21 243.837 1046.34 244.391 1046.34 245.051V249.491H1045.16V245.141C1045.16 244.411 1044.97 243.882 1044.6 243.552C1044.24 243.222 1043.75 243.057 1043.13 243.057C1042.42 243.057 1041.84 243.287 1041.39 243.747C1040.95 244.207 1040.73 244.891 1040.73 245.801V249.491H1039.55ZM1051.24 249.491C1050.82 249.491 1050.5 249.376 1050.27 249.146C1050.05 248.916 1049.94 248.601 1049.94 248.201V243.192H1047.73V242.157H1049.94V239.547H1051.12V242.157H1053.52V243.192H1051.12V248.021C1051.12 248.321 1051.26 248.471 1051.55 248.471H1053.19V249.491H1051.24ZM1055.44 249.491V242.157H1056.59V243.057H1056.8C1056.93 242.737 1057.13 242.502 1057.4 242.352C1057.67 242.202 1058.03 242.127 1058.47 242.127H1059.34V243.207H1058.39C1057.86 243.207 1057.43 243.357 1057.1 243.657C1056.78 243.947 1056.62 244.401 1056.62 245.021V249.491H1055.44ZM1063.09 249.701C1062.58 249.701 1062.12 249.611 1061.7 249.431C1061.28 249.251 1060.95 248.991 1060.71 248.651C1060.47 248.311 1060.35 247.896 1060.35 247.406C1060.35 246.906 1060.47 246.496 1060.71 246.176C1060.95 245.846 1061.28 245.601 1061.7 245.441C1062.12 245.271 1062.59 245.186 1063.11 245.186H1065.58V244.646C1065.58 244.127 1065.43 243.717 1065.12 243.417C1064.82 243.117 1064.37 242.967 1063.77 242.967C1063.18 242.967 1062.72 243.112 1062.39 243.402C1062.06 243.682 1061.83 244.062 1061.71 244.541L1060.6 244.182C1060.72 243.772 1060.91 243.402 1061.17 243.072C1061.43 242.732 1061.78 242.462 1062.21 242.262C1062.65 242.052 1063.17 241.947 1063.78 241.947C1064.72 241.947 1065.45 242.192 1065.97 242.682C1066.49 243.162 1066.75 243.842 1066.75 244.721V248.036C1066.75 248.336 1066.89 248.486 1067.17 248.486H1067.85V249.491H1066.81C1066.48 249.491 1066.22 249.401 1066.02 249.221C1065.82 249.031 1065.72 248.781 1065.72 248.471V248.396H1065.54C1065.43 248.586 1065.28 248.786 1065.09 248.996C1064.91 249.196 1064.66 249.361 1064.34 249.491C1064.02 249.631 1063.6 249.701 1063.09 249.701ZM1063.23 248.681C1063.93 248.681 1064.49 248.476 1064.92 248.066C1065.36 247.646 1065.58 247.061 1065.58 246.311V246.146H1063.15C1062.68 246.146 1062.29 246.251 1061.98 246.461C1061.68 246.661 1061.53 246.966 1061.53 247.376C1061.53 247.786 1061.69 248.106 1062 248.336C1062.32 248.566 1062.73 248.681 1063.23 248.681ZM1072.64 249.701C1071.93 249.701 1071.29 249.551 1070.72 249.251C1070.16 248.941 1069.71 248.501 1069.38 247.931C1069.06 247.361 1068.9 246.686 1068.9 245.906V245.741C1068.9 244.951 1069.06 244.277 1069.38 243.717C1069.71 243.147 1070.16 242.712 1070.72 242.412C1071.29 242.102 1071.93 241.947 1072.64 241.947C1073.34 241.947 1073.93 242.077 1074.42 242.337C1074.92 242.597 1075.31 242.942 1075.59 243.372C1075.88 243.802 1076.07 244.262 1076.15 244.751L1074.99 244.991C1074.94 244.631 1074.82 244.302 1074.63 244.002C1074.45 243.702 1074.2 243.462 1073.87 243.282C1073.54 243.102 1073.13 243.012 1072.65 243.012C1072.16 243.012 1071.72 243.122 1071.33 243.342C1070.95 243.562 1070.65 243.877 1070.42 244.287C1070.2 244.696 1070.09 245.186 1070.09 245.756V245.891C1070.09 246.461 1070.2 246.951 1070.42 247.361C1070.65 247.771 1070.95 248.086 1071.33 248.306C1071.72 248.526 1072.16 248.636 1072.65 248.636C1073.38 248.636 1073.94 248.446 1074.32 248.066C1074.71 247.686 1074.95 247.216 1075.04 246.656L1076.21 246.911C1076.1 247.391 1075.9 247.846 1075.61 248.276C1075.32 248.706 1074.92 249.051 1074.42 249.311C1073.93 249.571 1073.34 249.701 1072.64 249.701ZM1080.62 249.491C1080.2 249.491 1079.87 249.376 1079.64 249.146C1079.42 248.916 1079.31 248.601 1079.31 248.201V243.192H1077.11V242.157H1079.31V239.547H1080.5V242.157H1082.9V243.192H1080.5V248.021C1080.5 248.321 1080.64 248.471 1080.93 248.471H1082.57V249.491H1080.62Z" fill="#ADADAD"/>
<rect x="904.792" y="261.969" width="209.053" height="154.973" fill="#4E1004"/>
<rect x="904.792" y="261.969" width="209.053" height="154.973" stroke="#F55C3D" stroke-width="2.197"/>
<path d="M1008.1 350.337C1013.54 350.337 1017.94 345.475 1017.94 339.456C1017.94 333.436 1013.54 328.574 1008.1 328.574H1000.58V350.222L1008.1 350.337Z" stroke="#F55C3D" stroke-width="2.197" stroke-miterlimit="10"/>
<path d="M1021.99 336.561H996.643" stroke="#F55C3D" stroke-width="2.197" stroke-miterlimit="10"/>
<path d="M1021.99 342.465H996.643" stroke="#F55C3D" stroke-width="2.197" stroke-miterlimit="10"/>
<path fill-rule="evenodd" clip-rule="evenodd" d="M361.054 438.557C360.869 435.532 358.262 433.225 355.226 433.411C354.625 433.447 354.056 433.578 353.531 433.786L351.913 429.701C352.864 429.324 353.888 429.09 354.958 429.025C360.411 428.691 365.106 432.836 365.44 438.288C365.773 443.741 361.618 448.427 356.165 448.761C355.184 448.821 354.223 448.735 353.307 448.522C352.926 448.433 352.554 448.322 352.191 448.191L353.687 444.059C353.888 444.132 354.094 444.193 354.305 444.243C354.811 444.361 355.345 444.409 355.897 444.375C358.933 444.189 361.239 441.582 361.054 438.557ZM340.268 433.602C337.235 433.602 334.776 436.061 334.776 439.094C334.776 442.127 337.235 444.587 340.268 444.587C343.302 444.587 345.761 442.127 345.761 439.094C345.761 436.061 343.302 433.602 340.268 433.602ZM330.382 439.094C330.382 433.634 334.808 429.208 340.268 429.208C345.728 429.208 350.155 433.634 350.155 439.094C350.155 444.554 345.728 448.981 340.268 448.981C334.808 448.981 330.382 444.554 330.382 439.094ZM322.692 464.358C322.692 457.078 328.594 451.176 335.874 451.176H344.662C351.943 451.176 357.844 457.078 357.844 464.358V466.717H368.07V464.358C368.07 459.505 364.135 455.57 359.282 455.57H359.108V451.176H359.282C366.562 451.176 372.464 457.078 372.464 464.358V471.111H322.692V464.358ZM353.45 466.717V464.358C353.45 459.505 349.516 455.57 344.662 455.57H335.874C331.021 455.57 327.086 459.505 327.086 464.358V466.717H353.45Z" fill="#8F8F8F"/>
<path d="M402.112 460.489C400.41 460.489 398.943 460.182 397.713 459.567C396.503 458.952 395.56 458.07 394.883 456.922C394.227 455.753 393.899 454.338 393.899 452.677V438.528H397.252V452.769C397.252 454.287 397.672 455.455 398.513 456.276C399.354 457.096 400.553 457.506 402.112 457.506C403.67 457.506 404.87 457.096 405.71 456.276C406.551 455.455 406.971 454.287 406.971 452.769V438.528H410.293V452.677C410.293 454.338 409.965 455.753 409.309 456.922C408.653 458.07 407.71 458.952 406.479 459.567C405.249 460.182 403.793 460.489 402.112 460.489ZM420.934 460.489C419.006 460.489 417.407 460.059 416.136 459.198C414.864 458.336 414.085 457.034 413.798 455.291L416.751 454.584C416.915 455.425 417.192 456.091 417.581 456.583C417.971 457.075 418.453 457.424 419.027 457.629C419.621 457.834 420.257 457.937 420.934 457.937C421.939 457.937 422.707 457.742 423.241 457.352C423.794 456.963 424.071 456.46 424.071 455.845C424.071 455.23 423.815 454.779 423.302 454.492C422.79 454.205 422.031 453.969 421.026 453.784L419.98 453.6C418.955 453.415 418.022 453.149 417.181 452.8C416.341 452.451 415.674 451.969 415.182 451.354C414.69 450.739 414.444 449.95 414.444 448.986C414.444 447.551 414.977 446.443 416.043 445.664C417.11 444.864 418.524 444.465 420.288 444.465C421.99 444.465 423.384 444.854 424.471 445.633C425.578 446.392 426.296 447.428 426.624 448.74L423.671 449.57C423.487 448.648 423.097 448.002 422.502 447.633C421.908 447.243 421.17 447.048 420.288 447.048C419.427 447.048 418.75 447.212 418.258 447.54C417.766 447.848 417.52 448.289 417.52 448.863C417.52 449.478 417.755 449.929 418.227 450.216C418.719 450.503 419.375 450.719 420.196 450.862L421.272 451.047C422.359 451.231 423.353 451.488 424.256 451.816C425.158 452.144 425.865 452.615 426.378 453.231C426.911 453.846 427.178 454.666 427.178 455.691C427.178 457.209 426.614 458.388 425.486 459.228C424.358 460.069 422.841 460.489 420.934 460.489ZM437.832 460.489C436.294 460.489 434.951 460.172 433.803 459.536C432.654 458.88 431.752 457.967 431.096 456.798C430.46 455.609 430.142 454.235 430.142 452.677V452.308C430.142 450.729 430.46 449.355 431.096 448.186C431.732 446.997 432.613 446.084 433.741 445.449C434.889 444.793 436.212 444.465 437.709 444.465C439.165 444.465 440.436 444.793 441.523 445.449C442.63 446.084 443.491 446.976 444.107 448.125C444.722 449.273 445.029 450.616 445.029 452.154V453.354H433.372C433.413 454.686 433.854 455.753 434.695 456.552C435.556 457.332 436.622 457.721 437.893 457.721C439.083 457.721 439.975 457.455 440.569 456.922C441.185 456.388 441.656 455.773 441.984 455.076L444.599 456.429C444.312 457.004 443.891 457.608 443.338 458.244C442.804 458.88 442.097 459.413 441.215 459.844C440.334 460.274 439.206 460.489 437.832 460.489ZM433.403 450.924H441.8C441.718 449.775 441.308 448.883 440.569 448.248C439.831 447.592 438.867 447.263 437.678 447.263C436.489 447.263 435.515 447.592 434.756 448.248C434.018 448.883 433.567 449.775 433.403 450.924ZM448.843 460.059V444.895H451.949V446.679H452.442C452.688 446.043 453.077 445.582 453.61 445.295C454.164 444.987 454.841 444.834 455.64 444.834H457.455V447.694H455.517C454.492 447.694 453.651 447.981 452.995 448.555C452.339 449.109 452.011 449.97 452.011 451.139V460.059H448.843ZM466.62 460.489C464.693 460.489 463.093 460.059 461.822 459.198C460.551 458.336 459.771 457.034 459.484 455.291L462.437 454.584C462.601 455.425 462.878 456.091 463.268 456.583C463.657 457.075 464.139 457.424 464.713 457.629C465.308 457.834 465.944 457.937 466.62 457.937C467.625 457.937 468.394 457.742 468.927 457.352C469.481 456.963 469.758 456.46 469.758 455.845C469.758 455.23 469.501 454.779 468.989 454.492C468.476 454.205 467.717 453.969 466.713 453.784L465.667 453.6C464.641 453.415 463.708 453.149 462.868 452.8C462.027 452.451 461.361 451.969 460.868 451.354C460.376 450.739 460.13 449.95 460.13 448.986C460.13 447.551 460.663 446.443 461.73 445.664C462.796 444.864 464.211 444.465 465.974 444.465C467.676 444.465 469.071 444.854 470.157 445.633C471.265 446.392 471.982 447.428 472.31 448.74L469.358 449.57C469.173 448.648 468.784 448.002 468.189 447.633C467.594 447.243 466.856 447.048 465.974 447.048C465.113 447.048 464.436 447.212 463.944 447.54C463.452 447.848 463.206 448.289 463.206 448.863C463.206 449.478 463.442 449.929 463.914 450.216C464.406 450.503 465.062 450.719 465.882 450.862L466.959 451.047C468.045 451.231 469.04 451.488 469.942 451.816C470.844 452.144 471.552 452.615 472.064 453.231C472.598 453.846 472.864 454.666 472.864 455.691C472.864 457.209 472.3 458.388 471.172 459.228C470.045 460.069 468.527 460.489 466.62 460.489Z" fill="white"/>
<rect x="421.321" y="315.766" width="205.673" height="46.813" fill="#023B0E"/>
<rect x="421.321" y="315.766" width="205.673" height="46.813" stroke="#06C630" stroke-width="2.197"/>
<path d="M442.146 348.173V346.195H444.73V331.695H442.146V329.718H449.344C451.769 329.718 453.641 330.333 454.959 331.563C456.295 332.794 456.963 334.683 456.963 337.232V340.659C456.963 343.225 456.295 345.123 454.959 346.354C453.641 347.566 451.769 348.173 449.344 348.173H442.146ZM446.945 346.169H449.344C451.137 346.169 452.49 345.73 453.404 344.851C454.318 343.972 454.775 342.61 454.775 340.765V337.153C454.775 335.272 454.318 333.901 453.404 333.04C452.49 332.179 451.137 331.748 449.344 331.748H446.945V346.169ZM466.483 348.542C465.182 348.542 464.04 348.269 463.055 347.725C462.071 347.162 461.307 346.38 460.762 345.378C460.217 344.376 459.944 343.216 459.944 341.898V341.582C459.944 340.246 460.217 339.077 460.762 338.075C461.307 337.074 462.062 336.3 463.029 335.755C463.996 335.193 465.103 334.912 466.351 334.912C467.564 334.912 468.636 335.175 469.567 335.703C470.499 336.212 471.228 336.951 471.755 337.917C472.283 338.884 472.546 340.018 472.546 341.318V342.267H462.027C462.08 343.656 462.528 344.745 463.372 345.536C464.215 346.31 465.27 346.696 466.535 346.696C467.643 346.696 468.495 346.442 469.093 345.932C469.69 345.422 470.147 344.816 470.464 344.113L472.256 344.983C471.993 345.528 471.624 346.072 471.149 346.617C470.692 347.162 470.086 347.619 469.33 347.988C468.592 348.357 467.643 348.542 466.483 348.542ZM462.053 340.554H470.437C470.367 339.358 469.954 338.427 469.198 337.759C468.46 337.091 467.511 336.757 466.351 336.757C465.173 336.757 464.207 337.091 463.451 337.759C462.695 338.427 462.229 339.358 462.053 340.554ZM476.179 353.446V335.281H478.209V337.416H478.578C478.912 336.766 479.448 336.186 480.187 335.676C480.942 335.167 481.988 334.912 483.324 334.912C484.431 334.912 485.442 335.184 486.356 335.729C487.287 336.256 488.025 337.012 488.57 337.996C489.133 338.981 489.414 340.167 489.414 341.555V341.898C489.414 343.269 489.142 344.455 488.597 345.457C488.052 346.459 487.314 347.224 486.382 347.751C485.468 348.278 484.449 348.542 483.324 348.542C482.428 348.542 481.663 348.419 481.03 348.173C480.415 347.944 479.914 347.646 479.527 347.276C479.141 346.907 478.842 346.529 478.631 346.143H478.262V353.446H476.179ZM482.77 346.696C484.106 346.696 485.187 346.275 486.013 345.431C486.857 344.57 487.278 343.375 487.278 341.845V341.608C487.278 340.079 486.857 338.893 486.013 338.049C485.187 337.188 484.106 336.757 482.77 336.757C481.452 336.757 480.362 337.188 479.501 338.049C478.657 338.893 478.236 340.079 478.236 341.608V341.845C478.236 343.375 478.657 344.57 479.501 345.431C480.362 346.275 481.452 346.696 482.77 346.696ZM499.104 348.542C497.804 348.542 496.652 348.269 495.65 347.725C494.666 347.18 493.893 346.415 493.33 345.431C492.786 344.429 492.513 343.252 492.513 341.898V341.555C492.513 340.22 492.786 339.051 493.33 338.049C493.893 337.047 494.666 336.274 495.65 335.729C496.652 335.184 497.804 334.912 499.104 334.912C500.405 334.912 501.547 335.184 502.532 335.729C503.533 336.274 504.307 337.047 504.852 338.049C505.414 339.051 505.695 340.22 505.695 341.555V341.898C505.695 343.252 505.414 344.429 504.852 345.431C504.307 346.415 503.533 347.18 502.532 347.725C501.547 348.269 500.405 348.542 499.104 348.542ZM499.104 346.67C500.475 346.67 501.565 346.239 502.373 345.378C503.199 344.499 503.612 343.322 503.612 341.845V341.608C503.612 340.132 503.199 338.963 502.373 338.102C501.565 337.223 500.475 336.784 499.104 336.784C497.751 336.784 496.661 337.223 495.835 338.102C495.009 338.963 494.596 340.132 494.596 341.608V341.845C494.596 343.322 495.009 344.499 495.835 345.378C496.661 346.239 497.751 346.67 499.104 346.67ZM514.637 348.542C513.037 348.542 511.684 348.173 510.577 347.435C509.487 346.696 508.828 345.528 508.6 343.928L510.577 343.48C510.717 344.324 510.981 344.992 511.368 345.484C511.754 345.958 512.229 346.301 512.791 346.512C513.371 346.705 513.987 346.802 514.637 346.802C515.604 346.802 516.368 346.609 516.931 346.222C517.493 345.835 517.774 345.317 517.774 344.666C517.774 343.998 517.502 343.533 516.957 343.269C516.43 342.988 515.7 342.759 514.769 342.584L513.688 342.399C512.862 342.258 512.106 342.039 511.42 341.74C510.735 341.441 510.19 341.037 509.786 340.527C509.382 340.018 509.18 339.376 509.18 338.603C509.18 337.443 509.628 336.537 510.524 335.887C511.42 335.237 512.607 334.912 514.083 334.912C515.542 334.912 516.72 335.246 517.616 335.914C518.53 336.564 519.119 337.487 519.382 338.682L517.431 339.183C517.273 338.251 516.895 337.601 516.298 337.232C515.7 336.845 514.962 336.652 514.083 336.652C513.204 336.652 512.51 336.819 512.001 337.153C511.491 337.469 511.236 337.944 511.236 338.576C511.236 339.191 511.473 339.648 511.948 339.947C512.44 340.228 513.09 340.439 513.899 340.58L514.98 340.765C515.894 340.923 516.711 341.142 517.431 341.424C518.17 341.687 518.75 342.074 519.172 342.584C519.611 343.093 519.831 343.761 519.831 344.587C519.831 345.853 519.356 346.828 518.407 347.514C517.475 348.199 516.219 348.542 514.637 348.542ZM523.346 348.173V335.281H525.429V348.173H523.346ZM524.401 333.277C523.944 333.277 523.557 333.128 523.241 332.829C522.942 332.53 522.792 332.152 522.792 331.695C522.792 331.221 522.942 330.834 523.241 330.535C523.557 330.236 523.944 330.087 524.401 330.087C524.858 330.087 525.236 330.236 525.534 330.535C525.833 330.834 525.982 331.221 525.982 331.695C525.982 332.152 525.833 332.53 525.534 332.829C525.236 333.128 524.858 333.277 524.401 333.277ZM534.554 348.173C533.816 348.173 533.244 347.971 532.84 347.566C532.454 347.162 532.26 346.609 532.26 345.905V337.1H528.385V335.281H532.26V330.693H534.343V335.281H538.561V337.1H534.343V345.589C534.343 346.116 534.598 346.38 535.108 346.38H537.981V348.173H534.554ZM554.638 348.542C553.39 348.542 552.265 348.278 551.263 347.751C550.279 347.206 549.497 346.433 548.917 345.431C548.354 344.429 548.073 343.243 548.073 341.872V341.582C548.073 340.193 548.354 339.007 548.917 338.023C549.497 337.021 550.279 336.256 551.263 335.729C552.265 335.184 553.39 334.912 554.638 334.912C555.868 334.912 556.914 335.14 557.775 335.597C558.654 336.054 559.339 336.661 559.832 337.416C560.341 338.172 560.666 338.981 560.807 339.842L558.777 340.264C558.689 339.631 558.478 339.051 558.144 338.524C557.828 337.996 557.38 337.574 556.8 337.258C556.22 336.942 555.508 336.784 554.664 336.784C553.803 336.784 553.03 336.977 552.344 337.364C551.676 337.75 551.14 338.304 550.736 339.024C550.349 339.745 550.156 340.606 550.156 341.608V341.845C550.156 342.847 550.349 343.708 550.736 344.429C551.14 345.15 551.676 345.703 552.344 346.09C553.03 346.477 553.803 346.67 554.664 346.67C555.947 346.67 556.923 346.336 557.591 345.668C558.276 345 558.698 344.174 558.856 343.19L560.913 343.638C560.719 344.482 560.368 345.282 559.858 346.037C559.348 346.793 558.654 347.399 557.775 347.856C556.914 348.313 555.868 348.542 554.638 348.542ZM568.417 348.542C567.521 348.542 566.704 348.384 565.965 348.067C565.227 347.751 564.647 347.294 564.225 346.696C563.803 346.099 563.593 345.369 563.593 344.508C563.593 343.629 563.803 342.909 564.225 342.346C564.647 341.766 565.227 341.336 565.965 341.055C566.704 340.756 567.53 340.606 568.444 340.606H572.794V339.657C572.794 338.743 572.521 338.023 571.976 337.495C571.449 336.968 570.658 336.704 569.604 336.704C568.567 336.704 567.758 336.959 567.178 337.469C566.598 337.961 566.203 338.629 565.992 339.473L564.041 338.84C564.252 338.119 564.586 337.469 565.043 336.889C565.5 336.291 566.106 335.817 566.862 335.465C567.635 335.096 568.558 334.912 569.63 334.912C571.282 334.912 572.565 335.342 573.479 336.204C574.393 337.047 574.85 338.242 574.85 339.789V345.615C574.85 346.143 575.096 346.406 575.588 346.406H576.775V348.173H574.955C574.375 348.173 573.91 348.015 573.558 347.698C573.207 347.364 573.031 346.925 573.031 346.38V346.248H572.715C572.521 346.582 572.258 346.934 571.924 347.303C571.607 347.654 571.168 347.944 570.605 348.173C570.043 348.419 569.314 348.542 568.417 348.542ZM568.654 346.749C569.885 346.749 570.878 346.389 571.634 345.668C572.407 344.93 572.794 343.902 572.794 342.584V342.294H568.523C567.697 342.294 567.011 342.478 566.466 342.847C565.939 343.199 565.675 343.735 565.675 344.455C565.675 345.176 565.948 345.739 566.493 346.143C567.055 346.547 567.776 346.749 568.654 346.749ZM584.718 348.542C583.118 348.542 581.765 348.173 580.658 347.435C579.568 346.696 578.909 345.528 578.68 343.928L580.658 343.48C580.798 344.324 581.062 344.992 581.449 345.484C581.835 345.958 582.31 346.301 582.872 346.512C583.452 346.705 584.067 346.802 584.718 346.802C585.684 346.802 586.449 346.609 587.011 346.222C587.574 345.835 587.855 345.317 587.855 344.666C587.855 343.998 587.583 343.533 587.038 343.269C586.511 342.988 585.781 342.759 584.85 342.584L583.769 342.399C582.943 342.258 582.187 342.039 581.501 341.74C580.816 341.441 580.271 341.037 579.867 340.527C579.463 340.018 579.26 339.376 579.26 338.603C579.26 337.443 579.709 336.537 580.605 335.887C581.501 335.237 582.688 334.912 584.164 334.912C585.623 334.912 586.801 335.246 587.697 335.914C588.611 336.564 589.2 337.487 589.463 338.682L587.512 339.183C587.354 338.251 586.976 337.601 586.379 337.232C585.781 336.845 585.043 336.652 584.164 336.652C583.285 336.652 582.591 336.819 582.081 337.153C581.572 337.469 581.317 337.944 581.317 338.576C581.317 339.191 581.554 339.648 582.029 339.947C582.521 340.228 583.171 340.439 583.98 340.58L585.06 340.765C585.974 340.923 586.792 341.142 587.512 341.424C588.251 341.687 588.831 342.074 589.252 342.584C589.692 343.093 589.911 343.761 589.911 344.587C589.911 345.853 589.437 346.828 588.488 347.514C587.556 348.199 586.3 348.542 584.718 348.542ZM593.427 348.173V329.718H595.51V337.337H595.879C596.055 336.951 596.318 336.59 596.67 336.256C597.039 335.905 597.505 335.615 598.067 335.386C598.647 335.158 599.376 335.044 600.255 335.044C601.222 335.044 602.083 335.254 602.839 335.676C603.612 336.081 604.227 336.678 604.684 337.469C605.141 338.242 605.37 339.209 605.37 340.369V348.173H603.287V340.527C603.287 339.244 602.962 338.313 602.312 337.733C601.679 337.153 600.818 336.863 599.728 336.863C598.48 336.863 597.461 337.267 596.67 338.075C595.896 338.884 595.51 340.088 595.51 341.687V348.173H593.427Z" fill="#06C630"/>
<path d="M1007.39 482.567C1007.82 482.996 1008.51 482.996 1008.94 482.567L1015.93 475.576C1016.36 475.147 1016.36 474.452 1015.93 474.023C1015.5 473.594 1014.81 473.594 1014.38 474.023L1008.16 480.237L1001.95 474.023C1001.52 473.594 1000.83 473.594 1000.4 474.023C999.968 474.452 999.968 475.147 1000.4 475.576L1007.39 482.567ZM1009.26 481.79L1009.26 419.081L1007.07 419.081L1007.07 481.79L1009.26 481.79Z" fill="#F55C3D"/>
<rect x="939.973" y="425.249" width="136.383" height="42.081" fill="#4E1004"/>
<rect x="939.973" y="425.249" width="136.383" height="42.081" stroke="#F55C3D" stroke-width="2.197"/>
<path d="M960.444 455.659C959.108 455.659 957.913 455.421 956.858 454.947C955.804 454.472 954.969 453.76 954.354 452.811C953.756 451.845 953.457 450.641 953.457 449.199V448.646H955.645V449.199C955.645 450.729 956.094 451.871 956.99 452.627C957.886 453.365 959.038 453.734 960.444 453.734C961.885 453.734 962.983 453.409 963.739 452.759C964.495 452.108 964.873 451.291 964.873 450.307C964.873 449.621 964.697 449.076 964.345 448.672C964.012 448.268 963.537 447.943 962.922 447.697C962.307 447.433 961.586 447.205 960.76 447.011L959.389 446.669C958.317 446.387 957.368 446.045 956.542 445.64C955.716 445.236 955.065 444.709 954.591 444.059C954.134 443.391 953.905 442.538 953.905 441.501C953.905 440.464 954.16 439.568 954.67 438.812C955.197 438.056 955.927 437.476 956.858 437.072C957.807 436.668 958.897 436.466 960.127 436.466C961.375 436.466 962.491 436.685 963.475 437.125C964.477 437.547 965.259 438.179 965.822 439.023C966.402 439.849 966.692 440.895 966.692 442.16V443.268H964.504V442.16C964.504 441.264 964.31 440.543 963.924 439.998C963.555 439.454 963.036 439.049 962.368 438.786C961.718 438.522 960.971 438.39 960.127 438.39C958.914 438.39 957.939 438.663 957.201 439.208C956.463 439.735 956.094 440.491 956.094 441.475C956.094 442.125 956.252 442.652 956.568 443.057C956.884 443.461 957.333 443.795 957.913 444.059C958.493 444.305 959.187 444.524 959.995 444.718L961.366 445.06C962.438 445.289 963.396 445.605 964.24 446.009C965.101 446.396 965.787 446.932 966.296 447.618C966.806 448.286 967.061 449.164 967.061 450.254C967.061 451.344 966.789 452.293 966.244 453.101C965.699 453.91 964.925 454.543 963.924 455C962.939 455.439 961.779 455.659 960.444 455.659ZM976.454 455.659C975.153 455.659 974.011 455.386 973.027 454.841C972.042 454.279 971.278 453.497 970.733 452.495C970.188 451.493 969.916 450.333 969.916 449.015V448.699C969.916 447.363 970.188 446.194 970.733 445.192C971.278 444.19 972.034 443.417 973 442.872C973.967 442.31 975.074 442.028 976.322 442.028C977.535 442.028 978.607 442.292 979.539 442.819C980.47 443.329 981.199 444.067 981.727 445.034C982.254 446.001 982.518 447.134 982.518 448.435V449.384H971.998C972.051 450.773 972.499 451.862 973.343 452.653C974.187 453.427 975.241 453.813 976.507 453.813C977.614 453.813 978.466 453.558 979.064 453.049C979.662 452.539 980.119 451.933 980.435 451.23L982.228 452.1C981.964 452.644 981.595 453.189 981.12 453.734C980.663 454.279 980.057 454.736 979.301 455.105C978.563 455.474 977.614 455.659 976.454 455.659ZM972.025 447.67H980.409C980.338 446.475 979.925 445.544 979.169 444.876C978.431 444.208 977.482 443.874 976.322 443.874C975.145 443.874 974.178 444.208 973.422 444.876C972.666 445.544 972.201 446.475 972.025 447.67ZM986.151 455.29V442.398H988.181V444.586H988.55C988.831 443.971 989.305 443.417 989.973 442.925C990.659 442.415 991.661 442.16 992.979 442.16C993.946 442.16 994.807 442.362 995.562 442.767C996.336 443.171 996.951 443.769 997.408 444.559C997.865 445.35 998.093 446.326 998.093 447.486V455.29H996.011V447.644C996.011 446.361 995.686 445.429 995.035 444.849C994.402 444.269 993.541 443.979 992.452 443.979C991.204 443.979 990.184 444.384 989.393 445.192C988.62 446.001 988.233 447.205 988.233 448.804V455.29H986.151ZM1007.78 455.659C1006.67 455.659 1005.65 455.395 1004.72 454.868C1003.79 454.34 1003.05 453.576 1002.5 452.574C1001.96 451.572 1001.69 450.386 1001.69 449.015V448.672C1001.69 447.301 1001.96 446.124 1002.5 445.139C1003.05 444.138 1003.78 443.373 1004.69 442.846C1005.62 442.301 1006.65 442.028 1007.78 442.028C1008.67 442.028 1009.43 442.152 1010.04 442.398C1010.68 442.626 1011.19 442.925 1011.57 443.294C1011.96 443.645 1012.26 444.023 1012.47 444.428H1012.84V436.835H1014.92V455.29H1012.89V453.154H1012.52C1012.17 453.804 1011.63 454.384 1010.89 454.894C1010.15 455.404 1009.11 455.659 1007.78 455.659ZM1008.33 453.813C1009.67 453.813 1010.75 453.391 1011.57 452.548C1012.42 451.686 1012.84 450.491 1012.84 448.962V448.725C1012.84 447.196 1012.42 446.009 1011.57 445.166C1010.75 444.305 1009.67 443.874 1008.33 443.874C1007.01 443.874 1005.92 444.305 1005.06 445.166C1004.22 446.009 1003.8 447.196 1003.8 448.725V448.962C1003.8 450.491 1004.22 451.686 1005.06 452.548C1005.92 453.391 1007.01 453.813 1008.33 453.813ZM1025.11 455.29V453.312H1027.69V438.812H1025.11V436.835H1032.31C1034.73 436.835 1036.6 437.45 1037.92 438.68C1039.26 439.911 1039.92 441.8 1039.92 444.349V447.776C1039.92 450.342 1039.26 452.24 1037.92 453.47C1036.6 454.683 1034.73 455.29 1032.31 455.29H1025.11ZM1029.91 453.286H1032.31C1034.1 453.286 1035.45 452.847 1036.37 451.968C1037.28 451.089 1037.74 449.727 1037.74 447.881V444.269C1037.74 442.389 1037.28 441.018 1036.37 440.157C1035.45 439.295 1034.1 438.865 1032.31 438.865H1029.91V453.286ZM1041.75 455.29L1047.45 436.835H1051.35L1057.04 455.29H1054.75L1053.33 450.623H1045.47L1044.05 455.29H1041.75ZM1046.02 448.619H1052.75L1049.58 438.179H1049.21L1046.02 448.619ZM1059.81 455.29V436.835H1062.02V455.29H1059.81Z" fill="#F55C3D"/>
<path d="M392.585 481.561C392.156 481.132 391.461 481.132 391.032 481.561L384.041 488.552C383.612 488.981 383.612 489.676 384.041 490.105C384.47 490.534 385.166 490.534 385.595 490.105L391.809 483.891L398.023 490.105C398.452 490.534 399.147 490.534 399.576 490.105C400.005 489.676 400.005 488.981 399.576 488.552L392.585 481.561ZM391.809 571.154H390.71V572.252H391.809V571.154ZM390.71 482.338V571.154H392.907V482.338H390.71ZM391.809 572.252H683.261V570.055H391.809V572.252Z" fill="#545DFF"/>
<rect x="426.186" y="546.85" width="205.673" height="46.813" fill="#181B60"/>
<rect x="426.186" y="546.85" width="205.673" height="46.813" stroke="#545DFF" stroke-width="2.197"/>
<path d="M454.254 579.256V560.802H461.715C462.857 560.802 463.859 561.004 464.72 561.408C465.599 561.795 466.285 562.357 466.777 563.095C467.269 563.816 467.515 564.686 467.515 565.705V565.995C467.515 567.208 467.225 568.166 466.645 568.869C466.065 569.572 465.379 570.047 464.589 570.293V570.662C465.221 570.679 465.74 570.89 466.144 571.294C466.566 571.681 466.777 572.27 466.777 573.061V579.256H464.589V573.324C464.589 572.797 464.439 572.393 464.14 572.112C463.859 571.831 463.428 571.69 462.848 571.69H456.468V579.256H454.254ZM456.468 569.686H461.504C462.717 569.686 463.648 569.396 464.298 568.816C464.966 568.219 465.3 567.393 465.3 566.338V566.153C465.3 565.099 464.975 564.282 464.325 563.702C463.675 563.104 462.734 562.805 461.504 562.805H456.468V569.686ZM476.87 579.625C475.57 579.625 474.427 579.353 473.443 578.808C472.459 578.246 471.694 577.464 471.149 576.462C470.605 575.46 470.332 574.3 470.332 572.982V572.665C470.332 571.33 470.605 570.161 471.149 569.159C471.694 568.157 472.45 567.384 473.417 566.839C474.383 566.276 475.491 565.995 476.739 565.995C477.951 565.995 479.023 566.259 479.955 566.786C480.887 567.296 481.616 568.034 482.143 569.001C482.67 569.967 482.934 571.101 482.934 572.402V573.351H472.415C472.468 574.739 472.916 575.829 473.759 576.62C474.603 577.393 475.658 577.78 476.923 577.78C478.03 577.78 478.883 577.525 479.48 577.015C480.078 576.506 480.535 575.899 480.851 575.196L482.644 576.066C482.38 576.611 482.011 577.156 481.537 577.701C481.08 578.246 480.473 578.703 479.718 579.072C478.98 579.441 478.03 579.625 476.87 579.625ZM472.441 571.637H480.825C480.755 570.442 480.342 569.51 479.586 568.843C478.848 568.175 477.899 567.841 476.739 567.841C475.561 567.841 474.594 568.175 473.839 568.843C473.083 569.51 472.617 570.442 472.441 571.637ZM492.499 579.625C491.251 579.625 490.126 579.362 489.124 578.835C488.14 578.29 487.358 577.516 486.778 576.515C486.215 575.513 485.934 574.326 485.934 572.955V572.665C485.934 571.277 486.215 570.09 486.778 569.106C487.358 568.104 488.14 567.34 489.124 566.813C490.126 566.268 491.251 565.995 492.499 565.995C493.729 565.995 494.775 566.224 495.636 566.681C496.515 567.138 497.2 567.744 497.693 568.5C498.202 569.256 498.527 570.064 498.668 570.925L496.638 571.347C496.55 570.714 496.339 570.134 496.005 569.607C495.689 569.08 495.241 568.658 494.661 568.342C494.081 568.025 493.369 567.867 492.525 567.867C491.664 567.867 490.891 568.06 490.205 568.447C489.537 568.834 489.001 569.387 488.597 570.108C488.21 570.829 488.017 571.69 488.017 572.692V572.929C488.017 573.931 488.21 574.792 488.597 575.513C489.001 576.233 489.537 576.787 490.205 577.174C490.891 577.56 491.664 577.754 492.525 577.754C493.808 577.754 494.784 577.42 495.452 576.752C496.137 576.084 496.559 575.258 496.717 574.274L498.774 574.722C498.58 575.565 498.229 576.365 497.719 577.121C497.209 577.877 496.515 578.483 495.636 578.94C494.775 579.397 493.729 579.625 492.499 579.625ZM508.229 579.625C506.929 579.625 505.786 579.353 504.802 578.808C503.818 578.246 503.053 577.464 502.508 576.462C501.963 575.46 501.691 574.3 501.691 572.982V572.665C501.691 571.33 501.963 570.161 502.508 569.159C503.053 568.157 503.809 567.384 504.775 566.839C505.742 566.276 506.849 565.995 508.097 565.995C509.31 565.995 510.382 566.259 511.314 566.786C512.245 567.296 512.975 568.034 513.502 569.001C514.029 569.967 514.293 571.101 514.293 572.402V573.351H503.774C503.826 574.739 504.275 575.829 505.118 576.62C505.962 577.393 507.016 577.78 508.282 577.78C509.389 577.78 510.242 577.525 510.839 577.015C511.437 576.506 511.894 575.899 512.21 575.196L514.003 576.066C513.739 576.611 513.37 577.156 512.896 577.701C512.439 578.246 511.832 578.703 511.076 579.072C510.338 579.441 509.389 579.625 508.229 579.625ZM503.8 571.637H512.184C512.113 570.442 511.7 569.51 510.945 568.843C510.206 568.175 509.257 567.841 508.097 567.841C506.92 567.841 505.953 568.175 505.197 568.843C504.442 569.51 503.976 570.442 503.8 571.637ZM517.926 579.256V566.364H520.009V579.256H517.926ZM518.98 564.361C518.523 564.361 518.137 564.211 517.82 563.913C517.522 563.614 517.372 563.236 517.372 562.779C517.372 562.304 517.522 561.918 517.82 561.619C518.137 561.32 518.523 561.171 518.98 561.171C519.437 561.171 519.815 561.32 520.114 561.619C520.413 561.918 520.562 562.304 520.562 562.779C520.562 563.236 520.413 563.614 520.114 563.913C519.815 564.211 519.437 564.361 518.98 564.361ZM527.657 579.256L523.043 566.364H525.258L529.134 577.701H529.503L533.378 566.364H535.593L530.979 579.256H527.657ZM543.965 579.625C542.664 579.625 541.522 579.353 540.537 578.808C539.553 578.246 538.789 577.464 538.244 576.462C537.699 575.46 537.426 574.3 537.426 572.982V572.665C537.426 571.33 537.699 570.161 538.244 569.159C538.789 568.157 539.544 567.384 540.511 566.839C541.478 566.276 542.585 565.995 543.833 565.995C545.046 565.995 546.118 566.259 547.049 566.786C547.981 567.296 548.71 568.034 549.238 569.001C549.765 569.967 550.028 571.101 550.028 572.402V573.351H539.509C539.562 574.739 540.01 575.829 540.854 576.62C541.697 577.393 542.752 577.78 544.017 577.78C545.125 577.78 545.977 577.525 546.575 577.015C547.172 576.506 547.629 575.899 547.946 575.196L549.738 576.066C549.475 576.611 549.106 577.156 548.631 577.701C548.174 578.246 547.568 578.703 546.812 579.072C546.074 579.441 545.125 579.625 543.965 579.625ZM539.536 571.637H547.919C547.849 570.442 547.436 569.51 546.68 568.843C545.942 568.175 544.993 567.841 543.833 567.841C542.655 567.841 541.689 568.175 540.933 568.843C540.177 569.51 539.711 570.442 539.536 571.637ZM560.353 579.256V560.802H571.716V562.805H562.568V568.974H570.978V570.978H562.568V577.253H571.848V579.256H560.353ZM579.744 579.256V562.805H573.812V560.802H587.89V562.805H581.958V579.256H579.744ZM590.708 579.256V560.802H592.923V569.001H601.57V560.802H603.785V579.256H601.57V571.004H592.923V579.256H590.708Z" fill="#545DFF"/>
</g>
</g>
<defs>
<filter id="filter0_d_61_3318" x="55.0551" y="81.685" width="1319.89" height="839.93" filterUnits="userSpaceOnUse" color-interpolation-filters="sRGB">
<feFlood flood-opacity="0" result="BackgroundImageFix"/>
<feColorMatrix in="SourceAlpha" type="matrix" values="0 0 0 0 0 0 0 0 0 0 0 0 0 0 0 0 0 0 127 0" result="hardAlpha"/>
<feOffset dy="59.15"/>
<feGaussianBlur stdDeviation="29.575"/>
<feComposite in2="hardAlpha" operator="out"/>
<feColorMatrix type="matrix" values="0 0 0 0 0.075 0 0 0 0 0.075 0 0 0 0 0.075 0 0 0 0.85 0"/>
<feBlend mode="normal" in2="BackgroundImageFix" result="effect1_dropShadow_61_3318"/>
<feBlend mode="normal" in="SourceGraphic" in2="effect1_dropShadow_61_3318" result="shape"/>
</filter>
<clipPath id="clip0_61_3318">
<rect width="1430" height="884" fill="white" transform="translate(0 0.5)"/>
</clipPath>
<clipPath id="clip1_61_3318">
<rect width="1201.59" height="721.63" fill="white" transform="translate(114.205 81.685)"/>
</clipPath>
</defs>
</svg>
