<svg width="1430" height="884" viewBox="0 0 1430 884" fill="none" xmlns="http://www.w3.org/2000/svg">
<rect width="1430" height="884" fill="white"/>
<path fill-rule="evenodd" clip-rule="evenodd" d="M273.209 106.502V90.0638H278.201V106.502L283.924 100.779L287.454 104.309L275.705 116.058L263.956 104.309L267.486 100.779L273.209 106.502ZM255.737 115.024C254.359 115.024 253.241 116.141 253.241 117.52V127.504C253.241 128.882 254.359 130 255.737 130H295.673C297.052 130 298.169 128.882 298.169 127.504V117.52C298.169 116.141 297.052 115.024 295.673 115.024H290.747V110.032H295.673C299.809 110.032 303.161 113.384 303.161 117.52V127.504C303.161 131.639 299.809 134.992 295.673 134.992H255.737C251.602 134.992 248.249 131.639 248.249 127.504V117.52C248.249 113.384 251.602 110.032 255.737 110.032H260.663V115.024H255.737ZM288.185 120.016V125.008L263.225 125.008V120.016L288.185 120.016Z" fill="#6B6B6B"/>
<path fill-rule="evenodd" clip-rule="evenodd" d="M385.528 89.03L397.277 100.779L393.747 104.309L388.024 98.5856V115.024H383.032V98.5858L377.309 104.309L373.779 100.779L385.528 89.03ZM365.56 115.024C364.182 115.024 363.064 116.141 363.064 117.52V127.504C363.064 128.882 364.182 130 365.56 130H405.496C406.875 130 407.992 128.882 407.992 127.504V117.52C407.992 116.141 406.875 115.024 405.496 115.024H398.008V110.032H405.496C409.632 110.032 412.984 113.384 412.984 117.52V127.504C412.984 131.639 409.632 134.992 405.496 134.992H365.56C361.425 134.992 358.072 131.639 358.072 127.504V117.52C358.072 113.384 361.425 110.032 365.56 110.032H373.048V115.024H365.56ZM398.008 120.016V125.008L373.048 125.008V120.016L398.008 120.016Z" fill="#6B6B6B"/>
<path fill-rule="evenodd" clip-rule="evenodd" d="M472.889 90.0638H492.857V110.032H472.889V90.0638ZM477.881 95.0558V105.04H487.865V95.0558H477.881ZM497.849 90.0638H517.817V110.032H497.849V90.0638ZM502.841 95.0558V105.04H512.825V95.0558H502.841ZM472.889 115.024H492.857V134.992H472.889V115.024ZM477.881 120.016V130H487.865V120.016H477.881ZM497.849 115.024H517.817V134.992H497.849V115.024ZM502.841 120.016V130H512.825V120.016H502.841Z" fill="#6B6B6B"/>
<path fill-rule="evenodd" clip-rule="evenodd" d="M593.944 103.792C589.119 103.792 585.208 107.703 585.208 112.528C585.208 117.353 589.119 121.264 593.944 121.264H600.683V126.256H593.944C586.362 126.256 580.216 120.11 580.216 112.528C580.216 104.946 586.362 98.7998 593.944 98.7998H600.683V103.792H593.944ZM616.408 103.792H609.669V98.7998H616.408C623.99 98.7998 630.136 104.946 630.136 112.528C630.136 120.11 623.99 126.256 616.408 126.256H609.669V121.264H616.408C621.233 121.264 625.144 117.353 625.144 112.528C625.144 107.703 621.233 103.792 616.408 103.792ZM616.408 115.024H593.944V110.032H616.408V115.024Z" fill="#6B6B6B"/>
<path fill-rule="evenodd" clip-rule="evenodd" d="M722.392 95.7414L712.408 130.685L707.608 129.314L717.592 94.37L722.392 95.7414ZM703.768 103.792C698.943 103.792 695.032 107.703 695.032 112.528C695.032 117.352 698.943 121.264 703.768 121.264V126.256C696.186 126.256 690.04 120.109 690.04 112.528C690.04 104.946 696.186 98.7997 703.768 98.7997H708.76V103.792H703.768ZM726.232 98.7997C733.814 98.7997 739.96 104.946 739.96 112.528C739.96 120.109 733.814 126.256 726.232 126.256H721.24V121.264H726.232C731.057 121.264 734.968 117.352 734.968 112.528C734.968 107.703 731.057 103.792 726.232 103.792V98.7997Z" fill="#6B6B6B"/>
<path fill-rule="evenodd" clip-rule="evenodd" d="M837.304 94.022L851.549 108.267L848.02 111.797L839.8 103.578V132.496H834.808V103.578L826.589 111.797L823.06 108.267L837.304 94.022ZM812.344 95.0558V123.974L820.564 115.755L824.093 119.285L809.848 133.53L795.604 119.285L799.133 115.755L807.352 123.974V95.0558H812.344Z" fill="#6B6B6B"/>
<path fill-rule="evenodd" clip-rule="evenodd" d="M937.145 92.5598H957.113V134.992H937.145V92.5598ZM942.137 97.5518V130H952.121V97.5518H942.137ZM912.185 110.032H932.153V134.992H912.185V110.032ZM917.177 115.024V130H927.161V115.024H917.177Z" fill="#6B6B6B"/>
<path fill-rule="evenodd" clip-rule="evenodd" d="M1059.45 97.5518H1034.49V92.5598H1064.44V122.512H1059.45V97.5518ZM1022.01 102.544H1054.46V134.992H1022.01V102.544ZM1027 107.536V130H1049.46V107.536H1027Z" fill="#6B6B6B"/>
<path fill-rule="evenodd" clip-rule="evenodd" d="M1147.47 90.5346C1151.31 86.9417 1157.28 86.9417 1161.12 90.5346L1161.4 90.7949C1162.28 91.6217 1163.43 92.0995 1164.64 92.1395L1165.02 92.1521C1170.28 92.326 1174.5 96.5455 1174.67 101.8L1174.68 102.181C1174.72 103.39 1175.2 104.544 1176.03 105.427L1176.29 105.705C1179.88 109.544 1179.88 115.512 1176.29 119.35L1176.03 119.628C1175.2 120.512 1174.72 121.665 1174.68 122.875L1174.67 123.255C1174.5 128.51 1170.28 132.73 1165.02 132.904L1164.64 132.916C1163.43 132.956 1162.28 133.434 1161.4 134.261L1161.12 134.521C1157.28 138.114 1151.31 138.114 1147.47 134.521L1147.19 134.261C1146.31 133.434 1145.16 132.956 1143.95 132.916L1143.57 132.904C1138.31 132.73 1134.09 128.51 1133.92 123.255L1133.91 122.875C1133.87 121.665 1133.39 120.512 1132.56 119.628L1132.3 119.35C1128.71 115.512 1128.71 109.544 1132.3 105.705L1132.56 105.427C1133.39 104.544 1133.87 103.39 1133.91 102.181L1133.92 101.8C1134.09 96.5455 1138.31 92.326 1143.57 92.1521L1143.95 92.1395C1145.16 92.0995 1146.31 91.6217 1147.19 90.7949L1147.47 90.5346ZM1157.71 94.1793C1155.79 92.3829 1152.8 92.3829 1150.88 94.1793L1150.61 94.4396C1148.84 96.0931 1146.53 97.0488 1144.11 97.1288L1143.73 97.1414C1141.11 97.2283 1139 99.3381 1138.91 101.966L1138.9 102.346C1138.82 104.765 1137.86 107.072 1136.21 108.839L1135.95 109.117C1134.15 111.036 1134.15 114.02 1135.95 115.939L1136.21 116.217C1137.86 117.984 1138.82 120.291 1138.9 122.709L1138.91 123.09C1139 125.718 1141.11 127.827 1143.73 127.914L1144.11 127.927C1146.53 128.007 1148.84 128.963 1150.61 130.616L1150.88 130.876C1152.8 132.673 1155.79 132.673 1157.71 130.876L1157.98 130.616C1159.75 128.963 1162.06 128.007 1164.48 127.927L1164.86 127.914C1167.49 127.827 1169.59 125.718 1169.68 123.09L1169.69 122.709C1169.77 120.291 1170.73 117.984 1172.38 116.217L1172.64 115.939C1174.44 114.02 1174.44 111.036 1172.64 109.117L1172.38 108.839C1170.73 107.072 1169.77 104.765 1169.69 102.346L1169.68 101.966C1169.59 99.3381 1167.49 97.2283 1164.86 97.1414L1164.48 97.1288C1162.06 97.0488 1159.75 96.0931 1157.98 94.4396L1157.71 94.1793Z" fill="#6B6B6B"/>
<path d="M1151.8 106.288C1151.8 108.356 1150.12 110.032 1148.06 110.032C1145.99 110.032 1144.31 108.356 1144.31 106.288C1144.31 104.22 1145.99 102.544 1148.06 102.544C1150.12 102.544 1151.8 104.22 1151.8 106.288Z" fill="#6B6B6B"/>
<path d="M1164.28 118.768C1164.28 120.836 1162.6 122.512 1160.54 122.512C1158.47 122.512 1156.79 120.836 1156.79 118.768C1156.79 116.7 1158.47 115.024 1160.54 115.024C1162.6 115.024 1164.28 116.7 1164.28 118.768Z" fill="#6B6B6B"/>
<path fill-rule="evenodd" clip-rule="evenodd" d="M1163.78 104.041L1148.8 124.009L1144.81 121.014L1159.79 101.046L1163.78 104.041Z" fill="#6B6B6B"/>
<path fill-rule="evenodd" clip-rule="evenodd" d="M273.209 207.514C268.316 208.057 263.572 210.204 259.821 213.956C255.149 218.628 252.964 224.841 253.269 230.964C253.361 232.82 253.682 234.665 254.232 236.454L258.106 234.714L260.152 239.268L251.542 243.135L250.533 240.822C249.196 237.754 248.446 234.494 248.283 231.212C247.911 223.74 250.58 216.136 256.291 210.426C261.651 205.065 268.682 202.384 275.705 202.384C282.728 202.384 289.759 205.065 295.119 210.426C300.83 216.136 303.499 223.74 303.127 231.212C302.964 234.494 302.214 237.754 300.877 240.822L299.868 243.135L291.258 239.268L293.304 234.714L297.178 236.454C297.728 234.665 298.049 232.82 298.141 230.964C298.446 224.841 296.261 218.628 291.589 213.956C287.838 210.204 283.094 208.057 278.201 207.514V212.368H273.209V207.514ZM282.648 232.024L290.556 224.117L287.026 220.587L279.333 228.28C278.207 227.656 276.954 227.344 275.705 227.344C273.793 227.344 271.872 228.076 270.41 229.537C268.853 231.095 268.125 233.172 268.226 235.206C268.315 236.993 269.044 238.761 270.41 240.127C271.872 241.588 273.793 242.32 275.705 242.32C277.617 242.32 279.538 241.588 281 240.127C282.366 238.761 283.095 236.993 283.184 235.206C283.237 234.13 283.059 233.041 282.648 232.024ZM275.705 232.336C275.062 232.336 274.428 232.579 273.94 233.067C273.421 233.586 273.178 234.273 273.212 234.958C273.242 235.557 273.483 236.14 273.94 236.597C274.428 237.085 275.062 237.328 275.705 237.328C276.348 237.328 276.982 237.085 277.47 236.597C277.927 236.14 278.168 235.557 278.198 234.958C278.232 234.273 277.989 233.586 277.47 233.067C276.982 232.579 276.348 232.336 275.705 232.336Z" fill="#6B6B6B"/>
<path fill-rule="evenodd" clip-rule="evenodd" d="M388.025 202.384H405.497V219.856H400.505V210.906L384.797 226.613L381.268 223.083L396.975 207.376H388.025V202.384ZM365.561 207.376H383.033V212.368H370.553V237.328H395.513V224.848H400.505V242.32H365.561V207.376Z" fill="#6B6B6B"/>
<path fill-rule="evenodd" clip-rule="evenodd" d="M517.086 232.336H504.606V227.344H512.094V207.376H492.126V214.864H487.134V202.384H517.086V232.336Z" fill="#6B6B6B"/>
<path fill-rule="evenodd" clip-rule="evenodd" d="M475.385 240.555L495.353 220.587L498.882 224.117L478.914 244.085L475.385 240.555Z" fill="#6B6B6B"/>
<path fill-rule="evenodd" clip-rule="evenodd" d="M482.142 219.856H499.614L499.614 237.328L494.622 237.328L494.622 224.848H482.142V219.856Z" fill="#6B6B6B"/>
<path fill-rule="evenodd" clip-rule="evenodd" d="M601.432 204.88C593.85 204.88 587.704 211.026 587.704 218.608C587.704 226.19 593.85 232.336 601.432 232.336C609.014 232.336 615.16 226.19 615.16 218.608C615.16 211.026 609.014 204.88 601.432 204.88ZM582.712 218.608C582.712 208.269 591.093 199.888 601.432 199.888C611.771 199.888 620.152 208.269 620.152 218.608C620.152 222.845 618.744 226.754 616.371 229.891L626.141 239.662L622.611 243.192L612.857 233.438C609.696 235.877 605.734 237.328 601.432 237.328C591.093 237.328 582.712 228.947 582.712 218.608Z" fill="#6B6B6B"/>
<path fill-rule="evenodd" clip-rule="evenodd" d="M701.272 204.88C697.826 204.88 695.032 207.674 695.032 211.12C695.032 214.566 697.826 217.36 701.272 217.36C704.718 217.36 707.512 214.566 707.512 211.12C707.512 207.674 704.718 204.88 701.272 204.88ZM690.04 211.12C690.04 204.917 695.069 199.888 701.272 199.888C707.053 199.888 711.815 204.256 712.435 209.872H737.464V214.864H711.865C710.323 219.227 706.163 222.352 701.272 222.352C695.069 222.352 690.04 217.323 690.04 211.12ZM718.135 229.84C719.677 225.478 723.838 222.352 728.728 222.352C734.931 222.352 739.96 227.381 739.96 233.584C739.96 239.787 734.931 244.816 728.728 244.816C722.947 244.816 718.185 240.448 717.565 234.832H692.536V229.84H718.135ZM728.728 227.344C725.282 227.344 722.488 230.138 722.488 233.584C722.488 237.03 725.282 239.824 728.728 239.824C732.174 239.824 734.968 237.03 734.968 233.584C734.968 230.138 732.174 227.344 728.728 227.344Z" fill="#6B6B6B"/>
<path fill-rule="evenodd" clip-rule="evenodd" d="M810.062 194.896L839.586 194.896L847.288 202.598L847.288 242.106L839.586 249.808L810.062 249.808L802.36 242.106L802.36 202.598L810.062 194.896ZM812.13 199.888L807.352 204.666L807.352 240.038L812.13 244.816L837.518 244.816L842.296 240.038L842.296 204.666L837.518 199.888L812.13 199.888ZM812.344 207.376H837.304V227.344H812.344V207.376ZM817.336 212.368V222.352H832.312V212.368H817.336ZM812.344 232.336H827.32V237.328H812.344V232.336ZM832.312 237.328V232.336H837.304V237.328H832.312Z" fill="#6B6B6B"/>
<path fill-rule="evenodd" clip-rule="evenodd" d="M905.23 207.376C905.23 203.241 908.583 199.888 912.718 199.888H952.654L952.654 209.872C956.79 209.872 960.142 213.225 960.142 217.36V219.856H962.638V234.832H960.142V237.328C960.142 241.464 956.79 244.816 952.654 244.816H912.718C908.583 244.816 905.23 241.464 905.23 237.328V207.376ZM910.222 214.438V237.328C910.222 238.707 911.34 239.824 912.718 239.824H952.654C954.033 239.824 955.15 238.707 955.15 237.328V234.832H950.158C946.023 234.832 942.67 231.48 942.67 227.344C942.67 223.209 946.023 219.856 950.158 219.856H955.15V217.36C955.15 215.982 954.033 214.864 952.654 214.864H912.649C911.799 214.856 910.983 214.707 910.222 214.438ZM912.718 209.872C911.34 209.872 910.222 208.755 910.222 207.376C910.222 205.998 911.34 204.88 912.718 204.88H947.662V209.872H912.718ZM950.158 224.848C948.78 224.848 947.662 225.966 947.662 227.344C947.662 228.723 948.78 229.84 950.158 229.84H957.646V224.848H950.158Z" fill="#6B6B6B"/>
<path fill-rule="evenodd" clip-rule="evenodd" d="M1043.01 202.384H1027.16V214.864H1022.01V219.856H1027.16V224.848H1022.01V229.84H1027.16V242.32H1043.01C1051.39 242.32 1058.57 237.158 1061.53 229.84H1066.94V224.848H1062.83C1062.93 224.03 1062.98 223.197 1062.98 222.352C1062.98 221.507 1062.93 220.674 1062.83 219.856H1066.94V214.864H1061.53C1058.57 207.546 1051.39 202.384 1043.01 202.384ZM1055.98 214.864C1053.4 210.388 1048.56 207.376 1043.01 207.376H1032.15V214.864L1055.98 214.864ZM1032.15 219.856V224.848H1057.78C1057.92 224.036 1057.99 223.203 1057.99 222.352C1057.99 221.502 1057.92 220.668 1057.78 219.856L1032.15 219.856ZM1055.98 229.84H1032.15V237.328H1043.01C1048.56 237.328 1053.4 234.316 1055.98 229.84Z" fill="#6B6B6B"/>
<path fill-rule="evenodd" clip-rule="evenodd" d="M1125.63 209.071H1182.97V244.251H1125.63V209.071ZM1130.62 214.063V239.259H1177.97V214.063H1130.62Z" fill="#6B6B6B"/>
<path fill-rule="evenodd" clip-rule="evenodd" d="M1176.76 205.445L1131.83 205.445L1131.83 200.453L1176.76 200.453V205.445Z" fill="#6B6B6B"/>
<path d="M1137.45 229.781C1139.17 229.781 1140.57 228.384 1140.57 226.661C1140.57 224.938 1139.17 223.541 1137.45 223.541C1135.72 223.541 1134.33 224.938 1134.33 226.661C1134.33 228.384 1135.72 229.781 1137.45 229.781Z" fill="#6B6B6B"/>
<path fill-rule="evenodd" clip-rule="evenodd" d="M1154.3 222.917C1152.23 222.917 1150.55 224.593 1150.55 226.661C1150.55 228.729 1152.23 230.405 1154.3 230.405C1156.36 230.405 1158.04 228.729 1158.04 226.661C1158.04 224.593 1156.36 222.917 1154.3 222.917ZM1145.56 226.661C1145.56 221.836 1149.47 217.925 1154.3 217.925C1159.12 217.925 1163.03 221.836 1163.03 226.661C1163.03 231.486 1159.12 235.397 1154.3 235.397C1149.47 235.397 1145.56 231.486 1145.56 226.661Z" fill="#6B6B6B"/>
<path d="M1171.14 229.781C1172.87 229.781 1174.26 228.384 1174.26 226.661C1174.26 224.938 1172.87 223.541 1171.14 223.541C1169.42 223.541 1168.02 224.938 1168.02 226.661C1168.02 228.384 1169.42 229.781 1171.14 229.781Z" fill="#6B6B6B"/>
<path fill-rule="evenodd" clip-rule="evenodd" d="M296.512 326.749C297.381 320.931 292.951 317.803 286.894 315.717L288.859 307.836L284.06 306.64L282.147 314.314C280.887 313.999 279.592 313.703 278.305 313.409L280.231 305.685L275.437 304.489L273.47 312.368C272.427 312.13 271.402 311.895 270.407 311.648L270.412 311.623L263.796 309.971L262.52 315.095C262.52 315.095 266.08 315.911 266.004 315.962C267.947 316.447 268.3 317.732 268.24 318.752L266.002 327.73C266.136 327.765 266.309 327.814 266.5 327.89L265.995 327.765L262.856 340.342C262.619 340.932 262.016 341.818 260.658 341.482C260.706 341.551 257.171 340.611 257.171 340.611L254.789 346.104L261.034 347.661C261.738 347.837 262.435 348.019 263.124 348.199C263.569 348.315 264.013 348.431 264.452 348.543L262.467 356.516L267.259 357.712L269.226 349.825C270.534 350.18 271.805 350.508 273.048 350.817L271.089 358.667L275.886 359.863L277.872 351.906C286.052 353.454 292.205 352.83 294.792 345.432C296.878 339.475 294.689 336.038 290.385 333.796C293.52 333.07 295.882 331.008 296.512 326.749ZM285.55 342.12C284.188 347.588 275.627 345.325 271.714 344.291C271.363 344.199 271.05 344.116 270.783 344.049L273.417 333.488C273.744 333.57 274.143 333.66 274.596 333.761C278.644 334.67 286.94 336.531 285.55 342.12ZM275.409 328.86C278.675 329.732 285.792 331.63 287.032 326.663C288.3 321.582 281.379 320.05 277.998 319.302C277.618 319.218 277.283 319.144 277.009 319.076L274.621 328.654C274.847 328.71 275.112 328.781 275.409 328.86Z" fill="#6B6B6B"/>
<path fill-rule="evenodd" clip-rule="evenodd" d="M362.174 313.006C365.564 310.921 370.088 309.712 374.954 309.712C379.82 309.712 384.345 310.921 387.735 313.006C391.084 315.067 393.674 318.245 393.674 322.192V342.16C393.674 346.107 391.084 349.284 387.735 351.345C384.345 353.431 379.82 354.64 374.954 354.64C370.088 354.64 365.564 353.431 362.174 351.345C358.825 349.284 356.234 346.107 356.234 342.16V322.192C356.234 318.245 358.825 315.067 362.174 313.006ZM361.226 330.749V332.176C361.226 333.743 362.268 335.557 364.79 337.11C367.273 338.638 370.86 339.664 374.954 339.664C379.049 339.664 382.636 338.638 385.118 337.11C387.641 335.557 388.682 333.743 388.682 332.176V330.749C388.375 330.969 388.058 331.178 387.735 331.377C384.345 333.463 379.82 334.672 374.954 334.672C370.088 334.672 365.564 333.463 362.174 331.377C361.851 331.178 361.534 330.969 361.226 330.749ZM388.682 340.733C388.375 340.953 388.058 341.162 387.735 341.361C384.345 343.447 379.82 344.656 374.954 344.656C370.088 344.656 365.564 343.447 362.174 341.361C361.851 341.162 361.534 340.953 361.226 340.733V342.16C361.226 343.727 362.268 345.541 364.79 347.094C367.273 348.622 370.86 349.648 374.954 349.648C379.049 349.648 382.636 348.622 385.118 347.094C387.641 345.541 388.682 343.727 388.682 342.16V340.733ZM361.226 322.192C361.226 323.759 362.268 325.573 364.79 327.126C367.273 328.654 370.86 329.68 374.954 329.68C379.049 329.68 382.636 328.654 385.118 327.126C387.641 325.573 388.682 323.759 388.682 322.192C388.682 320.625 387.641 318.81 385.118 317.258C382.636 315.73 379.049 314.704 374.954 314.704C370.86 314.704 367.273 315.73 364.79 317.258C362.268 318.81 361.226 320.625 361.226 322.192ZM409.242 317.751C412.362 319.657 414.823 322.626 414.823 326.352V335.504C414.823 339.23 412.362 342.199 409.242 344.105C406.08 346.038 401.869 347.152 397.351 347.152V342.16C401.104 342.16 404.381 341.225 406.639 339.846C408.94 338.44 409.831 336.833 409.831 335.504V334.575C409.638 334.705 409.441 334.831 409.242 334.953C406.08 336.886 401.869 338 397.351 338V333.008C401.104 333.008 404.381 332.073 406.639 330.694C408.94 329.288 409.831 327.681 409.831 326.352C409.831 325.023 408.94 323.416 406.639 322.01C404.381 320.631 401.104 319.696 397.351 319.696V314.704C401.869 314.704 406.08 315.818 409.242 317.751Z" fill="#6B6B6B"/>
<path fill-rule="evenodd" clip-rule="evenodd" d="M501.795 329.264L520.097 310.962L516.567 307.432L498.265 325.734L493.69 321.16L492.701 321.13C488.946 321.016 485.146 322.394 482.277 325.263C479.497 328.043 475.907 329.509 472.265 329.666L469.597 329.78L469.892 332.435C470.583 338.65 473.313 344.686 478.078 349.45C482.842 354.215 488.878 356.945 495.093 357.636L497.748 357.932L497.863 355.263C498.019 351.621 499.486 348.031 502.265 345.252C505.135 342.382 506.512 338.582 506.399 334.827L506.369 333.838L501.795 329.264ZM491.61 326.139C489.493 326.291 487.424 327.176 485.807 328.793C482.819 331.78 479.121 333.629 475.258 334.34C475.555 335.691 475.971 337.02 476.508 338.312C480.052 337.91 483.486 336.35 486.204 333.632L489.734 337.162C486.704 340.192 482.986 342.12 479.084 342.945C479.83 343.988 480.671 344.984 481.608 345.921C484.91 349.223 488.944 351.338 493.189 352.27C493.899 348.407 495.748 344.709 498.736 341.722C500.353 340.105 501.237 338.036 501.39 335.918L491.61 326.139Z" fill="#6B6B6B"/>
<path fill-rule="evenodd" clip-rule="evenodd" d="M605.176 305.571L628.217 318.874V345.478L605.176 358.781L582.136 345.478V318.874L605.176 305.571ZM587.128 324.638L602.68 333.617L602.68 351.576L587.128 342.596V324.638ZM607.672 351.576L623.225 342.596V324.638L607.672 333.617L607.672 351.576ZM605.176 329.294L620.729 320.315L605.176 311.335L589.624 320.315L605.176 329.294Z" fill="#6B6B6B"/>
<path fill-rule="evenodd" clip-rule="evenodd" d="M709.337 307.654C710.809 307.366 712.327 307.216 713.878 307.216C715.429 307.216 716.947 307.366 718.419 307.655L719.881 307.941L721.527 313.228C722.077 313.467 722.613 313.73 723.136 314.016L728.231 312.027L729.37 313.015C731.677 315.016 733.603 317.456 735.022 320.208L735.692 321.508L732.654 326.106C732.818 326.703 732.955 327.312 733.063 327.931L737.761 330.732L737.714 332.202C737.613 335.38 736.906 338.408 735.705 341.168L735.11 342.536L729.668 342.99C729.313 343.487 728.935 343.967 728.537 344.428L729.311 349.912L728.142 350.798C725.731 352.626 722.963 354.005 719.96 354.806L718.508 355.194L714.761 351.149C714.468 351.163 714.173 351.169 713.876 351.169C713.581 351.169 713.287 351.163 712.995 351.15L709.249 355.194L707.796 354.806C704.794 354.005 702.026 352.626 699.614 350.798L698.446 349.912L699.219 344.432C698.819 343.97 698.441 343.488 698.084 342.989L692.645 342.536L692.05 341.168C690.85 338.409 690.143 335.38 690.042 332.203L689.995 330.733L694.689 327.933C694.798 327.312 694.935 326.701 695.1 326.101L692.064 321.507L692.735 320.207C694.154 317.456 696.079 315.016 698.386 313.014L699.525 312.027L704.619 314.015C705.142 313.728 705.679 313.465 706.23 313.226L707.876 307.94L709.337 307.654ZM711.738 312.33L710.271 317.042L709.095 317.46C708.069 317.825 707.095 318.305 706.187 318.885L705.117 319.569L700.579 317.797C699.554 318.835 698.646 319.992 697.875 321.247L700.592 325.358L700.192 326.52C699.84 327.546 699.595 328.624 699.472 329.74L699.336 330.975L695.13 333.483C695.288 334.987 695.617 336.437 696.096 337.814L700.95 338.219L701.612 339.286C702.192 340.221 702.872 341.084 703.636 341.861L704.499 342.74L703.807 347.644C705.012 348.421 706.309 349.062 707.676 349.546L711.01 345.946L712.264 346.087C712.792 346.147 713.33 346.177 713.876 346.177C714.423 346.177 714.962 346.147 715.492 346.087L716.746 345.946L720.081 349.546C721.448 349.061 722.744 348.421 723.949 347.644L723.257 342.737L724.12 341.858C724.883 341.082 725.561 340.22 726.14 339.287L726.802 338.22L731.66 337.814C732.139 336.437 732.467 334.986 732.626 333.482L728.417 330.972L728.281 329.738C728.158 328.623 727.913 327.548 727.561 326.524L727.162 325.362L729.881 321.247C729.111 319.993 728.202 318.835 727.177 317.797L722.637 319.57L721.567 318.886C720.66 318.306 719.686 317.827 718.661 317.462L717.486 317.043L716.019 312.33C715.317 312.249 714.603 312.208 713.878 312.208C713.153 312.208 712.439 312.249 711.738 312.33ZM703.713 331.408C703.713 325.765 708.225 321.122 713.875 321.122C719.525 321.122 724.038 325.765 724.038 331.408C724.038 337.051 719.525 341.694 713.875 341.694C708.225 341.694 703.713 337.051 703.713 331.408ZM713.875 326.114C711.057 326.114 708.705 328.447 708.705 331.408C708.705 334.37 711.057 336.702 713.875 336.702C716.694 336.702 719.046 334.37 719.046 331.408C719.046 328.447 716.694 326.114 713.875 326.114Z" fill="#6B6B6B"/>
<path fill-rule="evenodd" clip-rule="evenodd" d="M817.893 302.12L840.934 315.423V330.1H835.942V321.187L820.389 330.166L820.389 348.135L823.036 346.614L825.523 350.942L817.89 355.328L794.853 342.028V315.423L817.893 302.12ZM815.397 348.125L815.397 330.166L799.845 321.187V339.145L815.397 348.125ZM802.341 316.864L817.893 325.843L823.654 322.517L808.101 313.538L802.341 316.864ZM813.093 310.656L828.646 319.635L833.446 316.864L817.893 307.885L813.093 310.656ZM825.55 332.601C826.238 331.914 827.261 331.688 828.174 332.023L853.157 341.174C854.111 341.524 854.759 342.417 854.793 343.433C854.827 344.449 854.242 345.385 853.314 345.798L843.235 350.286L838.747 360.365C838.333 361.293 837.398 361.879 836.382 361.844C835.366 361.81 834.473 361.163 834.123 360.208L824.972 335.225C824.637 334.312 824.863 333.289 825.55 332.601ZM831.51 338.561L836.692 352.708L839.064 347.38C839.315 346.817 839.766 346.366 840.329 346.115L845.657 343.743L831.51 338.561Z" fill="#6B6B6B"/>
<path fill-rule="evenodd" clip-rule="evenodd" d="M905.118 316.816H921.284V319.385H928.381L935.883 325.515L945.811 325.289H945.839C947.664 325.289 949.086 326.274 949.877 327.615L958.097 326.616C960.602 326.219 963.068 327.676 963.746 330.245C964.357 332.562 963.305 335.306 960.933 336.354C958.193 337.564 955.786 338.65 953.663 339.607C950.42 341.07 947.84 342.234 945.75 343.086C942.298 344.494 939.659 345.287 937.042 345.075C934.428 344.864 932.171 343.667 929.5 342.125C928.974 341.822 928.422 341.497 927.832 341.152C926.056 340.11 923.951 338.874 921.284 337.443V341.628H905.118V316.816ZM921.284 331.803C925.219 333.83 928.133 335.54 930.392 336.865C930.967 337.203 931.5 337.515 931.996 337.802C934.741 339.387 936.093 339.99 937.445 340.1C938.794 340.209 940.478 339.845 943.865 338.464C945.883 337.641 948.321 336.541 951.471 335.119C953.585 334.165 956.02 333.067 958.864 331.81C958.871 331.799 958.881 331.783 958.89 331.761C958.909 331.72 958.921 331.672 958.926 331.624C958.929 331.591 958.927 331.564 958.924 331.543C958.912 331.542 958.895 331.543 958.874 331.547L958.813 331.558L949.842 332.648C949.159 333.75 948.035 334.58 946.646 334.793L935.582 337.358L934.455 332.495L943.801 330.328L934.153 330.547L926.601 324.377H921.284V331.803ZM916.292 321.808H910.11V336.636H916.292V321.808Z" fill="#6B6B6B"/>
<path fill-rule="evenodd" clip-rule="evenodd" d="M1062.63 309.621L1063.15 323.964L1049.53 328.48L1047.96 323.742L1055.07 321.385L1053.02 319.961C1049.62 317.601 1045.59 316.842 1041.82 317.522C1038.04 318.202 1034.53 320.319 1032.17 323.716C1030.36 326.332 1029.49 329.317 1029.5 332.273L1024.5 332.283C1024.5 328.338 1025.66 324.349 1028.07 320.868C1031.22 316.34 1035.91 313.514 1040.93 312.609C1045.96 311.704 1051.34 312.716 1055.87 315.862L1057.92 317.286L1057.64 309.803L1062.63 309.621ZM1056.84 340.702C1058.63 338.125 1059.5 335.189 1059.52 332.275L1064.51 332.309C1064.49 336.197 1063.33 340.12 1060.94 343.55C1057.8 348.078 1053.11 350.904 1048.08 351.809C1043.06 352.715 1037.68 351.702 1033.15 348.556L1031.03 347.079L1031.3 354.718L1026.31 354.9L1025.79 340.557L1039.42 336.041L1040.99 340.779L1034.03 343.086L1036 344.457C1039.4 346.817 1043.42 347.576 1047.2 346.896C1050.98 346.216 1054.48 344.099 1056.84 340.702Z" fill="#6B6B6B"/>
<path fill-rule="evenodd" clip-rule="evenodd" d="M1154.3 310.972C1151.86 310.972 1149.89 312.944 1149.89 315.377C1149.89 317.81 1151.86 319.783 1154.3 319.783C1156.73 319.783 1158.7 317.81 1158.7 315.377C1158.7 312.944 1156.73 310.972 1154.3 310.972ZM1144.9 315.377C1144.9 310.187 1149.11 305.98 1154.3 305.98C1159.49 305.98 1163.69 310.187 1163.69 315.377C1163.69 320.567 1159.49 324.775 1154.3 324.775C1149.11 324.775 1144.9 320.567 1144.9 315.377ZM1137.5 324.457C1135.07 324.457 1133.1 326.429 1133.1 328.862C1133.1 331.295 1135.07 333.268 1137.5 333.268C1139.94 333.268 1141.91 331.295 1141.91 328.862C1141.91 326.429 1139.94 324.457 1137.5 324.457ZM1128.1 328.862C1128.1 323.672 1132.31 319.465 1137.5 319.465C1142.69 319.465 1146.9 323.672 1146.9 328.862C1146.9 334.052 1142.69 338.26 1137.5 338.26C1132.31 338.26 1128.1 334.052 1128.1 328.862ZM1171.09 324.457C1168.66 324.457 1166.68 326.429 1166.68 328.862C1166.68 331.295 1168.66 333.268 1171.09 333.268C1173.52 333.268 1175.49 331.295 1175.49 328.862C1175.49 326.429 1173.52 324.457 1171.09 324.457ZM1161.69 328.862C1161.69 323.672 1165.9 319.465 1171.09 319.465C1176.28 319.465 1180.49 323.672 1180.49 328.862C1180.49 334.052 1176.28 338.26 1171.09 338.26C1165.9 338.26 1161.69 334.052 1161.69 328.862ZM1143.71 344.569C1141.28 344.569 1139.31 346.541 1139.31 348.974C1139.31 351.407 1141.28 353.38 1143.71 353.38C1146.15 353.38 1148.12 351.407 1148.12 348.974C1148.12 346.541 1146.15 344.569 1143.71 344.569ZM1134.32 348.974C1134.32 343.784 1138.52 339.577 1143.71 339.577C1148.9 339.577 1153.11 343.784 1153.11 348.974C1153.11 354.164 1148.9 358.372 1143.71 358.372C1138.52 358.372 1134.32 354.164 1134.32 348.974ZM1165.35 344.569C1162.92 344.569 1160.95 346.541 1160.95 348.974C1160.95 351.407 1162.92 353.38 1165.35 353.38C1167.79 353.38 1169.76 351.407 1169.76 348.974C1169.76 346.541 1167.79 344.569 1165.35 344.569ZM1155.96 348.974C1155.96 343.784 1160.16 339.577 1165.35 339.577C1170.54 339.577 1174.75 343.784 1174.75 348.974C1174.75 354.164 1170.54 358.372 1165.35 358.372C1160.16 358.372 1155.96 354.164 1155.96 348.974Z" fill="#6B6B6B"/>
<path fill-rule="evenodd" clip-rule="evenodd" d="M272.856 459.522L272.949 451.532L273.077 440.513L273.131 424.86C269.316 423 264.726 422.309 260.772 422.143C258.603 422.051 256.699 422.121 255.336 422.214V423.312H255.338V456.727L255.465 456.723C257.182 456.68 259.545 456.693 262.119 456.923C264.682 457.152 267.525 457.602 270.171 458.462C271.076 458.756 271.981 459.105 272.856 459.522ZM278.259 424.759L278.02 459.668C278.902 459.259 279.798 458.925 280.658 458.657L280.669 458.654C281.038 458.541 281.412 458.433 281.789 458.331C281.891 458.303 281.992 458.276 282.094 458.249C283.637 457.845 285.235 457.532 286.822 457.306C289.948 456.86 292.937 456.789 295.13 456.825C295.461 456.831 295.775 456.839 296.069 456.848V422.211C294.717 422.116 292.831 422.043 290.677 422.126C286.739 422.277 282.135 422.94 278.259 424.759ZM277.339 466.085C277.338 466.086 277.337 466.087 277.336 466.088C276.64 466.851 275.547 467.107 274.586 466.732C274.209 466.585 273.883 466.353 273.625 466.064L273.561 465.995C272.448 464.831 270.759 463.902 268.628 463.21C266.461 462.505 264.019 462.105 261.675 461.895C259.342 461.687 257.177 461.674 255.591 461.714C254.801 461.734 254.16 461.767 253.722 461.794C253.503 461.808 253.334 461.821 253.224 461.829L253.101 461.839L253.074 461.842L253.071 461.842L253.07 461.842C252.371 461.907 251.677 461.674 251.158 461.201C250.639 460.728 250.344 460.059 250.344 459.357V419.947C250.344 418.704 251.258 417.651 252.488 417.476L252.84 419.947C252.488 417.476 252.488 417.476 252.489 417.476L252.491 417.475L252.495 417.475L252.507 417.473L252.547 417.468L252.684 417.45C252.801 417.435 252.967 417.415 253.18 417.392C253.604 417.346 254.212 417.287 254.966 417.235C256.471 417.132 258.575 417.054 260.982 417.155C265.28 417.336 270.796 418.096 275.588 420.506C280.488 418.059 286.119 417.305 290.485 417.138C292.881 417.046 294.97 417.128 296.464 417.234C297.212 417.287 297.814 417.346 298.235 417.393C298.446 417.416 298.611 417.436 298.727 417.451L298.862 417.469L298.902 417.474L298.914 417.476L298.918 417.476L298.919 417.477C298.92 417.477 298.921 417.477 298.565 419.947L298.921 417.477C300.149 417.654 301.061 418.706 301.061 419.947V423.312H301.066V459.496C301.066 460.202 300.767 460.875 300.243 461.349C299.947 461.616 299.595 461.805 299.218 461.906C298.927 461.986 298.62 462.012 298.312 461.981L298.312 461.981L298.311 461.98L298.307 461.98L282.143 463.423C282.431 463.335 282.724 463.25 283.021 463.169C282.724 463.25 282.432 463.335 282.144 463.423L282.143 463.423C280.082 464.066 278.317 465.016 277.341 466.087L277.339 466.085Z" fill="#6B6B6B"/>
<path d="M397.652 416.755L392.233 413.617L383.104 419.037V429.877L388.239 433.014V425.312L398.793 431.303L385.672 439.005L372.265 431.303L376.258 429.021V423.03L364.277 429.877V454.409L380.252 463.537L373.691 467.53L379.111 470.383L388.239 465.248V454.409L383.104 451.271V458.973L369.697 451.271V435.867L385.672 445.28L401.646 435.867V451.271L394.8 455.264V461.255L406.781 454.409V429.877L391.092 420.748L397.652 416.755Z" fill="#6B6B6B"/>
<path fill-rule="evenodd" clip-rule="evenodd" d="M495.352 418.527L519.625 428.364V465.276H471.08V428.364L495.352 418.527ZM476.072 431.727V460.284H479.904V434.219H510.801V460.284H514.633V431.727L495.352 423.913L476.072 431.727ZM505.809 460.284V456.463H484.896V460.284H505.809ZM484.896 451.471H505.809V448.024H484.896V451.471ZM484.896 443.032H505.809V439.211H484.896V443.032Z" fill="#6B6B6B"/>
<path fill-rule="evenodd" clip-rule="evenodd" d="M612.093 425.435L603.088 459.83L598.259 458.566L607.264 424.17L612.093 425.435ZM586.107 442L595.031 432.31L591.359 428.928L579.321 442L591.359 455.072L595.031 451.69L586.107 442ZM624.244 442L615.321 432.31L618.993 428.928L631.031 442L618.993 455.072L615.321 451.69L624.244 442Z" fill="#6B6B6B"/>
<path fill-rule="evenodd" clip-rule="evenodd" d="M692.536 417.04H724.568V429.751H719.576V422.032H697.528V453.989H704.441V458.981H692.536V417.04ZM721.085 438.755C716.119 438.755 712.092 442.782 712.092 447.749C712.092 452.716 716.119 456.742 721.085 456.742C726.052 456.742 730.079 452.716 730.079 447.749C730.079 442.782 726.052 438.755 721.085 438.755ZM707.1 447.749C707.1 440.025 713.362 433.763 721.085 433.763C728.809 433.763 735.071 440.025 735.071 447.749C735.071 450.686 734.165 453.412 732.618 455.663L739.099 462.144L735.569 465.673L729.104 459.209C726.834 460.8 724.069 461.734 721.085 461.734C713.362 461.734 707.1 455.473 707.1 447.749Z" fill="#6B6B6B"/>
<path fill-rule="evenodd" clip-rule="evenodd" d="M847.538 429.278H831.256V424.286H852.53V445.559H847.538V429.278Z" fill="#6B6B6B"/>
<path fill-rule="evenodd" clip-rule="evenodd" d="M850.75 429.69L828.583 451.858L818.544 441.819L801.379 458.983L797.85 455.453L818.544 434.759L828.583 444.798L847.221 426.16L850.75 429.69Z" fill="#6B6B6B"/>
<path fill-rule="evenodd" clip-rule="evenodd" d="M934.446 419.293L956.708 429.353V439.722H912.185V429.353L934.446 419.293ZM934.446 424.771L917.177 432.575V434.73H951.716V432.575L934.446 424.771Z" fill="#6B6B6B"/>
<path fill-rule="evenodd" clip-rule="evenodd" d="M912.185 461.841H956.708V448.883H912.185V461.841ZM917.177 456.849V453.875H951.716V456.849H917.177Z" fill="#6B6B6B"/>
<path fill-rule="evenodd" clip-rule="evenodd" d="M919.104 452.359L919.104 439.514L924.096 439.514L924.096 452.359L919.104 452.359Z" fill="#6B6B6B"/>
<path fill-rule="evenodd" clip-rule="evenodd" d="M931.95 452.359L931.95 439.514L936.942 439.514L936.942 452.359L931.95 452.359Z" fill="#6B6B6B"/>
<path fill-rule="evenodd" clip-rule="evenodd" d="M944.795 452.359L944.795 439.514L949.787 439.514L949.787 452.359L944.795 452.359Z" fill="#6B6B6B"/>
<path fill-rule="evenodd" clip-rule="evenodd" d="M1017.02 412.048H1061.94V437.008H1056.95V417.04H1022.01V466.96H1061.94V471.952H1017.02V412.048ZM1044.47 427.024H1027V422.032H1044.47V427.024ZM1051.96 437.008H1027V432.016H1051.96V437.008ZM1034.49 451.984C1034.49 446.47 1038.96 442 1044.47 442H1051.96C1057.47 442 1061.94 446.47 1061.94 451.984H1056.95C1056.95 449.227 1054.72 446.992 1051.96 446.992H1044.47C1041.71 446.992 1039.48 449.227 1039.48 451.984C1039.48 454.741 1041.71 456.976 1044.47 456.976H1045.41V461.968H1044.47C1038.96 461.968 1034.49 457.498 1034.49 451.984ZM1064.44 446.992H1063.5V442H1064.44C1069.95 442 1074.42 446.47 1074.42 451.984C1074.42 457.498 1069.95 461.968 1064.44 461.968H1056.95C1051.44 461.968 1046.97 457.498 1046.97 451.984H1051.96C1051.96 454.741 1054.19 456.976 1056.95 456.976H1064.44C1067.2 456.976 1069.43 454.741 1069.43 451.984C1069.43 449.227 1067.2 446.992 1064.44 446.992Z" fill="#6B6B6B"/>
<path fill-rule="evenodd" clip-rule="evenodd" d="M1126.84 412.048H1171.77V437.008H1166.78V417.04H1131.83V461.968H1141.82V466.96H1126.84V412.048ZM1154.3 428.272H1136.82V423.28H1154.3V428.272ZM1160.54 439.504H1136.82V434.512H1160.54V439.504ZM1161.78 455.728V444.496H1166.78V455.728H1178.01V460.72H1166.78V471.952H1161.78V460.72H1150.55V455.728H1161.78Z" fill="#6B6B6B"/>
<path fill-rule="evenodd" clip-rule="evenodd" d="M259.592 531.856H291.818L300.665 549.003V572.449H250.745V549.003L259.592 531.856ZM262.634 536.848L257.144 547.489H268.397L271.461 553.769H279.95L283.013 547.489H294.266L288.776 536.848H262.634ZM295.673 552.481H286.132L283.069 558.761H268.341L265.278 552.481H255.737V567.457H295.673V552.481Z" fill="#6B6B6B"/>
<path fill-rule="evenodd" clip-rule="evenodd" d="M374.052 534.892C372.893 537.361 371.84 540.799 371.061 544.435L371.048 544.496L371.032 544.555C370.711 545.763 370.513 546.917 370.298 548.17C370.17 548.916 370.036 549.696 369.867 550.544L364.971 549.565C365.085 548.997 365.197 548.349 365.317 547.661C365.345 547.501 365.373 547.338 365.402 547.173C363.729 547.642 362.558 548.15 361.773 548.645C360.625 549.369 360.571 549.865 360.568 550.039C360.581 550.088 360.724 550.578 362.07 551.338C363.544 552.17 365.889 552.973 369.11 553.618L369.263 553.648L369.41 553.697C369.956 553.879 370.653 553.987 371.644 554.128C375.274 554.647 379.83 555.038 384.777 555.038H387.815C392.737 554.907 397.007 554.388 400.629 553.742L400.657 553.736C400.764 553.719 400.868 553.702 400.969 553.685C401.725 553.56 402.316 553.463 402.815 553.297L402.906 553.266L402.999 553.243C405.539 552.608 407.379 551.857 408.523 551.116C409.502 550.482 409.639 550.091 409.654 550.035C409.651 549.879 409.585 549.347 408.258 548.575C407.312 548.025 405.906 547.474 403.916 546.977C404.085 547.922 404.227 548.853 404.343 549.728L399.395 550.387C399.137 548.45 398.753 546.291 398.255 544.424L398.239 544.364L398.226 544.304C397.448 540.67 396.397 537.269 395.241 534.837C394.659 533.611 394.108 532.755 393.641 532.245C393.423 532.005 393.279 531.901 393.211 531.859C392.424 531.903 391.623 532.411 390.265 533.585C390.181 533.657 390.094 533.734 390.003 533.813C389.44 534.303 388.749 534.905 388.048 535.376C387.208 535.939 386.055 536.529 384.644 536.529C383.233 536.529 382.079 535.939 381.24 535.376C380.538 534.905 379.847 534.303 379.285 533.813C379.194 533.734 379.106 533.657 379.023 533.585C377.67 532.416 376.87 531.907 376.087 531.86C376.017 531.904 375.874 532.012 375.66 532.25C375.19 532.774 374.636 533.647 374.052 534.892ZM376.137 531.832C376.137 531.832 376.136 531.832 376.134 531.833ZM393.165 531.834C393.165 531.834 393.166 531.835 393.168 531.836ZM402.734 541.61C401.949 538.341 400.934 535.187 399.75 532.695C399.064 531.251 398.263 529.903 397.328 528.879C396.426 527.891 395.081 526.864 393.323 526.864C390.408 526.864 388.282 528.701 387.001 529.808C386.892 529.903 386.788 529.993 386.688 530.079C386.107 530.584 385.686 530.949 385.267 531.23C385.044 531.38 384.885 531.46 384.777 531.501C384.725 531.521 384.691 531.53 384.671 531.534C384.653 531.537 384.645 531.537 384.644 531.537C384.643 531.537 384.635 531.537 384.616 531.534C384.597 531.53 384.562 531.521 384.511 531.501C384.403 531.46 384.244 531.38 384.021 531.23C383.602 530.949 383.181 530.584 382.599 530.079C382.5 529.993 382.396 529.903 382.287 529.808C381.006 528.701 378.879 526.864 375.965 526.864C374.189 526.864 372.84 527.92 371.947 528.914C371.015 529.951 370.217 531.314 369.532 532.772C368.349 535.295 367.333 538.482 366.548 541.764C363.359 542.426 360.89 543.301 359.111 544.422C356.964 545.776 355.576 547.675 355.576 550.056C355.576 552.732 357.602 554.548 359.615 555.685C361.718 556.872 364.596 557.796 367.99 558.484C368.965 558.789 370.021 558.939 370.843 559.057C370.875 559.061 370.907 559.066 370.938 559.07C374.786 559.62 379.577 560.03 384.777 560.03H387.881L387.914 560.029C393.12 559.892 397.647 559.344 401.492 558.658C401.572 558.645 401.659 558.631 401.752 558.616C402.433 558.506 403.411 558.348 404.296 558.064C407.062 557.367 409.462 556.456 411.237 555.306C412.952 554.195 414.646 552.472 414.646 550.056C414.646 547.506 413.041 545.583 410.768 544.26C408.842 543.14 406.17 542.269 402.734 541.61ZM374.717 567.508C372.024 567.508 370.849 569.16 370.849 570.086C370.849 571.012 372.024 572.664 374.717 572.664C377.41 572.664 378.585 571.012 378.585 570.086C378.585 569.16 377.41 567.508 374.717 567.508ZM365.857 570.086C365.857 565.407 370.381 562.516 374.717 562.516C377.781 562.516 380.939 563.959 382.528 566.457C384.194 565.953 386.013 565.965 387.671 566.494C389.252 563.973 392.426 562.516 395.505 562.516C399.841 562.516 404.365 565.407 404.365 570.086C404.365 574.764 399.841 577.656 395.505 577.656C391.637 577.656 387.618 575.354 386.797 571.535C385.817 570.959 384.461 570.93 383.443 571.447C382.665 575.319 378.615 577.656 374.717 577.656C370.381 577.656 365.857 574.764 365.857 570.086ZM395.505 567.508C392.812 567.508 391.637 569.16 391.637 570.086C391.637 571.012 392.812 572.664 395.505 572.664C398.199 572.664 399.373 571.012 399.373 570.086C399.373 569.16 398.199 567.508 395.505 567.508Z" fill="#6B6B6B"/>
<path fill-rule="evenodd" clip-rule="evenodd" d="M497.51 545.449V543.413H495.014V545.476C493.511 545.642 492.089 546.105 490.926 546.983C489.327 548.189 488.484 549.984 488.484 552.035C488.484 553.005 488.663 553.96 489.123 554.842C489.585 555.731 490.251 556.389 490.984 556.883C492.122 557.651 493.588 558.115 495.014 558.494V562.021C494.443 561.909 494.024 561.73 493.746 561.532C493.411 561.292 493.098 560.912 493.098 559.97H488.106C488.106 562.389 489.091 564.341 490.845 565.594C492.084 566.48 493.556 566.909 495.014 567.063V569.277H497.51V567.093C498.929 566.992 500.383 566.679 501.614 565.941C503.379 564.884 504.418 563.11 504.418 560.835C504.418 559.81 504.226 558.821 503.762 557.912C503.296 556.998 502.626 556.306 501.878 555.777C500.635 554.898 499.038 554.389 497.51 553.984V550.47C498.212 550.571 498.644 550.76 498.888 550.943C499.111 551.11 499.426 551.443 499.426 552.492H504.418C504.418 550.21 503.611 548.247 501.885 546.951C500.607 545.992 499.056 545.576 497.51 545.449ZM495.014 550.525C494.491 550.638 494.143 550.809 493.933 550.967C493.669 551.167 493.476 551.44 493.476 552.035C493.476 552.389 493.539 552.515 493.551 552.537C493.559 552.553 493.595 552.623 493.774 552.744C494.041 552.924 494.429 553.097 495.014 553.291V550.525ZM497.51 559.185V562.081C498.258 561.997 498.756 561.834 499.048 561.659C499.222 561.555 499.287 561.468 499.32 561.409C499.355 561.347 499.426 561.187 499.426 560.835C499.426 560.439 499.354 560.257 499.315 560.181C499.279 560.109 499.205 560.001 498.996 559.853C498.679 559.629 498.212 559.416 497.51 559.185Z" fill="#6B6B6B"/>
<path fill-rule="evenodd" clip-rule="evenodd" d="M484.794 536.307V535.132C484.794 530.87 488.063 526.864 492.658 526.864H499.729C504.118 526.864 507.594 530.648 507.594 535.132V536.307H519.634V541.299H516.206L511.582 577.473H480.941L476.317 541.299H472.889V536.307H484.794ZM489.786 535.132C489.786 533.199 491.23 531.856 492.658 531.856H499.729C501.103 531.856 502.602 533.14 502.602 535.132V536.307H489.786V535.132ZM481.35 541.299H511.174L507.188 572.481H485.335L481.35 541.299Z" fill="#6B6B6B"/>
<path fill-rule="evenodd" clip-rule="evenodd" d="M605.176 531.856C594.148 531.856 585.208 540.796 585.208 551.824C585.208 562.852 594.148 571.792 605.176 571.792C616.204 571.792 625.144 562.852 625.144 551.824C625.144 540.796 616.204 531.856 605.176 531.856ZM580.216 551.824C580.216 538.039 591.391 526.864 605.176 526.864C618.961 526.864 630.136 538.039 630.136 551.824C630.136 565.609 618.961 576.784 605.176 576.784C591.391 576.784 580.216 565.609 580.216 551.824ZM602.68 544.336V539.344H607.672V544.336H602.68ZM602.68 548.08H607.672L607.672 563.056H602.68L602.68 548.08Z" fill="#6B6B6B"/>
<path fill-rule="evenodd" clip-rule="evenodd" d="M694.82 569.246H735.178L714.999 534.391L694.82 569.246ZM688.331 570.491L712.839 528.159H717.159L741.668 570.491L739.507 574.238H690.491L688.331 570.491ZM717.495 545.006V557.26H712.503V545.006H717.495ZM717.495 565.428L712.503 565.428L712.503 560.602L717.495 560.602L717.495 565.428Z" fill="#6B6B6B"/>
<path fill-rule="evenodd" clip-rule="evenodd" d="M824.825 530.995C813.321 530.995 803.996 540.32 803.996 551.824C803.996 563.327 813.321 572.653 824.825 572.653C836.329 572.653 845.654 563.327 845.654 551.824C845.654 540.32 836.329 530.995 824.825 530.995ZM799.004 551.824C799.004 537.563 810.564 526.003 824.825 526.003C839.086 526.003 850.646 537.563 850.646 551.824C850.646 566.084 839.086 577.645 824.825 577.645C810.564 577.645 799.004 566.084 799.004 551.824ZM836.551 539.68L831.37 557.951L813.099 563.132L818.28 544.861L836.551 539.68ZM822.323 548.903L820.342 555.889L827.327 553.908L829.308 546.923L822.323 548.903Z" fill="#6B6B6B"/>
<path fill-rule="evenodd" clip-rule="evenodd" d="M913.433 546.685C913.433 535.031 922.95 525.616 934.649 525.616C946.347 525.616 955.865 535.031 955.865 546.685C955.865 555.481 950.669 563.282 945.872 568.663C943.433 571.398 941.001 573.614 939.181 575.147C938.269 575.914 937.506 576.514 936.966 576.926C936.695 577.132 936.481 577.291 936.33 577.401C936.255 577.455 936.196 577.498 936.155 577.528L936.105 577.563L936.091 577.573L936.086 577.577C936.085 577.577 936.083 577.579 934.649 575.536C933.213 577.578 933.212 577.577 933.212 577.577L933.205 577.572L933.19 577.562L933.141 577.527C933.099 577.497 933.04 577.454 932.965 577.399C932.815 577.29 932.6 577.13 932.33 576.924C931.79 576.512 931.027 575.911 930.115 575.143C928.295 573.609 925.864 571.391 923.425 568.655C918.629 563.272 913.433 555.471 913.433 546.685ZM934.649 575.536L933.212 577.577L934.647 578.586L936.083 577.579L934.649 575.536ZM934.65 572.404C935.03 572.103 935.473 571.742 935.966 571.328C937.656 569.905 939.904 567.854 942.146 565.341C946.708 560.223 950.873 553.599 950.873 546.685C950.873 537.824 943.627 530.608 934.649 530.608C925.67 530.608 918.425 537.824 918.425 546.685C918.425 553.588 922.589 560.212 927.152 565.333C929.393 567.848 931.642 569.901 933.332 571.326C933.825 571.741 934.269 572.102 934.65 572.404ZM924.227 546.832C924.227 541.076 928.893 536.41 934.649 536.41C940.405 536.41 945.071 541.076 945.071 546.832C945.071 552.588 940.405 557.254 934.649 557.254C928.893 557.254 924.227 552.588 924.227 546.832ZM934.649 541.402C931.65 541.402 929.219 543.833 929.219 546.832C929.219 549.831 931.65 552.262 934.649 552.262C937.648 552.262 940.079 549.831 940.079 546.832C940.079 543.833 937.648 541.402 934.649 541.402Z" fill="#6B6B6B"/>
<path fill-rule="evenodd" clip-rule="evenodd" d="M1023.26 530.608H1054.46L1054.46 554.32H1037.74L1027.14 561.389L1023.26 559.312V530.608ZM1028.25 535.6V554.648L1036.23 549.328H1049.46L1049.46 535.6H1028.25ZM1059.45 546.832H1057.41V541.84H1064.44V569.296L1060.56 571.373L1050.98 564.985H1034.49V557.95H1039.48V559.993H1052.49L1059.45 564.632V546.832Z" fill="#6B6B6B"/>
<path fill-rule="evenodd" clip-rule="evenodd" d="M1130.65 551.824C1130.65 538.766 1141.24 528.18 1154.29 528.18C1167.35 528.18 1177.94 538.766 1177.94 551.824C1177.94 564.883 1167.35 575.469 1154.29 575.469C1141.24 575.469 1130.65 564.883 1130.65 551.824ZM1154.29 533.172C1143.99 533.172 1135.64 541.523 1135.64 551.824C1135.64 562.126 1143.99 570.477 1154.29 570.477C1164.6 570.477 1172.95 562.126 1172.95 551.824C1172.95 541.523 1164.6 533.172 1154.29 533.172ZM1156.79 540.272L1156.79 553.658L1147.36 560.874L1144.33 556.91L1151.8 551.192L1151.8 540.272H1156.79Z" fill="#6B6B6B"/>
<path fill-rule="evenodd" clip-rule="evenodd" d="M283.976 640.646L296.331 653.001L270.06 679.271L257.641 679.336L257.706 666.917L283.976 640.646ZM283.976 647.706L280.447 651.236L285.741 656.531L289.271 653.001L283.976 647.706ZM282.212 660.06L276.917 654.766L262.687 668.995L262.659 674.318L267.982 674.29L282.212 660.06Z" fill="#6B6B6B"/>
<path d="M375.545 646.847C369.576 650.3 365.561 656.753 365.561 664.144C365.561 675.172 374.501 684.112 385.529 684.112C396.557 684.112 405.497 675.172 405.497 664.144C405.497 656.753 401.481 650.3 395.513 646.847V652.981C398.576 655.723 400.505 659.709 400.505 664.144C400.505 672.415 393.8 679.12 385.529 679.12C377.258 679.12 370.553 672.415 370.553 664.144C370.553 659.709 372.481 655.723 375.545 652.981V646.847Z" fill="#6B6B6B"/>
<path fill-rule="evenodd" clip-rule="evenodd" d="M383.033 664.144L383.033 639.184H388.025V664.144H383.033Z" fill="#6B6B6B"/>
<path fill-rule="evenodd" clip-rule="evenodd" d="M465.4 660.275C465.4 652.073 472.049 645.424 480.252 645.424C487.603 645.424 493.707 650.765 494.894 657.779L522.808 657.779V662.771H522.559V675.376H517.567V662.771H508.831V671.257H503.839V662.771H494.894C493.707 669.785 487.603 675.126 480.252 675.126C472.049 675.126 465.4 668.477 465.4 660.275ZM480.252 650.416C474.807 650.416 470.392 654.83 470.392 660.275C470.392 665.72 474.807 670.134 480.252 670.134C485.697 670.134 490.111 665.72 490.111 660.275C490.111 654.83 485.697 650.416 480.252 650.416Z" fill="#6B6B6B"/>
<path fill-rule="evenodd" clip-rule="evenodd" d="M586.67 645.898H581.162V650.89H584.002V657.732C584.002 665.433 590.005 671.732 597.587 672.206C598.919 679.802 605.549 685.574 613.526 685.574H614.513C623.996 685.574 631.683 677.887 631.683 668.404V656.398H626.691V668.404C626.691 675.13 621.239 680.582 614.513 680.582H613.526C608.122 680.582 603.612 676.751 602.564 671.658C608.598 669.901 613.007 664.333 613.007 657.732V650.89L615.847 650.89V645.898L610.339 645.898V637.721H605.347V645.898H591.662L591.662 637.721H586.67L586.67 645.898ZM608.015 650.89H588.994V657.732C588.994 662.984 593.252 667.242 598.504 667.242C598.864 667.242 599.219 667.222 599.566 667.184C604.318 666.657 608.015 662.625 608.015 657.732V650.89Z" fill="#6B6B6B"/>
<path fill-rule="evenodd" clip-rule="evenodd" d="M723.732 645.208C720.319 645.208 717.202 645.558 714.708 646.13L713.592 641.264C716.505 640.596 720.002 640.216 723.732 640.216C728.485 640.216 732.888 640.833 736.189 641.895C737.825 642.422 739.33 643.103 740.479 643.977C741.589 644.822 742.763 646.17 742.763 648.035C742.763 648.17 742.756 648.301 742.745 648.431H742.764V665.638C742.764 665.681 742.765 665.724 742.764 665.766V666.033H742.747C742.602 667.539 741.649 668.674 740.805 669.404C739.831 670.248 738.565 670.942 737.215 671.493C734.498 672.602 730.965 673.324 727.426 673.324V668.332C730.349 668.332 733.238 667.725 735.328 666.872C736.38 666.442 737.114 665.997 737.538 665.63C737.653 665.53 737.726 665.454 737.772 665.401V653.756C737.659 653.806 737.544 653.855 737.429 653.903C734.721 655.031 731.116 655.739 727.183 655.739V650.747C730.568 650.747 733.505 650.13 735.509 649.295C736.519 648.874 737.184 648.442 737.553 648.1C737.568 648.086 737.581 648.073 737.594 648.061C737.555 648.027 737.509 647.99 737.456 647.949C736.931 647.55 736.015 647.084 734.659 646.647C731.975 645.783 728.112 645.208 723.732 645.208ZM713.747 649.347C711.007 648.793 707.828 648.487 704.477 648.487C699.725 648.487 695.321 649.103 692.021 650.166C690.385 650.693 688.88 651.373 687.731 652.248C686.621 653.093 685.447 654.44 685.446 656.305L685.446 673.907C685.446 675.773 686.62 677.12 687.73 677.965C688.879 678.84 690.384 679.521 692.02 680.047C695.321 681.11 699.724 681.727 704.477 681.727C709.229 681.727 713.633 681.11 716.933 680.047C718.569 679.52 720.075 678.84 721.223 677.965C722.334 677.12 723.507 675.773 723.507 673.907V656.523C723.511 656.452 723.512 656.38 723.512 656.307C723.512 654.442 722.339 653.094 721.229 652.249C720.08 651.374 718.575 650.694 716.938 650.167C715.964 649.854 714.894 649.579 713.747 649.347ZM690.65 656.307C690.683 656.28 690.719 656.252 690.759 656.221C691.283 655.822 692.199 655.356 693.555 654.919C696.239 654.055 700.103 653.48 704.482 653.48C707.585 653.48 710.43 653.769 712.779 654.244C713.742 654.44 714.622 654.667 715.402 654.918C716.758 655.354 717.675 655.821 718.199 656.22C718.241 656.252 718.278 656.282 718.311 656.309C718.28 656.335 718.244 656.363 718.205 656.393C717.681 656.792 716.765 657.259 715.409 657.695C712.725 658.559 708.861 659.134 704.482 659.134C700.103 659.134 696.239 658.559 693.555 657.695C692.199 657.259 691.283 656.792 690.759 656.393C690.719 656.363 690.683 656.334 690.65 656.307ZM718.515 661.871V673.712C718.463 673.771 718.367 673.866 718.2 673.993C717.676 674.392 716.759 674.859 715.403 675.295C712.719 676.16 708.856 676.735 704.477 676.735C700.097 676.735 696.234 676.16 693.55 675.296C692.194 674.859 691.278 674.392 690.753 673.993C690.586 673.866 690.49 673.771 690.438 673.712V661.866C690.947 662.078 691.479 662.271 692.025 662.447C695.326 663.51 699.73 664.126 704.482 664.126C709.234 664.126 713.638 663.51 716.938 662.447C717.481 662.272 718.009 662.081 718.515 661.871Z" fill="#6B6B6B"/>
<path fill-rule="evenodd" clip-rule="evenodd" d="M820.422 641.846C816.976 641.846 814.182 644.639 814.182 648.086C814.182 651.532 816.976 654.326 820.422 654.326C823.868 654.326 826.662 651.532 826.662 648.086C826.662 644.639 823.868 641.846 820.422 641.846ZM809.19 648.086C809.19 641.882 814.219 636.854 820.422 636.854C826.625 636.854 831.654 641.882 831.654 648.086C831.654 654.289 826.625 659.318 820.422 659.318C814.219 659.318 809.19 654.289 809.19 648.086ZM831.545 663.515L830.14 661.081L825.817 663.577L827.222 666.011C825.906 667.301 824.998 668.912 824.551 670.642H821.738V675.634H824.549C824.77 676.489 825.109 677.328 825.572 678.129C826.035 678.931 826.592 679.644 827.222 680.263L825.816 682.698L830.14 685.194L831.547 682.757C833.268 683.235 835.117 683.254 836.892 682.759L838.297 685.193L842.62 682.697L841.215 680.263C842.531 678.973 843.439 677.363 843.886 675.632H846.698V670.64H843.888C843.667 669.786 843.328 668.947 842.865 668.145C842.402 667.343 841.844 666.63 841.215 666.011L842.62 663.577L838.297 661.081L836.89 663.517C835.169 663.039 833.32 663.021 831.545 663.515ZM815.43 666.806C809.916 666.806 805.446 671.276 805.446 676.79V679.47H820.422V684.462H800.454V676.79C800.454 668.519 807.159 661.814 815.43 661.814H820.422V666.806H815.43ZM838.542 670.641C837.163 668.254 834.11 667.435 831.722 668.814C829.335 670.192 828.517 673.246 829.895 675.633C831.274 678.021 834.327 678.839 836.714 677.46C839.102 676.082 839.92 673.029 838.542 670.641Z" fill="#6B6B6B"/>
<path fill-rule="evenodd" clip-rule="evenodd" d="M949.958 648.581C949.748 645.144 946.787 642.523 943.337 642.734C942.654 642.776 942.008 642.924 941.412 643.161L939.573 638.52C940.654 638.092 941.817 637.826 943.033 637.751C949.227 637.372 954.562 642.081 954.941 648.276C955.32 654.47 950.599 659.794 944.405 660.173C943.289 660.242 942.198 660.145 941.157 659.902C940.725 659.801 940.302 659.675 939.89 659.526L941.589 654.832C941.817 654.915 942.052 654.984 942.291 655.04C942.866 655.174 943.473 655.229 944.1 655.191C947.549 654.98 950.169 652.017 949.958 648.581ZM926.344 642.951C922.898 642.951 920.104 645.745 920.104 649.191C920.104 652.637 922.898 655.431 926.344 655.431C929.79 655.431 932.584 652.637 932.584 649.191C932.584 645.745 929.79 642.951 926.344 642.951ZM915.112 649.191C915.112 642.988 920.141 637.959 926.344 637.959C932.547 637.959 937.576 642.988 937.576 649.191C937.576 655.394 932.547 660.423 926.344 660.423C920.141 660.423 915.112 655.394 915.112 649.191ZM906.376 677.894C906.376 669.623 913.081 662.918 921.352 662.918H931.336C939.607 662.918 946.312 669.623 946.312 677.894V680.574H957.929V677.894C957.929 672.38 953.459 667.91 947.945 667.91H947.747V662.918H947.945C956.216 662.918 962.921 669.623 962.921 677.894V685.566H906.376V677.894ZM941.32 680.574V677.894C941.32 672.38 936.85 667.91 931.336 667.91H921.352C915.838 667.91 911.368 672.38 911.368 677.894V680.574H941.32Z" fill="#6B6B6B"/>
<path fill-rule="evenodd" clip-rule="evenodd" d="M1019.51 636.688H1033.24V641.68H1024.5V650.416H1019.51V636.688ZM1064.44 641.68H1055.7V636.688H1069.43V650.416H1064.44V641.68ZM1044.47 646.672C1042.31 646.672 1040.55 648.428 1040.55 650.594C1040.55 652.76 1042.31 654.516 1044.47 654.516C1046.64 654.516 1048.39 652.76 1048.39 650.594C1048.39 648.428 1046.64 646.672 1044.47 646.672ZM1035.56 650.594C1035.56 645.671 1039.55 641.68 1044.47 641.68C1049.39 641.68 1053.39 645.671 1053.39 650.594C1053.39 655.517 1049.39 659.508 1044.47 659.508C1039.55 659.508 1035.56 655.517 1035.56 650.594ZM1029.14 673.415C1029.14 667.901 1033.61 663.431 1039.12 663.431H1049.82C1055.33 663.431 1059.8 667.901 1059.8 673.415V676.624H1054.81V673.415C1054.81 670.658 1052.58 668.423 1049.82 668.423H1039.12C1036.37 668.423 1034.13 670.658 1034.13 673.415V676.624H1029.14V673.415ZM1024.5 681.616V672.88H1019.51V686.608H1033.24V681.616H1024.5ZM1064.44 681.616V672.88H1069.43V686.608H1055.7V681.616H1064.44Z" fill="#6B6B6B"/>
<path fill-rule="evenodd" clip-rule="evenodd" d="M1155.54 665.939L1138.38 652.211L1135.26 656.109L1152.43 669.838C1154.25 671.296 1156.84 671.296 1158.66 669.838L1175.82 656.109L1172.7 652.211L1155.54 665.939Z" fill="#6B6B6B"/>
<path fill-rule="evenodd" clip-rule="evenodd" d="M276.953 767.027L259.792 780.755L256.674 776.857L273.835 763.129C275.658 761.67 278.248 761.67 280.072 763.129L297.232 776.857L294.114 780.755L276.953 767.027Z" fill="#6B6B6B"/>
<path fill-rule="evenodd" clip-rule="evenodd" d="M388.025 773.968V791.44H383.033V773.968H365.561V768.976H383.033V751.504H388.025V768.976H405.497V773.968H388.025Z" fill="#6B6B6B"/>
<rect x="477.881" y="768.976" width="34.944" height="4.992" fill="#6B6B6B"/>
<path fill-rule="evenodd" clip-rule="evenodd" d="M605.176 775.002L592.822 787.356L589.292 783.826L601.647 771.472L589.292 759.117L592.822 755.587L605.176 767.942L617.531 755.587L621.061 759.117L608.706 771.472L621.061 783.826L617.531 787.356L605.176 775.002Z" fill="#6B6B6B"/>
<path fill-rule="evenodd" clip-rule="evenodd" d="M710.009 777.926L728.212 759.723L731.742 763.253L710.009 784.986L698.26 773.237L701.79 769.707L710.009 777.926Z" fill="#6B6B6B"/>
<path fill-rule="evenodd" clip-rule="evenodd" d="M813.378 773.968L821.597 782.187L818.067 785.717L803.822 771.472L818.067 757.227L821.597 760.757L813.378 768.976L842.296 768.976V773.968L813.378 773.968Z" fill="#6B6B6B"/>
<path fill-rule="evenodd" clip-rule="evenodd" d="M941.406 757.227L955.651 771.472L941.406 785.717L937.876 782.187L946.095 773.968L917.177 773.968V768.976L946.095 768.976L937.876 760.757L941.406 757.227Z" fill="#6B6B6B"/>
<path fill-rule="evenodd" clip-rule="evenodd" d="M1045.2 761.791L1053.42 770.01L1056.95 766.48L1042.71 752.235L1028.46 766.48L1031.99 770.01L1040.21 761.791L1040.21 790.709L1045.2 790.709L1045.2 761.791Z" fill="#6B6B6B"/>
<path fill-rule="evenodd" clip-rule="evenodd" d="M1155.03 781.153L1163.25 772.934L1166.78 776.464L1152.53 790.709L1138.29 776.464L1141.82 772.934L1150.04 781.153L1150.04 752.235L1155.03 752.235L1155.03 781.153Z" fill="#6B6B6B"/>
</svg>
