<svg width="240" height="180" viewBox="0 0 240 180" fill="none" xmlns="http://www.w3.org/2000/svg">
<g clip-path="url(#clip0_52_820)">
<rect width="240" height="180" fill="#0B0B0B"/>
<rect x="73.9421" y="-205.099" width="8.92997" height="579.542" stroke="#424242" stroke-width="0.8"/>
<rect x="-233.288" y="-86.1401" width="9.1148" height="721.805" transform="rotate(-59.5965 -233.288 -86.1401)" stroke="#424242" stroke-width="0.8"/>
<rect width="9.04734" height="532.101" transform="matrix(0.504975 0.863134 0.863134 -0.504975 -151.632 220.745)" stroke="#424242" stroke-width="0.8"/>
<rect width="9.05432" height="605.743" transform="matrix(0.504975 0.863134 0.863134 -0.504975 -183.506 202.715)" stroke="#424242" stroke-width="0.8"/>
<rect x="354.164" y="210.839" width="9.05432" height="637.917" transform="rotate(120.33 354.164 210.839)" stroke="#424242" stroke-width="0.8"/>
<rect width="9.00421" height="596.251" transform="matrix(0.504975 0.863134 0.863134 -0.504975 -179.324 273.633)" stroke="#424242" stroke-width="0.8"/>
<rect x="404.312" y="313.543" width="9.00421" height="754.319" transform="rotate(120.33 404.312 313.543)" stroke="#424242" stroke-width="0.8"/>
<rect x="42.6787" y="-205.099" width="8.92997" height="579.542" stroke="#424242" stroke-width="0.8"/>
<rect x="105.202" y="-205.099" width="8.92997" height="579.542" stroke="#424242" stroke-width="0.8"/>
<path d="M231.744 105.394H230.175L224.647 68.9712H207.138L201.575 105.394H200.042L196.226 68.9712H185.385L191.448 112.905H209.563L215.126 76.5183H216.66L222.223 112.905H240.338L246.4 68.9712H235.559L231.744 105.394Z" fill="white"/>
<path d="M172.761 88.2575C170.123 87.2731 167.198 86.5075 163.953 85.9242L161.528 85.4866C159.567 85.122 157.998 84.6116 156.857 83.9189C155.716 83.2262 155.11 82.2053 155.11 80.7834C155.11 79.4709 155.644 78.45 156.75 77.7208C157.855 76.9916 159.424 76.627 161.528 76.627C163.597 76.627 165.344 77.101 166.77 78.0489C168.197 78.9969 169.124 80.6011 169.588 82.8251L179.715 79.6167C178.717 76.0801 176.648 73.1999 173.475 71.0123C170.301 68.8247 166.307 67.731 161.528 67.731C156.429 67.731 152.328 68.8977 149.226 71.231C146.088 73.5644 144.554 76.9187 144.554 81.2938C144.554 84.1741 145.303 86.544 146.801 88.3669C148.298 90.1899 150.295 91.6483 152.792 92.6691C155.288 93.69 158.034 94.5285 161.029 95.1119L163.454 95.5494C165.986 96.0234 167.84 96.6432 169.017 97.3724C170.158 98.1016 170.764 99.1589 170.764 100.508C170.764 101.857 170.158 102.987 168.946 103.935C167.733 104.847 165.843 105.321 163.311 105.321C161.635 105.321 160.102 105.065 158.676 104.555C157.249 104.044 156.072 103.206 155.11 102.039C154.147 100.872 153.469 99.2318 153.077 97.1536L143.021 99.8151C143.77 104.409 145.945 107.982 149.511 110.461C153.077 112.94 157.677 114.18 163.276 114.18C168.767 114.18 173.154 112.904 176.399 110.425C179.644 107.909 181.284 104.336 181.284 99.7422C181.284 96.6796 180.5 94.2369 179.002 92.4139C177.469 90.5909 175.4 89.2055 172.761 88.2575Z" fill="white"/>
<path d="M87.3546 54.7451L98.5059 48.2105L89.5565 42.9395L73.9305 52.1096V70.4498L82.8799 75.6847V62.6516L100.708 73.0853L78.4052 86.1906L56.1028 73.0853L62.7793 69.1862V58.6442L42.6787 70.4498V112.401L69.4559 128.106L58.3046 134.64L67.254 139.911L82.8799 130.741V112.365L73.9305 107.094V120.235L51.6281 107.13V80.9557L78.4052 96.6965L105.182 80.9918V107.13L93.9956 113.701V124.207L114.132 112.401V70.4498L87.3546 54.7451Z" fill="white"/>
</g>
<defs>
<clipPath id="clip0_52_820">
<rect width="240" height="180" fill="white"/>
</clipPath>
</defs>
</svg>
