<svg width="1431" height="885" viewBox="0 0 1431 885" fill="none" xmlns="http://www.w3.org/2000/svg">
<g clip-path="url(#clip0_32_13315)">
<rect width="1430" height="884" transform="translate(0.549805 0.600098)" fill="white"/>
<g filter="url(#filter0_d_32_13315)">
<rect x="97.1274" y="204.433" width="1236.84" height="732.167" rx="36.0082" fill="black" shape-rendering="crispEdges"/>
<rect x="139.887" y="247.193" width="1151.32" height="646.647" fill="#0B0B0B"/>
<rect x="139.887" y="247.193" width="1151.32" height="646.647" stroke="#282828" stroke-width="1.50034"/>
<rect width="82.7064" height="57.3881" transform="translate(1091.1 271.761)" fill="#292929"/>
<path d="M1110.02 307.455V293.277H1112.21V299.353H1118.16V293.277H1120.35V307.455H1118.16V301.338H1112.21V307.455H1110.02ZM1123.31 307.455V293.277H1132.25V295.262H1125.5V299.333H1131.68V301.318H1125.5V305.47H1132.35V307.455H1123.31ZM1134.63 307.455V293.277H1136.82V305.47H1143.64V307.455H1134.63ZM1145.65 307.455V293.277H1151.28C1152.14 293.277 1152.91 293.453 1153.59 293.804C1154.27 294.141 1154.81 294.627 1155.19 295.262C1155.58 295.883 1155.77 296.633 1155.77 297.51V297.774C1155.77 298.651 1155.57 299.407 1155.17 300.042C1154.77 300.677 1154.24 301.163 1153.57 301.5C1152.89 301.838 1152.13 302.007 1151.28 302.007H1147.83V307.455H1145.65ZM1147.83 300.022H1151.05C1151.82 300.022 1152.44 299.819 1152.9 299.414C1153.36 299.009 1153.59 298.456 1153.59 297.753V297.551C1153.59 296.835 1153.36 296.275 1152.9 295.87C1152.44 295.465 1151.82 295.262 1151.05 295.262H1147.83V300.022Z" fill="white"/>
<rect width="82.7064" height="57.3881" transform="translate(1183.94 271.761)" fill="#BBBBBB"/>
<path d="M1207.11 307.739C1206.05 307.739 1205.1 307.55 1204.28 307.172C1203.45 306.794 1202.8 306.24 1202.33 305.511C1201.87 304.768 1201.64 303.87 1201.64 302.817V302.311H1203.81V302.817C1203.81 303.816 1204.11 304.566 1204.7 305.065C1205.31 305.565 1206.11 305.815 1207.11 305.815C1208.12 305.815 1208.89 305.605 1209.4 305.187C1209.91 304.755 1210.17 304.201 1210.17 303.526C1210.17 303.08 1210.05 302.716 1209.81 302.432C1209.56 302.149 1209.22 301.926 1208.77 301.764C1208.33 301.588 1207.79 301.426 1207.17 301.278L1206.42 301.095C1205.52 300.879 1204.73 300.616 1204.05 300.305C1203.39 299.981 1202.88 299.556 1202.51 299.029C1202.15 298.503 1201.97 297.828 1201.97 297.004C1201.97 296.167 1202.17 295.451 1202.58 294.857C1202.99 294.263 1203.57 293.804 1204.3 293.48C1205.03 293.156 1205.88 292.994 1206.87 292.994C1207.85 292.994 1208.73 293.162 1209.5 293.5C1210.29 293.837 1210.9 294.337 1211.35 294.999C1211.79 295.66 1212.01 296.491 1212.01 297.49V298.219H1209.85V297.49C1209.85 296.882 1209.72 296.39 1209.46 296.011C1209.22 295.633 1208.87 295.357 1208.43 295.181C1207.98 295.005 1207.46 294.918 1206.87 294.918C1206 294.918 1205.33 295.1 1204.84 295.465C1204.37 295.816 1204.13 296.309 1204.13 296.943C1204.13 297.375 1204.24 297.733 1204.44 298.017C1204.65 298.287 1204.97 298.51 1205.37 298.685C1205.78 298.861 1206.28 299.016 1206.89 299.151L1207.64 299.333C1208.56 299.536 1209.37 299.799 1210.07 300.123C1210.77 300.434 1211.33 300.859 1211.73 301.399C1212.14 301.939 1212.34 302.635 1212.34 303.485C1212.34 304.336 1212.12 305.079 1211.69 305.713C1211.27 306.348 1210.67 306.848 1209.89 307.212C1209.1 307.563 1208.18 307.739 1207.11 307.739ZM1217.48 307.455V295.262H1213.13V293.277H1224.02V295.262H1219.67V307.455H1217.48ZM1230.74 307.739C1229 307.739 1227.62 307.253 1226.59 306.281C1225.56 305.295 1225.05 303.877 1225.05 302.027V298.705C1225.05 296.855 1225.56 295.444 1226.59 294.472C1227.62 293.486 1229 292.994 1230.74 292.994C1232.48 292.994 1233.87 293.486 1234.89 294.472C1235.93 295.444 1236.45 296.855 1236.45 298.705V302.027C1236.45 303.877 1235.93 305.295 1234.89 306.281C1233.87 307.253 1232.48 307.739 1230.74 307.739ZM1230.74 305.774C1231.86 305.774 1232.73 305.45 1233.33 304.802C1233.94 304.14 1234.25 303.242 1234.25 302.108V298.624C1234.25 297.49 1233.94 296.599 1233.33 295.951C1232.73 295.289 1231.86 294.958 1230.74 294.958C1229.65 294.958 1228.79 295.289 1228.17 295.951C1227.55 296.599 1227.24 297.49 1227.24 298.624V302.108C1227.24 303.242 1227.55 304.14 1228.17 304.802C1228.79 305.45 1229.65 305.774 1230.74 305.774ZM1239.04 307.455V293.277H1244.67C1245.54 293.277 1246.31 293.453 1246.98 293.804C1247.67 294.141 1248.2 294.627 1248.58 295.262C1248.97 295.883 1249.17 296.633 1249.17 297.51V297.774C1249.17 298.651 1248.97 299.407 1248.56 300.042C1248.17 300.677 1247.64 301.163 1246.96 301.5C1246.29 301.838 1245.52 302.007 1244.67 302.007H1241.23V307.455H1239.04ZM1241.23 300.022H1244.45C1245.22 300.022 1245.83 299.819 1246.29 299.414C1246.75 299.009 1246.98 298.456 1246.98 297.753V297.551C1246.98 296.835 1246.75 296.275 1246.29 295.87C1245.83 295.465 1245.22 295.262 1244.45 295.262H1241.23V300.022Z" fill="#111111"/>
<rect width="267.53" height="227.021" transform="translate(445.488 440.236)" fill="#BBBBBB"/>
<path d="M500.836 562.747V560.154H503.374V546.435H500.836V543.842H510.423C511.557 543.842 512.547 544.04 513.393 544.436C514.24 544.814 514.897 545.364 515.365 546.084C515.851 546.786 516.094 547.623 516.094 548.595V548.865C516.094 549.73 515.932 550.441 515.608 550.999C515.284 551.557 514.888 551.989 514.42 552.295C513.97 552.601 513.537 552.817 513.123 552.943V553.375C513.537 553.483 513.979 553.7 514.447 554.024C514.933 554.33 515.338 554.762 515.662 555.32C516.004 555.878 516.175 556.607 516.175 557.507V557.777C516.175 558.822 515.932 559.713 515.446 560.451C514.96 561.189 514.285 561.756 513.42 562.152C512.574 562.549 511.593 562.747 510.477 562.747H500.836ZM506.318 560.1H510.126C511.098 560.1 511.863 559.866 512.421 559.398C512.979 558.93 513.258 558.282 513.258 557.453V557.21C513.258 556.382 512.979 555.734 512.421 555.266C511.881 554.798 511.116 554.564 510.126 554.564H506.318V560.1ZM506.318 551.89H510.126C511.044 551.89 511.782 551.665 512.34 551.215C512.898 550.747 513.177 550.117 513.177 549.325V549.054C513.177 548.262 512.898 547.641 512.34 547.191C511.8 546.723 511.062 546.489 510.126 546.489H506.318V551.89ZM526.521 563.125C525.026 563.125 523.739 562.855 522.659 562.314C521.597 561.774 520.768 561 520.174 559.992C519.598 558.966 519.31 557.723 519.31 556.265V543.842H522.254V556.346C522.254 557.678 522.623 558.705 523.361 559.425C524.099 560.145 525.152 560.505 526.521 560.505C527.889 560.505 528.942 560.145 529.68 559.425C530.419 558.705 530.788 557.678 530.788 556.346V543.842H533.704V556.265C533.704 557.723 533.416 558.966 532.84 559.992C532.264 561 531.436 561.774 530.356 562.314C529.275 562.855 527.997 563.125 526.521 563.125ZM542.399 562.747V555.887L535.836 543.842H539.131L543.668 552.403H544.073L548.61 543.842H551.905L545.343 555.887V562.747H542.399ZM567.794 563.125C565.489 563.125 563.662 562.477 562.311 561.18C560.961 559.866 560.286 557.975 560.286 555.509V551.08C560.286 548.613 560.961 546.732 562.311 545.436C563.662 544.121 565.489 543.464 567.794 543.464C570.062 543.464 571.808 544.094 573.033 545.355C574.275 546.615 574.896 548.334 574.896 550.513V550.675H572.007V550.432C572.007 549.153 571.655 548.109 570.953 547.299C570.269 546.489 569.216 546.084 567.794 546.084C566.353 546.084 565.228 546.525 564.418 547.407C563.608 548.271 563.203 549.478 563.203 551.026V555.563C563.203 557.093 563.608 558.3 564.418 559.182C565.228 560.064 566.353 560.505 567.794 560.505C569.216 560.505 570.269 560.1 570.953 559.29C571.655 558.462 572.007 557.417 572.007 556.157V555.698H574.896V556.076C574.896 558.255 574.275 559.974 573.033 561.234C571.808 562.495 570.062 563.125 567.794 563.125ZM578.126 562.747V543.842H586.065C587.236 543.842 588.262 544.049 589.144 544.463C590.044 544.86 590.737 545.436 591.224 546.192C591.728 546.948 591.98 547.848 591.98 548.892V549.189C591.98 550.378 591.692 551.332 591.115 552.052C590.557 552.754 589.873 553.249 589.063 553.537V553.97C589.747 554.006 590.296 554.24 590.71 554.672C591.124 555.086 591.332 555.689 591.332 556.481V562.747H588.388V556.886C588.388 556.4 588.262 556.013 588.01 555.725C587.758 555.437 587.353 555.293 586.795 555.293H581.042V562.747H578.126ZM581.042 552.646H585.741C586.785 552.646 587.596 552.385 588.172 551.863C588.748 551.323 589.036 550.594 589.036 549.676V549.46C589.036 548.541 588.748 547.821 588.172 547.299C587.614 546.759 586.804 546.489 585.741 546.489H581.042V552.646ZM599.655 562.747V555.887L593.093 543.842H596.387L600.924 552.403H601.33L605.867 543.842H609.161L602.599 555.887V562.747H599.655ZM611.435 562.747V543.842H618.943C620.095 543.842 621.121 544.076 622.021 544.544C622.94 544.995 623.651 545.643 624.155 546.489C624.677 547.317 624.938 548.316 624.938 549.487V549.838C624.938 551.008 624.668 552.016 624.128 552.862C623.606 553.709 622.894 554.357 621.994 554.807C621.094 555.257 620.077 555.482 618.943 555.482H614.352V562.747H611.435ZM614.352 552.835H618.646C619.672 552.835 620.491 552.565 621.103 552.025C621.715 551.485 622.021 550.747 622.021 549.811V549.541C622.021 548.586 621.715 547.839 621.103 547.299C620.491 546.759 619.672 546.489 618.646 546.489H614.352V552.835ZM632.164 562.747V546.489H626.358V543.842H640.887V546.489H635.081V562.747H632.164ZM649.843 563.125C647.52 563.125 645.675 562.477 644.306 561.18C642.938 559.866 642.254 557.975 642.254 555.509V551.08C642.254 548.613 642.938 546.732 644.306 545.436C645.675 544.121 647.52 543.464 649.843 543.464C652.165 543.464 654.01 544.121 655.379 545.436C656.765 546.732 657.458 548.613 657.458 551.08V555.509C657.458 557.975 656.765 559.866 655.379 561.18C654.01 562.477 652.165 563.125 649.843 563.125ZM649.843 560.505C651.337 560.505 652.489 560.073 653.299 559.209C654.109 558.327 654.515 557.129 654.515 555.617V550.972C654.515 549.46 654.109 548.271 653.299 547.407C652.489 546.525 651.337 546.084 649.843 546.084C648.384 546.084 647.241 546.525 646.413 547.407C645.585 548.271 645.17 549.46 645.17 550.972V555.617C645.17 557.129 645.585 558.327 646.413 559.209C647.241 560.073 648.384 560.505 649.843 560.505Z" fill="#111111"/>
<rect width="267.53" height="227.021" transform="translate(718.082 440.237)" fill="#292929"/>
<path d="M748.062 562.747L745.28 543.843H748.197L750.465 560.775H750.898L753.814 543.843H758.918L761.835 560.775H762.267L764.509 543.843H767.425L764.644 562.747H759.54L756.569 545.571H756.137L753.193 562.747H748.062ZM770.307 562.747V543.843H773.224V562.747H770.307ZM781.674 562.747V546.489H775.868V543.843H790.397V546.489H784.591V562.747H781.674ZM793.041 562.747V543.843H795.958V551.944H803.898V543.843H806.814V562.747H803.898V554.591H795.958V562.747H793.041ZM810.062 562.747V560.154H812.6V546.435H810.062V543.843H817.623C820.144 543.843 822.07 544.482 823.403 545.76C824.753 547.038 825.428 548.965 825.428 551.539V555.077C825.428 557.652 824.753 559.578 823.403 560.856C822.07 562.117 820.144 562.747 817.623 562.747H810.062ZM815.544 560.1H817.65C819.289 560.1 820.504 559.686 821.296 558.858C822.088 558.03 822.485 556.796 822.485 555.158V551.431C822.485 549.775 822.088 548.542 821.296 547.731C820.504 546.921 819.289 546.516 817.65 546.516H815.544V560.1ZM828.724 562.747V543.843H836.664C837.834 543.843 838.86 544.05 839.743 544.464C840.643 544.86 841.336 545.436 841.822 546.192C842.326 546.948 842.578 547.848 842.578 548.893V549.19C842.578 550.378 842.29 551.332 841.714 552.052C841.156 552.755 840.472 553.25 839.662 553.538V553.97C840.346 554.006 840.895 554.24 841.309 554.672C841.723 555.086 841.93 555.689 841.93 556.481V562.747H838.986V556.886C838.986 556.4 838.86 556.013 838.608 555.725C838.356 555.437 837.951 555.293 837.393 555.293H831.641V562.747H828.724ZM831.641 552.647H836.34C837.384 552.647 838.194 552.385 838.77 551.863C839.346 551.323 839.635 550.594 839.635 549.676V549.46C839.635 548.542 839.346 547.821 838.77 547.299C838.212 546.759 837.402 546.489 836.34 546.489H831.641V552.647ZM844.383 562.747L849.784 543.843H854.916L860.29 562.747H857.292L856.05 558.291H848.65L847.408 562.747H844.383ZM849.379 555.59H855.321L852.566 545.652H852.134L849.379 555.59ZM863.946 562.747L861.164 543.843H864.081L866.349 560.775H866.781L869.698 543.843H874.802L877.719 560.775H878.151L880.393 543.843H883.309L880.528 562.747H875.423L872.453 545.571H872.021L869.077 562.747H863.946ZM899.912 563.125C897.607 563.125 895.78 562.477 894.429 561.18C893.079 559.866 892.404 557.976 892.404 555.509V551.08C892.404 548.614 893.079 546.732 894.429 545.436C895.78 544.122 897.607 543.464 899.912 543.464C902.18 543.464 903.927 544.095 905.151 545.355C906.393 546.615 907.014 548.335 907.014 550.513V550.675H904.125V550.432C904.125 549.154 903.774 548.109 903.071 547.299C902.387 546.489 901.334 546.084 899.912 546.084C898.471 546.084 897.346 546.525 896.536 547.407C895.726 548.272 895.321 549.478 895.321 551.026V555.563C895.321 557.094 895.726 558.3 896.536 559.182C897.346 560.064 898.471 560.505 899.912 560.505C901.334 560.505 902.387 560.1 903.071 559.29C903.774 558.462 904.125 557.418 904.125 556.157V555.698H907.014V556.076C907.014 558.255 906.393 559.974 905.151 561.234C903.927 562.495 902.18 563.125 899.912 563.125ZM908.655 562.747L914.056 543.843H919.187L924.561 562.747H921.564L920.321 558.291H912.922L911.679 562.747H908.655ZM913.651 555.59H919.592L916.838 545.652H916.405L913.651 555.59ZM933.524 563.125C932.101 563.125 930.841 562.873 929.743 562.369C928.644 561.865 927.78 561.126 927.15 560.154C926.538 559.164 926.232 557.967 926.232 556.562V555.887H929.122V556.562C929.122 557.895 929.518 558.894 930.31 559.56C931.12 560.226 932.191 560.559 933.524 560.559C934.874 560.559 935.891 560.28 936.575 559.722C937.259 559.146 937.601 558.408 937.601 557.508C937.601 556.913 937.439 556.427 937.115 556.049C936.791 555.671 936.332 555.374 935.738 555.158C935.144 554.924 934.433 554.708 933.605 554.51L932.605 554.267C931.399 553.979 930.346 553.628 929.446 553.214C928.563 552.782 927.879 552.214 927.393 551.512C926.907 550.81 926.664 549.91 926.664 548.812C926.664 547.695 926.934 546.741 927.474 545.949C928.032 545.157 928.797 544.545 929.77 544.113C930.742 543.68 931.885 543.464 933.199 543.464C934.514 543.464 935.684 543.689 936.71 544.14C937.754 544.59 938.574 545.256 939.168 546.138C939.762 547.02 940.059 548.127 940.059 549.46V550.432H937.169V549.46C937.169 548.65 936.998 547.992 936.656 547.488C936.332 546.984 935.873 546.615 935.279 546.381C934.685 546.147 933.992 546.03 933.199 546.03C932.047 546.03 931.147 546.273 930.499 546.759C929.869 547.227 929.554 547.884 929.554 548.731C929.554 549.307 929.689 549.784 929.959 550.162C930.247 550.522 930.661 550.819 931.201 551.053C931.741 551.287 932.416 551.494 933.226 551.674L934.226 551.917C935.45 552.187 936.53 552.538 937.466 552.971C938.403 553.385 939.141 553.952 939.681 554.672C940.221 555.392 940.491 556.319 940.491 557.454C940.491 558.588 940.203 559.578 939.627 560.424C939.069 561.27 938.268 561.937 937.223 562.423C936.179 562.891 934.946 563.125 933.524 563.125ZM943.553 562.747V543.843H946.47V551.944H954.409V543.843H957.326V562.747H954.409V554.591H946.47V562.747H943.553Z" fill="white"/>
<rect width="267.53" height="91.1458" transform="translate(445.488 672.321)" fill="#292929"/>
<path d="M493.705 726.894V707.989H501.213C502.365 707.989 503.391 708.223 504.291 708.691C505.21 709.142 505.921 709.79 506.425 710.636C506.947 711.464 507.208 712.463 507.208 713.634V713.985C507.208 715.155 506.938 716.163 506.398 717.009C505.876 717.855 505.165 718.504 504.264 718.954C503.364 719.404 502.347 719.629 501.213 719.629H496.622V726.894H493.705ZM496.622 716.982H500.916C501.942 716.982 502.761 716.712 503.373 716.172C503.985 715.632 504.291 714.894 504.291 713.958V713.688C504.291 712.733 503.985 711.986 503.373 711.446C502.761 710.906 501.942 710.636 500.916 710.636H496.622V716.982ZM509.977 726.894V707.989H512.894V716.091H520.834V707.989H523.75V726.894H520.834V718.738H512.894V726.894H509.977ZM534.803 727.272C532.48 727.272 530.635 726.623 529.266 725.327C527.898 724.013 527.214 722.122 527.214 719.656V715.227C527.214 712.76 527.898 710.879 529.266 709.583C530.635 708.268 532.48 707.611 534.803 707.611C537.125 707.611 538.971 708.268 540.339 709.583C541.725 710.879 542.418 712.76 542.418 715.227V719.656C542.418 722.122 541.725 724.013 540.339 725.327C538.971 726.623 537.125 727.272 534.803 727.272ZM534.803 724.652C536.297 724.652 537.449 724.22 538.259 723.356C539.07 722.474 539.475 721.276 539.475 719.764V715.119C539.475 713.607 539.07 712.418 538.259 711.554C537.449 710.672 536.297 710.231 534.803 710.231C533.344 710.231 532.201 710.672 531.373 711.554C530.545 712.418 530.131 713.607 530.131 715.119V719.764C530.131 721.276 530.545 722.474 531.373 723.356C532.201 724.22 533.344 724.652 534.803 724.652ZM545.871 726.894V707.989H551.488L556.62 724.949H557.052V707.989H559.941V726.894H554.324L549.193 709.907H548.761V726.894H545.871ZM563.884 726.894V707.989H575.794V710.636H566.801V716.064H575.038V718.711H566.801V724.247H575.929V726.894H563.884ZM585.853 726.894V707.989H593.793C594.963 707.989 595.989 708.196 596.871 708.61C597.772 709.006 598.465 709.583 598.951 710.339C599.455 711.095 599.707 711.995 599.707 713.039V713.336C599.707 714.525 599.419 715.479 598.843 716.199C598.285 716.901 597.601 717.396 596.79 717.684V718.117C597.475 718.153 598.024 718.387 598.438 718.819C598.852 719.233 599.059 719.836 599.059 720.628V726.894H596.115V721.033C596.115 720.547 595.989 720.16 595.737 719.872C595.485 719.584 595.08 719.44 594.522 719.44H588.77V726.894H585.853ZM588.77 716.793H593.469C594.513 716.793 595.323 716.532 595.899 716.01C596.475 715.47 596.763 714.741 596.763 713.823V713.607C596.763 712.688 596.475 711.968 595.899 711.446C595.341 710.906 594.531 710.636 593.469 710.636H588.77V716.793ZM602.916 726.894V707.989H614.826V710.636H605.833V716.064H614.07V718.711H605.833V724.247H614.961V726.894H602.916ZM618.002 726.894V707.989H629.668V710.636H620.918V716.091H628.966V718.738H620.918V726.894H618.002ZM632.507 726.894V707.989H635.424V726.894H632.507ZM639.364 726.894V707.989H642.281V724.247H651.382V726.894H639.364ZM654.054 726.894V707.989H656.971V724.247H666.072V726.894H654.054Z" fill="white"/>
<rect width="267.53" height="91.1458" transform="translate(718.082 672.321)" fill="#292929"/>
<path d="M809.669 726.894V707.989H812.586V726.894H809.669ZM816.526 726.894V707.989H822.144L827.275 724.949H827.707V707.989H830.597V726.894H824.979L819.848 709.907H819.416V726.894H816.526ZM838.401 726.894L833.135 707.989H836.16L840.751 725.057H841.102L845.666 707.989H848.691L843.451 726.894H838.401ZM851.26 726.894V707.989H863.17V710.636H854.177V716.064H862.413V718.711H854.177V724.247H863.305V726.894H851.26ZM872.773 727.272C871.351 727.272 870.09 727.02 868.992 726.515C867.894 726.011 867.03 725.273 866.399 724.301C865.787 723.311 865.481 722.113 865.481 720.709V720.034H868.371V720.709C868.371 722.041 868.767 723.041 869.559 723.707C870.369 724.373 871.441 724.706 872.773 724.706C874.123 724.706 875.14 724.427 875.825 723.869C876.509 723.293 876.851 722.555 876.851 721.654C876.851 721.06 876.689 720.574 876.365 720.196C876.041 719.818 875.582 719.521 874.987 719.305C874.393 719.071 873.682 718.855 872.854 718.657L871.855 718.414C870.648 718.126 869.595 717.774 868.695 717.36C867.813 716.928 867.129 716.361 866.642 715.659C866.156 714.957 865.913 714.057 865.913 712.958C865.913 711.842 866.183 710.888 866.723 710.096C867.282 709.304 868.047 708.691 869.019 708.259C869.991 707.827 871.134 707.611 872.449 707.611C873.763 707.611 874.933 707.836 875.96 708.286C877.004 708.736 877.823 709.403 878.417 710.285C879.011 711.167 879.308 712.274 879.308 713.607V714.579H876.419V713.607C876.419 712.796 876.248 712.139 875.906 711.635C875.582 711.131 875.122 710.762 874.528 710.528C873.934 710.294 873.241 710.177 872.449 710.177C871.297 710.177 870.396 710.42 869.748 710.906C869.118 711.374 868.803 712.031 868.803 712.877C868.803 713.453 868.938 713.931 869.208 714.309C869.496 714.669 869.91 714.966 870.45 715.2C870.99 715.434 871.666 715.641 872.476 715.821L873.475 716.064C874.699 716.334 875.78 716.685 876.716 717.117C877.652 717.531 878.39 718.099 878.93 718.819C879.47 719.539 879.74 720.466 879.74 721.6C879.74 722.735 879.452 723.725 878.876 724.571C878.318 725.417 877.517 726.083 876.473 726.569C875.428 727.038 874.195 727.272 872.773 727.272ZM886.6 726.894V710.636H880.794V707.989H895.323V710.636H889.517V726.894H886.6Z" fill="white"/>
<path d="M627.693 395.106C626.154 395.106 624.777 394.832 623.562 394.285C622.346 393.739 621.384 392.918 620.675 391.825C619.987 390.711 619.642 389.323 619.642 387.662V387.024H622.164V387.662C622.164 389.424 622.68 390.741 623.713 391.612C624.746 392.463 626.073 392.888 627.693 392.888C629.354 392.888 630.62 392.513 631.491 391.764C632.362 391.014 632.798 390.072 632.798 388.938C632.798 388.148 632.595 387.52 632.19 387.055C631.805 386.589 631.258 386.214 630.549 385.93C629.84 385.627 629.01 385.363 628.058 385.14L626.478 384.746C625.243 384.421 624.149 384.026 623.197 383.561C622.245 383.095 621.496 382.487 620.949 381.738C620.422 380.968 620.159 379.986 620.159 378.791C620.159 377.596 620.452 376.563 621.04 375.692C621.647 374.821 622.488 374.152 623.562 373.687C624.655 373.221 625.911 372.988 627.329 372.988C628.767 372.988 630.053 373.241 631.187 373.747C632.342 374.233 633.243 374.963 633.891 375.935C634.56 376.887 634.894 378.092 634.894 379.55V380.826H632.372V379.55C632.372 378.517 632.149 377.687 631.704 377.059C631.279 376.431 630.681 375.965 629.911 375.661C629.162 375.358 628.301 375.206 627.329 375.206C625.931 375.206 624.807 375.52 623.956 376.147C623.106 376.755 622.68 377.626 622.68 378.76C622.68 379.51 622.863 380.117 623.227 380.583C623.592 381.049 624.108 381.434 624.777 381.738C625.445 382.021 626.245 382.274 627.177 382.497L628.757 382.892C629.992 383.156 631.096 383.52 632.068 383.986C633.061 384.432 633.851 385.049 634.438 385.839C635.026 386.609 635.319 387.622 635.319 388.877C635.319 390.133 635.005 391.227 634.377 392.159C633.75 393.09 632.858 393.82 631.704 394.346C630.57 394.853 629.233 395.106 627.693 395.106ZM646.144 395.106C644.645 395.106 643.328 394.792 642.194 394.164C641.06 393.516 640.179 392.614 639.551 391.46C638.923 390.305 638.609 388.969 638.609 387.45V387.085C638.609 385.546 638.923 384.199 639.551 383.044C640.179 381.89 641.05 380.998 642.164 380.371C643.278 379.722 644.554 379.398 645.992 379.398C647.389 379.398 648.625 379.702 649.699 380.31C650.772 380.897 651.613 381.748 652.22 382.862C652.828 383.976 653.132 385.282 653.132 386.781V387.875H641.009C641.07 389.475 641.587 390.731 642.559 391.642C643.531 392.533 644.746 392.979 646.205 392.979C647.481 392.979 648.463 392.685 649.152 392.098C649.84 391.511 650.367 390.812 650.732 390.002L652.797 391.004C652.494 391.632 652.068 392.26 651.521 392.888C650.995 393.516 650.296 394.042 649.425 394.468C648.574 394.893 647.481 395.106 646.144 395.106ZM641.04 385.9H650.701C650.62 384.523 650.144 383.449 649.273 382.68C648.422 381.91 647.329 381.525 645.992 381.525C644.635 381.525 643.521 381.91 642.65 382.68C641.779 383.449 641.242 384.523 641.04 385.9ZM657.318 394.68V373.413H659.718V394.68H657.318ZM671.571 395.106C670.072 395.106 668.756 394.792 667.621 394.164C666.487 393.516 665.606 392.614 664.978 391.46C664.35 390.305 664.036 388.969 664.036 387.45V387.085C664.036 385.546 664.35 384.199 664.978 383.044C665.606 381.89 666.477 380.998 667.591 380.371C668.705 379.722 669.981 379.398 671.419 379.398C672.817 379.398 674.052 379.702 675.126 380.31C676.199 380.897 677.04 381.748 677.647 382.862C678.255 383.976 678.559 385.282 678.559 386.781V387.875H666.436C666.497 389.475 667.014 390.731 667.986 391.642C668.958 392.533 670.173 392.979 671.632 392.979C672.908 392.979 673.89 392.685 674.579 392.098C675.267 391.511 675.794 390.812 676.159 390.002L678.225 391.004C677.921 391.632 677.495 392.26 676.948 392.888C676.422 393.516 675.723 394.042 674.852 394.468C674.001 394.893 672.908 395.106 671.571 395.106ZM666.467 385.9H676.128C676.047 384.523 675.571 383.449 674.7 382.68C673.85 381.91 672.756 381.525 671.419 381.525C670.062 381.525 668.948 381.91 668.077 382.68C667.206 383.449 666.669 384.523 666.467 385.9ZM689.581 395.106C688.143 395.106 686.847 394.802 685.692 394.194C684.558 393.566 683.657 392.675 682.988 391.521C682.34 390.366 682.016 388.999 682.016 387.419V387.085C682.016 385.485 682.34 384.118 682.988 382.983C683.657 381.829 684.558 380.948 685.692 380.34C686.847 379.712 688.143 379.398 689.581 379.398C690.999 379.398 692.204 379.662 693.197 380.188C694.209 380.715 694.999 381.414 695.566 382.285C696.154 383.156 696.529 384.087 696.691 385.08L694.351 385.566C694.25 384.837 694.007 384.168 693.622 383.561C693.257 382.953 692.741 382.467 692.073 382.102C691.404 381.738 690.584 381.555 689.612 381.555C688.619 381.555 687.728 381.778 686.938 382.224C686.168 382.669 685.551 383.307 685.085 384.138C684.639 384.968 684.416 385.961 684.416 387.115V387.389C684.416 388.543 684.639 389.536 685.085 390.366C685.551 391.197 686.168 391.835 686.938 392.28C687.728 392.726 688.619 392.949 689.612 392.949C691.09 392.949 692.214 392.564 692.984 391.794C693.774 391.024 694.26 390.072 694.442 388.938L696.812 389.455C696.589 390.427 696.184 391.349 695.597 392.219C695.009 393.09 694.209 393.789 693.197 394.316C692.204 394.842 690.999 395.106 689.581 395.106ZM705.749 394.68C704.898 394.68 704.24 394.447 703.774 393.982C703.328 393.516 703.106 392.878 703.106 392.068V381.92H698.64V379.824H703.106V374.537H705.506V379.824H710.367V381.92H705.506V391.703C705.506 392.311 705.8 392.614 706.387 392.614H709.699V394.68H705.749ZM726.615 395.106C725.582 395.106 724.64 394.923 723.79 394.559C722.939 394.194 722.27 393.668 721.784 392.979C721.298 392.29 721.055 391.45 721.055 390.457C721.055 389.445 721.298 388.614 721.784 387.966C722.27 387.298 722.939 386.801 723.79 386.477C724.64 386.133 725.592 385.961 726.645 385.961H731.659V384.867C731.659 383.814 731.345 382.983 730.717 382.376C730.109 381.768 729.198 381.464 727.982 381.464C726.787 381.464 725.856 381.758 725.187 382.345C724.519 382.912 724.063 383.682 723.82 384.654L721.572 383.925C721.815 383.095 722.2 382.345 722.726 381.677C723.253 380.988 723.952 380.441 724.823 380.036C725.714 379.611 726.777 379.398 728.013 379.398C729.917 379.398 731.395 379.895 732.448 380.887C733.502 381.859 734.028 383.237 734.028 385.019V391.733C734.028 392.341 734.312 392.645 734.879 392.645H736.246V394.68H734.15C733.481 394.68 732.945 394.498 732.54 394.134C732.134 393.749 731.932 393.242 731.932 392.614V392.463H731.567C731.345 392.847 731.041 393.252 730.656 393.678C730.291 394.083 729.785 394.417 729.137 394.68C728.489 394.964 727.648 395.106 726.615 395.106ZM726.889 393.04C728.306 393.04 729.451 392.625 730.322 391.794C731.213 390.943 731.659 389.759 731.659 388.239V387.905H726.737C725.785 387.905 724.995 388.118 724.367 388.543C723.759 388.948 723.455 389.566 723.455 390.397C723.455 391.227 723.769 391.875 724.397 392.341C725.045 392.807 725.876 393.04 726.889 393.04ZM745.954 395.106C744.516 395.106 743.22 394.802 742.065 394.194C740.931 393.566 740.029 392.675 739.361 391.521C738.713 390.366 738.389 388.999 738.389 387.419V387.085C738.389 385.485 738.713 384.118 739.361 382.983C740.029 381.829 740.931 380.948 742.065 380.34C743.22 379.712 744.516 379.398 745.954 379.398C747.372 379.398 748.577 379.662 749.569 380.188C750.582 380.715 751.372 381.414 751.939 382.285C752.527 383.156 752.901 384.087 753.063 385.08L750.724 385.566C750.623 384.837 750.38 384.168 749.995 383.561C749.63 382.953 749.114 382.467 748.445 382.102C747.777 381.738 746.957 381.555 745.984 381.555C744.992 381.555 744.101 381.778 743.311 382.224C742.541 382.669 741.923 383.307 741.457 384.138C741.012 384.968 740.789 385.961 740.789 387.115V387.389C740.789 388.543 741.012 389.536 741.457 390.366C741.923 391.197 742.541 391.835 743.311 392.28C744.101 392.726 744.992 392.949 745.984 392.949C747.463 392.949 748.587 392.564 749.357 391.794C750.147 391.024 750.633 390.072 750.815 388.938L753.185 389.455C752.962 390.427 752.557 391.349 751.97 392.219C751.382 393.09 750.582 393.789 749.569 394.316C748.577 394.842 747.372 395.106 745.954 395.106ZM762.122 394.68C761.271 394.68 760.613 394.447 760.147 393.982C759.701 393.516 759.478 392.878 759.478 392.068V381.92H755.012V379.824H759.478V374.537H761.879V379.824H766.74V381.92H761.879V391.703C761.879 392.311 762.172 392.614 762.76 392.614H766.071V394.68H762.122ZM770.627 394.68V379.824H773.028V394.68H770.627ZM771.843 377.515C771.316 377.515 770.87 377.342 770.506 376.998C770.162 376.654 769.989 376.218 769.989 375.692C769.989 375.145 770.162 374.699 770.506 374.355C770.87 374.011 771.316 373.838 771.843 373.838C772.369 373.838 772.805 374.011 773.149 374.355C773.493 374.699 773.666 375.145 773.666 375.692C773.666 376.218 773.493 376.654 773.149 376.998C772.805 377.342 772.369 377.515 771.843 377.515ZM784.941 395.106C783.442 395.106 782.115 394.792 780.961 394.164C779.827 393.536 778.935 392.655 778.287 391.521C777.659 390.366 777.345 389.009 777.345 387.45V387.055C777.345 385.515 777.659 384.168 778.287 383.014C778.935 381.859 779.827 380.968 780.961 380.34C782.115 379.712 783.442 379.398 784.941 379.398C786.44 379.398 787.756 379.712 788.89 380.34C790.045 380.968 790.936 381.859 791.564 383.014C792.212 384.168 792.536 385.515 792.536 387.055V387.45C792.536 389.009 792.212 390.366 791.564 391.521C790.936 392.655 790.045 393.536 788.89 394.164C787.756 394.792 786.44 395.106 784.941 395.106ZM784.941 392.949C786.521 392.949 787.776 392.452 788.708 391.46C789.66 390.447 790.136 389.09 790.136 387.389V387.115C790.136 385.414 789.66 384.067 788.708 383.075C787.776 382.062 786.521 381.555 784.941 381.555C783.381 381.555 782.125 382.062 781.173 383.075C780.221 384.067 779.746 385.414 779.746 387.115V387.389C779.746 389.09 780.221 390.447 781.173 391.46C782.125 392.452 783.381 392.949 784.941 392.949ZM796.856 394.68V379.824H799.195V382.345H799.62C799.944 381.636 800.491 380.998 801.261 380.431C802.051 379.844 803.205 379.55 804.724 379.55C805.838 379.55 806.831 379.783 807.702 380.249C808.593 380.715 809.302 381.404 809.829 382.315C810.355 383.226 810.619 384.351 810.619 385.687V394.68H808.218V385.87C808.218 384.391 807.844 383.318 807.094 382.649C806.365 381.981 805.373 381.647 804.117 381.647C802.679 381.647 801.504 382.112 800.592 383.044C799.701 383.976 799.256 385.363 799.256 387.206V394.68H796.856Z" fill="#E6E6E6"/>
<path d="M720.079 282.11L725.721 278.859L721.193 276.237L713.287 280.799V289.924L717.815 292.528V286.044L726.835 291.235L715.551 297.755L704.267 291.235L707.645 289.295V284.05L697.475 289.924V310.795L711.023 318.609L705.381 321.86L709.909 324.482L717.815 319.92V310.777L713.287 308.155V314.693L702.003 308.173V295.15L715.551 302.982L729.099 295.168V308.173L723.439 311.442V316.669L733.628 310.795V289.924L720.079 282.11Z" fill="#5A5A5A"/>
<rect x="164.877" y="272.087" width="81.8624" height="56.5441" stroke="#5A5A5A" stroke-width="0.843942"/>
<rect x="172.051" y="306.83" width="67.5154" height="14.6283" fill="#FFCE00"/>
<rect x="172.051" y="293.045" width="67.5154" height="14.6283" fill="#DD0000"/>
<rect x="172.051" y="279.261" width="67.5154" height="14.6283" fill="black"/>
<rect x="257.711" y="272.087" width="81.8624" height="56.5441" stroke="#5A5A5A" stroke-width="0.843942"/>
<rect x="264.884" y="279.261" width="28.5642" height="42.1971" fill="#009900"/>
<rect x="289.229" y="279.261" width="43.1709" height="42.1971" fill="#FF0000"/>
<path d="M283.753 307.745C283.432 307.401 283.133 307.037 282.859 306.654L282.739 306.491L282.674 306.414L282.499 306.131L282.096 306.033L281.921 306.742V306.861L281.856 307.123V307.254C281.965 307.396 282.063 307.548 282.183 307.69L282.663 307.81C283.186 307.941 283.753 308.05 284.211 308.159C284.004 308.017 283.916 307.886 283.753 307.745ZM301.827 307.069V306.949V306.774L301.642 306.414L301.533 306.033L301.282 306.098H301.151H301.032H300.857H300.803L300.541 306.164L298.928 306.556L298.437 306.654C293.534 307.745 288.443 307.663 283.578 306.414L283.055 306.284H282.913C282.917 306.305 282.917 306.327 282.913 306.349L283.099 306.611C283.433 307.064 283.797 307.494 284.189 307.897L284.614 308.29C287.03 308.804 289.492 309.071 291.962 309.086C294.312 309.08 296.655 308.82 298.949 308.312L299.374 307.908C299.528 307.764 299.674 307.611 299.811 307.45C299.885 307.375 299.955 307.295 300.018 307.21C300.192 307.014 300.345 306.818 300.497 306.611L300.661 306.393L300.748 306.262L300.955 306.491C300.759 306.785 300.552 307.058 300.334 307.33L300.127 307.559L299.93 307.777L299.538 308.181L300.857 307.865L301.119 307.788L301.555 307.679H301.62L301.784 307.45L301.838 307.385L301.827 307.069Z" fill="#FFFF00" stroke="black" stroke-width="0.0421971" stroke-miterlimit="10"/>
<path d="M283.753 307.744C283.273 307.646 282.826 307.504 282.281 307.395H282.063L282.117 307.221V306.992L282.216 306.61V306.425L282.466 306.49H282.641L282.761 306.654C283.066 307.039 283.398 307.403 283.753 307.744Z" fill="#FFFF00" stroke="black" stroke-width="0.0421971" stroke-miterlimit="10"/>
<path d="M300.585 306.578C300.432 306.785 300.279 306.982 300.105 307.178C300.042 307.263 299.973 307.343 299.898 307.418C299.761 307.578 299.615 307.731 299.462 307.876C297.033 308.455 294.546 308.752 292.049 308.759C289.434 308.738 286.828 308.439 284.276 307.865C283.884 307.461 283.52 307.031 283.186 306.578C286.086 307.326 289.065 307.721 292.06 307.756C294.363 307.748 296.659 307.488 298.906 306.982L299.396 306.873L300.585 306.578Z" fill="#FFFF00" stroke="black" stroke-width="0.0421971" stroke-miterlimit="10"/>
<path d="M301.587 307.352H301.489H301.391L300.944 307.472L300.443 307.592L299.996 307.701L300.192 307.483L300.399 307.254C300.617 306.981 300.824 306.708 301.02 306.414H301.358L301.424 306.654L301.511 306.992V307.09L301.565 307.308L301.587 307.352Z" fill="#FFFF00" stroke="black" stroke-width="0.0421971" stroke-miterlimit="10"/>
<path d="M294.545 298.487L293.619 297.168C296.173 295.529 298.991 294.341 301.947 293.656L302.329 295.226C299.568 295.862 296.935 296.965 294.545 298.487Z" fill="#FFFF00" stroke="black" stroke-width="0.0421971" stroke-miterlimit="10"/>
<path d="M294.043 297.253C296.414 295.759 299.009 294.655 301.729 293.982L301.958 294.963C299.371 295.605 296.896 296.638 294.621 298.028L294.043 297.253Z" fill="#FFFF00" stroke="black" stroke-width="0.0421971" stroke-miterlimit="10"/>
<path d="M287.699 302.924C287.475 302.95 287.248 302.95 287.023 302.924C285.053 302.799 283.105 302.433 281.224 301.834L280.908 301.736L279.948 301.507L279.643 301.387C279.643 301.387 279.643 301.289 279.643 301.234L279.719 301.016L279.872 300.602V300.514L280.123 299.871L280.788 300.1L280.973 300.155H281.093L281.464 300.275C283.363 300.933 285.352 301.301 287.361 301.365L287.699 302.924Z" fill="#FFFF00" stroke="black" stroke-width="0.0421971" stroke-miterlimit="10"/>
<path d="M287.024 302.674C284.612 302.504 282.236 302.005 279.959 301.191L280.308 300.242C282.471 301.025 284.73 301.509 287.024 301.681H287.122L287.329 302.674H287.024Z" fill="#FFFF00" stroke="black" stroke-width="0.0421971" stroke-miterlimit="10"/>
<path d="M301.641 306.414L301.281 306.272H301.194L301.03 306.206L300.91 306.152L300.562 306.01C294.527 303.227 288.829 299.767 283.577 295.694L282.901 295.149L282.52 294.833L282.291 294.637C282.074 294.462 281.867 294.277 281.669 294.081L281.397 294.419L281.103 294.746L280.852 295.018L280.645 295.193L280.568 295.269L280.808 295.487L281.528 296.12L281.768 296.316C286.917 300.386 292.495 303.882 298.403 306.741L298.861 306.959C299.199 307.111 299.537 307.264 299.864 307.395C299.939 307.32 300.008 307.24 300.071 307.155C300.245 306.959 300.398 306.763 300.551 306.555L300.714 306.337L300.801 306.206L301.008 306.435C300.812 306.73 300.605 307.002 300.387 307.275L300.18 307.504L300.431 307.613L300.91 307.809L301.063 307.864L301.368 307.984C301.436 307.909 301.498 307.828 301.554 307.744V307.624L301.684 307.253L301.761 307.035L301.815 306.904L301.902 306.664L301.957 306.512L301.641 306.414Z" fill="#FFFF00" stroke="black" stroke-width="0.0421971" stroke-miterlimit="10"/>
<path d="M300.748 306.414L300.584 306.632C300.432 306.839 300.279 307.035 300.105 307.232L299.385 306.926L298.927 306.719C292.872 303.818 287.167 300.236 281.921 296.044L281.736 295.847C281.496 295.64 281.267 295.444 281.06 295.248L281.245 295.04L281.496 294.768L281.736 294.506L282.194 294.91L282.368 295.062L282.826 295.509C288.291 299.807 294.249 303.439 300.574 306.327L300.748 306.414Z" fill="#FFFF00" stroke="black" stroke-width="0.0421971" stroke-miterlimit="10"/>
<path d="M301.642 306.708L301.533 307.013L301.413 307.362L301.359 307.613L300.944 307.504L300.399 307.285C300.617 307.013 300.825 306.74 301.021 306.446L301.337 306.577L301.642 306.708Z" fill="#FFFF00" stroke="black" stroke-width="0.0421971" stroke-miterlimit="10"/>
<path d="M282.826 306.644L282.139 306.938L281.976 307.014L281.79 307.102H281.692C281.383 306.653 281.106 306.183 280.864 305.695L281.136 305.564C281.398 305.433 281.681 305.313 281.965 305.193C281.965 305.291 282.063 305.379 282.107 305.466C282.216 305.672 282.336 305.872 282.466 306.066L282.641 306.349L282.706 306.436L282.826 306.644Z" fill="#FFFF00" stroke="black" stroke-width="0.0421971" stroke-miterlimit="10"/>
<path d="M304.16 300.896C304.16 300.951 304.16 301.005 304.16 301.06V301.42L303.844 301.55C303.571 301.659 303.255 301.758 302.884 301.867L302.568 301.954C301.238 302.303 299.298 302.684 296.769 303.175C292.299 303.933 287.89 305.016 283.578 306.414L283.142 306.577L282.956 306.316C282.96 306.294 282.96 306.272 282.956 306.25C282.782 305.989 282.619 305.716 282.466 305.443C282.466 305.356 282.368 305.258 282.324 305.171C286.249 303.6 291.852 302.521 296.496 301.627C298.807 301.18 301.031 300.754 302.426 300.362L302.743 300.264L302.928 300.209H303.048C303.219 300.108 303.383 299.995 303.538 299.871L303.844 300.405L303.985 300.645L304.16 300.896Z" fill="#FFFF00" stroke="black" stroke-width="0.0421971" stroke-miterlimit="10"/>
<path d="M282.674 306.415H282.565L282.27 306.535L281.922 306.698H281.834L281.725 306.753L281.278 305.837C281.54 305.706 281.823 305.586 282.107 305.466C282.216 305.672 282.336 305.872 282.467 306.066L282.674 306.415Z" fill="#FFFF00" stroke="black" stroke-width="0.0421971" stroke-miterlimit="10"/>
<path d="M303.953 301.158L303.833 301.212C303.524 301.34 303.207 301.449 302.885 301.539L302.579 301.627C301.26 301.986 299.309 302.368 296.671 302.881C292.051 303.638 287.498 304.761 283.055 306.239H282.957C282.96 306.217 282.96 306.195 282.957 306.174C282.782 305.912 282.619 305.639 282.466 305.367C286.358 303.818 291.94 302.739 296.518 301.845C299.058 301.354 301.337 300.918 302.71 300.514H302.874H303.015L303.495 300.34L303.898 301.049L303.953 301.158Z" fill="#FFFF00" stroke="black" stroke-width="0.0421971" stroke-miterlimit="10"/>
<path d="M281.092 300.209V300.1H280.972L280.786 300.166V300.362L280.994 300.427H281.092V300.209ZM283.021 293.743L282.825 293.786L282.683 293.983L282.956 294.059L282.574 294.146C282.465 294.31 282.367 294.473 282.269 294.637L282.498 294.833C282.651 294.572 282.814 294.321 282.978 294.07L283.163 293.808L283.239 293.71L283.021 293.743ZM302.644 300.427V300.547H302.807L302.644 300.427ZM281.07 300.427H280.972H281.07ZM304.137 299.544C304.137 299.424 304.137 299.304 304.137 299.184C304.02 297.693 303.628 296.236 302.982 294.888L302.753 294.419C302.5 293.948 302.22 293.493 301.913 293.056L301.619 292.663C300.549 291.271 299.194 290.124 297.645 289.298C296.096 288.473 294.388 287.988 292.636 287.876H291.895H291.328H291.034C289.321 288 287.654 288.481 286.139 289.289C284.624 290.097 283.294 291.213 282.236 292.565L281.953 292.936L281.637 293.394C281.571 293.492 281.506 293.579 281.451 293.677L281.157 294.168C281.092 294.288 281.026 294.397 280.972 294.517C280.895 294.648 280.83 294.79 280.765 294.931C280.699 295.073 280.645 295.106 280.645 295.193V295.291C280.099 296.531 279.767 297.855 279.664 299.206C279.664 299.315 279.664 299.435 279.664 299.555C279.664 299.675 279.664 299.991 279.664 300.209C279.664 300.427 279.664 300.547 279.664 300.722C279.664 300.896 279.664 300.951 279.664 301.06C279.664 301.169 279.664 301.18 279.664 301.234C279.664 301.289 279.664 301.343 279.664 301.387C279.8 302.907 280.226 304.388 280.917 305.749C281.156 306.233 281.429 306.699 281.735 307.144L281.789 307.232C281.898 307.373 281.996 307.526 282.116 307.668C283.175 309.059 284.518 310.207 286.055 311.036C287.593 311.866 289.291 312.357 291.034 312.477H291.328H292.636C294.319 312.369 295.961 311.917 297.461 311.148C298.962 310.379 300.288 309.309 301.357 308.006C301.425 307.931 301.487 307.851 301.543 307.766L301.663 307.624L301.826 307.395L301.881 307.33L302.022 307.123C302.229 306.817 302.426 306.49 302.611 306.163L302.775 305.858C303.5 304.475 303.948 302.963 304.094 301.409V301.049C304.094 300.994 304.094 300.94 304.094 300.885C304.094 300.831 304.094 300.765 304.094 300.711C304.094 300.656 304.094 300.362 304.094 300.198C304.094 300.035 304.17 299.773 304.159 299.555L304.137 299.544ZM292.636 311.277H291.328H291.034C288.436 311.075 285.992 309.963 284.133 308.137C284.002 308.017 283.882 307.886 283.752 307.744C283.43 307.4 283.132 307.036 282.858 306.654L282.738 306.49L282.672 306.414L282.498 306.13C282.368 305.937 282.248 305.737 282.138 305.531C282.138 305.443 282.04 305.356 281.996 305.258C281.449 304.184 281.08 303.027 280.906 301.834C280.906 301.725 280.906 301.616 280.906 301.507C280.906 301.202 280.852 300.885 280.841 300.58V300.427L281.048 300.493H281.146V300.089C281.149 299.706 281.175 299.324 281.222 298.944C281.222 298.824 281.222 298.704 281.222 298.584C281.339 297.813 281.536 297.057 281.811 296.327C281.811 296.229 281.898 296.131 281.931 296.033C281.964 295.935 282.149 295.531 282.28 295.291L282.378 295.095V295.008L282.476 294.822C282.629 294.561 282.792 294.31 282.956 294.059L283.141 293.797L283.217 293.699C283.548 293.268 283.913 292.863 284.308 292.489L284.7 292.118C286.452 290.569 288.659 289.631 290.99 289.446H291.284H292.636C295.027 289.614 297.294 290.573 299.079 292.173C299.218 292.288 299.349 292.412 299.471 292.543C299.869 292.926 300.234 293.342 300.562 293.786L300.725 294.005L300.834 294.168L300.899 294.266C301.094 294.554 301.273 294.853 301.434 295.16C301.434 295.248 301.532 295.335 301.575 295.433C302.068 296.433 302.403 297.504 302.567 298.606C302.567 298.726 302.567 298.846 302.567 298.955C302.612 299.317 302.638 299.681 302.644 300.046V300.166V300.493C302.644 300.853 302.644 301.212 302.556 301.583C302.556 301.692 302.556 301.801 302.502 301.91C302.352 302.853 302.073 303.77 301.673 304.636C301.673 304.745 301.575 304.844 301.532 304.942C301.37 305.276 301.188 305.6 300.987 305.912L300.889 306.054C300.875 306.089 300.856 306.122 300.834 306.152L301.041 306.381C300.845 306.676 300.638 306.948 300.42 307.221L300.213 307.45L300.016 307.668L299.624 308.071C297.751 309.939 295.273 311.076 292.636 311.277ZM302.676 300.373V300.493H302.84L302.676 300.373ZM283.054 293.688L282.825 293.786L282.683 293.983L282.956 294.059L282.574 294.146C282.465 294.31 282.367 294.473 282.269 294.637L282.498 294.833C282.651 294.572 282.814 294.321 282.978 294.07L283.163 293.808L283.239 293.71L283.054 293.688ZM283.054 293.688L282.825 293.786L282.683 293.983L282.956 294.059L282.574 294.146C282.465 294.31 282.367 294.473 282.269 294.637L282.498 294.833C282.651 294.572 282.814 294.321 282.978 294.07L283.163 293.808L283.239 293.71L283.054 293.688ZM281.092 300.438V300.1H280.972L280.786 300.166V300.362L280.994 300.427H281.092V300.438Z" fill="#FFFF00" stroke="black" stroke-width="0.0421971" stroke-miterlimit="10"/>
<path d="M303.855 299.424V299.064C303.712 297.541 303.275 296.059 302.569 294.702C302.449 294.56 302.449 294.419 302.307 294.277C302.165 294.135 302.089 293.895 301.969 293.71C301.806 293.459 301.642 293.23 301.468 293.001C301.293 292.772 301.271 292.739 301.162 292.619C300.12 291.348 298.827 290.305 297.364 289.555C295.901 288.804 294.3 288.363 292.659 288.258H291.351H291.057C289.456 288.365 287.893 288.793 286.461 289.516C285.028 290.239 283.755 291.243 282.717 292.467C282.608 292.587 282.51 292.718 282.412 292.837L281.954 293.47C281.889 293.557 281.834 293.655 281.769 293.753L281.573 294.07C281.507 294.168 281.453 294.277 281.398 294.375C281.398 294.473 281.289 294.571 281.246 294.669L281.093 294.964C281.017 295.127 280.94 295.291 280.875 295.455C280.389 296.589 280.084 297.792 279.97 299.02V299.369C279.97 299.631 279.97 299.893 279.97 300.154V300.46C279.966 300.485 279.966 300.511 279.97 300.536C279.97 300.645 279.97 300.765 279.97 300.874C279.97 300.983 279.97 301.256 279.97 301.452C280.13 302.88 280.544 304.269 281.191 305.552C281.191 305.639 281.278 305.737 281.333 305.825C281.496 306.119 281.671 306.414 281.856 306.697C281.87 306.728 281.889 306.758 281.911 306.784L282.031 306.959L282.14 307.111L282.303 307.34L282.608 307.733C283.644 308.996 284.926 310.035 286.377 310.785C287.828 311.535 289.417 311.981 291.046 312.095H291.34H292.638C294.263 311.992 295.85 311.559 297.303 310.822C298.755 310.085 300.043 309.06 301.086 307.809L301.195 307.678L301.293 307.569C301.361 307.494 301.423 307.414 301.479 307.33L301.555 307.231C301.588 307.194 301.617 307.154 301.642 307.111C301.642 307.046 301.74 306.981 301.784 306.904V306.839L301.915 306.653C302.078 306.403 302.231 306.152 302.373 305.89C302.43 305.792 302.481 305.69 302.525 305.585C303.172 304.313 303.586 302.935 303.746 301.517V301.179C303.746 301.103 303.746 301.027 303.746 300.95C303.746 300.83 303.746 300.721 303.746 300.601V300.231C303.877 299.936 303.866 299.675 303.855 299.424ZM302.841 301.866C302.684 302.919 302.376 303.944 301.926 304.909C301.871 305.007 301.827 305.116 301.773 305.214C301.62 305.508 301.457 305.803 301.282 306.076L301.217 306.174L301.064 306.414C300.868 306.708 300.661 306.981 300.443 307.253L300.236 307.482L300.04 307.7L299.647 308.104C297.764 309.964 295.278 311.089 292.638 311.277H291.329H291.035C288.437 311.075 285.994 309.963 284.134 308.136C284.004 308.017 283.884 307.886 283.753 307.744C283.432 307.4 283.133 307.036 282.859 306.653L282.739 306.49L282.674 306.414L282.499 306.13C282.369 305.937 282.249 305.736 282.14 305.53C282.14 305.443 282.041 305.356 281.998 305.258C281.45 304.184 281.082 303.027 280.908 301.834C280.908 301.725 280.908 301.616 280.908 301.507C280.908 301.201 280.853 300.885 280.842 300.58V300.231V300.089C280.842 299.74 280.842 299.402 280.908 299.064C280.908 298.944 280.908 298.824 280.908 298.704C281.026 297.826 281.249 296.966 281.573 296.142L281.736 295.847C281.823 295.635 281.921 295.427 282.031 295.226C282.031 295.127 282.129 295.029 282.172 294.942L282.325 294.669C282.423 294.506 282.521 294.342 282.63 294.179L282.739 294.015L282.826 293.786C282.824 293.761 282.824 293.735 282.826 293.71C283.12 293.328 283.437 292.963 283.775 292.619L284.211 292.238C286.057 290.456 288.466 289.372 291.024 289.174H291.319H291.885H292.321H292.627C295.242 289.334 297.716 290.42 299.604 292.238C299.734 292.358 299.854 292.489 299.974 292.619C300.338 293.016 300.677 293.434 300.988 293.873L301.162 294.135L301.239 294.233C301.402 294.495 301.555 294.757 301.697 295.04C301.697 295.127 301.795 295.215 301.838 295.313C302.355 296.37 302.698 297.504 302.852 298.671C302.852 298.791 302.852 298.911 302.852 299.02C302.896 299.382 302.918 299.746 302.918 300.111V300.187V300.525C302.909 300.857 302.883 301.188 302.841 301.517C302.874 301.648 302.863 301.757 302.841 301.866Z" fill="#FFFF00" stroke="black" stroke-width="0.0421971" stroke-miterlimit="10"/>
<path d="M301.042 306.414C300.845 306.708 300.638 306.981 300.42 307.253L300.213 307.482L300.017 307.701L299.624 308.104C297.747 309.959 295.269 311.084 292.637 311.277H291.328H291.034C288.436 311.075 285.993 309.963 284.134 308.137C284.003 308.017 283.883 307.886 283.752 307.744C283.431 307.4 283.132 307.036 282.858 306.654L282.738 306.49L282.673 306.414L282.498 306.13C282.368 305.937 282.248 305.737 282.139 305.531C282.139 305.443 282.04 305.356 281.997 305.258C281.449 304.184 281.081 303.027 280.907 301.834C280.907 301.725 280.907 301.616 280.907 301.507C280.907 301.201 280.852 300.885 280.841 300.58V300.427L281.048 300.493H281.147C281.147 300.853 281.147 301.212 281.234 301.583C281.234 301.692 281.234 301.801 281.234 301.91C281.418 303.052 281.787 304.157 282.324 305.182C282.324 305.269 282.411 305.367 282.466 305.454C282.618 305.727 282.782 305.999 282.956 306.261C282.959 306.283 282.959 306.305 282.956 306.327L283.142 306.588C283.475 307.041 283.84 307.471 284.232 307.875L284.657 308.268C286.409 309.841 288.632 310.792 290.98 310.972H291.274H292.637C295.012 310.807 297.266 309.86 299.047 308.278L299.472 307.875C299.625 307.73 299.771 307.577 299.908 307.417C299.983 307.342 300.052 307.262 300.115 307.177C300.289 306.981 300.442 306.785 300.595 306.577L300.758 306.359L300.845 306.228L301.042 306.414Z" fill="#FFFF00" stroke="black" stroke-width="0.0421971" stroke-miterlimit="10"/>
<path d="M304.182 300.209C304.182 300.372 304.182 300.547 304.182 300.721C304.182 300.896 304.182 300.841 304.182 300.896C304.182 300.95 304.182 301.005 304.182 301.059L303.855 300.961C303.586 300.83 303.302 300.71 303.004 300.601H302.873L302.71 300.536L302.394 300.427C299.28 299.413 296.031 298.872 292.757 298.824C288.934 298.628 285.107 299.131 281.463 300.307L281.092 300.438H280.994L280.798 300.525C280.558 300.612 280.318 300.71 280.09 300.819L279.904 300.961L279.697 301.048H279.61C279.61 300.939 279.61 300.819 279.61 300.71C279.61 300.601 279.61 300.361 279.61 300.198C279.61 300.034 279.61 299.762 279.61 299.543C279.61 299.325 279.61 299.304 279.61 299.195C279.61 299.085 279.817 299.096 279.926 299.064C280.231 298.933 280.558 298.813 280.885 298.693L281.201 298.584C284.934 297.397 288.844 296.869 292.757 297.025C293.106 297.025 293.444 297.025 293.782 297.025H294.294C294.894 297.025 295.482 297.112 296.071 297.177L296.605 297.243C298.622 297.482 300.611 297.912 302.546 298.529L302.863 298.638L303.822 298.998L304.138 299.129C304.138 299.249 304.138 299.369 304.138 299.489C304.138 299.609 304.182 299.991 304.182 300.209Z" fill="#FFFF00" stroke="black" stroke-width="0.0421971" stroke-miterlimit="10"/>
<path d="M304.182 300.209C304.182 300.373 304.182 300.547 304.182 300.721L304.029 300.645L303.888 300.58L303.561 300.438L303.299 300.34L302.983 300.209H302.863L302.678 300.133C299.47 299.061 296.117 298.491 292.735 298.442H291.722C288.11 298.396 284.518 298.975 281.104 300.154H280.984L280.798 300.22L280.537 300.329L280.242 300.449L279.905 300.601L279.556 300.721C279.556 300.547 279.556 300.373 279.556 300.209C279.556 300.045 279.556 299.773 279.556 299.555L279.861 299.424C280.177 299.304 280.482 299.173 280.809 299.064L281.125 298.955C284.526 297.836 288.087 297.284 291.667 297.319H292.703H293.717H294.109L295.526 297.439L296.06 297.494C298.264 297.724 300.438 298.184 302.547 298.868L302.863 298.977C303.19 299.097 303.506 299.217 303.811 299.347L304.116 299.478C304.171 299.773 304.182 299.991 304.182 300.209Z" fill="#FFFF00" stroke="black" stroke-width="0.0421971" stroke-miterlimit="10"/>
<path d="M302.984 294.899L302.537 294.703L302.166 294.561L301.828 294.419L301.25 294.245L301.021 294.19H300.814L300.433 294.103C294.9 292.997 289.21 292.938 283.656 293.929L283.012 294.059L282.631 294.147L281.933 294.299L281.366 294.419C281.241 294.445 281.117 294.478 280.996 294.517C281.05 294.397 281.116 294.288 281.181 294.168L281.475 293.678C281.53 293.58 281.595 293.492 281.661 293.394L281.977 292.936L282.26 292.565L282.74 292.467C283.209 292.369 283.71 292.238 284.212 292.238L284.735 292.151C289.487 291.449 294.317 291.449 299.07 292.151L299.604 292.238C300.149 292.337 300.694 292.446 301.13 292.565L301.621 292.685L301.915 293.078C302.221 293.508 302.502 293.956 302.755 294.419L302.984 294.899Z" fill="#FFFF00" stroke="black" stroke-width="0.0421971" stroke-miterlimit="10"/>
<path d="M302.754 294.418L302.307 294.244L302.078 294.167L301.74 294.058H301.62C301.435 293.993 301.239 293.949 301.032 293.895L300.585 293.786C297.717 293.19 294.793 292.901 291.864 292.924C289.004 292.917 286.149 293.18 283.339 293.709H283.088L282.826 293.786L282.314 293.895L281.551 294.069L281.137 294.167L281.431 293.677C281.486 293.579 281.551 293.491 281.616 293.393L281.933 292.935L282.39 292.837L283.84 292.564L284.342 292.488C286.816 292.101 289.316 291.912 291.82 291.921C294.376 291.907 296.929 292.111 299.451 292.532L299.963 292.63C300.476 292.728 300.966 292.837 301.424 292.957L301.904 293.088C302.213 293.514 302.497 293.958 302.754 294.418Z" fill="#FFFF00" stroke="black" stroke-width="0.0421971" stroke-miterlimit="10"/>
<path d="M292.637 287.876V312.488H291.329H291.035V287.931H291.329H291.896H292.637V287.876Z" fill="#FFFF00" stroke="black" stroke-width="0.0421971" stroke-miterlimit="10"/>
<path d="M292.321 287.876V312.499H291.318V287.876H291.885H292.321Z" fill="#FFFF00" stroke="black" stroke-width="0.0421971" stroke-miterlimit="10"/>
<path d="M302.797 305.869L302.633 306.174C302.448 306.501 302.251 306.828 302.044 307.134L301.903 307.341L301.848 307.406L301.75 307.286L301.652 307.155L301.532 307.014L301.477 306.959C301.358 306.806 301.216 306.643 301.074 306.49L300.867 306.261L300.627 306.01C295.721 301.426 289.914 297.913 283.577 295.695L282.825 295.509L282.302 295.357L282.008 295.28L281.19 295.04H281.059H280.852H280.754C280.819 294.899 280.885 294.757 280.961 294.626C281.016 294.506 281.081 294.397 281.146 294.277L281.441 293.786C281.495 293.688 281.561 293.601 281.626 293.503L281.942 293.579C282.258 293.645 282.564 293.732 282.88 293.819H283.01H283.185L283.643 293.95C290.354 296.207 296.505 299.873 301.685 304.702L301.914 304.931L302.568 305.64L302.797 305.869Z" fill="#FFFF00" stroke="black" stroke-width="0.0421971" stroke-miterlimit="10"/>
<path d="M302.633 306.175C302.448 306.502 302.252 306.829 302.045 307.134L301.881 306.938V306.883L301.783 306.774C301.638 306.6 301.485 306.425 301.325 306.251L301.26 306.175L301.194 306.109L301.053 305.957C295.872 301.06 289.674 297.37 282.902 295.15L282.422 295.019L282.193 294.954H282.117L281.441 294.779H281.212H281.103H280.939V294.659C280.994 294.54 281.059 294.43 281.125 294.311L281.419 293.82L281.735 293.754L282.302 293.896L282.673 293.983L282.945 294.06C289.857 296.27 296.188 299.995 301.478 304.964L301.696 305.193L302.35 305.902L302.633 306.175Z" fill="#FFFF00" stroke="black" stroke-width="0.0421971" stroke-miterlimit="10"/>
<path d="M284.592 291.791H299.178V301.518C299.178 303.449 298.411 305.302 297.045 306.668C295.68 308.034 293.828 308.802 291.896 308.802C289.965 308.802 288.113 308.034 286.747 306.668C285.381 305.302 284.614 303.449 284.614 301.518V291.791H284.592Z" fill="white" stroke="black" stroke-width="0.0421971" stroke-miterlimit="10"/>
<path d="M291.886 308.507C290.034 308.507 288.259 307.772 286.948 306.463C285.638 305.155 284.901 303.38 284.898 301.528V292.095H298.863V301.528C298.86 303.378 298.124 305.151 296.816 306.459C295.508 307.768 293.735 308.504 291.886 308.507Z" fill="#FF0000"/>
<path d="M291.884 305.791C290.753 305.791 289.667 305.343 288.866 304.543C288.065 303.744 287.614 302.66 287.611 301.528V294.811H296.147V301.528C296.144 302.658 295.694 303.74 294.895 304.539C294.096 305.338 293.014 305.789 291.884 305.791Z" fill="white"/>
<path d="M285.834 293.013H285.343V293.798H285.834V293.013Z" fill="#FFFF00" stroke="black" stroke-width="0.0421971" stroke-miterlimit="10"/>
<path d="M287.307 293.013H286.816V293.798H287.307V293.013Z" fill="#FFFF00" stroke="black" stroke-width="0.0421971" stroke-miterlimit="10"/>
<path d="M287.295 293.731H285.355L285.246 294.603H287.393L287.295 293.731Z" fill="#FFFF00" stroke="black" stroke-width="0.0421971" stroke-miterlimit="10"/>
<path d="M287.426 293.395H285.213V293.733H287.426V293.395Z" fill="#FFFF00" stroke="black" stroke-width="0.0421971" stroke-miterlimit="10"/>
<path d="M286.566 292.608H286.075V293.394H286.566V292.608Z" fill="#FFFF00" stroke="black" stroke-width="0.0421971" stroke-miterlimit="10"/>
<path d="M286.696 292.325H285.955V292.608H286.696V292.325Z" fill="#FFFF00" stroke="black" stroke-width="0.0421971" stroke-miterlimit="10"/>
<path d="M285.955 292.741H285.213V293.024H285.955V292.741Z" fill="#FFFF00" stroke="black" stroke-width="0.0421971" stroke-miterlimit="10"/>
<path d="M287.437 292.741H286.695V293.024H287.437V292.741Z" fill="#FFFF00" stroke="black" stroke-width="0.0421971" stroke-miterlimit="10"/>
<path d="M286.598 294.255V294.603H286.096V294.255C286.099 294.181 286.13 294.112 286.183 294.061C286.236 294.01 286.306 293.982 286.38 293.982C286.417 293.982 286.453 293.99 286.487 294.005C286.52 294.02 286.551 294.042 286.576 294.069C286.606 294.126 286.613 294.192 286.598 294.255Z" fill="#FFFF00" stroke="black" stroke-width="0.0421971" stroke-miterlimit="10"/>
<path d="M291.394 293.013H290.903V293.798H291.394V293.013Z" fill="#FFFF00" stroke="black" stroke-width="0.0421971" stroke-miterlimit="10"/>
<path d="M292.866 293.013H292.375V293.798H292.866V293.013Z" fill="#FFFF00" stroke="black" stroke-width="0.0421971" stroke-miterlimit="10"/>
<path d="M292.856 293.73H290.904L290.806 294.603H292.954L292.856 293.73Z" fill="#FFFF00" stroke="black" stroke-width="0.0421971" stroke-miterlimit="10"/>
<path d="M292.986 293.394H290.773V293.732H292.986V293.394Z" fill="#FFFF00" stroke="black" stroke-width="0.0421971" stroke-miterlimit="10"/>
<path d="M292.125 292.608H291.634V293.394H292.125V292.608Z" fill="#FFFF00" stroke="black" stroke-width="0.0421971" stroke-miterlimit="10"/>
<path d="M292.256 292.325H291.515V292.609H292.256V292.325Z" fill="#FFFF00" stroke="black" stroke-width="0.0421971" stroke-miterlimit="10"/>
<path d="M291.515 292.74H290.773V293.024H291.515V292.74Z" fill="#FFFF00" stroke="black" stroke-width="0.0421971" stroke-miterlimit="10"/>
<path d="M292.985 292.741H292.244V293.024H292.985V292.741Z" fill="#FFFF00" stroke="black" stroke-width="0.0421971" stroke-miterlimit="10"/>
<path d="M292.157 294.255V294.603H291.601V294.255C291.604 294.181 291.635 294.112 291.688 294.061C291.741 294.01 291.811 293.982 291.885 293.982C291.921 293.982 291.958 293.99 291.992 294.005C292.025 294.02 292.056 294.042 292.081 294.069C292.105 294.094 292.124 294.122 292.137 294.154C292.15 294.186 292.157 294.22 292.157 294.255Z" fill="#FFFF00" stroke="black" stroke-width="0.0421971" stroke-miterlimit="10"/>
<path d="M296.954 293.013H296.463V293.798H296.954V293.013Z" fill="#FFFF00" stroke="black" stroke-width="0.0421971" stroke-miterlimit="10"/>
<path d="M298.426 293.013H297.936V293.798H298.426V293.013Z" fill="#FFFF00" stroke="black" stroke-width="0.0421971" stroke-miterlimit="10"/>
<path d="M298.415 293.73H296.474L296.376 294.603H298.524L298.415 293.73Z" fill="#FFFF00" stroke="black" stroke-width="0.0421971" stroke-miterlimit="10"/>
<path d="M298.558 293.394H296.345V293.732H298.558V293.394Z" fill="#FFFF00" stroke="black" stroke-width="0.0421971" stroke-miterlimit="10"/>
<path d="M297.696 292.608H297.206V293.394H297.696V292.608Z" fill="#FFFF00" stroke="black" stroke-width="0.0421971" stroke-miterlimit="10"/>
<path d="M297.827 292.325H297.085V292.608H297.827V292.325Z" fill="#FFFF00" stroke="black" stroke-width="0.0421971" stroke-miterlimit="10"/>
<path d="M297.086 292.74H296.345V293.024H297.086V292.74Z" fill="#FFFF00" stroke="black" stroke-width="0.0421971" stroke-miterlimit="10"/>
<path d="M298.556 292.741H297.815V293.024H298.556V292.741Z" fill="#FFFF00" stroke="black" stroke-width="0.0421971" stroke-miterlimit="10"/>
<path d="M297.728 294.255V294.604H297.172V294.255C297.172 294.182 297.201 294.113 297.252 294.062C297.303 294.011 297.372 293.982 297.444 293.982C297.482 293.981 297.518 293.988 297.552 294.004C297.586 294.019 297.616 294.041 297.641 294.069C297.669 294.091 297.691 294.119 297.706 294.152C297.721 294.184 297.729 294.219 297.728 294.255Z" fill="#FFFF00" stroke="black" stroke-width="0.0421971" stroke-miterlimit="10"/>
<path d="M285.834 298.683H285.343V299.468H285.834V298.683Z" fill="#FFFF00" stroke="black" stroke-width="0.0421971" stroke-miterlimit="10"/>
<path d="M287.307 298.683H286.816V299.468H287.307V298.683Z" fill="#FFFF00" stroke="black" stroke-width="0.0421971" stroke-miterlimit="10"/>
<path d="M287.295 299.403H285.355L285.246 300.275H287.393L287.295 299.403Z" fill="#FFFF00" stroke="black" stroke-width="0.0421971" stroke-miterlimit="10"/>
<path d="M287.426 299.064H285.213V299.402H287.426V299.064Z" fill="#FFFF00" stroke="black" stroke-width="0.0421971" stroke-miterlimit="10"/>
<path d="M286.566 298.278H286.075V299.063H286.566V298.278Z" fill="#FFFF00" stroke="black" stroke-width="0.0421971" stroke-miterlimit="10"/>
<path d="M286.696 297.995H285.955V298.279H286.696V297.995Z" fill="#FFFF00" stroke="black" stroke-width="0.0421971" stroke-miterlimit="10"/>
<path d="M285.955 298.41H285.213V298.694H285.955V298.41Z" fill="#FFFF00" stroke="black" stroke-width="0.0421971" stroke-miterlimit="10"/>
<path d="M287.437 298.41H286.695V298.694H287.437V298.41Z" fill="#FFFF00" stroke="black" stroke-width="0.0421971" stroke-miterlimit="10"/>
<path d="M286.598 299.925V300.274H286.096V299.925C286.099 299.851 286.13 299.782 286.183 299.731C286.236 299.68 286.306 299.652 286.38 299.652C286.416 299.651 286.452 299.657 286.486 299.67C286.519 299.683 286.55 299.703 286.576 299.729C286.601 299.754 286.621 299.785 286.635 299.819C286.648 299.852 286.654 299.888 286.652 299.925H286.598Z" fill="#FFFF00" stroke="black" stroke-width="0.0421971" stroke-miterlimit="10"/>
<path d="M296.954 298.683H296.463V299.468H296.954V298.683Z" fill="#FFFF00" stroke="black" stroke-width="0.0421971" stroke-miterlimit="10"/>
<path d="M298.426 298.683H297.936V299.468H298.426V298.683Z" fill="#FFFF00" stroke="black" stroke-width="0.0421971" stroke-miterlimit="10"/>
<path d="M298.416 299.403H296.475L296.377 300.275H298.525L298.416 299.403Z" fill="#FFFF00" stroke="black" stroke-width="0.0421971" stroke-miterlimit="10"/>
<path d="M298.558 299.064H296.345V299.402H298.558V299.064Z" fill="#FFFF00" stroke="black" stroke-width="0.0421971" stroke-miterlimit="10"/>
<path d="M297.696 298.278H297.206V299.063H297.696V298.278Z" fill="#FFFF00" stroke="black" stroke-width="0.0421971" stroke-miterlimit="10"/>
<path d="M297.827 297.995H297.085V298.279H297.827V297.995Z" fill="#FFFF00" stroke="black" stroke-width="0.0421971" stroke-miterlimit="10"/>
<path d="M297.086 298.41H296.345V298.694H297.086V298.41Z" fill="#FFFF00" stroke="black" stroke-width="0.0421971" stroke-miterlimit="10"/>
<path d="M298.556 298.41H297.815V298.694H298.556V298.41Z" fill="#FFFF00" stroke="black" stroke-width="0.0421971" stroke-miterlimit="10"/>
<path d="M297.728 299.927V300.276H297.172V299.927C297.172 299.854 297.201 299.785 297.252 299.734C297.303 299.683 297.373 299.654 297.445 299.654C297.517 299.654 297.587 299.682 297.641 299.73C297.668 299.755 297.69 299.786 297.705 299.82C297.72 299.853 297.728 299.89 297.728 299.927Z" fill="#FFFF00" stroke="black" stroke-width="0.0421971" stroke-miterlimit="10"/>
<path d="M287.03 305.253L286.683 305.6L287.238 306.156L287.585 305.809L287.03 305.253Z" fill="#FFFF00" stroke="black" stroke-width="0.0421971" stroke-miterlimit="10"/>
<path d="M288.066 304.21L287.719 304.557L288.274 305.112L288.621 304.765L288.066 304.21Z" fill="#FFFF00" stroke="black" stroke-width="0.0421971" stroke-miterlimit="10"/>
<path d="M288.571 304.722L287.197 306.096L287.742 306.794L289.258 305.268L288.571 304.722Z" fill="#FFFF00" stroke="black" stroke-width="0.0421971" stroke-miterlimit="10"/>
<path d="M288.416 304.386L286.851 305.952L287.09 306.191L288.655 304.625L288.416 304.386Z" fill="#FFFF00" stroke="black" stroke-width="0.0421971" stroke-miterlimit="10"/>
<path d="M287.262 304.437L286.915 304.784L287.47 305.34L287.817 304.993L287.262 304.437Z" fill="#FFFF00" stroke="black" stroke-width="0.0421971" stroke-miterlimit="10"/>
<path d="M287.154 304.152L286.63 304.676L286.83 304.877L287.354 304.352L287.154 304.152Z" fill="#FFFF00" stroke="black" stroke-width="0.0421971" stroke-miterlimit="10"/>
<path d="M286.921 304.961L286.396 305.485L286.597 305.686L287.121 305.161L286.921 304.961Z" fill="#FFFF00" stroke="black" stroke-width="0.0421971" stroke-miterlimit="10"/>
<path d="M287.956 303.922L287.432 304.446L287.633 304.647L288.157 304.122L287.956 303.922Z" fill="#FFFF00" stroke="black" stroke-width="0.0421971" stroke-miterlimit="10"/>
<path d="M288.451 305.585L288.691 305.835L288.277 306.228L288.059 305.977C288.032 305.952 288.011 305.921 287.997 305.887C287.982 305.854 287.975 305.818 287.975 305.781C287.975 305.744 287.982 305.708 287.997 305.674C288.011 305.64 288.032 305.61 288.059 305.585C288.087 305.556 288.121 305.534 288.159 305.521C288.196 305.508 288.237 305.503 288.277 305.508C288.342 305.513 288.403 305.54 288.451 305.585Z" fill="#FFFF00" stroke="black" stroke-width="0.0421971" stroke-miterlimit="10"/>
<path d="M296.06 304.573L295.713 304.226L295.158 304.781L295.505 305.128L296.06 304.573Z" fill="#FFFF00" stroke="black" stroke-width="0.0421971" stroke-miterlimit="10"/>
<path d="M297.096 305.614L296.749 305.267L296.194 305.823L296.541 306.169L297.096 305.614Z" fill="#FFFF00" stroke="black" stroke-width="0.0421971" stroke-miterlimit="10"/>
<path d="M296.582 306.12L295.209 304.736L294.511 305.281L296.037 306.807L296.582 306.12Z" fill="#FFFF00" stroke="black" stroke-width="0.0421971" stroke-miterlimit="10"/>
<path d="M296.927 305.969L295.362 304.404L295.123 304.643L296.688 306.208L296.927 305.969Z" fill="#FFFF00" stroke="black" stroke-width="0.0421971" stroke-miterlimit="10"/>
<path d="M296.86 304.806L296.513 304.459L295.958 305.014L296.305 305.361L296.86 304.806Z" fill="#FFFF00" stroke="black" stroke-width="0.0421971" stroke-miterlimit="10"/>
<path d="M297.147 304.704L296.623 304.18L296.423 304.38L296.947 304.904L297.147 304.704Z" fill="#FFFF00" stroke="black" stroke-width="0.0421971" stroke-miterlimit="10"/>
<path d="M296.343 304.466L295.819 303.942L295.618 304.142L296.143 304.666L296.343 304.466Z" fill="#FFFF00" stroke="black" stroke-width="0.0421971" stroke-miterlimit="10"/>
<path d="M297.39 305.511L296.866 304.987L296.666 305.187L297.19 305.712L297.39 305.511Z" fill="#FFFF00" stroke="black" stroke-width="0.0421971" stroke-miterlimit="10"/>
<path d="M295.723 306L295.472 306.24L295.08 305.847L295.33 305.607C295.356 305.581 295.386 305.56 295.42 305.546C295.454 305.531 295.49 305.524 295.527 305.524C295.563 305.524 295.599 305.531 295.633 305.546C295.667 305.56 295.697 305.581 295.723 305.607C295.748 305.633 295.768 305.664 295.782 305.697C295.795 305.731 295.801 305.767 295.799 305.804C295.8 305.876 295.772 305.947 295.723 306Z" fill="#FFFF00" stroke="black" stroke-width="0.0421971" stroke-miterlimit="10"/>
<path d="M291.885 301.463C291.639 301.463 291.404 301.365 291.23 301.191C291.056 301.017 290.958 300.781 290.958 300.536V299.074H292.801V300.536C292.801 300.78 292.705 301.014 292.533 301.187C292.362 301.361 292.129 301.46 291.885 301.463Z" fill="#003399"/>
<path d="M291.886 300.241C292.006 300.241 292.104 300.144 292.104 300.023C292.104 299.903 292.006 299.805 291.886 299.805C291.765 299.805 291.667 299.903 291.667 300.023C291.667 300.144 291.765 300.241 291.886 300.241Z" fill="white"/>
<path d="M292.398 299.741C292.518 299.741 292.616 299.643 292.616 299.523C292.616 299.402 292.518 299.305 292.398 299.305C292.277 299.305 292.18 299.402 292.18 299.523C292.18 299.643 292.277 299.741 292.398 299.741Z" fill="white"/>
<path d="M292.398 300.744C292.518 300.744 292.616 300.646 292.616 300.525C292.616 300.405 292.518 300.307 292.398 300.307C292.277 300.307 292.18 300.405 292.18 300.525C292.18 300.646 292.277 300.744 292.398 300.744Z" fill="white"/>
<path d="M291.362 299.741C291.482 299.741 291.58 299.643 291.58 299.523C291.58 299.402 291.482 299.305 291.362 299.305C291.242 299.305 291.144 299.402 291.144 299.523C291.144 299.643 291.242 299.741 291.362 299.741Z" fill="white"/>
<path d="M291.362 300.744C291.482 300.744 291.58 300.646 291.58 300.525C291.58 300.405 291.482 300.307 291.362 300.307C291.242 300.307 291.144 300.405 291.144 300.525C291.144 300.646 291.242 300.744 291.362 300.744Z" fill="white"/>
<path d="M291.864 304.734C291.618 304.734 291.382 304.636 291.208 304.462C291.035 304.289 290.937 304.053 290.937 303.807V302.357H292.79V303.807C292.79 304.053 292.693 304.289 292.519 304.462C292.345 304.636 292.109 304.734 291.864 304.734Z" fill="#003399"/>
<path d="M291.863 303.513C291.983 303.513 292.081 303.415 292.081 303.295C292.081 303.174 291.983 303.077 291.863 303.077C291.742 303.077 291.645 303.174 291.645 303.295C291.645 303.415 291.742 303.513 291.863 303.513Z" fill="white"/>
<path d="M292.387 303.012C292.508 303.012 292.605 302.914 292.605 302.794C292.605 302.674 292.508 302.576 292.387 302.576C292.267 302.576 292.169 302.674 292.169 302.794C292.169 302.914 292.267 303.012 292.387 303.012Z" fill="white"/>
<path d="M292.387 304.015C292.508 304.015 292.605 303.918 292.605 303.797C292.605 303.677 292.508 303.579 292.387 303.579C292.267 303.579 292.169 303.677 292.169 303.797C292.169 303.918 292.267 304.015 292.387 304.015Z" fill="white"/>
<path d="M291.351 303.012C291.471 303.012 291.569 302.914 291.569 302.794C291.569 302.674 291.471 302.576 291.351 302.576C291.23 302.576 291.133 302.674 291.133 302.794C291.133 302.914 291.23 303.012 291.351 303.012Z" fill="white"/>
<path d="M291.351 304.015C291.471 304.015 291.569 303.918 291.569 303.797C291.569 303.677 291.471 303.579 291.351 303.579C291.23 303.579 291.133 303.677 291.133 303.797C291.133 303.918 291.23 304.015 291.351 304.015Z" fill="white"/>
<path d="M291.851 298.257C291.606 298.257 291.37 298.16 291.196 297.986C291.022 297.812 290.925 297.576 290.925 297.33V295.869H292.778V297.33C292.778 297.576 292.68 297.812 292.507 297.986C292.333 298.16 292.097 298.257 291.851 298.257Z" fill="#003399"/>
<path d="M291.852 297.036C291.973 297.036 292.07 296.939 292.07 296.818C292.07 296.698 291.973 296.6 291.852 296.6C291.732 296.6 291.634 296.698 291.634 296.818C291.634 296.939 291.732 297.036 291.852 297.036Z" fill="white"/>
<path d="M292.365 296.533C292.485 296.533 292.583 296.436 292.583 296.315C292.583 296.195 292.485 296.097 292.365 296.097C292.245 296.097 292.147 296.195 292.147 296.315C292.147 296.436 292.245 296.533 292.365 296.533Z" fill="white"/>
<path d="M292.365 297.539C292.485 297.539 292.583 297.441 292.583 297.321C292.583 297.2 292.485 297.103 292.365 297.103C292.245 297.103 292.147 297.2 292.147 297.321C292.147 297.441 292.245 297.539 292.365 297.539Z" fill="white"/>
<path d="M291.34 296.533C291.461 296.533 291.558 296.436 291.558 296.315C291.558 296.195 291.461 296.097 291.34 296.097C291.22 296.097 291.122 296.195 291.122 296.315C291.122 296.436 291.22 296.533 291.34 296.533Z" fill="white"/>
<path d="M291.34 297.539C291.461 297.539 291.558 297.441 291.558 297.321C291.558 297.2 291.461 297.103 291.34 297.103C291.22 297.103 291.122 297.2 291.122 297.321C291.122 297.441 291.22 297.539 291.34 297.539Z" fill="white"/>
<path d="M289.3 301.463C289.057 301.46 288.824 301.361 288.652 301.187C288.481 301.014 288.385 300.78 288.385 300.536V299.074H290.227V300.536C290.227 300.657 290.203 300.778 290.157 300.89C290.11 301.003 290.042 301.105 289.956 301.191C289.87 301.277 289.768 301.345 289.655 301.392C289.543 301.439 289.422 301.463 289.3 301.463Z" fill="#003399"/>
<path d="M289.302 300.241C289.422 300.241 289.52 300.144 289.52 300.023C289.52 299.903 289.422 299.805 289.302 299.805C289.182 299.805 289.084 299.903 289.084 300.023C289.084 300.144 289.182 300.241 289.302 300.241Z" fill="white"/>
<path d="M289.824 299.741C289.944 299.741 290.042 299.643 290.042 299.523C290.042 299.402 289.944 299.305 289.824 299.305C289.704 299.305 289.606 299.402 289.606 299.523C289.606 299.643 289.704 299.741 289.824 299.741Z" fill="white"/>
<path d="M289.824 300.744C289.944 300.744 290.042 300.646 290.042 300.526C290.042 300.405 289.944 300.308 289.824 300.308C289.704 300.308 289.606 300.405 289.606 300.526C289.606 300.646 289.704 300.744 289.824 300.744Z" fill="white"/>
<path d="M288.788 299.741C288.909 299.741 289.006 299.643 289.006 299.523C289.006 299.402 288.909 299.305 288.788 299.305C288.668 299.305 288.57 299.402 288.57 299.523C288.57 299.643 288.668 299.741 288.788 299.741Z" fill="white"/>
<path d="M288.788 300.744C288.909 300.744 289.006 300.646 289.006 300.525C289.006 300.405 288.909 300.307 288.788 300.307C288.668 300.307 288.57 300.405 288.57 300.525C288.57 300.646 288.668 300.744 288.788 300.744Z" fill="white"/>
<path d="M294.458 301.463C294.212 301.463 293.976 301.365 293.803 301.191C293.629 301.017 293.531 300.782 293.531 300.536V299.075H295.384V300.536C295.384 300.658 295.361 300.778 295.314 300.891C295.267 301.003 295.199 301.105 295.113 301.191C295.027 301.277 294.925 301.346 294.812 301.392C294.7 301.439 294.58 301.463 294.458 301.463Z" fill="#003399"/>
<path d="M294.458 300.241C294.578 300.241 294.676 300.144 294.676 300.023C294.676 299.903 294.578 299.805 294.458 299.805C294.337 299.805 294.24 299.903 294.24 300.023C294.24 300.144 294.337 300.241 294.458 300.241Z" fill="white"/>
<path d="M294.97 299.741C295.091 299.741 295.188 299.643 295.188 299.523C295.188 299.402 295.091 299.305 294.97 299.305C294.85 299.305 294.752 299.402 294.752 299.523C294.752 299.643 294.85 299.741 294.97 299.741Z" fill="white"/>
<path d="M294.97 300.744C295.09 300.744 295.188 300.646 295.188 300.525C295.188 300.405 295.09 300.307 294.97 300.307C294.85 300.307 294.752 300.405 294.752 300.525C294.752 300.646 294.85 300.744 294.97 300.744Z" fill="white"/>
<path d="M293.934 299.741C294.055 299.741 294.152 299.643 294.152 299.523C294.152 299.402 294.055 299.305 293.934 299.305C293.814 299.305 293.716 299.402 293.716 299.523C293.716 299.643 293.814 299.741 293.934 299.741Z" fill="white"/>
<path d="M293.934 300.744C294.055 300.744 294.152 300.646 294.152 300.526C294.152 300.405 294.055 300.308 293.934 300.308C293.814 300.308 293.716 300.405 293.716 300.526C293.716 300.646 293.814 300.744 293.934 300.744Z" fill="white"/>
<rect x="350.545" y="272.087" width="81.8624" height="56.5441" stroke="#5A5A5A" stroke-width="0.843942"/>
<rect x="357.718" y="279.261" width="25.3183" height="42.1971" fill="#1157DD"/>
<rect x="399.915" y="279.261" width="25.3183" height="42.1971" fill="#CE2B37"/>
<rect x="380.504" y="279.261" width="21.9425" height="42.1971" fill="white"/>
<rect x="443.378" y="272.087" width="81.8624" height="56.5441" stroke="#5A5A5A" stroke-width="0.843942"/>
<rect x="450.551" y="279.261" width="67.5154" height="42.1971" fill="#012169"/>
<path fill-rule="evenodd" clip-rule="evenodd" d="M512.085 321.458L450.551 285.533V279.261H455.059L518.067 316.047V321.458H512.085Z" fill="white"/>
<path fill-rule="evenodd" clip-rule="evenodd" d="M450.551 280.3L483.891 299.026L482.369 301.59L450.551 283.719V280.3Z" fill="#C8102E"/>
<path fill-rule="evenodd" clip-rule="evenodd" d="M450.551 316.049L513.563 279.261H518.067V285.535L456.536 321.458H450.551V316.049Z" fill="white"/>
<path fill-rule="evenodd" clip-rule="evenodd" d="M518.067 281.59L485.355 299.964L483.833 297.4L516.127 279.261H518.067V281.59Z" fill="#C8102E"/>
<path fill-rule="evenodd" clip-rule="evenodd" d="M518.068 317.86V321.279L484.73 302.554L486.252 299.99L518.068 317.86Z" fill="#C8102E"/>
<path fill-rule="evenodd" clip-rule="evenodd" d="M454.026 321.459H450.552V319.991L483.264 301.616L484.786 304.181L454.026 321.459Z" fill="#C8102E"/>
<rect x="450.552" y="293.907" width="67.5154" height="13.7668" fill="white"/>
<rect x="476.034" y="321.458" width="42.1971" height="16.55" transform="rotate(-90 476.034 321.458)" fill="white"/>
<rect x="478.5" y="321.458" width="42.1971" height="11.6179" transform="rotate(-90 478.5 321.458)" fill="#C8102E"/>
<rect x="450.552" y="296.491" width="67.5154" height="8.59766" fill="#C8102E"/>
</g>
</g>
<defs>
<filter id="filter0_d_32_13315" x="29.612" y="189.43" width="1371.88" height="867.198" filterUnits="userSpaceOnUse" color-interpolation-filters="sRGB">
<feFlood flood-opacity="0" result="BackgroundImageFix"/>
<feColorMatrix in="SourceAlpha" type="matrix" values="0 0 0 0 0 0 0 0 0 0 0 0 0 0 0 0 0 0 127 0" result="hardAlpha"/>
<feOffset dy="52.512"/>
<feGaussianBlur stdDeviation="33.7577"/>
<feComposite in2="hardAlpha" operator="out"/>
<feColorMatrix type="matrix" values="0 0 0 0 0.075 0 0 0 0 0.075 0 0 0 0 0.075 0 0 0 0.65 0"/>
<feBlend mode="normal" in2="BackgroundImageFix" result="effect1_dropShadow_32_13315"/>
<feBlend mode="normal" in="SourceGraphic" in2="effect1_dropShadow_32_13315" result="shape"/>
</filter>
<clipPath id="clip0_32_13315">
<rect width="1430" height="884" fill="white" transform="translate(0.549805 0.600098)"/>
</clipPath>
</defs>
</svg>
