<svg width="45" height="46" viewBox="0 0 45 46" fill="none" xmlns="http://www.w3.org/2000/svg">
<g filter="url(#filter0_d_31_10694)">
<path d="M28.7776 21.1116C28.7776 21.3049 28.8743 20.5729 29.1781 20.0894C29.2954 19.7414 29.546 19.4542 29.875 19.291C30.0379 19.2102 30.2151 19.1623 30.3965 19.15C30.5779 19.1377 30.76 19.1612 30.9323 19.2193C31.1046 19.2773 31.2638 19.3687 31.4008 19.4883C31.5378 19.6078 31.6499 19.7532 31.7307 19.9161C31.8115 20.079 31.8595 20.2562 31.8718 20.4376C31.8841 20.619 31.8606 20.8011 31.8025 20.9734C31.8025 21.8851 31.8025 21.8436 31.8025 22.4514C31.8025 23.0591 31.8025 23.584 31.8025 24.1089C31.7494 24.9169 31.6386 25.72 31.471 26.5122C31.2489 27.1836 30.9426 27.8241 30.5594 28.4184C29.8879 29.1687 29.3337 30.0162 28.9157 30.9322C28.807 31.3842 28.7606 31.8489 28.7776 32.3135C28.7781 32.7424 28.8338 33.1695 28.9433 33.5843C28.3787 33.6464 27.809 33.6464 27.2444 33.5843C26.7057 33.5014 26.0289 32.424 25.8631 32.0925C25.8211 32.0015 25.7539 31.9244 25.6695 31.8704C25.585 31.8164 25.4869 31.7877 25.3866 31.7877C25.2864 31.7877 25.1882 31.8164 25.1038 31.8704C25.0193 31.9244 24.9521 32.0015 24.9101 32.0925C24.6062 32.6174 23.9432 33.5704 23.4598 33.6257C22.5481 33.7362 20.6282 33.6257 19.1364 33.6257C19.1364 33.6257 19.3851 32.2444 18.8188 31.7472C18.2524 31.2499 17.6723 30.6698 17.2303 30.2831L16.0839 29.0123C15.277 28.2605 14.6857 27.3068 14.3711 26.2498C14.0811 24.9514 14.1087 24.3161 14.3711 23.805C14.6613 23.3804 15.0998 23.0799 15.6004 22.9624C16.0018 22.8917 16.4143 22.9202 16.8021 23.0453C17.0732 23.1588 17.3075 23.3453 17.4789 23.584C17.7966 24.0122 17.8933 24.2194 17.7828 23.7498C17.6723 23.2801 17.5066 22.5895 17.2165 21.6088C16.9817 20.8491 16.7469 20.4209 16.5673 19.9099C16.3878 19.3988 16.1529 18.9154 15.8767 18.28C15.6265 17.6312 15.4188 16.9668 15.2551 16.291C15.1926 16.0127 15.191 15.7241 15.2507 15.4451C15.3103 15.1662 15.4296 14.9034 15.6004 14.6749C15.8432 14.4361 16.1448 14.2655 16.4747 14.1806C16.8046 14.0958 17.151 14.0995 17.4789 14.1915C18.0001 14.4174 18.4391 14.7984 18.7359 15.2827C19.1489 15.9507 19.4826 16.6646 19.7304 17.4098C20.1857 18.5956 20.5099 19.8276 20.6973 21.0839C20.6635 20.3426 20.7239 19.6001 20.8768 18.8739C20.9535 18.6535 21.0791 18.4532 21.2441 18.2882C21.4092 18.1231 21.6094 17.9975 21.8299 17.9209C22.2402 17.7893 22.6767 17.7609 23.1006 17.838C23.5233 17.9319 23.8968 18.1776 24.1504 18.5286C24.4675 19.3359 24.6495 20.1899 24.6891 21.0563C24.7293 20.3159 24.8592 19.5831 25.0758 18.8739C25.3075 18.5496 25.6442 18.3153 26.0289 18.2109C26.4856 18.1284 26.9534 18.1284 27.4101 18.2109C27.7838 18.3377 28.1109 18.5734 28.3494 18.8878C28.6415 19.6204 28.8185 20.3938 28.8743 21.1806" fill="white"/>
<path d="M28.7776 21.1116C28.7776 21.3049 28.8743 20.5729 29.1781 20.0894C29.2954 19.7414 29.546 19.4542 29.875 19.291C30.0379 19.2102 30.2151 19.1623 30.3965 19.15C30.5779 19.1377 30.76 19.1612 30.9323 19.2193C31.1046 19.2773 31.2638 19.3687 31.4008 19.4883C31.5378 19.6078 31.6499 19.7532 31.7307 19.9161C31.8115 20.079 31.8595 20.2562 31.8718 20.4376C31.8841 20.619 31.8606 20.8011 31.8025 20.9734C31.8025 21.8851 31.8025 21.8436 31.8025 22.4514C31.8025 23.0591 31.8025 23.584 31.8025 24.1089C31.7494 24.9169 31.6386 25.72 31.471 26.5123C31.2489 27.1836 30.9426 27.8241 30.5594 28.4184C29.8879 29.1687 29.3337 30.0162 28.9157 30.9322C28.807 31.3842 28.7606 31.8489 28.7776 32.3135C28.7781 32.7424 28.8338 33.1695 28.9433 33.5843C28.3787 33.6464 27.809 33.6464 27.2444 33.5843C26.7057 33.5014 26.0289 32.424 25.8631 32.0925C25.8211 32.0015 25.7539 31.9244 25.6695 31.8704C25.585 31.8164 25.4869 31.7877 25.3866 31.7877C25.2864 31.7877 25.1882 31.8164 25.1038 31.8704C25.0193 31.9244 24.9521 32.0015 24.9101 32.0925C24.6062 32.6174 23.9432 33.5704 23.4598 33.6257C22.5481 33.7362 20.6282 33.6257 19.1364 33.6257C19.1364 33.6257 19.3851 32.2444 18.8188 31.7472C18.2524 31.2499 17.6723 30.6698 17.2303 30.2831L16.0839 29.0123C15.277 28.2605 14.6857 27.3068 14.3711 26.2498C14.0811 24.9514 14.1087 24.3161 14.3711 23.805C14.6613 23.3804 15.0998 23.0799 15.6004 22.9624C16.0018 22.8917 16.4143 22.9202 16.8021 23.0453C17.0732 23.1588 17.3075 23.3453 17.4789 23.584C17.7966 24.0122 17.8933 24.2194 17.7828 23.7497C17.6723 23.2801 17.5066 22.5895 17.2165 21.6088C16.9817 20.8491 16.7469 20.4209 16.5673 19.9099C16.3878 19.3988 16.1529 18.9154 15.8767 18.28C15.6265 17.6312 15.4188 16.9668 15.2551 16.291C15.1926 16.0127 15.191 15.7241 15.2507 15.4451C15.3103 15.1662 15.4296 14.9034 15.6004 14.6749C15.8432 14.4361 16.1448 14.2655 16.4747 14.1806C16.8046 14.0958 17.151 14.0995 17.4789 14.1915C18.0001 14.4174 18.4391 14.7984 18.7359 15.2827C19.1489 15.9507 19.4826 16.6646 19.7304 17.4098C20.1857 18.5956 20.5099 19.8276 20.6973 21.0839C20.6635 20.3426 20.7239 19.6001 20.8768 18.8739C20.9535 18.6535 21.0791 18.4532 21.2441 18.2882C21.4092 18.1231 21.6094 17.9975 21.8299 17.9209C22.2402 17.7893 22.6767 17.7609 23.1006 17.838C23.5233 17.9319 23.8968 18.1776 24.1504 18.5286C24.4675 19.3359 24.6495 20.1899 24.6891 21.0563C24.7293 20.3159 24.8592 19.5831 25.0758 18.8739C25.3075 18.5496 25.6442 18.3153 26.0289 18.2109C26.4856 18.1284 26.9534 18.1284 27.4101 18.2109C27.7838 18.3377 28.1109 18.5734 28.3494 18.8878C28.6016 19.6037 28.7459 20.3532 28.7776 21.1116V21.1116Z" stroke="#0F0F10" stroke-width="0.975" stroke-linejoin="round"/>
<path d="M27.4377 29.5093V24.7302" stroke="#0F0F10" stroke-width="0.975" stroke-linecap="round"/>
<path d="M24.6478 29.5232L24.634 24.7302" stroke="#0F0F10" stroke-width="0.975" stroke-linecap="round"/>
<path d="M21.8992 24.772L21.9268 29.4958" stroke="#0F0F10" stroke-width="0.975" stroke-linecap="round"/>
</g>
<defs>
<filter id="filter0_d_31_10694" x="11.0763" y="13.6321" width="23.8863" height="25.7303" filterUnits="userSpaceOnUse" color-interpolation-filters="sRGB">
<feFlood flood-opacity="0" result="BackgroundImageFix"/>
<feColorMatrix in="SourceAlpha" type="matrix" values="0 0 0 0 0 0 0 0 0 0 0 0 0 0 0 0 0 0 127 0" result="hardAlpha"/>
<feOffset dy="2.6"/>
<feGaussianBlur stdDeviation="1.3"/>
<feColorMatrix type="matrix" values="0 0 0 0 0 0 0 0 0 0 0 0 0 0 0 0 0 0 0.25 0"/>
<feBlend mode="normal" in2="BackgroundImageFix" result="effect1_dropShadow_31_10694"/>
<feBlend mode="normal" in="SourceGraphic" in2="effect1_dropShadow_31_10694" result="shape"/>
</filter>
</defs>
</svg>
