<svg width="1431" height="885" viewBox="0 0 1431 885" fill="none" xmlns="http://www.w3.org/2000/svg">
<g clip-path="url(#clip0_31_10101)">
<rect width="1430" height="884" transform="translate(0.0500488 0.399902)" fill="white"/>
<rect x="352.35" y="168.1" width="725.4" height="889.2" rx="15.6" fill="#0B0B0B"/>
<path d="M402.036 237.064C400.666 237.064 399.453 236.821 398.396 236.336C397.338 235.85 396.506 235.14 395.9 234.204C395.31 233.25 395.016 232.098 395.016 230.746V230.096H397.798V230.746C397.798 232.028 398.179 232.99 398.942 233.632C399.722 234.273 400.753 234.594 402.036 234.594C403.336 234.594 404.315 234.325 404.974 233.788C405.632 233.233 405.962 232.522 405.962 231.656C405.962 231.084 405.806 230.616 405.494 230.252C405.182 229.888 404.74 229.602 404.168 229.394C403.596 229.168 402.911 228.96 402.114 228.77L401.152 228.536C399.99 228.258 398.976 227.92 398.11 227.522C397.26 227.106 396.602 226.56 396.134 225.884C395.666 225.208 395.432 224.341 395.432 223.284C395.432 222.209 395.692 221.29 396.212 220.528C396.749 219.765 397.486 219.176 398.422 218.76C399.358 218.344 400.458 218.136 401.724 218.136C402.989 218.136 404.116 218.352 405.104 218.786C406.109 219.219 406.898 219.86 407.47 220.71C408.042 221.559 408.328 222.625 408.328 223.908V224.844H405.546V223.908C405.546 223.128 405.381 222.495 405.052 222.01C404.74 221.524 404.298 221.169 403.726 220.944C403.154 220.718 402.486 220.606 401.724 220.606C400.614 220.606 399.748 220.84 399.124 221.308C398.517 221.758 398.214 222.391 398.214 223.206C398.214 223.76 398.344 224.22 398.604 224.584C398.881 224.93 399.28 225.216 399.8 225.442C400.32 225.667 400.97 225.866 401.75 226.04L402.712 226.274C403.89 226.534 404.93 226.872 405.832 227.288C406.733 227.686 407.444 228.232 407.964 228.926C408.484 229.619 408.744 230.512 408.744 231.604C408.744 232.696 408.466 233.649 407.912 234.464C407.374 235.278 406.603 235.92 405.598 236.388C404.592 236.838 403.405 237.064 402.036 237.064ZM416.58 236.7C415.8 236.7 415.176 236.466 414.708 235.998C414.257 235.53 414.032 234.906 414.032 234.126V226.144H410.496V223.882H414.032V219.644H416.71V223.882H420.532V226.144H416.71V233.658C416.71 234.178 416.952 234.438 417.438 234.438H420.116V236.7H416.58ZM427.63 237.064C426.712 237.064 425.888 236.908 425.16 236.596C424.45 236.284 423.878 235.824 423.444 235.218C423.028 234.611 422.82 233.874 422.82 233.008C422.82 232.124 423.028 231.396 423.444 230.824C423.878 230.234 424.458 229.792 425.186 229.498C425.932 229.203 426.772 229.056 427.708 229.056H431.608V228.224C431.608 227.478 431.383 226.88 430.932 226.43C430.482 225.979 429.788 225.754 428.852 225.754C427.934 225.754 427.232 225.97 426.746 226.404C426.261 226.837 425.94 227.4 425.784 228.094L423.288 227.288C423.496 226.594 423.826 225.97 424.276 225.416C424.744 224.844 425.36 224.384 426.122 224.038C426.885 223.691 427.804 223.518 428.878 223.518C430.542 223.518 431.851 223.942 432.804 224.792C433.758 225.641 434.234 226.846 434.234 228.406V233.684C434.234 234.204 434.477 234.464 434.962 234.464H436.054V236.7H434.052C433.446 236.7 432.952 236.544 432.57 236.232C432.189 235.92 431.998 235.495 431.998 234.958V234.88H431.608C431.47 235.14 431.262 235.443 430.984 235.79C430.707 236.136 430.3 236.44 429.762 236.7C429.225 236.942 428.514 237.064 427.63 237.064ZM428.02 234.854C429.095 234.854 429.962 234.55 430.62 233.944C431.279 233.32 431.608 232.47 431.608 231.396V231.136H427.864C427.154 231.136 426.582 231.292 426.148 231.604C425.715 231.898 425.498 232.34 425.498 232.93C425.498 233.519 425.724 233.987 426.174 234.334C426.625 234.68 427.24 234.854 428.02 234.854ZM446.068 237.064C444.82 237.064 443.858 236.838 443.182 236.388C442.524 235.937 442.03 235.434 441.7 234.88H441.284V236.7H438.658V218.5H441.336V225.624H441.752C441.96 225.277 442.238 224.948 442.584 224.636C442.931 224.306 443.39 224.038 443.962 223.83C444.534 223.622 445.236 223.518 446.068 223.518C447.143 223.518 448.131 223.778 449.032 224.298C449.934 224.818 450.653 225.572 451.19 226.56C451.728 227.548 451.996 228.726 451.996 230.096V230.486C451.996 231.872 451.719 233.06 451.164 234.048C450.627 235.018 449.908 235.764 449.006 236.284C448.122 236.804 447.143 237.064 446.068 237.064ZM445.288 234.724C446.45 234.724 447.403 234.351 448.148 233.606C448.911 232.86 449.292 231.794 449.292 230.408V230.174C449.292 228.804 448.92 227.747 448.174 227.002C447.429 226.256 446.467 225.884 445.288 225.884C444.144 225.884 443.191 226.256 442.428 227.002C441.683 227.747 441.31 228.804 441.31 230.174V230.408C441.31 231.794 441.683 232.86 442.428 233.606C443.191 234.351 444.144 234.724 445.288 234.724ZM455.315 236.7V218.5H457.993V236.7H455.315ZM467.843 237.064C466.543 237.064 465.408 236.795 464.437 236.258C463.466 235.703 462.704 234.932 462.149 233.944C461.612 232.938 461.343 231.777 461.343 230.46V230.148C461.343 228.813 461.612 227.652 462.149 226.664C462.686 225.658 463.432 224.887 464.385 224.35C465.356 223.795 466.474 223.518 467.739 223.518C468.97 223.518 470.044 223.795 470.963 224.35C471.899 224.887 472.627 225.641 473.147 226.612C473.667 227.582 473.927 228.718 473.927 230.018V231.032H464.073C464.108 232.158 464.48 233.06 465.191 233.736C465.919 234.394 466.82 234.724 467.895 234.724C468.9 234.724 469.654 234.498 470.157 234.048C470.677 233.597 471.076 233.077 471.353 232.488L473.563 233.632C473.32 234.117 472.965 234.628 472.497 235.166C472.046 235.703 471.448 236.154 470.703 236.518C469.958 236.882 469.004 237.064 467.843 237.064ZM464.099 228.978H471.197C471.128 228.007 470.781 227.253 470.157 226.716C469.533 226.161 468.718 225.884 467.713 225.884C466.708 225.884 465.884 226.161 465.243 226.716C464.619 227.253 464.238 228.007 464.099 228.978ZM483.104 237.064C481.874 237.064 480.756 236.804 479.75 236.284C478.762 235.764 477.974 235.01 477.384 234.022C476.812 233.034 476.526 231.846 476.526 230.46V230.122C476.526 228.735 476.812 227.556 477.384 226.586C477.974 225.598 478.762 224.844 479.75 224.324C480.756 223.786 481.874 223.518 483.104 223.518C484.335 223.518 485.384 223.743 486.25 224.194C487.117 224.644 487.81 225.242 488.33 225.988C488.868 226.733 489.214 227.556 489.37 228.458L486.77 229.004C486.684 228.432 486.502 227.912 486.224 227.444C485.947 226.976 485.557 226.603 485.054 226.326C484.552 226.048 483.919 225.91 483.156 225.91C482.411 225.91 481.735 226.083 481.128 226.43C480.539 226.759 480.071 227.244 479.724 227.886C479.378 228.51 479.204 229.272 479.204 230.174V230.408C479.204 231.309 479.378 232.08 479.724 232.722C480.071 233.363 480.539 233.848 481.128 234.178C481.735 234.507 482.411 234.672 483.156 234.672C484.283 234.672 485.141 234.386 485.73 233.814C486.32 233.224 486.692 232.479 486.848 231.578L489.448 232.176C489.24 233.06 488.868 233.874 488.33 234.62C487.81 235.365 487.117 235.963 486.25 236.414C485.384 236.847 484.335 237.064 483.104 237.064ZM498.543 237.064C497.26 237.064 496.116 236.804 495.111 236.284C494.123 235.746 493.343 234.984 492.771 233.996C492.199 233.008 491.913 231.838 491.913 230.486V230.096C491.913 228.744 492.199 227.582 492.771 226.612C493.343 225.624 494.123 224.861 495.111 224.324C496.116 223.786 497.26 223.518 498.543 223.518C499.826 223.518 500.97 223.786 501.975 224.324C502.98 224.861 503.769 225.624 504.341 226.612C504.913 227.582 505.199 228.744 505.199 230.096V230.486C505.199 231.838 504.913 233.008 504.341 233.996C503.769 234.984 502.98 235.746 501.975 236.284C500.97 236.804 499.826 237.064 498.543 237.064ZM498.543 234.672C499.722 234.672 500.675 234.299 501.403 233.554C502.148 232.791 502.521 231.742 502.521 230.408V230.174C502.521 228.839 502.157 227.799 501.429 227.054C500.701 226.291 499.739 225.91 498.543 225.91C497.382 225.91 496.428 226.291 495.683 227.054C494.955 227.799 494.591 228.839 494.591 230.174V230.408C494.591 231.742 494.955 232.791 495.683 233.554C496.428 234.299 497.382 234.672 498.543 234.672ZM508.533 236.7V223.882H511.211V236.7H508.533ZM509.885 222.14C509.365 222.14 508.923 221.975 508.559 221.646C508.213 221.299 508.039 220.857 508.039 220.32C508.039 219.782 508.213 219.349 508.559 219.02C508.923 218.673 509.365 218.5 509.885 218.5C510.423 218.5 510.865 218.673 511.211 219.02C511.558 219.349 511.731 219.782 511.731 220.32C511.731 220.857 511.558 221.299 511.211 221.646C510.865 221.975 510.423 222.14 509.885 222.14ZM515.186 236.7V223.882H517.812V225.806H518.228C518.47 225.286 518.904 224.8 519.528 224.35C520.152 223.899 521.079 223.674 522.31 223.674C523.28 223.674 524.138 223.89 524.884 224.324C525.646 224.757 526.244 225.372 526.678 226.17C527.111 226.95 527.328 227.894 527.328 229.004V236.7H524.65V229.212C524.65 228.102 524.372 227.288 523.818 226.768C523.263 226.23 522.5 225.962 521.53 225.962C520.42 225.962 519.528 226.326 518.852 227.054C518.193 227.782 517.864 228.839 517.864 230.226V236.7H515.186ZM537.809 236.7V218.5H540.487V236.7H537.809ZM544.461 236.7V223.882H547.139V236.7H544.461ZM545.813 222.14C545.293 222.14 544.851 221.975 544.487 221.646C544.14 221.299 543.967 220.857 543.967 220.32C543.967 219.782 544.14 219.349 544.487 219.02C544.851 218.673 545.293 218.5 545.813 218.5C546.35 218.5 546.792 218.673 547.139 219.02C547.486 219.349 547.659 219.782 547.659 220.32C547.659 220.857 547.486 221.299 547.139 221.646C546.792 221.975 546.35 222.14 545.813 222.14ZM561.149 241.9V234.958H560.733C560.543 235.304 560.265 235.642 559.901 235.972C559.537 236.284 559.069 236.544 558.497 236.752C557.943 236.96 557.249 237.064 556.417 237.064C555.343 237.064 554.355 236.804 553.453 236.284C552.552 235.764 551.833 235.018 551.295 234.048C550.758 233.06 550.489 231.872 550.489 230.486V230.096C550.489 228.709 550.758 227.53 551.295 226.56C551.85 225.572 552.578 224.818 553.479 224.298C554.381 223.778 555.36 223.518 556.417 223.518C557.665 223.518 558.619 223.743 559.277 224.194C559.953 224.644 560.456 225.156 560.785 225.728H561.201V223.882H563.827V241.9H561.149ZM557.171 234.724C558.35 234.724 559.312 234.351 560.057 233.606C560.803 232.86 561.175 231.794 561.175 230.408V230.174C561.175 228.804 560.794 227.747 560.031 227.002C559.286 226.256 558.333 225.884 557.171 225.884C556.027 225.884 555.074 226.256 554.311 227.002C553.566 227.747 553.193 228.804 553.193 230.174V230.408C553.193 231.794 553.566 232.86 554.311 233.606C555.074 234.351 556.027 234.724 557.171 234.724ZM572.684 236.934C571.713 236.934 570.846 236.717 570.084 236.284C569.321 235.85 568.723 235.235 568.29 234.438C567.856 233.64 567.64 232.687 567.64 231.578V223.882H570.318V231.396C570.318 232.505 570.595 233.328 571.15 233.866C571.704 234.386 572.476 234.646 573.464 234.646C574.556 234.646 575.431 234.282 576.09 233.554C576.766 232.808 577.104 231.742 577.104 230.356V223.882H579.782V236.7H577.156V234.776H576.74C576.497 235.296 576.064 235.79 575.44 236.258C574.816 236.708 573.897 236.934 572.684 236.934ZM583.74 236.7V223.882H586.418V236.7H583.74ZM585.092 222.14C584.572 222.14 584.13 221.975 583.766 221.646C583.42 221.299 583.246 220.857 583.246 220.32C583.246 219.782 583.42 219.349 583.766 219.02C584.13 218.673 584.572 218.5 585.092 218.5C585.63 218.5 586.072 218.673 586.418 219.02C586.765 219.349 586.938 219.782 586.938 220.32C586.938 220.857 586.765 221.299 586.418 221.646C586.072 221.975 585.63 222.14 585.092 222.14ZM595.697 237.064C594.639 237.064 593.66 236.804 592.759 236.284C591.857 235.764 591.129 235.018 590.575 234.048C590.037 233.06 589.769 231.872 589.769 230.486V230.096C589.769 228.726 590.037 227.548 590.575 226.56C591.112 225.572 591.831 224.818 592.733 224.298C593.634 223.778 594.622 223.518 595.697 223.518C596.529 223.518 597.222 223.622 597.777 223.83C598.349 224.038 598.817 224.306 599.181 224.636C599.545 224.948 599.822 225.277 600.013 225.624H600.429V218.5H603.107V236.7H600.481V234.88H600.065C599.735 235.434 599.233 235.937 598.557 236.388C597.898 236.838 596.945 237.064 595.697 237.064ZM596.451 234.724C597.612 234.724 598.565 234.351 599.311 233.606C600.073 232.86 600.455 231.794 600.455 230.408V230.174C600.455 228.804 600.082 227.747 599.337 227.002C598.591 226.256 597.629 225.884 596.451 225.884C595.307 225.884 594.353 226.256 593.591 227.002C592.845 227.747 592.473 228.804 592.473 230.174V230.408C592.473 231.794 592.845 232.86 593.591 233.606C594.353 234.351 595.307 234.724 596.451 234.724ZM607.049 236.7V223.882H609.727V236.7H607.049ZM608.401 222.14C607.881 222.14 607.439 221.975 607.075 221.646C606.728 221.299 606.555 220.857 606.555 220.32C606.555 219.782 606.728 219.349 607.075 219.02C607.439 218.673 607.881 218.5 608.401 218.5C608.938 218.5 609.38 218.673 609.727 219.02C610.074 219.349 610.247 219.782 610.247 220.32C610.247 220.857 610.074 221.299 609.727 221.646C609.38 221.975 608.938 222.14 608.401 222.14ZM618.511 236.7C617.731 236.7 617.107 236.466 616.639 235.998C616.189 235.53 615.963 234.906 615.963 234.126V226.144H612.427V223.882H615.963V219.644H618.641V223.882H622.463V226.144H618.641V233.658C618.641 234.178 618.884 234.438 619.369 234.438H622.047V236.7H618.511ZM627.091 241.9V239.56H634.241C634.727 239.56 634.969 239.3 634.969 238.78V234.828H634.553C634.397 235.174 634.155 235.512 633.825 235.842C633.513 236.154 633.089 236.414 632.551 236.622C632.014 236.83 631.338 236.934 630.523 236.934C629.553 236.934 628.686 236.717 627.923 236.284C627.161 235.85 626.563 235.235 626.129 234.438C625.696 233.64 625.479 232.696 625.479 231.604V223.882H628.157V231.396C628.157 232.505 628.435 233.328 628.989 233.866C629.544 234.386 630.315 234.646 631.303 234.646C632.395 234.646 633.271 234.282 633.929 233.554C634.605 232.826 634.943 231.768 634.943 230.382V223.882H637.621V239.326C637.621 240.106 637.387 240.73 636.919 241.198C636.469 241.666 635.845 241.9 635.047 241.9H627.091Z" fill="#E6E6E6"/>
<rect width="642.2" height="522.6" transform="translate(393.95 272.7)" fill="#181818"/>
<rect width="321.1" height="55.2" transform="translate(393.95 272.7)" fill="#0B0B0B"/>
<path fill-rule="evenodd" clip-rule="evenodd" d="M513.933 298.207V292.5H515.666V298.207L517.654 296.22L518.879 297.446L514.8 301.525L510.72 297.446L511.946 296.22L513.933 298.207ZM507.866 301.166C507.388 301.166 507 301.554 507 302.033V305.5C507 305.978 507.388 306.366 507.866 306.366H521.733C522.212 306.366 522.6 305.978 522.6 305.5V302.033C522.6 301.554 522.212 301.166 521.733 301.166H520.023V299.433H521.733C523.169 299.433 524.333 300.597 524.333 302.033V305.5C524.333 306.936 523.169 308.1 521.733 308.1H507.866C506.431 308.1 505.266 306.936 505.266 305.5V302.033C505.266 300.597 506.431 299.433 507.866 299.433H509.577V301.166H507.866ZM519.133 302.9V304.633L510.466 304.633V302.9L519.133 302.9Z" fill="#8F8F8F"/>
<path d="M536.455 306.3V304.553H538.166V295.307H536.455V293.56H541.551C543.25 293.56 544.548 293.991 545.446 294.852C546.356 295.713 546.811 297.012 546.811 298.747V301.131C546.811 302.866 546.356 304.164 545.446 305.026C544.548 305.875 543.25 306.3 541.551 306.3H536.455ZM540.15 304.516H541.57C542.674 304.516 543.493 304.237 544.027 303.679C544.56 303.121 544.827 302.29 544.827 301.186V298.674C544.827 297.558 544.56 296.727 544.027 296.181C543.493 295.635 542.674 295.362 541.57 295.362H540.15V304.516ZM553.2 306.555C552.29 306.555 551.495 306.367 550.816 305.99C550.136 305.602 549.603 305.062 549.214 304.371C548.838 303.667 548.65 302.854 548.65 301.932V301.713C548.65 300.779 548.838 299.966 549.214 299.275C549.59 298.571 550.112 298.031 550.779 297.655C551.459 297.267 552.242 297.072 553.127 297.072C553.989 297.072 554.741 297.267 555.384 297.655C556.039 298.031 556.549 298.559 556.913 299.238C557.277 299.918 557.459 300.712 557.459 301.622V302.332H550.561C550.585 303.121 550.846 303.752 551.344 304.225C551.853 304.686 552.484 304.917 553.236 304.917C553.94 304.917 554.468 304.759 554.82 304.443C555.184 304.128 555.463 303.764 555.657 303.351L557.204 304.152C557.034 304.492 556.785 304.85 556.458 305.226C556.142 305.602 555.724 305.918 555.202 306.172C554.68 306.427 554.013 306.555 553.2 306.555ZM550.579 300.894H555.548C555.499 300.215 555.257 299.687 554.82 299.311C554.383 298.923 553.813 298.729 553.109 298.729C552.405 298.729 551.829 298.923 551.38 299.311C550.943 299.687 550.676 300.215 550.579 300.894ZM559.715 309.94V297.327H561.554V298.619H561.845C562.075 298.219 562.421 297.861 562.882 297.546C563.355 297.23 564.029 297.072 564.902 297.072C565.655 297.072 566.34 297.254 566.959 297.618C567.59 297.982 568.093 298.51 568.47 299.202C568.858 299.881 569.052 300.706 569.052 301.677V301.95C569.052 302.921 568.864 303.752 568.488 304.443C568.112 305.123 567.608 305.645 566.977 306.009C566.346 306.373 565.655 306.555 564.902 306.555C564.32 306.555 563.829 306.482 563.428 306.336C563.028 306.191 562.706 306.009 562.464 305.79C562.221 305.56 562.027 305.323 561.881 305.08H561.59V309.94H559.715ZM564.356 304.917C565.181 304.917 565.855 304.656 566.377 304.134C566.898 303.612 567.159 302.866 567.159 301.895V301.732C567.159 300.773 566.892 300.033 566.358 299.511C565.837 298.989 565.169 298.729 564.356 298.729C563.556 298.729 562.888 298.989 562.354 299.511C561.833 300.033 561.572 300.773 561.572 301.732V301.895C561.572 302.866 561.833 303.612 562.354 304.134C562.888 304.656 563.556 304.917 564.356 304.917ZM575.579 306.555C574.681 306.555 573.88 306.373 573.177 306.009C572.485 305.632 571.939 305.099 571.539 304.407C571.138 303.715 570.938 302.896 570.938 301.95V301.677C570.938 300.731 571.138 299.918 571.539 299.238C571.939 298.547 572.485 298.013 573.177 297.637C573.88 297.26 574.681 297.072 575.579 297.072C576.477 297.072 577.278 297.26 577.981 297.637C578.685 298.013 579.237 298.547 579.638 299.238C580.038 299.918 580.238 300.731 580.238 301.677V301.95C580.238 302.896 580.038 303.715 579.638 304.407C579.237 305.099 578.685 305.632 577.981 306.009C577.278 306.373 576.477 306.555 575.579 306.555ZM575.579 304.88C576.404 304.88 577.071 304.619 577.581 304.098C578.103 303.564 578.364 302.83 578.364 301.895V301.732C578.364 300.797 578.109 300.069 577.599 299.548C577.09 299.014 576.416 298.747 575.579 298.747C574.766 298.747 574.099 299.014 573.577 299.548C573.067 300.069 572.813 300.797 572.813 301.732V301.895C572.813 302.83 573.067 303.564 573.577 304.098C574.099 304.619 574.766 304.88 575.579 304.88ZM586.248 306.555C585.108 306.555 584.162 306.3 583.409 305.79C582.657 305.281 582.196 304.51 582.026 303.479L583.773 303.06C583.87 303.558 584.034 303.952 584.265 304.243C584.495 304.534 584.78 304.741 585.12 304.862C585.472 304.983 585.848 305.044 586.248 305.044C586.843 305.044 587.298 304.929 587.613 304.698C587.941 304.468 588.105 304.17 588.105 303.806C588.105 303.442 587.953 303.175 587.65 303.006C587.347 302.836 586.898 302.696 586.303 302.587L585.684 302.478C585.078 302.369 584.526 302.211 584.028 302.005C583.531 301.798 583.136 301.513 582.845 301.149C582.554 300.785 582.408 300.318 582.408 299.748C582.408 298.898 582.724 298.243 583.355 297.782C583.986 297.309 584.823 297.072 585.866 297.072C586.873 297.072 587.698 297.303 588.341 297.764C588.997 298.213 589.421 298.826 589.615 299.602L587.868 300.094C587.759 299.548 587.529 299.165 587.177 298.947C586.825 298.716 586.388 298.601 585.866 298.601C585.357 298.601 584.956 298.698 584.665 298.892C584.374 299.074 584.228 299.335 584.228 299.675C584.228 300.039 584.368 300.306 584.647 300.476C584.938 300.646 585.326 300.773 585.812 300.858L586.449 300.967C587.092 301.076 587.68 301.228 588.214 301.422C588.748 301.616 589.167 301.895 589.47 302.259C589.785 302.623 589.943 303.109 589.943 303.715C589.943 304.613 589.609 305.311 588.942 305.808C588.275 306.306 587.377 306.555 586.248 306.555ZM592.134 306.3V297.327H594.009V306.3H592.134ZM593.081 296.108C592.717 296.108 592.407 295.993 592.152 295.762C591.91 295.519 591.788 295.21 591.788 294.834C591.788 294.458 591.91 294.154 592.152 293.924C592.407 293.681 592.717 293.56 593.081 293.56C593.457 293.56 593.766 293.681 594.009 293.924C594.251 294.154 594.373 294.458 594.373 294.834C594.373 295.21 594.251 295.519 594.009 295.762C593.766 295.993 593.457 296.108 593.081 296.108ZM600.158 306.3C599.612 306.3 599.175 306.136 598.847 305.808C598.532 305.481 598.374 305.044 598.374 304.498V298.911H595.899V297.327H598.374V294.361H600.249V297.327H602.924V298.911H600.249V304.17C600.249 304.534 600.419 304.716 600.758 304.716H602.633V306.3H600.158Z" fill="#8F8F8F"/>
<rect width="321.1" height="55.2" transform="translate(715.05 272.7)" fill="#181818"/>
<path fill-rule="evenodd" clip-rule="evenodd" d="M828.4 292.141L832.479 296.22L831.254 297.446L829.267 295.459V301.167H827.533V295.459L825.546 297.446L824.32 296.22L828.4 292.141ZM821.467 301.167C820.988 301.167 820.6 301.555 820.6 302.033V305.5C820.6 305.978 820.988 306.367 821.467 306.367H835.333C835.812 306.367 836.2 305.978 836.2 305.5V302.033C836.2 301.555 835.812 301.167 835.333 301.167H832.733V299.433H835.333C836.769 299.433 837.933 300.597 837.933 302.033V305.5C837.933 306.936 836.769 308.1 835.333 308.1H821.467C820.031 308.1 818.867 306.936 818.867 305.5V302.033C818.867 300.597 820.031 299.433 821.467 299.433H824.067V301.167H821.467ZM832.733 302.9V304.633L824.067 304.633V302.9L832.733 302.9Z" fill="#E6E6E6"/>
<path d="M851.675 306.3L849.801 293.56H851.766L853.295 304.971H853.586L855.552 293.56H858.992L860.957 304.971H861.248L862.759 293.56H864.725L862.85 306.3H859.41L857.408 294.725H857.117L855.133 306.3H851.675ZM866.722 306.3V297.327H868.596V306.3H866.722ZM867.668 296.108C867.304 296.108 866.995 295.993 866.74 295.762C866.497 295.519 866.376 295.21 866.376 294.834C866.376 294.458 866.497 294.154 866.74 293.924C866.995 293.681 867.304 293.56 867.668 293.56C868.044 293.56 868.353 293.681 868.596 293.924C868.839 294.154 868.96 294.458 868.96 294.834C868.96 295.21 868.839 295.519 868.596 295.762C868.353 295.993 868.044 296.108 867.668 296.108ZM874.745 306.3C874.199 306.3 873.762 306.136 873.435 305.808C873.119 305.481 872.962 305.044 872.962 304.498V298.911H870.486V297.327H872.962V294.361H874.836V297.327H877.512V298.911H874.836V304.17C874.836 304.534 875.006 304.716 875.346 304.716H877.22V306.3H874.745ZM879.714 306.3V293.56H881.589V298.601H881.88C882.001 298.371 882.171 298.146 882.389 297.928C882.62 297.709 882.917 297.533 883.281 297.4C883.657 297.254 884.13 297.182 884.701 297.182C885.38 297.182 885.981 297.333 886.503 297.637C887.036 297.94 887.455 298.371 887.758 298.929C888.062 299.475 888.213 300.136 888.213 300.913V306.3H886.339V301.058C886.339 300.282 886.145 299.711 885.756 299.347C885.368 298.971 884.834 298.783 884.155 298.783C883.378 298.783 882.753 299.038 882.28 299.548C881.819 300.057 881.589 300.797 881.589 301.768V306.3H879.714ZM894.624 306.555C893.884 306.555 893.198 306.373 892.567 306.009C891.936 305.645 891.427 305.123 891.039 304.443C890.662 303.752 890.474 302.921 890.474 301.95V301.677C890.474 300.718 890.662 299.893 891.039 299.202C891.415 298.51 891.918 297.982 892.549 297.618C893.18 297.254 893.872 297.072 894.624 297.072C895.206 297.072 895.692 297.145 896.08 297.291C896.48 297.436 896.808 297.624 897.063 297.855C897.318 298.073 897.512 298.304 897.645 298.547H897.936V293.56H899.811V306.3H897.973V305.026H897.682C897.451 305.414 897.099 305.766 896.626 306.081C896.165 306.397 895.498 306.555 894.624 306.555ZM895.152 304.917C895.965 304.917 896.632 304.656 897.154 304.134C897.688 303.612 897.955 302.866 897.955 301.895V301.732C897.955 300.773 897.694 300.033 897.172 299.511C896.65 298.989 895.977 298.729 895.152 298.729C894.351 298.729 893.684 298.989 893.15 299.511C892.628 300.033 892.367 300.773 892.367 301.732V301.895C892.367 302.866 892.628 303.612 893.15 304.134C893.684 304.656 894.351 304.917 895.152 304.917ZM902.571 306.3V297.327H904.409V298.383H904.7C904.846 298.007 905.076 297.734 905.392 297.564C905.719 297.382 906.12 297.291 906.593 297.291H907.667V298.983H906.52C905.913 298.983 905.416 299.153 905.028 299.493C904.639 299.821 904.445 300.33 904.445 301.022V306.3H902.571ZM912.145 306.555C911.502 306.555 910.925 306.445 910.416 306.227C909.918 306.009 909.518 305.687 909.214 305.262C908.923 304.838 908.778 304.322 908.778 303.715C908.778 303.097 908.923 302.587 909.214 302.187C909.518 301.774 909.924 301.465 910.434 301.258C910.956 301.052 911.544 300.949 912.199 300.949H914.929V300.367C914.929 299.845 914.772 299.426 914.456 299.111C914.141 298.795 913.655 298.638 913 298.638C912.357 298.638 911.866 298.789 911.526 299.093C911.186 299.396 910.962 299.79 910.852 300.276L909.105 299.711C909.251 299.226 909.481 298.789 909.797 298.401C910.124 298.001 910.555 297.679 911.089 297.436C911.623 297.194 912.266 297.072 913.018 297.072C914.183 297.072 915.099 297.37 915.766 297.964C916.434 298.559 916.767 299.402 916.767 300.494V304.189C916.767 304.553 916.937 304.735 917.277 304.735H918.041V306.3H916.64C916.215 306.3 915.87 306.191 915.603 305.972C915.336 305.754 915.202 305.457 915.202 305.08V305.026H914.929C914.832 305.208 914.687 305.42 914.492 305.663C914.298 305.905 914.013 306.118 913.637 306.3C913.261 306.47 912.763 306.555 912.145 306.555ZM912.418 305.008C913.17 305.008 913.777 304.795 914.238 304.371C914.699 303.934 914.929 303.339 914.929 302.587V302.405H912.308C911.811 302.405 911.411 302.514 911.107 302.733C910.804 302.939 910.652 303.248 910.652 303.661C910.652 304.073 910.81 304.401 911.125 304.644C911.441 304.886 911.872 305.008 912.418 305.008ZM920.74 306.3L919.211 297.327H921.086L922.214 305.044H922.506L924.071 297.327H927.11L928.657 305.044H928.948L930.077 297.327H931.951L930.423 306.3H927.274L925.727 298.601H925.436L923.889 306.3H920.74Z" fill="#E6E6E6"/>
<rect width="642.2" height="469.2" transform="translate(393.95 327.9)" fill="#181818"/>
<path d="M415.132 366.7L418.772 353.96H422.23L425.852 366.7H423.832L422.995 363.697H418.008L417.171 366.7H415.132ZM418.499 361.877H422.503L420.647 355.179H420.356L418.499 361.877ZM429.441 366.7L426.42 357.727H428.403L430.788 365.317H431.079L433.463 357.727H435.447L432.426 366.7H429.441ZM439.802 366.955C439.159 366.955 438.582 366.845 438.073 366.627C437.575 366.409 437.175 366.087 436.871 365.662C436.58 365.238 436.435 364.722 436.435 364.115C436.435 363.497 436.58 362.987 436.871 362.587C437.175 362.174 437.581 361.865 438.091 361.658C438.613 361.452 439.201 361.349 439.856 361.349H442.586V360.767C442.586 360.245 442.428 359.826 442.113 359.511C441.798 359.195 441.312 359.038 440.657 359.038C440.014 359.038 439.523 359.189 439.183 359.493C438.843 359.796 438.619 360.19 438.509 360.676L436.762 360.111C436.908 359.626 437.138 359.189 437.454 358.801C437.781 358.401 438.212 358.079 438.746 357.836C439.28 357.594 439.923 357.472 440.675 357.472C441.84 357.472 442.756 357.77 443.423 358.364C444.091 358.959 444.424 359.802 444.424 360.894V364.589C444.424 364.953 444.594 365.135 444.934 365.135H445.698V366.7H444.297C443.872 366.7 443.527 366.591 443.26 366.372C442.993 366.154 442.859 365.857 442.859 365.48V365.426H442.586C442.489 365.608 442.344 365.82 442.149 366.063C441.955 366.305 441.67 366.518 441.294 366.7C440.918 366.87 440.42 366.955 439.802 366.955ZM440.075 365.408C440.827 365.408 441.434 365.195 441.895 364.771C442.356 364.334 442.586 363.739 442.586 362.987V362.805H439.965C439.468 362.805 439.068 362.914 438.764 363.133C438.461 363.339 438.309 363.648 438.309 364.061C438.309 364.473 438.467 364.801 438.782 365.044C439.098 365.286 439.529 365.408 440.075 365.408ZM447.521 366.7V357.727H449.396V366.7H447.521ZM448.467 356.508C448.103 356.508 447.794 356.393 447.539 356.162C447.297 355.919 447.175 355.61 447.175 355.234C447.175 354.858 447.297 354.554 447.539 354.324C447.794 354.081 448.103 353.96 448.467 353.96C448.844 353.96 449.153 354.081 449.396 354.324C449.638 354.554 449.76 354.858 449.76 355.234C449.76 355.61 449.638 355.919 449.396 356.162C449.153 356.393 448.844 356.508 448.467 356.508ZM452.178 366.7V353.96H454.052V366.7H452.178ZM459.619 366.955C458.976 366.955 458.4 366.845 457.89 366.627C457.393 366.409 456.992 366.087 456.689 365.662C456.398 365.238 456.252 364.722 456.252 364.115C456.252 363.497 456.398 362.987 456.689 362.587C456.992 362.174 457.399 361.865 457.908 361.658C458.43 361.452 459.018 361.349 459.674 361.349H462.404V360.767C462.404 360.245 462.246 359.826 461.93 359.511C461.615 359.195 461.13 359.038 460.474 359.038C459.831 359.038 459.34 359.189 459 359.493C458.66 359.796 458.436 360.19 458.327 360.676L456.58 360.111C456.725 359.626 456.956 359.189 457.271 358.801C457.599 358.401 458.03 358.079 458.563 357.836C459.097 357.594 459.74 357.472 460.493 357.472C461.657 357.472 462.573 357.77 463.241 358.364C463.908 358.959 464.242 359.802 464.242 360.894V364.589C464.242 364.953 464.412 365.135 464.751 365.135H465.516V366.7H464.114C463.69 366.7 463.344 366.591 463.077 366.372C462.81 366.154 462.677 365.857 462.677 365.48V365.426H462.404C462.307 365.608 462.161 365.82 461.967 366.063C461.773 366.305 461.488 366.518 461.111 366.7C460.735 366.87 460.238 366.955 459.619 366.955ZM459.892 365.408C460.644 365.408 461.251 365.195 461.712 364.771C462.173 364.334 462.404 363.739 462.404 362.987V362.805H459.783C459.285 362.805 458.885 362.914 458.582 363.133C458.278 363.339 458.127 363.648 458.127 364.061C458.127 364.473 458.284 364.801 458.6 365.044C458.915 365.286 459.346 365.408 459.892 365.408ZM472.525 366.955C471.652 366.955 470.978 366.797 470.505 366.481C470.044 366.166 469.698 365.814 469.468 365.426H469.177V366.7H467.338V353.96H469.213V358.947H469.504C469.65 358.704 469.844 358.473 470.087 358.255C470.329 358.024 470.651 357.836 471.051 357.691C471.452 357.545 471.943 357.472 472.525 357.472C473.278 357.472 473.969 357.654 474.6 358.018C475.231 358.382 475.735 358.91 476.111 359.602C476.487 360.293 476.675 361.118 476.675 362.077V362.35C476.675 363.321 476.481 364.152 476.093 364.843C475.717 365.523 475.213 366.045 474.582 366.409C473.963 366.773 473.278 366.955 472.525 366.955ZM471.979 365.317C472.792 365.317 473.46 365.056 473.981 364.534C474.515 364.012 474.782 363.266 474.782 362.295V362.132C474.782 361.173 474.521 360.433 474 359.911C473.478 359.389 472.805 359.129 471.979 359.129C471.179 359.129 470.511 359.389 469.977 359.911C469.456 360.433 469.195 361.173 469.195 362.132V362.295C469.195 363.266 469.456 364.012 469.977 364.534C470.511 365.056 471.179 365.317 471.979 365.317ZM478.998 366.7V353.96H480.872V366.7H478.998ZM487.768 366.955C486.858 366.955 486.063 366.767 485.383 366.39C484.704 366.002 484.17 365.462 483.782 364.771C483.406 364.067 483.218 363.254 483.218 362.332V362.113C483.218 361.179 483.406 360.366 483.782 359.675C484.158 358.971 484.68 358.431 485.347 358.055C486.027 357.667 486.809 357.472 487.695 357.472C488.556 357.472 489.309 357.667 489.952 358.055C490.607 358.431 491.116 358.959 491.48 359.638C491.844 360.318 492.026 361.112 492.026 362.022V362.732H485.129C485.153 363.521 485.414 364.152 485.911 364.625C486.421 365.086 487.052 365.317 487.804 365.317C488.508 365.317 489.036 365.159 489.387 364.843C489.751 364.528 490.031 364.164 490.225 363.751L491.772 364.552C491.602 364.892 491.353 365.25 491.025 365.626C490.71 366.002 490.291 366.318 489.77 366.572C489.248 366.827 488.581 366.955 487.768 366.955ZM485.147 361.294H490.115C490.067 360.615 489.824 360.087 489.387 359.711C488.951 359.323 488.38 359.129 487.677 359.129C486.973 359.129 486.397 359.323 485.948 359.711C485.511 360.087 485.244 360.615 485.147 361.294ZM502.289 366.7C501.743 366.7 501.306 366.536 500.978 366.208C500.663 365.881 500.505 365.444 500.505 364.898V359.311H498.03V357.727H500.505V354.761H502.38V357.727H505.055V359.311H502.38V364.57C502.38 364.934 502.55 365.116 502.889 365.116H504.764V366.7H502.289ZM511.142 366.955C510.244 366.955 509.443 366.773 508.739 366.409C508.048 366.032 507.502 365.499 507.101 364.807C506.701 364.115 506.501 363.296 506.501 362.35V362.077C506.501 361.131 506.701 360.318 507.101 359.638C507.502 358.947 508.048 358.413 508.739 358.037C509.443 357.66 510.244 357.472 511.142 357.472C512.04 357.472 512.841 357.66 513.544 358.037C514.248 358.413 514.8 358.947 515.2 359.638C515.601 360.318 515.801 361.131 515.801 362.077V362.35C515.801 363.296 515.601 364.115 515.2 364.807C514.8 365.499 514.248 366.032 513.544 366.409C512.841 366.773 512.04 366.955 511.142 366.955ZM511.142 365.28C511.967 365.28 512.634 365.019 513.144 364.498C513.666 363.964 513.926 363.23 513.926 362.295V362.132C513.926 361.197 513.672 360.469 513.162 359.948C512.652 359.414 511.979 359.147 511.142 359.147C510.329 359.147 509.662 359.414 509.14 359.948C508.63 360.469 508.375 361.197 508.375 362.132V362.295C508.375 363.23 508.63 363.964 509.14 364.498C509.662 365.019 510.329 365.28 511.142 365.28ZM523.757 366.7L522.228 357.727H524.102L525.231 365.444H525.522L527.087 357.727H530.127L531.674 365.444H531.965L533.093 357.727H534.968L533.439 366.7H530.29L528.743 359.001H528.452L526.905 366.7H523.757ZM537.188 366.7V357.727H539.063V366.7H537.188ZM538.134 356.508C537.77 356.508 537.461 356.393 537.206 356.162C536.964 355.919 536.842 355.61 536.842 355.234C536.842 354.858 536.964 354.554 537.206 354.324C537.461 354.081 537.77 353.96 538.134 353.96C538.511 353.96 538.82 354.081 539.063 354.324C539.305 354.554 539.427 354.858 539.427 355.234C539.427 355.61 539.305 355.919 539.063 356.162C538.82 356.393 538.511 356.508 538.134 356.508ZM545.212 366.7C544.666 366.7 544.229 366.536 543.901 366.208C543.586 365.881 543.428 365.444 543.428 364.898V359.311H540.953V357.727H543.428V354.761H545.303V357.727H547.978V359.311H545.303V364.57C545.303 364.934 545.473 365.116 545.812 365.116H547.687V366.7H545.212ZM550.18 366.7V353.96H552.055V359.001H552.346C552.468 358.771 552.637 358.546 552.856 358.328C553.086 358.109 553.384 357.933 553.748 357.8C554.124 357.654 554.597 357.582 555.167 357.582C555.847 357.582 556.447 357.733 556.969 358.037C557.503 358.34 557.922 358.771 558.225 359.329C558.528 359.875 558.68 360.536 558.68 361.313V366.7H556.805V361.458C556.805 360.682 556.611 360.111 556.223 359.747C555.835 359.371 555.301 359.183 554.621 359.183C553.845 359.183 553.22 359.438 552.747 359.948C552.286 360.457 552.055 361.197 552.055 362.168V366.7H550.18ZM565.091 366.955C564.35 366.955 563.665 366.773 563.034 366.409C562.403 366.045 561.893 365.523 561.505 364.843C561.129 364.152 560.941 363.321 560.941 362.35V362.077C560.941 361.118 561.129 360.293 561.505 359.602C561.881 358.91 562.385 358.382 563.016 358.018C563.647 357.654 564.338 357.472 565.091 357.472C565.673 357.472 566.158 357.545 566.547 357.691C566.947 357.836 567.275 358.024 567.529 358.255C567.784 358.473 567.978 358.704 568.112 358.947H568.403V353.96H570.278V366.7H568.439V365.426H568.148C567.918 365.814 567.566 366.166 567.093 366.481C566.631 366.797 565.964 366.955 565.091 366.955ZM565.618 365.317C566.431 365.317 567.099 365.056 567.62 364.534C568.154 364.012 568.421 363.266 568.421 362.295V362.132C568.421 361.173 568.16 360.433 567.639 359.911C567.117 359.389 566.443 359.129 565.618 359.129C564.818 359.129 564.15 359.389 563.616 359.911C563.095 360.433 562.834 361.173 562.834 362.132V362.295C562.834 363.266 563.095 364.012 563.616 364.534C564.15 365.056 564.818 365.317 565.618 365.317ZM573.037 366.7V357.727H574.875V358.783H575.167C575.312 358.407 575.543 358.134 575.858 357.964C576.186 357.782 576.586 357.691 577.059 357.691H578.133V359.383H576.987C576.38 359.383 575.882 359.553 575.494 359.893C575.106 360.221 574.912 360.73 574.912 361.422V366.7H573.037ZM582.611 366.955C581.968 366.955 581.392 366.845 580.882 366.627C580.385 366.409 579.984 366.087 579.681 365.662C579.39 365.238 579.244 364.722 579.244 364.115C579.244 363.497 579.39 362.987 579.681 362.587C579.984 362.174 580.391 361.865 580.9 361.658C581.422 361.452 582.011 361.349 582.666 361.349H585.396V360.767C585.396 360.245 585.238 359.826 584.923 359.511C584.607 359.195 584.122 359.038 583.467 359.038C582.823 359.038 582.332 359.189 581.992 359.493C581.653 359.796 581.428 360.19 581.319 360.676L579.572 360.111C579.717 359.626 579.948 359.189 580.263 358.801C580.591 358.401 581.022 358.079 581.556 357.836C582.089 357.594 582.732 357.472 583.485 357.472C584.65 357.472 585.566 357.77 586.233 358.364C586.9 358.959 587.234 359.802 587.234 360.894V364.589C587.234 364.953 587.404 365.135 587.744 365.135H588.508V366.7H587.107C586.682 366.7 586.336 366.591 586.069 366.372C585.802 366.154 585.669 365.857 585.669 365.48V365.426H585.396C585.299 365.608 585.153 365.82 584.959 366.063C584.765 366.305 584.48 366.518 584.104 366.7C583.727 366.87 583.23 366.955 582.611 366.955ZM582.884 365.408C583.636 365.408 584.243 365.195 584.704 364.771C585.165 364.334 585.396 363.739 585.396 362.987V362.805H582.775C582.277 362.805 581.877 362.914 581.574 363.133C581.27 363.339 581.119 363.648 581.119 364.061C581.119 364.473 581.276 364.801 581.592 365.044C581.907 365.286 582.338 365.408 582.884 365.408ZM591.207 366.7L589.678 357.727H591.553L592.681 365.444H592.972L594.537 357.727H597.577L599.124 365.444H599.415L600.543 357.727H602.418L600.889 366.7H597.741L596.194 359.001H595.902L594.355 366.7H591.207Z" fill="#BBBBBB"/>
<rect x="415.4" y="383.75" width="599.3" height="50.7" fill="#292929"/>
<rect x="415.4" y="383.75" width="599.3" height="50.7" stroke="#BBBBBB" stroke-width="1.3"/>
<g clip-path="url(#clip1_31_10101)">
<mask id="mask0_31_10101" style="mask-type:luminance" maskUnits="userSpaceOnUse" x="430" y="393" width="32" height="32">
<path d="M461.41 393.5H430.479V424.7H461.41V393.5Z" fill="white"/>
</mask>
<g mask="url(#mask0_31_10101)">
<path d="M445.886 424.586C454.397 424.586 461.297 417.627 461.297 409.042C461.297 400.457 454.397 393.497 445.886 393.497C437.375 393.497 430.476 400.457 430.476 409.042C430.476 417.627 437.375 424.586 445.886 424.586Z" fill="url(#paint0_linear_31_10101)"/>
<path d="M454.293 406.901L445.876 398.231L437.458 406.901L441.666 411.236L445.876 406.901L450.084 411.236L454.293 406.901Z" fill="white"/>
<path d="M445.536 419.068C445.118 419.068 444.758 418.991 444.456 418.839C444.159 418.682 443.931 418.461 443.77 418.177C443.615 417.887 443.537 417.546 443.537 417.154V413.812H444.5V417.183C444.5 417.497 444.588 417.745 444.763 417.927C444.943 418.108 445.201 418.199 445.536 418.199C445.872 418.199 446.127 418.108 446.303 417.927C446.483 417.745 446.573 417.497 446.573 417.183V413.812H447.536V417.154C447.536 417.546 447.456 417.887 447.295 418.177C447.139 418.461 446.911 418.682 446.609 418.839C446.312 418.991 445.955 419.068 445.536 419.068Z" fill="#1F2333"/>
<path d="M449.738 418.964V413.812H451.957C452.278 413.812 452.558 413.868 452.796 413.981C453.035 414.094 453.22 414.253 453.351 414.459C453.482 414.665 453.548 414.908 453.548 415.188V415.276C453.548 415.586 453.475 415.836 453.329 416.027C453.183 416.219 453.003 416.359 452.789 416.447V416.579C452.984 416.589 453.134 416.658 453.241 416.786C453.348 416.908 453.402 417.073 453.402 417.279V418.964H452.439V417.419C452.439 417.301 452.407 417.205 452.344 417.132C452.285 417.058 452.186 417.021 452.045 417.021H450.702V418.964H449.738ZM450.702 416.138H451.855C452.083 416.138 452.261 416.076 452.388 415.954C452.519 415.826 452.585 415.659 452.585 415.453V415.38C452.585 415.173 452.521 415.009 452.395 414.886C452.268 414.759 452.088 414.695 451.855 414.695H450.702V416.138Z" fill="#1F2333"/>
<path fill-rule="evenodd" clip-rule="evenodd" d="M438.136 419.086V413.69H441.66V414.816H439.339V415.803H441.456V416.929H439.339V417.96H441.704V419.086H438.136ZM444.402 418.947L444.4 418.947C444.084 418.779 443.838 418.542 443.666 418.237L443.665 418.236L443.665 418.235C443.498 417.924 443.417 417.563 443.417 417.154V413.69H444.62V417.183C444.62 417.473 444.701 417.688 444.848 417.841C444.999 417.993 445.223 418.078 445.536 418.078C445.851 418.078 446.071 417.993 446.217 417.842L446.218 417.841C446.37 417.687 446.452 417.473 446.452 417.183V413.69H447.656V417.154C447.656 417.563 447.573 417.925 447.4 418.236C447.233 418.542 446.986 418.78 446.664 418.947L446.664 418.948C446.346 419.11 445.969 419.189 445.536 419.189C445.104 419.189 444.724 419.11 444.403 418.948L444.402 418.947ZM447.295 418.177C447.456 417.887 447.536 417.546 447.536 417.154V413.812H446.573V417.183C446.573 417.497 446.483 417.745 446.303 417.927C446.128 418.108 445.872 418.199 445.537 418.199C445.201 418.199 444.943 418.108 444.763 417.927C444.588 417.745 444.5 417.497 444.5 417.183V413.812H443.537V417.154C443.537 417.546 443.615 417.887 443.77 418.177C443.931 418.462 444.16 418.682 444.456 418.839C444.758 418.992 445.118 419.068 445.537 419.068C445.955 419.068 446.313 418.992 446.609 418.839C446.911 418.682 447.14 418.462 447.295 418.177ZM449.618 419.086V413.69H451.957C452.292 413.69 452.59 413.749 452.847 413.871C453.105 413.993 453.308 414.167 453.452 414.394C453.598 414.622 453.668 414.889 453.668 415.188V415.277C453.668 415.605 453.591 415.883 453.424 416.101C453.301 416.263 453.154 416.392 452.984 416.487C453.122 416.524 453.24 416.596 453.333 416.706C453.463 416.856 453.522 417.052 453.522 417.279V419.086H452.318V417.419C452.318 417.324 452.294 417.258 452.253 417.211L452.251 417.209L452.25 417.207C452.224 417.175 452.168 417.142 452.045 417.142H450.822V419.086H449.618ZM450.702 417.021H452.045C452.186 417.021 452.286 417.058 452.344 417.132C452.407 417.205 452.439 417.301 452.439 417.419V418.965H453.402V417.279C453.402 417.073 453.349 416.908 453.242 416.786C453.135 416.658 452.984 416.589 452.789 416.579V416.447C453.003 416.359 453.183 416.219 453.329 416.027C453.475 415.836 453.548 415.586 453.548 415.277V415.188C453.548 414.908 453.482 414.666 453.351 414.459C453.22 414.253 453.035 414.094 452.796 413.981C452.558 413.868 452.278 413.812 451.957 413.812H449.739V418.965H450.702V417.021ZM452.311 414.973L452.31 414.972C452.212 414.874 452.067 414.816 451.855 414.816H450.822V416.016H451.855C452.062 416.016 452.206 415.961 452.304 415.866C452.409 415.764 452.464 415.631 452.464 415.453V415.38C452.464 415.201 452.411 415.07 452.312 414.974L452.311 414.973ZM452.388 415.954C452.261 416.076 452.084 416.138 451.855 416.138H450.702V414.695H451.855C452.088 414.695 452.268 414.759 452.395 414.886C452.521 415.009 452.585 415.173 452.585 415.38V415.453C452.585 415.659 452.519 415.826 452.388 415.954Z" fill="#1F2333"/>
</g>
</g>
<path d="M476.118 415.355C475.475 415.355 474.898 415.245 474.389 415.027C473.891 414.809 473.491 414.487 473.188 414.062C472.896 413.638 472.751 413.122 472.751 412.515C472.751 411.897 472.896 411.387 473.188 410.987C473.491 410.574 473.897 410.265 474.407 410.058C474.929 409.852 475.517 409.749 476.172 409.749H478.902V409.167C478.902 408.645 478.745 408.226 478.429 407.911C478.114 407.595 477.628 407.438 476.973 407.438C476.33 407.438 475.839 407.589 475.499 407.893C475.159 408.196 474.935 408.59 474.826 409.076L473.078 408.511C473.224 408.026 473.454 407.589 473.77 407.201C474.098 406.801 474.528 406.479 475.062 406.236C475.596 405.994 476.239 405.872 476.991 405.872C478.156 405.872 479.072 406.17 479.74 406.764C480.407 407.359 480.741 408.202 480.741 409.294V412.989C480.741 413.353 480.91 413.535 481.25 413.535H482.015V415.1H480.613C480.188 415.1 479.843 414.991 479.576 414.772C479.309 414.554 479.175 414.257 479.175 413.88V413.826H478.902C478.805 414.008 478.66 414.22 478.466 414.463C478.271 414.706 477.986 414.918 477.61 415.1C477.234 415.27 476.737 415.355 476.118 415.355ZM476.391 413.808C477.143 413.808 477.75 413.595 478.211 413.171C478.672 412.734 478.902 412.139 478.902 411.387V411.205H476.282C475.784 411.205 475.384 411.314 475.08 411.533C474.777 411.739 474.625 412.048 474.625 412.461C474.625 412.873 474.783 413.201 475.099 413.444C475.414 413.686 475.845 413.808 476.391 413.808ZM483.187 410.659V410.386C483.187 409.44 483.375 408.633 483.751 407.965C484.14 407.298 484.649 406.782 485.28 406.418C485.911 406.054 486.603 405.872 487.355 405.872C488.229 405.872 488.896 406.036 489.357 406.364C489.83 406.691 490.176 407.043 490.394 407.419H490.686V406.127H492.506V416.938C492.506 417.484 492.342 417.921 492.014 418.248C491.699 418.576 491.262 418.74 490.704 418.74H484.661V417.102H490.121C490.473 417.102 490.649 416.92 490.649 416.556V413.698H490.358C490.225 413.917 490.036 414.141 489.794 414.372C489.551 414.602 489.23 414.79 488.829 414.936C488.441 415.082 487.95 415.154 487.355 415.154C486.603 415.154 485.905 414.979 485.262 414.627C484.631 414.263 484.128 413.747 483.751 413.08C483.375 412.4 483.187 411.593 483.187 410.659ZM487.865 413.516C488.678 413.516 489.345 413.262 489.867 412.752C490.4 412.23 490.667 411.514 490.667 410.604V410.441C490.667 409.506 490.407 408.791 489.885 408.293C489.363 407.783 488.69 407.529 487.865 407.529C487.064 407.529 486.396 407.783 485.863 408.293C485.341 408.791 485.08 409.506 485.08 410.441V410.604C485.08 411.514 485.341 412.23 485.863 412.752C486.396 413.262 487.064 413.516 487.865 413.516ZM495.211 415.1V402.36H503.237V404.143H497.177V407.802H502.728V409.585H497.177V413.316H503.328V415.1H495.211ZM510.146 415.355C509.139 415.355 508.271 415.173 507.543 414.809C506.827 414.445 506.269 413.923 505.869 413.243C505.481 412.552 505.286 411.715 505.286 410.732V402.36H507.27V410.786C507.27 411.684 507.519 412.376 508.016 412.861C508.514 413.347 509.224 413.589 510.146 413.589C511.068 413.589 511.778 413.347 512.275 412.861C512.773 412.376 513.021 411.684 513.021 410.786V402.36H514.987V410.732C514.987 411.715 514.793 412.552 514.405 413.243C514.016 413.923 513.458 414.445 512.73 414.809C512.002 415.173 511.141 415.355 510.146 415.355ZM517.552 415.1V402.36H522.903C523.692 402.36 524.383 402.499 524.978 402.778C525.584 403.045 526.052 403.434 526.379 403.943C526.719 404.453 526.889 405.06 526.889 405.763V405.963C526.889 406.764 526.695 407.407 526.306 407.893C525.93 408.366 525.469 408.7 524.923 408.894V409.185C525.384 409.209 525.754 409.367 526.033 409.658C526.312 409.937 526.452 410.344 526.452 410.877V415.1H524.468V411.15C524.468 410.823 524.383 410.562 524.213 410.368C524.044 410.174 523.771 410.077 523.394 410.077H519.518V415.1H517.552ZM519.518 408.293H522.685C523.388 408.293 523.934 408.117 524.323 407.765C524.711 407.401 524.905 406.91 524.905 406.291V406.145C524.905 405.527 524.711 405.041 524.323 404.689C523.946 404.325 523.4 404.143 522.685 404.143H519.518V408.293Z" fill="#E6E6E6"/>
<path d="M951.715 415.1V413.771C951.715 412.861 951.872 412.133 952.188 411.587C952.515 411.041 952.964 410.604 953.535 410.277C954.117 409.937 954.809 409.646 955.609 409.403L956.61 409.094C957.156 408.924 957.636 408.718 958.048 408.475C958.461 408.22 958.782 407.905 959.013 407.529C959.243 407.14 959.359 406.667 959.359 406.109V406.036C959.359 405.235 959.08 404.605 958.521 404.143C957.963 403.67 957.247 403.434 956.374 403.434C955.452 403.434 954.699 403.682 954.117 404.18C953.535 404.665 953.243 405.405 953.243 406.4V406.655H951.787V406.418C951.787 405.496 951.988 404.714 952.388 404.071C952.788 403.428 953.334 402.942 954.026 402.615C954.718 402.275 955.5 402.105 956.374 402.105C957.247 402.105 958.018 402.269 958.685 402.596C959.365 402.924 959.892 403.379 960.269 403.961C960.645 404.544 960.833 405.223 960.833 406V406.164C960.833 406.989 960.669 407.674 960.341 408.22C960.014 408.754 959.559 409.191 958.976 409.531C958.406 409.87 957.733 410.162 956.956 410.404L955.973 410.714C955.355 410.908 954.839 411.114 954.426 411.332C954.026 411.539 953.723 411.806 953.516 412.133C953.31 412.461 953.207 412.904 953.207 413.462V413.771H960.724V415.1H951.715ZM963.081 417.375V416.465H963.609C964.046 416.465 964.264 416.246 964.264 415.81V415.227H964.009C963.658 415.227 963.36 415.118 963.118 414.9C962.887 414.681 962.772 414.408 962.772 414.081C962.772 413.729 962.887 413.444 963.118 413.225C963.36 413.007 963.658 412.898 964.009 412.898C964.361 412.898 964.652 413.013 964.883 413.243C965.114 413.474 965.229 413.765 965.229 414.117V415.81C965.229 416.853 964.707 417.375 963.664 417.375H963.081ZM967.249 415.1V413.771C967.249 412.861 967.406 412.133 967.722 411.587C968.049 411.041 968.498 410.604 969.069 410.277C969.651 409.937 970.343 409.646 971.143 409.403L972.144 409.094C972.69 408.924 973.17 408.718 973.582 408.475C973.995 408.22 974.316 407.905 974.547 407.529C974.777 407.14 974.893 406.667 974.893 406.109V406.036C974.893 405.235 974.614 404.605 974.055 404.143C973.497 403.67 972.781 403.434 971.908 403.434C970.986 403.434 970.233 403.682 969.651 404.18C969.069 404.665 968.777 405.405 968.777 406.4V406.655H967.321V406.418C967.321 405.496 967.522 404.714 967.922 404.071C968.322 403.428 968.868 402.942 969.56 402.615C970.252 402.275 971.034 402.105 971.908 402.105C972.781 402.105 973.552 402.269 974.219 402.596C974.899 402.924 975.426 403.379 975.803 403.961C976.179 404.544 976.367 405.223 976.367 406V406.164C976.367 406.989 976.203 407.674 975.875 408.22C975.548 408.754 975.093 409.191 974.51 409.531C973.94 409.87 973.267 410.162 972.49 410.404L971.507 410.714C970.889 410.908 970.373 411.114 969.96 411.332C969.56 411.539 969.257 411.806 969.05 412.133C968.844 412.461 968.741 412.904 968.741 413.462V413.771H976.258V415.1H967.249ZM982.694 415.355C981.796 415.355 980.989 415.185 980.273 414.845C979.569 414.505 979.011 414.014 978.599 413.371C978.198 412.728 977.998 411.951 977.998 411.041V410.695H979.472V411.023C979.472 411.957 979.77 412.691 980.364 413.225C980.959 413.759 981.735 414.026 982.694 414.026C983.664 414.026 984.417 413.777 984.951 413.28C985.497 412.77 985.77 412.133 985.77 411.369V411.223C985.77 410.665 985.636 410.216 985.369 409.876C985.102 409.525 984.738 409.27 984.277 409.112C983.828 408.942 983.331 408.857 982.785 408.857H980.71V407.019L985.569 403.907V403.688H978.308V402.36H987.135V404.416L982.384 407.474V407.692H983.294C984.01 407.692 984.665 407.826 985.26 408.093C985.867 408.348 986.346 408.736 986.698 409.258C987.062 409.767 987.244 410.41 987.244 411.187V411.387C987.244 412.188 987.056 412.886 986.68 413.48C986.303 414.075 985.776 414.536 985.096 414.863C984.417 415.191 983.616 415.355 982.694 415.355ZM995.388 415.1V412.497H988.745V410.75L994.096 402.36H996.863V411.169H999.047V412.497H996.863V415.1H995.388ZM990.22 411.169H995.388V403.252H995.134L990.22 410.95V411.169Z" fill="#8F8F8F"/>
<rect x="415.4" y="440.95" width="599.3" height="50.7" stroke="#292929" stroke-width="1.3"/>
<g clip-path="url(#clip2_31_10101)">
<path d="M445.95 481.9C454.566 481.9 461.55 474.915 461.55 466.3C461.55 457.684 454.566 450.7 445.95 450.7C437.334 450.7 430.35 457.684 430.35 466.3C430.35 474.915 437.334 481.9 445.95 481.9Z" fill="#627EEA"/>
<path d="M446.436 454.6V463.248L453.745 466.514L446.436 454.6Z" fill="white" fill-opacity="0.602"/>
<path d="M446.436 454.6L439.125 466.514L446.436 463.248V454.6Z" fill="white"/>
<path d="M446.436 472.119V477.995L453.75 467.876L446.436 472.119Z" fill="white" fill-opacity="0.602"/>
<path d="M446.436 477.995V472.118L439.125 467.876L446.436 477.995Z" fill="white"/>
<path d="M446.436 470.759L453.745 466.514L446.436 463.25V470.759Z" fill="white" fill-opacity="0.2"/>
<path d="M439.125 466.514L446.436 470.759V463.25L439.125 466.514Z" fill="white" fill-opacity="0.602"/>
</g>
<path d="M473.279 472.3V459.56H481.305V461.343H475.244V465.002H480.795V466.785H475.244V470.516H481.396V472.3H473.279ZM486.484 472.3V461.343H482.571V459.56H492.363V461.343H488.45V472.3H486.484ZM494.145 472.3V459.56H496.11V465.02H501.461V459.56H503.427V472.3H501.461V466.803H496.11V472.3H494.145Z" fill="#E6E6E6"/>
<path d="M951.715 472.3V470.971C951.715 470.061 951.872 469.333 952.188 468.787C952.515 468.241 952.964 467.804 953.535 467.477C954.117 467.137 954.809 466.846 955.609 466.603L956.61 466.294C957.156 466.124 957.636 465.918 958.048 465.675C958.461 465.42 958.782 465.105 959.013 464.729C959.243 464.34 959.359 463.867 959.359 463.309V463.236C959.359 462.435 959.08 461.804 958.521 461.343C957.963 460.87 957.247 460.634 956.374 460.634C955.452 460.634 954.699 460.882 954.117 461.38C953.535 461.865 953.243 462.605 953.243 463.6V463.855H951.787V463.618C951.787 462.696 951.988 461.914 952.388 461.271C952.788 460.628 953.334 460.142 954.026 459.815C954.718 459.475 955.5 459.305 956.374 459.305C957.247 459.305 958.018 459.469 958.685 459.796C959.365 460.124 959.892 460.579 960.269 461.161C960.645 461.744 960.833 462.423 960.833 463.2V463.364C960.833 464.189 960.669 464.874 960.341 465.42C960.014 465.954 959.559 466.391 958.976 466.731C958.406 467.07 957.733 467.362 956.956 467.604L955.973 467.914C955.355 468.108 954.839 468.314 954.426 468.532C954.026 468.739 953.723 469.006 953.516 469.333C953.31 469.661 953.207 470.104 953.207 470.662V470.971H960.724V472.3H951.715ZM963.081 474.575V473.665H963.609C964.046 473.665 964.264 473.446 964.264 473.01V472.427H964.009C963.658 472.427 963.36 472.318 963.118 472.1C962.887 471.881 962.772 471.608 962.772 471.281C962.772 470.929 962.887 470.644 963.118 470.425C963.36 470.207 963.658 470.098 964.009 470.098C964.361 470.098 964.652 470.213 964.883 470.443C965.114 470.674 965.229 470.965 965.229 471.317V473.01C965.229 474.053 964.707 474.575 963.664 474.575H963.081ZM967.249 472.3V470.971C967.249 470.061 967.406 469.333 967.722 468.787C968.049 468.241 968.498 467.804 969.069 467.477C969.651 467.137 970.343 466.846 971.143 466.603L972.144 466.294C972.69 466.124 973.17 465.918 973.582 465.675C973.995 465.42 974.316 465.105 974.547 464.729C974.777 464.34 974.893 463.867 974.893 463.309V463.236C974.893 462.435 974.614 461.804 974.055 461.343C973.497 460.87 972.781 460.634 971.908 460.634C970.986 460.634 970.233 460.882 969.651 461.38C969.069 461.865 968.777 462.605 968.777 463.6V463.855H967.321V463.618C967.321 462.696 967.522 461.914 967.922 461.271C968.322 460.628 968.868 460.142 969.56 459.815C970.252 459.475 971.034 459.305 971.908 459.305C972.781 459.305 973.552 459.469 974.219 459.796C974.899 460.124 975.426 460.579 975.803 461.161C976.179 461.744 976.367 462.423 976.367 463.2V463.364C976.367 464.189 976.203 464.874 975.875 465.42C975.548 465.954 975.093 466.391 974.51 466.731C973.94 467.07 973.267 467.362 972.49 467.604L971.507 467.914C970.889 468.108 970.373 468.314 969.96 468.532C969.56 468.739 969.257 469.006 969.05 469.333C968.844 469.661 968.741 470.104 968.741 470.662V470.971H976.258V472.3H967.249ZM982.694 472.555C981.796 472.555 980.989 472.385 980.273 472.045C979.569 471.705 979.011 471.214 978.599 470.571C978.198 469.928 977.998 469.151 977.998 468.241V467.895H979.472V468.223C979.472 469.157 979.77 469.891 980.364 470.425C980.959 470.959 981.735 471.226 982.694 471.226C983.664 471.226 984.417 470.977 984.951 470.48C985.497 469.97 985.77 469.333 985.77 468.569V468.423C985.77 467.865 985.636 467.416 985.369 467.076C985.102 466.725 984.738 466.47 984.277 466.312C983.828 466.142 983.331 466.057 982.785 466.057H980.71V464.219L985.569 461.107V460.888H978.308V459.56H987.135V461.616L982.384 464.674V464.892H983.294C984.01 464.892 984.665 465.026 985.26 465.293C985.867 465.548 986.346 465.936 986.698 466.458C987.062 466.967 987.244 467.61 987.244 468.387V468.587C987.244 469.388 987.056 470.085 986.68 470.68C986.303 471.275 985.776 471.736 985.096 472.063C984.417 472.391 983.616 472.555 982.694 472.555ZM995.388 472.3V469.697H988.745V467.95L994.096 459.56H996.863V468.369H999.047V469.697H996.863V472.3H995.388ZM990.22 468.369H995.388V460.452H995.134L990.22 468.15V468.369Z" fill="#8F8F8F"/>
<rect x="415.4" y="498.15" width="599.3" height="50.7" stroke="#292929" stroke-width="1.3"/>
<path fill-rule="evenodd" clip-rule="evenodd" d="M629.746 522.236L637.69 514.292L636.158 512.76L628.214 520.704L626.229 518.718L625.799 518.705C624.17 518.656 622.52 519.254 621.275 520.499C620.068 521.706 618.51 522.342 616.93 522.41L615.771 522.46L615.899 523.612C616.199 526.31 617.385 528.93 619.452 530.997C621.52 533.065 624.14 534.25 626.837 534.55L627.99 534.678L628.04 533.52C628.107 531.939 628.744 530.382 629.95 529.175C631.196 527.93 631.794 526.28 631.744 524.651L631.731 524.221L629.746 522.236ZM625.326 520.88C624.407 520.946 623.509 521.33 622.807 522.031C621.51 523.328 619.905 524.131 618.229 524.439C618.357 525.025 618.538 525.602 618.771 526.163C620.309 525.988 621.8 525.312 622.979 524.132L624.511 525.664C623.196 526.979 621.583 527.816 619.889 528.174C620.213 528.627 620.578 529.059 620.984 529.465C622.418 530.899 624.169 531.817 626.011 532.221C626.319 530.544 627.122 528.939 628.418 527.643C629.12 526.941 629.504 526.043 629.57 525.124L625.326 520.88Z" fill="#8F8F8F"/>
<path d="M647.625 529.5L645.751 516.76H647.716L649.245 528.171H649.536L651.502 516.76H654.942L656.907 528.171H657.198L658.709 516.76H660.675L658.8 529.5H655.36L653.358 517.925H653.067L651.083 529.5H647.625ZM662.671 529.5V520.527H664.546V529.5H662.671ZM663.618 519.308C663.254 519.308 662.944 519.193 662.69 518.962C662.447 518.719 662.326 518.41 662.326 518.034C662.326 517.658 662.447 517.354 662.69 517.124C662.944 516.881 663.254 516.76 663.618 516.76C663.994 516.76 664.303 516.881 664.546 517.124C664.789 517.354 664.91 517.658 664.91 518.034C664.91 518.41 664.789 518.719 664.546 518.962C664.303 519.193 663.994 519.308 663.618 519.308ZM670.695 529.5C670.149 529.5 669.712 529.336 669.385 529.008C669.069 528.681 668.911 528.244 668.911 527.698V522.111H666.436V520.527H668.911V517.561H670.786V520.527H673.461V522.111H670.786V527.37C670.786 527.734 670.956 527.916 671.296 527.916H673.17V529.5H670.695ZM675.664 529.5V516.76H677.538V521.801H677.83C677.951 521.571 678.121 521.346 678.339 521.128C678.57 520.909 678.867 520.734 679.231 520.6C679.607 520.454 680.08 520.382 680.651 520.382C681.33 520.382 681.931 520.533 682.452 520.837C682.986 521.14 683.405 521.571 683.708 522.129C684.012 522.675 684.163 523.336 684.163 524.113V529.5H682.289V524.258C682.289 523.482 682.094 522.911 681.706 522.547C681.318 522.171 680.784 521.983 680.105 521.983C679.328 521.983 678.703 522.238 678.23 522.748C677.769 523.257 677.538 523.997 677.538 524.968V529.5H675.664ZM690.574 529.755C689.834 529.755 689.148 529.573 688.517 529.209C687.886 528.845 687.377 528.323 686.988 527.643C686.612 526.952 686.424 526.121 686.424 525.15V524.877C686.424 523.919 686.612 523.093 686.988 522.402C687.365 521.71 687.868 521.182 688.499 520.818C689.13 520.454 689.822 520.272 690.574 520.272C691.156 520.272 691.642 520.345 692.03 520.491C692.43 520.636 692.758 520.825 693.013 521.055C693.267 521.273 693.462 521.504 693.595 521.747H693.886V516.76H695.761V529.5H693.923V528.226H693.631C693.401 528.614 693.049 528.966 692.576 529.281C692.115 529.597 691.447 529.755 690.574 529.755ZM691.102 528.117C691.915 528.117 692.582 527.856 693.104 527.334C693.638 526.812 693.904 526.066 693.904 525.095V524.932C693.904 523.973 693.644 523.233 693.122 522.711C692.6 522.19 691.927 521.929 691.102 521.929C690.301 521.929 689.634 522.19 689.1 522.711C688.578 523.233 688.317 523.973 688.317 524.932V525.095C688.317 526.066 688.578 526.812 689.1 527.334C689.634 527.856 690.301 528.117 691.102 528.117ZM698.52 529.5V520.527H700.359V521.583H700.65C700.795 521.207 701.026 520.934 701.341 520.764C701.669 520.582 702.069 520.491 702.543 520.491H703.616V522.183H702.47C701.863 522.183 701.366 522.353 700.977 522.693C700.589 523.021 700.395 523.53 700.395 524.222V529.5H698.52ZM708.094 529.755C707.451 529.755 706.875 529.645 706.365 529.427C705.868 529.209 705.468 528.887 705.164 528.462C704.873 528.038 704.727 527.522 704.727 526.915C704.727 526.297 704.873 525.787 705.164 525.387C705.468 524.974 705.874 524.665 706.384 524.458C706.905 524.252 707.494 524.149 708.149 524.149H710.879V523.567C710.879 523.045 710.721 522.626 710.406 522.311C710.09 521.995 709.605 521.838 708.95 521.838C708.307 521.838 707.815 521.989 707.476 522.293C707.136 522.596 706.911 522.99 706.802 523.476L705.055 522.911C705.201 522.426 705.431 521.989 705.747 521.601C706.074 521.201 706.505 520.879 707.039 520.636C707.573 520.394 708.216 520.272 708.968 520.272C710.133 520.272 711.049 520.57 711.716 521.164C712.384 521.759 712.717 522.602 712.717 523.694V527.389C712.717 527.753 712.887 527.935 713.227 527.935H713.991V529.5H712.59C712.165 529.5 711.819 529.391 711.552 529.172C711.286 528.954 711.152 528.657 711.152 528.28V528.226H710.879C710.782 528.408 710.636 528.62 710.442 528.863C710.248 529.106 709.963 529.318 709.587 529.5C709.211 529.67 708.713 529.755 708.094 529.755ZM708.367 528.208C709.12 528.208 709.726 527.995 710.187 527.571C710.649 527.134 710.879 526.539 710.879 525.787V525.605H708.258C707.761 525.605 707.36 525.714 707.057 525.933C706.754 526.139 706.602 526.448 706.602 526.861C706.602 527.273 706.76 527.601 707.075 527.844C707.391 528.086 707.821 528.208 708.367 528.208ZM716.69 529.5L715.161 520.527H717.036L718.164 528.244H718.456L720.021 520.527H723.06L724.607 528.244H724.898L726.027 520.527H727.901L726.373 529.5H723.224L721.677 521.801H721.386L719.839 529.5H716.69ZM737.545 529.755C736.902 529.755 736.326 529.645 735.816 529.427C735.319 529.209 734.918 528.887 734.615 528.462C734.324 528.038 734.178 527.522 734.178 526.915C734.178 526.297 734.324 525.787 734.615 525.387C734.918 524.974 735.325 524.665 735.834 524.458C736.356 524.252 736.944 524.149 737.6 524.149H740.33V523.567C740.33 523.045 740.172 522.626 739.856 522.311C739.541 521.995 739.056 521.838 738.4 521.838C737.757 521.838 737.266 521.989 736.926 522.293C736.587 522.596 736.362 522.99 736.253 523.476L734.506 522.911C734.651 522.426 734.882 521.989 735.197 521.601C735.525 521.201 735.956 520.879 736.489 520.636C737.023 520.394 737.666 520.272 738.419 520.272C739.583 520.272 740.5 520.57 741.167 521.164C741.834 521.759 742.168 522.602 742.168 523.694V527.389C742.168 527.753 742.338 527.935 742.677 527.935H743.442V529.5H742.04C741.616 529.5 741.27 529.391 741.003 529.172C740.736 528.954 740.603 528.657 740.603 528.28V528.226H740.33C740.233 528.408 740.087 528.62 739.893 528.863C739.699 529.106 739.414 529.318 739.037 529.5C738.661 529.67 738.164 529.755 737.545 529.755ZM737.818 528.208C738.57 528.208 739.177 527.995 739.638 527.571C740.099 527.134 740.33 526.539 740.33 525.787V525.605H737.709C737.211 525.605 736.811 525.714 736.508 525.933C736.204 526.139 736.053 526.448 736.053 526.861C736.053 527.273 736.21 527.601 736.526 527.844C736.841 528.086 737.272 528.208 737.818 528.208ZM745.265 529.5V516.76H747.139V529.5H745.265ZM749.921 529.5V516.76H751.796V529.5H749.921ZM762.001 529.755C761.358 529.755 760.782 529.645 760.272 529.427C759.775 529.209 759.374 528.887 759.071 528.462C758.78 528.038 758.634 527.522 758.634 526.915C758.634 526.297 758.78 525.787 759.071 525.387C759.374 524.974 759.781 524.665 760.291 524.458C760.812 524.252 761.401 524.149 762.056 524.149H764.786V523.567C764.786 523.045 764.628 522.626 764.313 522.311C763.997 521.995 763.512 521.838 762.857 521.838C762.214 521.838 761.722 521.989 761.383 522.293C761.043 522.596 760.818 522.99 760.709 523.476L758.962 522.911C759.108 522.426 759.338 521.989 759.654 521.601C759.981 521.201 760.412 520.879 760.946 520.636C761.48 520.394 762.123 520.272 762.875 520.272C764.04 520.272 764.956 520.57 765.623 521.164C766.29 521.759 766.624 522.602 766.624 523.694V527.389C766.624 527.753 766.794 527.935 767.134 527.935H767.898V529.5H766.497C766.072 529.5 765.726 529.391 765.459 529.172C765.192 528.954 765.059 528.657 765.059 528.28V528.226H764.786C764.689 528.408 764.543 528.62 764.349 528.863C764.155 529.106 763.87 529.318 763.494 529.5C763.118 529.67 762.62 529.755 762.001 529.755ZM762.274 528.208C763.027 528.208 763.633 527.995 764.094 527.571C764.555 527.134 764.786 526.539 764.786 525.787V525.605H762.165C761.668 525.605 761.267 525.714 760.964 525.933C760.661 526.139 760.509 526.448 760.509 526.861C760.509 527.273 760.667 527.601 760.982 527.844C761.298 528.086 761.728 528.208 762.274 528.208ZM773.326 529.755C772.186 529.755 771.239 529.5 770.487 528.99C769.735 528.481 769.274 527.71 769.104 526.679L770.851 526.26C770.948 526.758 771.112 527.152 771.342 527.443C771.573 527.734 771.858 527.941 772.198 528.062C772.55 528.183 772.926 528.244 773.326 528.244C773.921 528.244 774.376 528.129 774.691 527.898C775.019 527.668 775.183 527.37 775.183 527.006C775.183 526.642 775.031 526.376 774.728 526.206C774.424 526.036 773.975 525.896 773.381 525.787L772.762 525.678C772.155 525.569 771.603 525.411 771.106 525.205C770.608 524.998 770.214 524.713 769.923 524.349C769.632 523.985 769.486 523.518 769.486 522.948C769.486 522.099 769.801 521.443 770.432 520.982C771.063 520.509 771.9 520.272 772.944 520.272C773.951 520.272 774.776 520.503 775.419 520.964C776.074 521.413 776.499 522.026 776.693 522.802L774.946 523.294C774.837 522.748 774.606 522.365 774.254 522.147C773.902 521.917 773.466 521.801 772.944 521.801C772.434 521.801 772.034 521.898 771.743 522.092C771.452 522.274 771.306 522.535 771.306 522.875C771.306 523.239 771.445 523.506 771.725 523.676C772.016 523.846 772.404 523.973 772.889 524.058L773.526 524.167C774.169 524.276 774.758 524.428 775.292 524.622C775.826 524.816 776.244 525.095 776.548 525.459C776.863 525.823 777.021 526.309 777.021 526.915C777.021 527.813 776.687 528.511 776.02 529.008C775.352 529.506 774.455 529.755 773.326 529.755ZM782.888 529.755C781.748 529.755 780.801 529.5 780.049 528.99C779.297 528.481 778.836 527.71 778.666 526.679L780.413 526.26C780.51 526.758 780.674 527.152 780.904 527.443C781.135 527.734 781.42 527.941 781.76 528.062C782.112 528.183 782.488 528.244 782.888 528.244C783.483 528.244 783.938 528.129 784.253 527.898C784.581 527.668 784.745 527.37 784.745 527.006C784.745 526.642 784.593 526.376 784.29 526.206C783.986 526.036 783.537 525.896 782.943 525.787L782.324 525.678C781.717 525.569 781.165 525.411 780.668 525.205C780.17 524.998 779.776 524.713 779.485 524.349C779.194 523.985 779.048 523.518 779.048 522.948C779.048 522.099 779.363 521.443 779.994 520.982C780.625 520.509 781.463 520.272 782.506 520.272C783.513 520.272 784.338 520.503 784.981 520.964C785.636 521.413 786.061 522.026 786.255 522.802L784.508 523.294C784.399 522.748 784.168 522.365 783.816 522.147C783.465 521.917 783.028 521.801 782.506 521.801C781.996 521.801 781.596 521.898 781.305 522.092C781.014 522.274 780.868 522.535 780.868 522.875C780.868 523.239 781.008 523.506 781.287 523.676C781.578 523.846 781.966 523.973 782.451 524.058L783.088 524.167C783.731 524.276 784.32 524.428 784.854 524.622C785.388 524.816 785.806 525.095 786.11 525.459C786.425 525.823 786.583 526.309 786.583 526.915C786.583 527.813 786.249 528.511 785.582 529.008C784.914 529.506 784.017 529.755 782.888 529.755ZM792.887 529.755C791.977 529.755 791.182 529.567 790.503 529.19C789.823 528.802 789.29 528.262 788.901 527.571C788.525 526.867 788.337 526.054 788.337 525.132V524.913C788.337 523.979 788.525 523.166 788.901 522.475C789.277 521.771 789.799 521.231 790.467 520.855C791.146 520.467 791.929 520.272 792.814 520.272C793.676 520.272 794.428 520.467 795.071 520.855C795.726 521.231 796.236 521.759 796.6 522.438C796.964 523.118 797.146 523.912 797.146 524.822V525.532H790.248C790.272 526.321 790.533 526.952 791.031 527.425C791.54 527.886 792.171 528.117 792.924 528.117C793.627 528.117 794.155 527.959 794.507 527.643C794.871 527.328 795.15 526.964 795.344 526.551L796.891 527.352C796.721 527.692 796.473 528.05 796.145 528.426C795.829 528.802 795.411 529.118 794.889 529.372C794.367 529.627 793.7 529.755 792.887 529.755ZM790.266 524.094H795.235C795.186 523.415 794.944 522.887 794.507 522.511C794.07 522.123 793.5 521.929 792.796 521.929C792.092 521.929 791.516 522.123 791.067 522.511C790.63 522.887 790.363 523.415 790.266 524.094ZM802.432 529.5C801.886 529.5 801.449 529.336 801.121 529.008C800.806 528.681 800.648 528.244 800.648 527.698V522.111H798.173V520.527H800.648V517.561H802.523V520.527H805.198V522.111H802.523V527.37C802.523 527.734 802.693 527.916 803.032 527.916H804.907V529.5H802.432ZM811.077 529.755C809.936 529.755 808.99 529.5 808.238 528.99C807.485 528.481 807.024 527.71 806.854 526.679L808.602 526.26C808.699 526.758 808.863 527.152 809.093 527.443C809.324 527.734 809.609 527.941 809.948 528.062C810.3 528.183 810.676 528.244 811.077 528.244C811.671 528.244 812.126 528.129 812.442 527.898C812.769 527.668 812.933 527.37 812.933 527.006C812.933 526.642 812.782 526.376 812.478 526.206C812.175 526.036 811.726 525.896 811.131 525.787L810.513 525.678C809.906 525.569 809.354 525.411 808.856 525.205C808.359 524.998 807.965 524.713 807.673 524.349C807.382 523.985 807.237 523.518 807.237 522.948C807.237 522.099 807.552 521.443 808.183 520.982C808.814 520.509 809.651 520.272 810.695 520.272C811.702 520.272 812.527 520.503 813.17 520.964C813.825 521.413 814.25 522.026 814.444 522.802L812.697 523.294C812.587 522.748 812.357 522.365 812.005 522.147C811.653 521.917 811.216 521.801 810.695 521.801C810.185 521.801 809.785 521.898 809.493 522.092C809.202 522.274 809.057 522.535 809.057 522.875C809.057 523.239 809.196 523.506 809.475 523.676C809.766 523.846 810.155 523.973 810.64 524.058L811.277 524.167C811.92 524.276 812.509 524.428 813.042 524.622C813.576 524.816 813.995 525.095 814.298 525.459C814.614 525.823 814.771 526.309 814.771 526.915C814.771 527.813 814.438 528.511 813.77 529.008C813.103 529.506 812.205 529.755 811.077 529.755Z" fill="#E6E6E6"/>
<path d="M416.079 614.3V601.56H424.105V603.343H418.044V607.002H423.595V608.785H418.044V612.516H424.196V614.3H416.079ZM426.3 614.3V605.327H428.138V606.674H428.429C428.599 606.31 428.902 605.97 429.339 605.655C429.776 605.339 430.425 605.182 431.286 605.182C431.966 605.182 432.566 605.333 433.088 605.637C433.622 605.94 434.041 606.371 434.344 606.929C434.647 607.475 434.799 608.136 434.799 608.913V614.3H432.924V609.058C432.924 608.282 432.73 607.711 432.342 607.347C431.954 606.971 431.42 606.783 430.74 606.783C429.964 606.783 429.339 607.038 428.866 607.548C428.405 608.057 428.174 608.797 428.174 609.768V614.3H426.3ZM440.615 614.3C440.069 614.3 439.632 614.136 439.305 613.808C438.989 613.481 438.831 613.044 438.831 612.498V606.911H436.356V605.327H438.831V602.361H440.706V605.327H443.381V606.911H440.706V612.17C440.706 612.534 440.876 612.716 441.216 612.716H443.09V614.3H440.615ZM449.377 614.555C448.467 614.555 447.672 614.367 446.993 613.99C446.313 613.602 445.78 613.062 445.391 612.371C445.015 611.667 444.827 610.854 444.827 609.932V609.713C444.827 608.779 445.015 607.966 445.391 607.275C445.767 606.571 446.289 606.031 446.956 605.655C447.636 605.267 448.419 605.072 449.304 605.072C450.166 605.072 450.918 605.267 451.561 605.655C452.216 606.031 452.726 606.559 453.09 607.238C453.454 607.918 453.636 608.712 453.636 609.622V610.332H446.738C446.762 611.121 447.023 611.752 447.521 612.225C448.03 612.686 448.661 612.917 449.413 612.917C450.117 612.917 450.645 612.759 450.997 612.443C451.361 612.128 451.64 611.764 451.834 611.351L453.381 612.152C453.211 612.492 452.962 612.85 452.635 613.226C452.319 613.602 451.901 613.918 451.379 614.172C450.857 614.427 450.19 614.555 449.377 614.555ZM446.756 608.894H451.725C451.676 608.215 451.434 607.687 450.997 607.311C450.56 606.923 449.99 606.729 449.286 606.729C448.582 606.729 448.006 606.923 447.557 607.311C447.12 607.687 446.853 608.215 446.756 608.894ZM455.892 614.3V605.327H457.731V606.383H458.022C458.167 606.007 458.398 605.734 458.713 605.564C459.041 605.382 459.441 605.291 459.915 605.291H460.988V606.983H459.842C459.235 606.983 458.738 607.153 458.349 607.493C457.961 607.821 457.767 608.33 457.767 609.022V614.3H455.892ZM470.354 614.555C469.711 614.555 469.135 614.445 468.625 614.227C468.128 614.009 467.727 613.687 467.424 613.262C467.133 612.838 466.987 612.322 466.987 611.715C466.987 611.097 467.133 610.587 467.424 610.187C467.727 609.774 468.134 609.465 468.643 609.258C469.165 609.052 469.754 608.949 470.409 608.949H473.139V608.367C473.139 607.845 472.981 607.426 472.666 607.111C472.35 606.795 471.865 606.638 471.21 606.638C470.566 606.638 470.075 606.789 469.735 607.093C469.396 607.396 469.171 607.79 469.062 608.276L467.315 607.711C467.46 607.226 467.691 606.789 468.006 606.401C468.334 606.001 468.765 605.679 469.299 605.436C469.832 605.194 470.475 605.072 471.228 605.072C472.393 605.072 473.309 605.37 473.976 605.964C474.643 606.559 474.977 607.402 474.977 608.494V612.189C474.977 612.553 475.147 612.735 475.487 612.735H476.251V614.3H474.85C474.425 614.3 474.079 614.191 473.812 613.972C473.545 613.754 473.412 613.457 473.412 613.08V613.026H473.139C473.042 613.208 472.896 613.42 472.702 613.663C472.508 613.905 472.223 614.118 471.847 614.3C471.47 614.47 470.973 614.555 470.354 614.555ZM470.627 613.008C471.379 613.008 471.986 612.795 472.447 612.371C472.908 611.934 473.139 611.339 473.139 610.587V610.405H470.518C470.02 610.405 469.62 610.514 469.317 610.733C469.013 610.939 468.862 611.248 468.862 611.661C468.862 612.073 469.019 612.401 469.335 612.644C469.65 612.886 470.081 613.008 470.627 613.008ZM477.424 609.859V609.586C477.424 608.64 477.612 607.833 477.988 607.165C478.376 606.498 478.886 605.982 479.517 605.618C480.147 605.254 480.839 605.072 481.591 605.072C482.465 605.072 483.132 605.236 483.593 605.564C484.067 605.891 484.412 606.243 484.631 606.619H484.922V605.327H486.742V616.138C486.742 616.684 486.578 617.121 486.251 617.448C485.935 617.776 485.498 617.94 484.94 617.94H478.898V616.302H484.358C484.71 616.302 484.886 616.12 484.886 615.756V612.898H484.594C484.461 613.117 484.273 613.341 484.03 613.572C483.787 613.802 483.466 613.99 483.066 614.136C482.677 614.282 482.186 614.354 481.591 614.354C480.839 614.354 480.141 614.178 479.498 613.827C478.867 613.463 478.364 612.947 477.988 612.28C477.612 611.6 477.424 610.793 477.424 609.859ZM482.101 612.716C482.914 612.716 483.581 612.462 484.103 611.952C484.637 611.43 484.904 610.714 484.904 609.804V609.641C484.904 608.706 484.643 607.99 484.121 607.493C483.599 606.983 482.926 606.729 482.101 606.729C481.3 606.729 480.633 606.983 480.099 607.493C479.577 607.99 479.316 608.706 479.316 609.641V609.804C479.316 610.714 479.577 611.43 480.099 611.952C480.633 612.462 481.3 612.716 482.101 612.716ZM489.447 614.3V601.56H497.474V603.343H491.413V607.002H496.964V608.785H491.413V612.516H497.565V614.3H489.447ZM504.382 614.555C503.375 614.555 502.508 614.373 501.78 614.009C501.064 613.645 500.506 613.123 500.105 612.443C499.717 611.752 499.523 610.915 499.523 609.932V601.56H501.507V609.986C501.507 610.884 501.755 611.576 502.253 612.061C502.75 612.547 503.46 612.789 504.382 612.789C505.304 612.789 506.014 612.547 506.512 612.061C507.009 611.576 507.258 610.884 507.258 609.986V601.56H509.223V609.932C509.223 610.915 509.029 611.752 508.641 612.443C508.253 613.123 507.695 613.645 506.967 614.009C506.239 614.373 505.377 614.555 504.382 614.555ZM511.789 614.3V601.56H517.139C517.928 601.56 518.62 601.699 519.214 601.978C519.821 602.245 520.288 602.634 520.616 603.143C520.955 603.653 521.125 604.259 521.125 604.963V605.163C521.125 605.964 520.931 606.607 520.543 607.093C520.167 607.566 519.706 607.899 519.16 608.094V608.385C519.621 608.409 519.991 608.567 520.27 608.858C520.549 609.137 520.688 609.544 520.688 610.077V614.3H518.705V610.35C518.705 610.023 518.62 609.762 518.45 609.568C518.28 609.374 518.007 609.277 517.631 609.277H513.754V614.3H511.789ZM513.754 607.493H516.921C517.625 607.493 518.171 607.317 518.559 606.965C518.947 606.601 519.141 606.11 519.141 605.491V605.345C519.141 604.727 518.947 604.241 518.559 603.889C518.183 603.525 517.637 603.343 516.921 603.343H513.754V607.493ZM530.766 614.555C530.123 614.555 529.547 614.445 529.037 614.227C528.54 614.009 528.139 613.687 527.836 613.262C527.545 612.838 527.399 612.322 527.399 611.715C527.399 611.097 527.545 610.587 527.836 610.187C528.139 609.774 528.546 609.465 529.055 609.258C529.577 609.052 530.165 608.949 530.821 608.949H533.551V608.367C533.551 607.845 533.393 607.426 533.077 607.111C532.762 606.795 532.277 606.638 531.621 606.638C530.978 606.638 530.487 606.789 530.147 607.093C529.808 607.396 529.583 607.79 529.474 608.276L527.727 607.711C527.872 607.226 528.103 606.789 528.418 606.401C528.746 606.001 529.177 605.679 529.71 605.436C530.244 605.194 530.887 605.072 531.64 605.072C532.804 605.072 533.721 605.37 534.388 605.964C535.055 606.559 535.389 607.402 535.389 608.494V612.189C535.389 612.553 535.559 612.735 535.898 612.735H536.663V614.3H535.261C534.837 614.3 534.491 614.191 534.224 613.972C533.957 613.754 533.824 613.457 533.824 613.08V613.026H533.551C533.454 613.208 533.308 613.42 533.114 613.663C532.92 613.905 532.635 614.118 532.258 614.3C531.882 614.47 531.385 614.555 530.766 614.555ZM531.039 613.008C531.791 613.008 532.398 612.795 532.859 612.371C533.32 611.934 533.551 611.339 533.551 610.587V610.405H530.93C530.432 610.405 530.032 610.514 529.729 610.733C529.425 610.939 529.274 611.248 529.274 611.661C529.274 612.073 529.431 612.401 529.747 612.644C530.062 612.886 530.493 613.008 531.039 613.008ZM538.486 614.3V605.327H540.324V606.383H540.615C540.785 606.067 541.058 605.788 541.434 605.546C541.81 605.303 542.32 605.182 542.963 605.182C543.63 605.182 544.164 605.321 544.564 605.6C544.977 605.867 545.286 606.213 545.493 606.638H545.784C545.99 606.225 546.287 605.879 546.676 605.6C547.076 605.321 547.64 605.182 548.368 605.182C548.951 605.182 549.466 605.303 549.915 605.546C550.364 605.776 550.722 606.128 550.989 606.601C551.256 607.062 551.389 607.639 551.389 608.33V614.3H549.515V608.476C549.515 607.93 549.363 607.511 549.06 607.22C548.769 606.917 548.35 606.765 547.804 606.765C547.222 606.765 546.754 606.953 546.403 607.329C546.051 607.705 545.875 608.245 545.875 608.949V614.3H544V608.476C544 607.93 543.848 607.511 543.545 607.22C543.254 606.917 542.835 606.765 542.289 606.765C541.707 606.765 541.24 606.953 540.888 607.329C540.536 607.705 540.36 608.245 540.36 608.949V614.3H538.486ZM558.295 614.555C557.397 614.555 556.596 614.373 555.892 614.009C555.201 613.632 554.655 613.099 554.254 612.407C553.854 611.715 553.654 610.896 553.654 609.95V609.677C553.654 608.731 553.854 607.918 554.254 607.238C554.655 606.547 555.201 606.013 555.892 605.637C556.596 605.26 557.397 605.072 558.295 605.072C559.193 605.072 559.993 605.26 560.697 605.637C561.401 606.013 561.953 606.547 562.353 607.238C562.754 607.918 562.954 608.731 562.954 609.677V609.95C562.954 610.896 562.754 611.715 562.353 612.407C561.953 613.099 561.401 613.632 560.697 614.009C559.993 614.373 559.193 614.555 558.295 614.555ZM558.295 612.88C559.12 612.88 559.787 612.619 560.297 612.098C560.819 611.564 561.079 610.83 561.079 609.895V609.732C561.079 608.797 560.825 608.069 560.315 607.548C559.805 607.014 559.132 606.747 558.295 606.747C557.482 606.747 556.815 607.014 556.293 607.548C555.783 608.069 555.528 608.797 555.528 609.732V609.895C555.528 610.83 555.783 611.564 556.293 612.098C556.815 612.619 557.482 612.88 558.295 612.88ZM568.728 614.464C568.048 614.464 567.442 614.312 566.908 614.009C566.374 613.705 565.955 613.275 565.652 612.716C565.349 612.158 565.197 611.491 565.197 610.714V605.327H567.071V610.587C567.071 611.364 567.266 611.94 567.654 612.316C568.042 612.68 568.582 612.862 569.274 612.862C570.038 612.862 570.651 612.607 571.112 612.098C571.585 611.576 571.822 610.83 571.822 609.859V605.327H573.696V614.3H571.858V612.953H571.567C571.397 613.317 571.094 613.663 570.657 613.99C570.22 614.306 569.577 614.464 568.728 614.464ZM576.467 614.3V605.327H578.306V606.674H578.597C578.767 606.31 579.07 605.97 579.507 605.655C579.944 605.339 580.593 605.182 581.454 605.182C582.134 605.182 582.734 605.333 583.256 605.637C583.79 605.94 584.208 606.371 584.512 606.929C584.815 607.475 584.967 608.136 584.967 608.913V614.3H583.092V609.058C583.092 608.282 582.898 607.711 582.51 607.347C582.122 606.971 581.588 606.783 580.908 606.783C580.132 606.783 579.507 607.038 579.034 607.548C578.573 608.057 578.342 608.797 578.342 609.768V614.3H576.467ZM590.783 614.3C590.237 614.3 589.8 614.136 589.472 613.808C589.157 613.481 588.999 613.044 588.999 612.498V606.911H586.524V605.327H588.999V602.361H590.874V605.327H593.549V606.911H590.874V612.17C590.874 612.534 591.044 612.716 591.383 612.716H593.258V614.3H590.783ZM603.757 614.3C603.211 614.3 602.775 614.136 602.447 613.808C602.132 613.481 601.974 613.044 601.974 612.498V606.911H599.499V605.327H601.974V602.361H603.848V605.327H606.524V606.911H603.848V612.17C603.848 612.534 604.018 612.716 604.358 612.716H606.233V614.3H603.757ZM612.61 614.555C611.713 614.555 610.912 614.373 610.208 614.009C609.516 613.632 608.97 613.099 608.57 612.407C608.17 611.715 607.969 610.896 607.969 609.95V609.677C607.969 608.731 608.17 607.918 608.57 607.238C608.97 606.547 609.516 606.013 610.208 605.637C610.912 605.26 611.713 605.072 612.61 605.072C613.508 605.072 614.309 605.26 615.013 605.637C615.717 606.013 616.269 606.547 616.669 607.238C617.069 607.918 617.27 608.731 617.27 609.677V609.95C617.27 610.896 617.069 611.715 616.669 612.407C616.269 613.099 615.717 613.632 615.013 614.009C614.309 614.373 613.508 614.555 612.61 614.555ZM612.61 612.88C613.436 612.88 614.103 612.619 614.612 612.098C615.134 611.564 615.395 610.83 615.395 609.895V609.732C615.395 608.797 615.14 608.069 614.631 607.548C614.121 607.014 613.448 606.747 612.61 606.747C611.798 606.747 611.13 607.014 610.608 607.548C610.099 608.069 609.844 608.797 609.844 609.732V609.895C609.844 610.83 610.099 611.564 610.608 612.098C611.13 612.619 611.798 612.88 612.61 612.88ZM625.225 614.3L623.696 605.327H625.571L626.699 613.044H626.991L628.556 605.327H631.595L633.142 613.044H633.433L634.562 605.327H636.436L634.908 614.3H631.759L630.212 606.601H629.921L628.374 614.3H625.225ZM638.657 614.3V605.327H640.531V614.3H638.657ZM639.603 604.108C639.239 604.108 638.93 603.993 638.675 603.762C638.432 603.519 638.311 603.21 638.311 602.834C638.311 602.458 638.432 602.154 638.675 601.924C638.93 601.681 639.239 601.56 639.603 601.56C639.979 601.56 640.289 601.681 640.531 601.924C640.774 602.154 640.895 602.458 640.895 602.834C640.895 603.21 640.774 603.519 640.531 603.762C640.289 603.993 639.979 604.108 639.603 604.108ZM646.68 614.3C646.134 614.3 645.697 614.136 645.37 613.808C645.054 613.481 644.897 613.044 644.897 612.498V606.911H642.421V605.327H644.897V602.361H646.771V605.327H649.447V606.911H646.771V612.17C646.771 612.534 646.941 612.716 647.281 612.716H649.155V614.3H646.68ZM651.649 614.3V601.56H653.524V606.601H653.815C653.936 606.371 654.106 606.146 654.324 605.928C654.555 605.709 654.852 605.533 655.216 605.4C655.592 605.254 656.066 605.182 656.636 605.182C657.315 605.182 657.916 605.333 658.438 605.637C658.971 605.94 659.39 606.371 659.693 606.929C659.997 607.475 660.148 608.136 660.148 608.913V614.3H658.274V609.058C658.274 608.282 658.08 607.711 657.691 607.347C657.303 606.971 656.769 606.783 656.09 606.783C655.313 606.783 654.688 607.038 654.215 607.548C653.754 608.057 653.524 608.797 653.524 609.768V614.3H651.649ZM666.559 614.555C665.819 614.555 665.133 614.373 664.502 614.009C663.872 613.645 663.362 613.123 662.974 612.443C662.598 611.752 662.409 610.921 662.409 609.95V609.677C662.409 608.718 662.598 607.893 662.974 607.202C663.35 606.51 663.853 605.982 664.484 605.618C665.115 605.254 665.807 605.072 666.559 605.072C667.141 605.072 667.627 605.145 668.015 605.291C668.415 605.436 668.743 605.624 668.998 605.855C669.253 606.073 669.447 606.304 669.58 606.547H669.871V601.56H671.746V614.3H669.908V613.026H669.617C669.386 613.414 669.034 613.766 668.561 614.081C668.1 614.397 667.433 614.555 666.559 614.555ZM667.087 612.917C667.9 612.917 668.567 612.656 669.089 612.134C669.623 611.612 669.89 610.866 669.89 609.895V609.732C669.89 608.773 669.629 608.033 669.107 607.511C668.585 606.989 667.912 606.729 667.087 606.729C666.286 606.729 665.619 606.989 665.085 607.511C664.563 608.033 664.302 608.773 664.302 609.732V609.895C664.302 610.866 664.563 611.612 665.085 612.134C665.619 612.656 666.286 612.917 667.087 612.917ZM674.506 614.3V605.327H676.344V606.383H676.635C676.781 606.007 677.011 605.734 677.327 605.564C677.654 605.382 678.055 605.291 678.528 605.291H679.602V606.983H678.455C677.848 606.983 677.351 607.153 676.963 607.493C676.574 607.821 676.38 608.33 676.38 609.022V614.3H674.506ZM684.08 614.555C683.437 614.555 682.86 614.445 682.351 614.227C681.853 614.009 681.453 613.687 681.15 613.262C680.858 612.838 680.713 612.322 680.713 611.715C680.713 611.097 680.858 610.587 681.15 610.187C681.453 609.774 681.859 609.465 682.369 609.258C682.891 609.052 683.479 608.949 684.134 608.949H686.864V608.367C686.864 607.845 686.707 607.426 686.391 607.111C686.076 606.795 685.59 606.638 684.935 606.638C684.292 606.638 683.801 606.789 683.461 607.093C683.121 607.396 682.897 607.79 682.788 608.276L681.04 607.711C681.186 607.226 681.416 606.789 681.732 606.401C682.06 606.001 682.49 605.679 683.024 605.436C683.558 605.194 684.201 605.072 684.953 605.072C686.118 605.072 687.034 605.37 687.702 605.964C688.369 606.559 688.703 607.402 688.703 608.494V612.189C688.703 612.553 688.872 612.735 689.212 612.735H689.977V614.3H688.575C688.15 614.3 687.805 614.191 687.538 613.972C687.271 613.754 687.137 613.457 687.137 613.08V613.026H686.864C686.767 613.208 686.622 613.42 686.428 613.663C686.233 613.905 685.948 614.118 685.572 614.3C685.196 614.47 684.699 614.555 684.08 614.555ZM684.353 613.008C685.105 613.008 685.712 612.795 686.173 612.371C686.634 611.934 686.864 611.339 686.864 610.587V610.405H684.244C683.746 610.405 683.346 610.514 683.042 610.733C682.739 610.939 682.587 611.248 682.587 611.661C682.587 612.073 682.745 612.401 683.061 612.644C683.376 612.886 683.807 613.008 684.353 613.008ZM692.675 614.3L691.147 605.327H693.021L694.15 613.044H694.441L696.006 605.327H699.045L700.592 613.044H700.884L702.012 605.327H703.887L702.358 614.3H699.209L697.662 606.601H697.371L695.824 614.3H692.675Z" fill="#E6E6E6"/>
<rect x="415.4" y="626.15" width="599.3" height="48.1" fill="#0B0B0B"/>
<rect x="415.4" y="626.15" width="599.3" height="48.1" stroke="#292929" stroke-width="1.3"/>
<path d="M431.224 656.2V654.762C431.224 653.876 431.375 653.148 431.679 652.578C431.982 652.008 432.413 651.547 432.971 651.195C433.541 650.831 434.227 650.527 435.027 650.285L436.138 649.939C436.635 649.781 437.06 649.587 437.412 649.357C437.776 649.126 438.055 648.841 438.249 648.501C438.443 648.149 438.54 647.743 438.54 647.282V647.209C438.54 646.493 438.297 645.935 437.812 645.535C437.327 645.122 436.69 644.916 435.901 644.916C435.088 644.916 434.427 645.134 433.917 645.571C433.42 646.008 433.171 646.651 433.171 647.5V647.791H431.278V647.518C431.278 646.596 431.478 645.82 431.879 645.189C432.279 644.546 432.831 644.054 433.535 643.715C434.239 643.375 435.027 643.205 435.901 643.205C436.775 643.205 437.551 643.369 438.231 643.696C438.922 644.024 439.462 644.485 439.85 645.08C440.251 645.674 440.451 646.372 440.451 647.173V647.336C440.451 648.161 440.287 648.847 439.96 649.393C439.632 649.939 439.177 650.388 438.595 650.74C438.024 651.092 437.363 651.389 436.611 651.632L435.537 651.959C434.967 652.129 434.506 652.317 434.154 652.523C433.814 652.717 433.559 652.954 433.389 653.233C433.232 653.512 433.153 653.87 433.153 654.307V654.489H440.342V656.2H431.224ZM447.088 656.455C445.607 656.455 444.424 656.036 443.539 655.199C442.665 654.349 442.228 653.075 442.228 651.377V648.283C442.228 646.62 442.665 645.359 443.539 644.497C444.424 643.636 445.607 643.205 447.088 643.205C448.58 643.205 449.763 643.636 450.637 644.497C451.522 645.359 451.965 646.62 451.965 648.283V651.377C451.965 653.075 451.522 654.349 450.637 655.199C449.763 656.036 448.58 656.455 447.088 656.455ZM447.088 654.744C448.095 654.744 448.841 654.459 449.326 653.888C449.812 653.306 450.054 652.493 450.054 651.45V648.174C450.054 647.13 449.793 646.329 449.272 645.771C448.75 645.201 448.022 644.916 447.088 644.916C446.141 644.916 445.413 645.207 444.904 645.789C444.394 646.36 444.139 647.154 444.139 648.174V651.45C444.139 652.517 444.382 653.336 444.867 653.907C445.365 654.465 446.105 654.744 447.088 654.744ZM458.818 656.455C457.338 656.455 456.155 656.036 455.269 655.199C454.396 654.349 453.959 653.075 453.959 651.377V648.283C453.959 646.62 454.396 645.359 455.269 644.497C456.155 643.636 457.338 643.205 458.818 643.205C460.311 643.205 461.494 643.636 462.367 644.497C463.253 645.359 463.696 646.62 463.696 648.283V651.377C463.696 653.075 463.253 654.349 462.367 655.199C461.494 656.036 460.311 656.455 458.818 656.455ZM458.818 654.744C459.825 654.744 460.571 654.459 461.057 653.888C461.542 653.306 461.785 652.493 461.785 651.45V648.174C461.785 647.13 461.524 646.329 461.002 645.771C460.48 645.201 459.752 644.916 458.818 644.916C457.872 644.916 457.144 645.207 456.634 645.789C456.125 646.36 455.87 647.154 455.87 648.174V651.45C455.87 652.517 456.112 653.336 456.598 653.907C457.095 654.465 457.835 654.744 458.818 654.744ZM470.549 656.455C469.068 656.455 467.885 656.036 467 655.199C466.126 654.349 465.689 653.075 465.689 651.377V648.283C465.689 646.62 466.126 645.359 467 644.497C467.885 643.636 469.068 643.205 470.549 643.205C472.041 643.205 473.224 643.636 474.098 644.497C474.983 645.359 475.426 646.62 475.426 648.283V651.377C475.426 653.075 474.983 654.349 474.098 655.199C473.224 656.036 472.041 656.455 470.549 656.455ZM470.549 654.744C471.556 654.744 472.302 654.459 472.787 653.888C473.273 653.306 473.515 652.493 473.515 651.45V648.174C473.515 647.13 473.254 646.329 472.733 645.771C472.211 645.201 471.483 644.916 470.549 644.916C469.602 644.916 468.874 645.207 468.365 645.789C467.855 646.36 467.6 647.154 467.6 648.174V651.45C467.6 652.517 467.843 653.336 468.328 653.907C468.826 654.465 469.566 654.744 470.549 654.744ZM482.386 660.677V641.531H484.261V660.677H482.386Z" fill="#E6E6E6"/>
<rect width="47.8" height="46.8" transform="translate(966.25 626.8)" fill="#292929"/>
<path d="M977.599 654.7V645.6H980.238L982.227 653.764H982.435L984.424 645.6H987.063V654.7H985.698V646.588H985.49L983.514 654.7H981.148L979.172 646.588H978.964V654.7H977.599ZM990.989 654.882C990.53 654.882 990.118 654.804 989.754 654.648C989.399 654.492 989.113 654.262 988.896 653.959C988.688 653.655 988.584 653.287 988.584 652.854C988.584 652.412 988.688 652.048 988.896 651.762C989.113 651.467 989.403 651.246 989.767 651.099C990.14 650.951 990.56 650.878 991.028 650.878H992.978V650.462C992.978 650.089 992.866 649.79 992.64 649.565C992.415 649.339 992.068 649.227 991.6 649.227C991.141 649.227 990.79 649.335 990.547 649.552C990.305 649.768 990.144 650.05 990.066 650.397L988.818 649.994C988.922 649.647 989.087 649.335 989.312 649.058C989.546 648.772 989.854 648.542 990.235 648.369C990.617 648.195 991.076 648.109 991.613 648.109C992.445 648.109 993.1 648.321 993.576 648.746C994.053 649.17 994.291 649.773 994.291 650.553V653.192C994.291 653.452 994.413 653.582 994.655 653.582H995.201V654.7H994.2C993.897 654.7 993.65 654.622 993.459 654.466C993.269 654.31 993.173 654.097 993.173 653.829V653.79H992.978C992.909 653.92 992.805 654.071 992.666 654.245C992.528 654.418 992.324 654.57 992.055 654.7C991.787 654.821 991.431 654.882 990.989 654.882ZM991.184 653.777C991.722 653.777 992.155 653.625 992.484 653.322C992.814 653.01 992.978 652.585 992.978 652.048V651.918H991.106C990.751 651.918 990.465 651.996 990.248 652.152C990.032 652.299 989.923 652.52 989.923 652.815C989.923 653.109 990.036 653.343 990.261 653.517C990.487 653.69 990.794 653.777 991.184 653.777ZM995.957 654.7L998.401 651.463L996.009 648.291H997.582L999.259 650.592H999.467L1001.14 648.291H1002.73L1000.33 651.463L1002.77 654.7H1001.17L999.467 652.347H999.259L997.556 654.7H995.957Z" fill="#E6E6E6"/>
<rect width="600.6" height="54.6" transform="translate(414.75 721.7)" fill="#D6D6D6"/>
<path d="M645.025 755L643.151 742.26H645.116L646.645 753.671H646.936L648.902 742.26H652.342L654.307 753.671H654.598L656.109 742.26H658.075L656.2 755H652.76L650.758 743.425H650.467L648.483 755H645.025ZM660.072 755V746.027H661.946V755H660.072ZM661.018 744.808C660.654 744.808 660.345 744.692 660.09 744.462C659.847 744.219 659.726 743.91 659.726 743.534C659.726 743.158 659.847 742.854 660.09 742.624C660.345 742.381 660.654 742.26 661.018 742.26C661.394 742.26 661.703 742.381 661.946 742.624C662.189 742.854 662.31 743.158 662.31 743.534C662.31 743.91 662.189 744.219 661.946 744.462C661.703 744.692 661.394 744.808 661.018 744.808ZM668.095 755C667.549 755 667.112 754.836 666.785 754.508C666.469 754.181 666.312 753.744 666.312 753.198V747.611H663.836V746.027H666.312V743.061H668.186V746.027H670.862V747.611H668.186V752.87C668.186 753.234 668.356 753.416 668.696 753.416H670.57V755H668.095ZM673.064 755V742.26H674.939V747.301H675.23C675.351 747.071 675.521 746.846 675.739 746.628C675.97 746.409 676.267 746.233 676.631 746.1C677.007 745.954 677.48 745.882 678.051 745.882C678.73 745.882 679.331 746.033 679.853 746.337C680.386 746.64 680.805 747.071 681.108 747.629C681.412 748.175 681.563 748.836 681.563 749.613V755H679.689V749.758C679.689 748.982 679.495 748.411 679.106 748.047C678.718 747.671 678.184 747.483 677.505 747.483C676.728 747.483 676.103 747.738 675.63 748.248C675.169 748.757 674.939 749.497 674.939 750.468V755H673.064ZM687.974 755.255C687.234 755.255 686.548 755.073 685.917 754.709C685.286 754.345 684.777 753.823 684.389 753.143C684.012 752.452 683.824 751.621 683.824 750.65V750.377C683.824 749.418 684.012 748.593 684.389 747.902C684.765 747.21 685.268 746.682 685.899 746.318C686.53 745.954 687.222 745.772 687.974 745.772C688.556 745.772 689.042 745.845 689.43 745.991C689.83 746.136 690.158 746.324 690.413 746.555C690.668 746.773 690.862 747.004 690.995 747.247H691.286V742.26H693.161V755H691.323V753.726H691.032C690.801 754.114 690.449 754.466 689.976 754.781C689.515 755.097 688.848 755.255 687.974 755.255ZM688.502 753.617C689.315 753.617 689.982 753.356 690.504 752.834C691.038 752.312 691.305 751.566 691.305 750.595V750.432C691.305 749.473 691.044 748.733 690.522 748.211C690 747.689 689.327 747.429 688.502 747.429C687.701 747.429 687.034 747.689 686.5 748.211C685.978 748.733 685.717 749.473 685.717 750.432V750.595C685.717 751.566 685.978 752.312 686.5 752.834C687.034 753.356 687.701 753.617 688.502 753.617ZM695.921 755V746.027H697.759V747.083H698.05C698.196 746.707 698.426 746.434 698.742 746.264C699.069 746.082 699.47 745.991 699.943 745.991H701.017V747.683H699.87C699.263 747.683 698.766 747.853 698.378 748.193C697.989 748.521 697.795 749.03 697.795 749.722V755H695.921ZM705.495 755.255C704.852 755.255 704.275 755.145 703.766 754.927C703.268 754.709 702.868 754.387 702.564 753.962C702.273 753.538 702.128 753.022 702.128 752.415C702.128 751.797 702.273 751.287 702.564 750.887C702.868 750.474 703.274 750.165 703.784 749.958C704.306 749.752 704.894 749.649 705.549 749.649H708.279V749.067C708.279 748.545 708.121 748.126 707.806 747.811C707.491 747.495 707.005 747.338 706.35 747.338C705.707 747.338 705.216 747.489 704.876 747.793C704.536 748.096 704.312 748.49 704.202 748.976L702.455 748.411C702.601 747.926 702.831 747.489 703.147 747.101C703.474 746.701 703.905 746.379 704.439 746.136C704.973 745.894 705.616 745.772 706.368 745.772C707.533 745.772 708.449 746.07 709.116 746.664C709.784 747.259 710.117 748.102 710.117 749.194V752.889C710.117 753.253 710.287 753.435 710.627 753.435H711.391V755H709.99C709.565 755 709.22 754.891 708.953 754.672C708.686 754.454 708.552 754.156 708.552 753.78V753.726H708.279C708.182 753.908 708.037 754.12 707.842 754.363C707.648 754.605 707.363 754.818 706.987 755C706.611 755.17 706.113 755.255 705.495 755.255ZM705.768 753.708C706.52 753.708 707.127 753.495 707.588 753.071C708.049 752.634 708.279 752.039 708.279 751.287V751.105H705.658C705.161 751.105 704.761 751.214 704.457 751.433C704.154 751.639 704.002 751.948 704.002 752.361C704.002 752.773 704.16 753.101 704.475 753.344C704.791 753.586 705.222 753.708 705.768 753.708ZM714.09 755L712.561 746.027H714.436L715.564 753.744H715.856L717.421 746.027H720.46L722.007 753.744H722.298L723.427 746.027H725.301L723.773 755H720.624L719.077 747.301H718.786L717.239 755H714.09ZM734.945 755.255C734.302 755.255 733.726 755.145 733.216 754.927C732.719 754.709 732.318 754.387 732.015 753.962C731.724 753.538 731.578 753.022 731.578 752.415C731.578 751.797 731.724 751.287 732.015 750.887C732.318 750.474 732.725 750.165 733.234 749.958C733.756 749.752 734.345 749.649 735 749.649H737.73V749.067C737.73 748.545 737.572 748.126 737.257 747.811C736.941 747.495 736.456 747.338 735.801 747.338C735.158 747.338 734.666 747.489 734.326 747.793C733.987 748.096 733.762 748.49 733.653 748.976L731.906 748.411C732.051 747.926 732.282 747.489 732.597 747.101C732.925 746.701 733.356 746.379 733.89 746.136C734.423 745.894 735.067 745.772 735.819 745.772C736.984 745.772 737.9 746.07 738.567 746.664C739.234 747.259 739.568 748.102 739.568 749.194V752.889C739.568 753.253 739.738 753.435 740.078 753.435H740.842V755H739.441C739.016 755 738.67 754.891 738.403 754.672C738.136 754.454 738.003 754.156 738.003 753.78V753.726H737.73C737.633 753.908 737.487 754.12 737.293 754.363C737.099 754.605 736.814 754.818 736.438 755C736.061 755.17 735.564 755.255 734.945 755.255ZM735.218 753.708C735.97 753.708 736.577 753.495 737.038 753.071C737.499 752.634 737.73 752.039 737.73 751.287V751.105H735.109C734.612 751.105 734.211 751.214 733.908 751.433C733.604 751.639 733.453 751.948 733.453 752.361C733.453 752.773 733.611 753.101 733.926 753.344C734.241 753.586 734.672 753.708 735.218 753.708ZM742.015 750.559V750.286C742.015 749.34 742.203 748.533 742.579 747.865C742.967 747.198 743.477 746.682 744.108 746.318C744.739 745.954 745.43 745.772 746.182 745.772C747.056 745.772 747.723 745.936 748.184 746.264C748.658 746.591 749.003 746.943 749.222 747.319H749.513V746.027H751.333V756.838C751.333 757.384 751.169 757.821 750.842 758.148C750.526 758.476 750.089 758.64 749.531 758.64H743.489V757.002H748.949C749.301 757.002 749.477 756.82 749.477 756.456V753.598H749.185C749.052 753.817 748.864 754.041 748.621 754.272C748.379 754.502 748.057 754.69 747.657 754.836C747.268 754.982 746.777 755.054 746.182 755.054C745.43 755.054 744.732 754.878 744.089 754.527C743.458 754.163 742.955 753.647 742.579 752.98C742.203 752.3 742.015 751.493 742.015 750.559ZM746.692 753.416C747.505 753.416 748.172 753.162 748.694 752.652C749.228 752.13 749.495 751.414 749.495 750.504V750.341C749.495 749.406 749.234 748.69 748.712 748.193C748.19 747.683 747.517 747.429 746.692 747.429C745.891 747.429 745.224 747.683 744.69 748.193C744.168 748.69 743.907 749.406 743.907 750.341V750.504C743.907 751.414 744.168 752.13 744.69 752.652C745.224 753.162 745.891 753.416 746.692 753.416ZM754.038 755V742.26H762.065V744.043H756.004V747.702H761.555V749.485H756.004V753.216H762.156V755H754.038ZM768.973 755.255C767.966 755.255 767.099 755.073 766.371 754.709C765.655 754.345 765.097 753.823 764.696 753.143C764.308 752.452 764.114 751.615 764.114 750.632V742.26H766.098V750.686C766.098 751.584 766.346 752.276 766.844 752.761C767.341 753.246 768.051 753.489 768.973 753.489C769.895 753.489 770.605 753.246 771.103 752.761C771.6 752.276 771.849 751.584 771.849 750.686V742.26H773.814V750.632C773.814 751.615 773.62 752.452 773.232 753.143C772.844 753.823 772.286 754.345 771.558 754.709C770.83 755.073 769.968 755.255 768.973 755.255ZM776.38 755V742.26H781.73C782.519 742.26 783.211 742.399 783.805 742.678C784.412 742.945 784.879 743.334 785.207 743.843C785.546 744.353 785.716 744.959 785.716 745.663V745.863C785.716 746.664 785.522 747.307 785.134 747.793C784.758 748.266 784.297 748.599 783.751 748.794V749.085C784.212 749.109 784.582 749.267 784.861 749.558C785.14 749.837 785.279 750.243 785.279 750.777V755H783.296V751.05C783.296 750.723 783.211 750.462 783.041 750.268C782.871 750.074 782.598 749.977 782.222 749.977H778.345V755H776.38ZM778.345 748.193H781.512C782.216 748.193 782.762 748.017 783.15 747.665C783.538 747.301 783.732 746.81 783.732 746.191V746.045C783.732 745.427 783.538 744.941 783.15 744.589C782.774 744.225 782.228 744.043 781.512 744.043H778.345V748.193Z" fill="#050505"/>
</g>
<defs>
<linearGradient id="paint0_linear_31_10101" x1="435.473" y1="418.462" x2="452.819" y2="403.168" gradientUnits="userSpaceOnUse">
<stop offset="0.0729167" stop-color="#AAC4FD"/>
<stop offset="1" stop-color="#76A0FC"/>
</linearGradient>
<clipPath id="clip0_31_10101">
<rect width="1430" height="884" fill="white" transform="translate(0.0500488 0.399902)"/>
</clipPath>
<clipPath id="clip1_31_10101">
<rect width="31.2" height="31.2" fill="white" transform="translate(430.35 393.5)"/>
</clipPath>
<clipPath id="clip2_31_10101">
<rect width="31.2" height="31.2" fill="white" transform="translate(430.35 450.7)"/>
</clipPath>
</defs>
</svg>
